<svg version="1.1" viewBox="0.0 0.0 600.0 371.0" fill="none" stroke="none" stroke-linecap="square" stroke-miterlimit="10" width="600" height="371" xmlns:xlink="http://www.w3.org/1999/xlink" xmlns="http://www.w3.org/2000/svg"><path fill="#ffffff" d="M0 0L600.0 0L600.0 371.0L0 371.0L0 0Z" fill-rule="nonzero"/><path stroke="#333333" stroke-width="1.0" stroke-linecap="butt" d="M45.5 332.5L521.5 332.5" fill-rule="nonzero"/><path stroke="#cccccc" stroke-width="1.0" stroke-linecap="butt" d="M45.5 255.5L521.5 255.5" fill-rule="nonzero"/><path stroke="#cccccc" stroke-width="1.0" stroke-linecap="butt" d="M45.5 179.5L521.5 179.5" fill-rule="nonzero"/><path stroke="#cccccc" stroke-width="1.0" stroke-linecap="butt" d="M45.5 102.5L521.5 102.5" fill-rule="nonzero"/><path stroke="#cccccc" stroke-width="1.0" stroke-linecap="butt" d="M45.5 25.5L521.5 25.5" fill-rule="nonzero"/><clipPath id="id_0"><path d="M45.55 25.55L521.19 25.55L521.19 332.45L45.55 332.45L45.55 25.55Z" clip-rule="nonzero"/></clipPath><path stroke="#000000" stroke-width="2.0" stroke-linecap="butt" stroke-opacity="0.0" clip-path="url(#id_0)" d="M121.0 332.0L72.0 332.0L72.0 332.0L121.0 332.0Z" fill-rule="nonzero"/><path fill="#4285f4" clip-path="url(#id_0)" d="M121.0 332.0L72.0 332.0L72.0 332.0L121.0 332.0Z" fill-rule="nonzero"/><path stroke="#000000" stroke-width="2.0" stroke-linecap="butt" stroke-opacity="0.0" clip-path="url(#id_0)" d="M196.0 332.0L147.0 332.0L147.0 248.0L196.0 248.0Z" fill-rule="nonzero"/><path fill="#4285f4" clip-path="url(#id_0)" d="M196.0 332.0L147.0 332.0L147.0 248.0L196.0 248.0Z" fill-rule="nonzero"/><path stroke="#000000" stroke-width="2.0" stroke-linecap="butt" stroke-opacity="0.0" clip-path="url(#id_0)" d="M271.0 332.0L222.0 332.0L222.0 263.0L271.0 263.0Z" fill-rule="nonzero"/><path fill="#4285f4" clip-path="url(#id_0)" d="M271.0 332.0L222.0 332.0L222.0 263.0L271.0 263.0Z" fill-rule="nonzero"/><path stroke="#000000" stroke-width="2.0" stroke-linecap="butt" stroke-opacity="0.0" clip-path="url(#id_0)" d="M346.0 332.0L297.0 332.0L297.0 325.0L346.0 325.0Z" fill-rule="nonzero"/><path fill="#4285f4" clip-path="url(#id_0)" d="M346.0 332.0L297.0 332.0L297.0 325.0L346.0 325.0Z" fill-rule="nonzero"/><path stroke="#000000" stroke-width="2.0" stroke-linecap="butt" stroke-opacity="0.0" clip-path="url(#id_0)" d="M421.0 332.0L372.0 332.0L372.0 332.0L421.0 332.0Z" fill-rule="nonzero"/><path fill="#4285f4" clip-path="url(#id_0)" d="M421.0 332.0L372.0 332.0L372.0 332.0L421.0 332.0Z" fill-rule="nonzero"/><path stroke="#000000" stroke-width="2.0" stroke-linecap="butt" stroke-opacity="0.0" clip-path="url(#id_0)" d="M496.0 332.0L447.0 332.0L447.0 332.0L496.0 332.0Z" fill-rule="nonzero"/><path fill="#4285f4" clip-path="url(#id_0)" d="M496.0 332.0L447.0 332.0L447.0 332.0L496.0 332.0Z" fill-rule="nonzero"/><path stroke="#000000" stroke-width="2.0" stroke-linecap="butt" stroke-opacity="0.0" clip-path="url(#id_0)" d="M121.0 332.0L72.0 332.0L72.0 325.0L121.0 325.0Z" fill-rule="nonzero"/><path fill="#ea4335" clip-path="url(#id_0)" d="M121.0 332.0L72.0 332.0L72.0 325.0L121.0 325.0Z" fill-rule="nonzero"/><path stroke="#000000" stroke-width="2.0" stroke-linecap="butt" stroke-opacity="0.0" clip-path="url(#id_0)" d="M196.0 248.0L147.0 248.0L147.0 164.0L196.0 164.0Z" fill-rule="nonzero"/><path fill="#ea4335" clip-path="url(#id_0)" d="M196.0 248.0L147.0 248.0L147.0 164.0L196.0 164.0Z" fill-rule="nonzero"/><path stroke="#000000" stroke-width="2.0" stroke-linecap="butt" stroke-opacity="0.0" clip-path="url(#id_0)" d="M271.0 263.0L222.0 263.0L222.0 263.0L271.0 263.0Z" fill-rule="nonzero"/><path fill="#ea4335" clip-path="url(#id_0)" d="M271.0 263.0L222.0 263.0L222.0 263.0L271.0 263.0Z" fill-rule="nonzero"/><path stroke="#000000" stroke-width="2.0" stroke-linecap="butt" stroke-opacity="0.0" clip-path="url(#id_0)" d="M346.0 325.0L297.0 325.0L297.0 256.0L346.0 256.0Z" fill-rule="nonzero"/><path fill="#ea4335" clip-path="url(#id_0)" d="M346.0 325.0L297.0 325.0L297.0 256.0L346.0 256.0Z" fill-rule="nonzero"/><path stroke="#000000" stroke-width="2.0" stroke-linecap="butt" stroke-opacity="0.0" clip-path="url(#id_0)" d="M421.0 332.0L372.0 332.0L372.0 332.0L421.0 332.0Z" fill-rule="nonzero"/><path fill="#ea4335" clip-path="url(#id_0)" d="M421.0 332.0L372.0 332.0L372.0 332.0L421.0 332.0Z" fill-rule="nonzero"/><path stroke="#000000" stroke-width="2.0" stroke-linecap="butt" stroke-opacity="0.0" clip-path="url(#id_0)" d="M496.0 332.0L447.0 332.0L447.0 302.0L496.0 302.0Z" fill-rule="nonzero"/><path fill="#ea4335" clip-path="url(#id_0)" d="M496.0 332.0L447.0 332.0L447.0 302.0L496.0 302.0Z" fill-rule="nonzero"/><path stroke="#000000" stroke-width="2.0" stroke-linecap="butt" stroke-opacity="0.0" clip-path="url(#id_0)" d="M121.0 325.0L72.0 325.0L72.0 240.0L121.0 240.0Z" fill-rule="nonzero"/><path fill="#fbbc04" clip-path="url(#id_0)" d="M121.0 325.0L72.0 325.0L72.0 240.0L121.0 240.0Z" fill-rule="nonzero"/><path stroke="#000000" stroke-width="2.0" stroke-linecap="butt" stroke-opacity="0.0" clip-path="url(#id_0)" d="M196.0 164.0L147.0 164.0L147.0 164.0L196.0 164.0Z" fill-rule="nonzero"/><path fill="#fbbc04" clip-path="url(#id_0)" d="M196.0 164.0L147.0 164.0L147.0 164.0L196.0 164.0Z" fill-rule="nonzero"/><path stroke="#000000" stroke-width="2.0" stroke-linecap="butt" stroke-opacity="0.0" clip-path="url(#id_0)" d="M271.0 263.0L222.0 263.0L222.0 187.0L271.0 187.0Z" fill-rule="nonzero"/><path fill="#fbbc04" clip-path="url(#id_0)" d="M271.0 263.0L222.0 263.0L222.0 187.0L271.0 187.0Z" fill-rule="nonzero"/><path stroke="#000000" stroke-width="2.0" stroke-linecap="butt" stroke-opacity="0.0" clip-path="url(#id_0)" d="M346.0 256.0L297.0 256.0L297.0 256.0L346.0 256.0Z" fill-rule="nonzero"/><path fill="#fbbc04" clip-path="url(#id_0)" d="M346.0 256.0L297.0 256.0L297.0 256.0L346.0 256.0Z" fill-rule="nonzero"/><path stroke="#000000" stroke-width="2.0" stroke-linecap="butt" stroke-opacity="0.0" clip-path="url(#id_0)" d="M421.0 332.0L372.0 332.0L372.0 256.0L421.0 256.0Z" fill-rule="nonzero"/><path fill="#fbbc04" clip-path="url(#id_0)" d="M421.0 332.0L372.0 332.0L372.0 256.0L421.0 256.0Z" fill-rule="nonzero"/><path stroke="#000000" stroke-width="2.0" stroke-linecap="butt" stroke-opacity="0.0" clip-path="url(#id_0)" d="M496.0 302.0L447.0 302.0L447.0 294.0L496.0 294.0Z" fill-rule="nonzero"/><path fill="#fbbc04" clip-path="url(#id_0)" d="M496.0 302.0L447.0 302.0L447.0 294.0L496.0 294.0Z" fill-rule="nonzero"/><path stroke="#000000" stroke-width="2.0" stroke-linecap="butt" stroke-opacity="0.0" clip-path="url(#id_0)" d="M121.0 240.0L72.0 240.0L72.0 240.0L121.0 240.0Z" fill-rule="nonzero"/><path fill="#34a853" clip-path="url(#id_0)" d="M121.0 240.0L72.0 240.0L72.0 240.0L121.0 240.0Z" fill-rule="nonzero"/><path stroke="#000000" stroke-width="2.0" stroke-linecap="butt" stroke-opacity="0.0" clip-path="url(#id_0)" d="M196.0 164.0L147.0 164.0L147.0 156.0L196.0 156.0Z" fill-rule="nonzero"/><path fill="#34a853" clip-path="url(#id_0)" d="M196.0 164.0L147.0 164.0L147.0 156.0L196.0 156.0Z" fill-rule="nonzero"/><path stroke="#000000" stroke-width="2.0" stroke-linecap="butt" stroke-opacity="0.0" clip-path="url(#id_0)" d="M271.0 187.0L222.0 187.0L222.0 95.0L271.0 95.0Z" fill-rule="nonzero"/><path fill="#34a853" clip-path="url(#id_0)" d="M271.0 187.0L222.0 187.0L222.0 95.0L271.0 95.0Z" fill-rule="nonzero"/><path stroke="#000000" stroke-width="2.0" stroke-linecap="butt" stroke-opacity="0.0" clip-path="url(#id_0)" d="M346.0 256.0L297.0 256.0L297.0 256.0L346.0 256.0Z" fill-rule="nonzero"/><path fill="#34a853" clip-path="url(#id_0)" d="M346.0 256.0L297.0 256.0L297.0 256.0L346.0 256.0Z" fill-rule="nonzero"/><path stroke="#000000" stroke-width="2.0" stroke-linecap="butt" stroke-opacity="0.0" clip-path="url(#id_0)" d="M421.0 256.0L372.0 256.0L372.0 179.0L421.0 179.0Z" fill-rule="nonzero"/><path fill="#34a853" clip-path="url(#id_0)" d="M421.0 256.0L372.0 256.0L372.0 179.0L421.0 179.0Z" fill-rule="nonzero"/><path stroke="#000000" stroke-width="2.0" stroke-linecap="butt" stroke-opacity="0.0" clip-path="url(#id_0)" d="M496.0 294.0L447.0 294.0L447.0 171.0L496.0 171.0Z" fill-rule="nonzero"/><path fill="#34a853" clip-path="url(#id_0)" d="M496.0 294.0L447.0 294.0L447.0 171.0L496.0 171.0Z" fill-rule="nonzero"/><path stroke="#000000" stroke-width="2.0" stroke-linecap="butt" stroke-opacity="0.0" clip-path="url(#id_0)" d="M121.0 240.0L72.0 240.0L72.0 240.0L121.0 240.0Z" fill-rule="nonzero"/><path fill="#ff6d01" clip-path="url(#id_0)" d="M121.0 240.0L72.0 240.0L72.0 240.0L121.0 240.0Z" fill-rule="nonzero"/><path stroke="#000000" stroke-width="2.0" stroke-linecap="butt" stroke-opacity="0.0" clip-path="url(#id_0)" d="M196.0 156.0L147.0 156.0L147.0 156.0L196.0 156.0Z" fill-rule="nonzero"/><path fill="#ff6d01" clip-path="url(#id_0)" d="M196.0 156.0L147.0 156.0L147.0 156.0L196.0 156.0Z" fill-rule="nonzero"/><path stroke="#000000" stroke-width="2.0" stroke-linecap="butt" stroke-opacity="0.0" clip-path="url(#id_0)" d="M271.0 95.0L222.0 95.0L222.0 95.0L271.0 95.0Z" fill-rule="nonzero"/><path fill="#ff6d01" clip-path="url(#id_0)" d="M271.0 95.0L222.0 95.0L222.0 95.0L271.0 95.0Z" fill-rule="nonzero"/><path stroke="#000000" stroke-width="2.0" stroke-linecap="butt" stroke-opacity="0.0" clip-path="url(#id_0)" d="M346.0 256.0L297.0 256.0L297.0 256.0L346.0 256.0Z" fill-rule="nonzero"/><path fill="#ff6d01" clip-path="url(#id_0)" d="M346.0 256.0L297.0 256.0L297.0 256.0L346.0 256.0Z" fill-rule="nonzero"/><path stroke="#000000" stroke-width="2.0" stroke-linecap="butt" stroke-opacity="0.0" clip-path="url(#id_0)" d="M421.0 179.0L372.0 179.0L372.0 179.0L421.0 179.0Z" fill-rule="nonzero"/><path fill="#ff6d01" clip-path="url(#id_0)" d="M421.0 179.0L372.0 179.0L372.0 179.0L421.0 179.0Z" fill-rule="nonzero"/><path stroke="#000000" stroke-width="2.0" stroke-linecap="butt" stroke-opacity="0.0" clip-path="url(#id_0)" d="M496.0 171.0L447.0 171.0L447.0 171.0L496.0 171.0Z" fill-rule="nonzero"/><path fill="#ff6d01" clip-path="url(#id_0)" d="M496.0 171.0L447.0 171.0L447.0 171.0L496.0 171.0Z" fill-rule="nonzero"/><path stroke="#000000" stroke-width="2.0" stroke-linecap="butt" stroke-opacity="0.0" clip-path="url(#id_0)" d="M121.0 240.0L72.0 240.0L72.0 181.0C72.0 179.89543 72.89543 179.0 74.0 179.0L119.0 179.0C120.10457 179.0 121.0 179.89543 121.0 181.0Z" fill-rule="nonzero"/><path fill="#46bdc6" clip-path="url(#id_0)" d="M121.0 240.0L72.0 240.0L72.0 181.0C72.0 179.89543 72.89543 179.0 74.0 179.0L119.0 179.0C120.10457 179.0 121.0 179.89543 121.0 181.0Z" fill-rule="nonzero"/><path stroke="#000000" stroke-width="2.0" stroke-linecap="butt" stroke-opacity="0.0" clip-path="url(#id_0)" d="M196.0 156.0L147.0 156.0L147.0 156.0L196.0 156.0Z" fill-rule="nonzero"/><path fill="#46bdc6" clip-path="url(#id_0)" d="M196.0 156.0L147.0 156.0L147.0 156.0L196.0 156.0Z" fill-rule="nonzero"/><path stroke="#000000" stroke-width="2.0" stroke-linecap="butt" stroke-opacity="0.0" clip-path="url(#id_0)" d="M271.0 95.0L222.0 95.0L222.0 95.0L271.0 95.0Z" fill-rule="nonzero"/><path fill="#46bdc6" clip-path="url(#id_0)" d="M271.0 95.0L222.0 95.0L222.0 95.0L271.0 95.0Z" fill-rule="nonzero"/><path stroke="#000000" stroke-width="2.0" stroke-linecap="butt" stroke-opacity="0.0" clip-path="url(#id_0)" d="M346.0 256.0L297.0 256.0L297.0 181.0C297.0 179.89543 297.89542 179.0 299.0 179.0L344.0 179.0C345.10458 179.0 346.0 179.89543 346.0 181.0Z" fill-rule="nonzero"/><path fill="#46bdc6" clip-path="url(#id_0)" d="M346.0 256.0L297.0 256.0L297.0 181.0C297.0 179.89543 297.89542 179.0 299.0 179.0L344.0 179.0C345.10458 179.0 346.0 179.89543 346.0 181.0Z" fill-rule="nonzero"/><path stroke="#000000" stroke-width="2.0" stroke-linecap="butt" stroke-opacity="0.0" clip-path="url(#id_0)" d="M421.0 179.0L372.0 179.0L372.0 173.0C372.0 171.89543 372.89542 171.0 374.0 171.0L419.0 171.0C420.10458 171.0 421.0 171.89543 421.0 173.0Z" fill-rule="nonzero"/><path fill="#46bdc6" clip-path="url(#id_0)" d="M421.0 179.0L372.0 179.0L372.0 173.0C372.0 171.89543 372.89542 171.0 374.0 171.0L419.0 171.0C420.10458 171.0 421.0 171.89543 421.0 173.0Z" fill-rule="nonzero"/><path stroke="#000000" stroke-width="2.0" stroke-linecap="butt" stroke-opacity="0.0" clip-path="url(#id_0)" d="M496.0 171.0L447.0 171.0L447.0 135.0C447.0 133.89543 447.89542 133.0 449.0 133.0L494.0 133.0C495.10458 133.0 496.0 133.89543 496.0 135.0Z" fill-rule="nonzero"/><path fill="#46bdc6" clip-path="url(#id_0)" d="M496.0 171.0L447.0 171.0L447.0 135.0C447.0 133.89543 447.89542 133.0 449.0 133.0L494.0 133.0C495.10458 133.0 496.0 133.89543 496.0 135.0Z" fill-rule="nonzero"/><path fill="#000000" d="M33.05 332.21564Q33.05 330.6844 33.3625 329.7625Q33.675 328.825 34.284374 328.325Q34.909374 327.825 35.846874 327.825Q36.534374 327.825 37.05 328.10626Q37.58125 328.3875 37.925 328.91876Q38.26875 329.4344 38.45625 330.1844Q38.64375 330.9344 38.64375 332.21564Q38.64375 333.73126 38.33125 334.65314Q38.034374 335.575 37.409374 336.09064Q36.8 336.59064 35.846874 336.59064Q34.6125 336.59064 33.89375 335.7Q33.05 334.6375 33.05 332.21564ZM34.128124 332.21564Q34.128124 334.325 34.628124 335.02814Q35.128124 335.73126 35.846874 335.73126Q36.58125 335.73126 37.065624 335.02814Q37.565624 334.325 37.565624 332.21564Q37.565624 330.09064 37.065624 329.40314Q36.58125 328.7 35.83125 328.7Q35.1125 328.7 34.675 329.3094Q34.128124 330.09064 34.128124 332.21564Z" fill-rule="nonzero"/><path fill="#000000" d="M33.05 257.475L34.159374 257.38126Q34.284374 258.19376 34.721874 258.6Q35.175 259.00626 35.815624 259.00626Q36.565624 259.00626 37.096874 258.42813Q37.628124 257.85 37.628124 256.9125Q37.628124 256.00626 37.1125 255.49063Q36.6125 254.95938 35.784374 254.95938Q35.284374 254.95938 34.8625 255.19376Q34.45625 255.42813 34.221874 255.7875L33.2375 255.6625L34.065624 251.25626L38.346874 251.25626L38.346874 252.25626L34.909374 252.25626L34.45625 254.56876Q35.221874 254.02188 36.065624 254.02188Q37.190624 254.02188 37.95625 254.80313Q38.7375 255.58438 38.7375 256.81876Q38.7375 257.975 38.065624 258.83438Q37.2375 259.86563 35.815624 259.86563Q34.64375 259.86563 33.89375 259.20938Q33.159374 258.55313 33.05 257.475Z" fill-rule="nonzero"/><path fill="#000000" d="M30.01875 183.0L28.971874 183.0L28.971874 176.28125Q28.58125 176.64062 27.95625 177.01562Q27.346874 177.375 26.8625 177.54688L26.8625 176.53125Q27.7375 176.10938 28.39375 175.53125Q29.065624 174.9375 29.346874 174.375L30.01875 174.375L30.01875 183.0ZM33.05 178.76562Q33.05 177.23438 33.3625 176.3125Q33.675 175.375 34.284374 174.875Q34.909374 174.375 35.846874 174.375Q36.534374 174.375 37.05 174.65625Q37.58125 174.9375 37.925 175.46875Q38.26875 175.98438 38.45625 176.73438Q38.64375 177.48438 38.64375 178.76562Q38.64375 180.28125 38.33125 181.20312Q38.034374 182.125 37.409374 182.64062Q36.8 183.14062 35.846874 183.14062Q34.6125 183.14062 33.89375 182.25Q33.05 181.1875 33.05 178.76562ZM34.128124 178.76562Q34.128124 180.875 34.628124 181.57812Q35.128124 182.28125 35.846874 182.28125Q36.58125 182.28125 37.065624 181.57812Q37.565624 180.875 37.565624 178.76562Q37.565624 176.64062 37.065624 175.95312Q36.58125 175.25 35.83125 175.25Q35.1125 175.25 34.675 175.85938Q34.128124 176.64062 34.128124 178.76562Z" fill-rule="nonzero"/><path fill="#000000" d="M30.01875 106.275L28.971874 106.275L28.971874 99.55625Q28.58125 99.91563 27.95625 100.29063Q27.346874 100.65 26.8625 100.82188L26.8625 99.80625Q27.7375 99.38438 28.39375 98.80625Q29.065624 98.2125 29.346874 97.65L30.01875 97.65L30.01875 106.275ZM33.05 104.025L34.159374 103.93125Q34.284374 104.74375 34.721874 105.15Q35.175 105.55625 35.815624 105.55625Q36.565624 105.55625 37.096874 104.97813Q37.628124 104.4 37.628124 103.4625Q37.628124 102.55625 37.1125 102.04063Q36.6125 101.50938 35.784374 101.50938Q35.284374 101.50938 34.8625 101.74375Q34.45625 101.97813 34.221874 102.3375L33.2375 102.2125L34.065624 97.80625L38.346874 97.80625L38.346874 98.80625L34.909374 98.80625L34.45625 101.11875Q35.221874 100.57188 36.065624 100.57188Q37.190624 100.57188 37.95625 101.35313Q38.7375 102.13438 38.7375 103.36875Q38.7375 104.525 38.065624 105.38438Q37.2375 106.41563 35.815624 106.41563Q34.64375 106.41563 33.89375 105.75938Q33.159374 105.10313 33.05 104.025Z" fill-rule="nonzero"/><path fill="#000000" d="M31.596874 28.534374L31.596874 29.55L25.909374 29.55Q25.909374 29.175 26.034374 28.815624Q26.253124 28.2375 26.721874 27.675Q27.20625 27.1125 28.1125 26.378124Q29.51875 25.221874 30.003124 24.55Q30.503124 23.878124 30.503124 23.284374Q30.503124 22.659374 30.05 22.2375Q29.596874 21.8 28.878124 21.8Q28.1125 21.8 27.659374 22.253124Q27.20625 22.70625 27.190624 23.51875L26.1125 23.409374Q26.221874 22.190624 26.940624 21.565624Q27.675 20.925 28.909374 20.925Q30.14375 20.925 30.8625 21.6125Q31.58125 22.3 31.58125 23.315624Q31.58125 23.83125 31.3625 24.33125Q31.159374 24.815624 30.659374 25.378124Q30.175 25.925 29.05 26.878124Q28.096874 27.675 27.815624 27.971874Q27.55 28.253124 27.378124 28.534374L31.596874 28.534374ZM33.05 25.315624Q33.05 23.784374 33.3625 22.8625Q33.675 21.925 34.284374 21.425Q34.909374 20.925 35.846874 20.925Q36.534374 20.925 37.05 21.20625Q37.58125 21.4875 37.925 22.01875Q38.26875 22.534374 38.45625 23.284374Q38.64375 24.034374 38.64375 25.315624Q38.64375 26.83125 38.33125 27.753124Q38.034374 28.675 37.409374 29.190624Q36.8 29.690624 35.846874 29.690624Q34.6125 29.690624 33.89375 28.8Q33.05 27.7375 33.05 25.315624ZM34.128124 25.315624Q34.128124 27.425 34.628124 28.128124Q35.128124 28.83125 35.846874 28.83125Q36.58125 28.83125 37.065624 28.128124Q37.565624 27.425 37.565624 25.315624Q37.565624 23.190624 37.065624 22.503124Q36.58125 21.8 35.83125 21.8Q35.1125 21.8 34.675 22.409374Q34.128124 23.190624 34.128124 25.315624Z" fill-rule="nonzero"/><path fill="#000000" d="M75.157036 346.6844L76.219536 346.59064Q76.29766 347.2469 76.57891 347.65314Q76.86016 348.0594 77.438286 348.325Q78.032036 348.575 78.76641 348.575Q79.407036 348.575 79.907036 348.3875Q80.407036 348.1844 80.64141 347.85626Q80.89141 347.5125 80.89141 347.1219Q80.89141 346.71564 80.657036 346.41876Q80.42266 346.10626 79.89141 345.90314Q79.532036 345.7625 78.344536 345.48126Q77.17266 345.2 76.70391 344.95Q76.07891 344.6219 75.782036 344.15314Q75.48516 343.66876 75.48516 343.075Q75.48516 342.4344 75.844536 341.8719Q76.219536 341.29376 76.92266 341.0125Q77.64141 340.71564 78.500786 340.71564Q79.45391 340.71564 80.188286 341.02814Q80.92266 341.325 81.313286 341.9344Q81.70391 342.52814 81.73516 343.27814L80.64141 343.35626Q80.54766 342.54376 80.032036 342.1375Q79.532036 341.71564 78.54766 341.71564Q77.51641 341.71564 77.04766 342.09064Q76.57891 342.46564 76.57891 342.9969Q76.57891 343.46564 76.907036 343.7625Q77.23516 344.0594 78.61016 344.3719Q80.000786 344.6844 80.51641 344.91876Q81.26641 345.27814 81.625786 345.8094Q81.98516 346.325 81.98516 347.02814Q81.98516 347.71564 81.594536 348.325Q81.20391 348.91876 80.469536 349.2625Q79.73516 349.59064 78.813286 349.59064Q77.64141 349.59064 76.844536 349.2625Q76.063286 348.91876 75.61016 348.23126Q75.17266 347.54376 75.157036 346.6844ZM83.407036 342.075L83.407036 340.85626L84.469536 340.85626L84.469536 342.075L83.407036 342.075ZM83.407036 349.45L83.407036 343.23126L84.469536 343.23126L84.469536 349.45L83.407036 349.45ZM86.407036 349.45L86.407036 343.23126L87.344536 343.23126L87.344536 344.10626Q87.64141 343.6375 88.125786 343.3719Q88.61016 343.09064 89.23516 343.09064Q89.92266 343.09064 90.36016 343.3719Q90.813286 343.65314 90.98516 344.16876Q91.73516 343.09064 92.907036 343.09064Q93.844536 343.09064 94.32891 343.60626Q94.82891 344.10626 94.82891 345.1844L94.82891 349.45L93.782036 349.45L93.782036 345.52814Q93.782036 344.90314 93.67266 344.6219Q93.57891 344.34064 93.313286 344.16876Q93.04766 343.9969 92.67266 343.9969Q92.01641 343.9969 91.57891 344.4344Q91.157036 344.8719 91.157036 345.84064L91.157036 349.45L90.094536 349.45L90.094536 345.40314Q90.094536 344.7 89.82891 344.35626Q89.57891 343.9969 89.000786 343.9969Q88.54766 343.9969 88.17266 344.23126Q87.79766 344.46564 87.625786 344.91876Q87.45391 345.3719 87.45391 346.21564L87.45391 349.45L86.407036 349.45ZM97.01641 346.34064Q97.01641 344.60626 97.969536 343.77814Q98.76641 343.09064 99.92266 343.09064Q101.20391 343.09064 102.01641 343.9344Q102.844536 344.7625 102.844536 346.2469Q102.844536 347.45 102.48516 348.1375Q102.125786 348.825 101.42266 349.21564Q100.73516 349.59064 99.92266 349.59064Q98.625786 349.59064 97.813286 348.7625Q97.01641 347.91876 97.01641 346.34064ZM98.094536 346.34064Q98.094536 347.52814 98.61016 348.1219Q99.14141 348.71564 99.92266 348.71564Q100.719536 348.71564 101.23516 348.1219Q101.750786 347.52814 101.750786 346.3094Q101.750786 345.15314 101.219536 344.5594Q100.70391 343.96564 99.92266 343.96564Q99.14141 343.96564 98.61016 344.5594Q98.094536 345.1375 98.094536 346.34064ZM104.407036 349.45L104.407036 343.23126L105.344536 343.23126L105.344536 344.10626Q106.032036 343.09064 107.32891 343.09064Q107.89141 343.09064 108.36016 343.29376Q108.844536 343.4969 109.07891 343.825Q109.313286 344.15314 109.407036 344.59064Q109.45391 344.8875 109.45391 345.6219L109.45391 349.45L108.407036 349.45L108.407036 345.66876Q108.407036 345.0125 108.282036 344.7Q108.157036 344.3875 107.844536 344.2Q107.532036 343.9969 107.11016 343.9969Q106.438286 343.9969 105.938286 344.4344Q105.45391 344.85626 105.45391 346.04376L105.45391 349.45L104.407036 349.45ZM115.657036 347.45L116.750786 347.575Q116.500786 348.52814 115.79766 349.0594Q115.094536 349.59064 114.01641 349.59064Q112.657036 349.59064 111.844536 348.7469Q111.04766 347.90314 111.04766 346.3875Q111.04766 344.825 111.86016 343.96564Q112.67266 343.09064 113.95391 343.09064Q115.20391 343.09064 115.98516 343.9344Q116.782036 344.77814 116.782036 346.325Q116.782036 346.41876 116.782036 346.60626L112.14141 346.60626Q112.20391 347.6375 112.719536 348.1844Q113.23516 348.71564 114.01641 348.71564Q114.594536 348.71564 115.000786 348.41876Q115.42266 348.10626 115.657036 347.45ZM112.20391 345.7469L115.67266 345.7469Q115.61016 344.95 115.282036 344.5594Q114.76641 343.95 113.969536 343.95Q113.23516 343.95 112.73516 344.4344Q112.250786 344.91876 112.20391 345.7469Z" fill-rule="nonzero"/><path fill="#000000" d="M141.4516 349.45L141.4516 340.85626L145.2641 340.85626Q146.42035 340.85626 147.0141 341.09064Q147.60785 341.325 147.96722 341.91876Q148.3266 342.4969 148.3266 343.2Q148.3266 344.1219 147.73285 344.7469Q147.1391 345.3719 145.90472 345.54376Q146.35785 345.7625 146.59222 345.96564Q147.09222 346.41876 147.52972 347.10626L149.02972 349.45L147.59222 349.45L146.46722 347.66876Q145.96722 346.8875 145.6391 346.48126Q145.3266 346.075 145.06097 345.91876Q144.81097 345.7469 144.54535 345.66876Q144.35785 345.6375 143.92035 345.6375L142.59222 345.6375L142.59222 349.45L141.4516 349.45ZM142.59222 344.65314L145.04535 344.65314Q145.81097 344.65314 146.24847 344.4969Q146.7016 344.325 146.92035 343.98126Q147.15472 343.6219 147.15472 343.2Q147.15472 342.59064 146.7016 342.2Q146.2641 341.8094 145.31097 341.8094L142.59222 341.8094L142.59222 344.65314ZM150.31097 342.075L150.31097 340.85626L151.37347 340.85626L151.37347 342.075L150.31097 342.075ZM150.31097 349.45L150.31097 343.23126L151.37347 343.23126L151.37347 349.45L150.31097 349.45ZM157.37347 347.16876L158.40472 347.3094Q158.23285 348.3719 157.52972 348.98126Q156.8266 349.59064 155.81097 349.59064Q154.52972 349.59064 153.74847 348.7625Q152.98285 347.91876 152.98285 346.35626Q152.98285 345.35626 153.31097 344.60626Q153.65472 343.84064 154.3266 343.46564Q155.0141 343.09064 155.8266 343.09064Q156.8266 343.09064 157.46722 343.60626Q158.12347 344.10626 158.31097 345.0594L157.27972 345.21564Q157.1391 344.59064 156.7641 344.27814Q156.3891 343.95 155.85785 343.95Q155.06097 343.95 154.56097 344.52814Q154.06097 345.09064 154.06097 346.325Q154.06097 347.59064 154.54535 348.15314Q155.02972 348.71564 155.79535 348.71564Q156.42035 348.71564 156.8266 348.34064Q157.24847 347.96564 157.37347 347.16876ZM163.37347 347.16876L164.40472 347.3094Q164.23285 348.3719 163.52972 348.98126Q162.8266 349.59064 161.81097 349.59064Q160.52972 349.59064 159.74847 348.7625Q158.98285 347.91876 158.98285 346.35626Q158.98285 345.35626 159.31097 344.60626Q159.65472 343.84064 160.3266 343.46564Q161.0141 343.09064 161.8266 343.09064Q162.8266 343.09064 163.46722 343.60626Q164.12347 344.10626 164.31097 345.0594L163.27972 345.21564Q163.1391 344.59064 162.7641 344.27814Q162.3891 343.95 161.85785 343.95Q161.06097 343.95 160.56097 344.52814Q160.06097 345.09064 160.06097 346.325Q160.06097 347.59064 160.54535 348.15314Q161.02972 348.71564 161.79535 348.71564Q162.42035 348.71564 162.8266 348.34064Q163.24847 347.96564 163.37347 347.16876ZM169.37347 348.6844Q168.77972 349.1844 168.23285 349.3875Q167.7016 349.59064 167.0766 349.59064Q166.04535 349.59064 165.49847 349.09064Q164.9516 348.59064 164.9516 347.8094Q164.9516 347.35626 165.15472 346.98126Q165.35785 346.59064 165.7016 346.3719Q166.04535 346.1375 166.46722 346.02814Q166.7641 345.9344 167.40472 345.85626Q168.67035 345.71564 169.27972 345.4969Q169.27972 345.27814 169.27972 345.23126Q169.27972 344.575 168.98285 344.3094Q168.5766 343.96564 167.77972 343.96564Q167.04535 343.96564 166.68597 344.23126Q166.3266 344.48126 166.15472 345.1375L165.12347 344.9969Q165.2641 344.34064 165.59222 343.9344Q165.92035 343.52814 166.52972 343.3094Q167.1391 343.09064 167.93597 343.09064Q168.73285 343.09064 169.23285 343.27814Q169.73285 343.46564 169.96722 343.7469Q170.2016 344.02814 170.29535 344.46564Q170.34222 344.73126 170.34222 345.4344L170.34222 346.84064Q170.34222 348.3094 170.40472 348.7Q170.48285 349.09064 170.68597 349.45L169.5766 349.45Q169.42035 349.1219 169.37347 348.6844ZM169.27972 346.325Q168.7016 346.5594 167.56097 346.73126Q166.90472 346.825 166.6391 346.95Q166.37347 347.0594 166.21722 347.27814Q166.0766 347.4969 166.0766 347.77814Q166.0766 348.2 166.3891 348.48126Q166.71722 348.7625 167.3266 348.7625Q167.93597 348.7625 168.40472 348.4969Q168.8891 348.23126 169.10785 347.7625Q169.27972 347.40314 169.27972 346.71564L169.27972 346.325ZM172.29535 349.45L172.29535 343.23126L173.24847 343.23126L173.24847 344.16876Q173.60785 343.5125 173.90472 343.3094Q174.21722 343.09064 174.59222 343.09064Q175.12347 343.09064 175.67035 343.41876L175.31097 344.40314Q174.92035 344.16876 174.54535 344.16876Q174.18597 344.16876 173.90472 344.3875Q173.6391 344.59064 173.52972 344.96564Q173.34222 345.52814 173.34222 346.1844L173.34222 349.45L172.29535 349.45ZM180.34222 349.45L180.34222 348.66876Q179.74847 349.59064 178.60785 349.59064Q177.85785 349.59064 177.23285 349.1844Q176.60785 348.7625 176.2641 348.02814Q175.92035 347.29376 175.92035 346.34064Q175.92035 345.41876 176.23285 344.65314Q176.54535 343.8875 177.17035 343.4969Q177.79535 343.09064 178.56097 343.09064Q179.12347 343.09064 179.56097 343.325Q179.99847 343.5594 180.27972 343.9344L180.27972 340.85626L181.3266 340.85626L181.3266 349.45L180.34222 349.45ZM177.0141 346.34064Q177.0141 347.54376 177.5141 348.1375Q178.0141 348.71564 178.7016 348.71564Q179.3891 348.71564 179.87347 348.15314Q180.35785 347.59064 180.35785 346.4344Q180.35785 345.15314 179.85785 344.5594Q179.37347 343.96564 178.65472 343.96564Q177.9516 343.96564 177.48285 344.54376Q177.0141 345.10626 177.0141 346.34064ZM182.92035 346.34064Q182.92035 344.60626 183.87347 343.77814Q184.67035 343.09064 185.8266 343.09064Q187.10785 343.09064 187.92035 343.9344Q188.74847 344.7625 188.74847 346.2469Q188.74847 347.45 188.3891 348.1375Q188.02972 348.825 187.3266 349.21564Q186.6391 349.59064 185.8266 349.59064Q184.52972 349.59064 183.71722 348.7625Q182.92035 347.91876 182.92035 346.34064ZM183.99847 346.34064Q183.99847 347.52814 184.5141 348.1219Q185.04535 348.71564 185.8266 348.71564Q186.62347 348.71564 187.1391 348.1219Q187.65472 347.52814 187.65472 346.3094Q187.65472 345.15314 187.12347 344.5594Q186.60785 343.96564 185.8266 343.96564Q185.04535 343.96564 184.5141 344.5594Q183.99847 345.1375 183.99847 346.34064ZM199.5766 346.4344L200.7016 346.73126Q200.34222 348.1219 199.42035 348.85626Q198.49847 349.59064 197.15472 349.59064Q195.7641 349.59064 194.8891 349.02814Q194.0141 348.46564 193.56097 347.40314Q193.10785 346.325 193.10785 345.09064Q193.10785 343.7469 193.62347 342.7469Q194.1391 341.7469 195.0766 341.23126Q196.02972 340.71564 197.17035 340.71564Q198.4516 340.71564 199.3266 341.3719Q200.21722 342.02814 200.56097 343.21564L199.43597 343.48126Q199.1391 342.54376 198.56097 342.1219Q197.99847 341.6844 197.1391 341.6844Q196.15472 341.6844 195.48285 342.16876Q194.8266 342.6375 194.54535 343.4344Q194.27972 344.23126 194.27972 345.09064Q194.27972 346.1844 194.59222 346.9969Q194.92035 347.8094 195.59222 348.21564Q196.2641 348.6219 197.06097 348.6219Q198.0141 348.6219 198.67035 348.075Q199.34222 347.52814 199.5766 346.4344Z" fill-rule="nonzero"/><path fill="#000000" d="M225.87115 346.075L225.87115 345.075L229.49615 345.0594L229.49615 348.2469Q228.66803 348.91876 227.7774 349.2625Q226.88678 349.59064 225.94928 349.59064Q224.68365 349.59064 223.63678 349.0594Q222.60553 348.5125 222.07428 347.4969Q221.55865 346.46564 221.55865 345.2Q221.55865 343.9344 222.07428 342.85626Q222.60553 341.7625 223.5899 341.2469Q224.57428 340.71564 225.85553 340.71564Q226.79303 340.71564 227.54303 341.0125Q228.29303 341.3094 228.7149 341.85626Q229.1524 342.3875 229.37115 343.2625L228.35553 343.54376Q228.1524 342.8875 227.85553 342.5125Q227.57428 342.1375 227.04303 341.91876Q226.51178 341.6844 225.87115 341.6844Q225.0899 341.6844 224.51178 341.91876Q223.94928 342.15314 223.5899 342.54376Q223.24615 342.9344 223.05865 343.40314Q222.73053 344.2 222.73053 345.1219Q222.73053 346.27814 223.12115 347.0594Q223.5274 347.825 224.2774 348.2Q225.0274 348.575 225.88678 348.575Q226.62115 348.575 227.32428 348.29376Q228.0274 347.9969 228.38678 347.6844L228.38678 346.075L225.87115 346.075ZM230.7149 342.075L230.7149 340.85626L231.7774 340.85626L231.7774 342.075L230.7149 342.075ZM230.7149 349.45L230.7149 343.23126L231.7774 343.23126L231.7774 349.45L230.7149 349.45ZM237.7774 348.6844Q237.18365 349.1844 236.63678 349.3875Q236.10553 349.59064 235.48053 349.59064Q234.44928 349.59064 233.9024 349.09064Q233.35553 348.59064 233.35553 347.8094Q233.35553 347.35626 233.55865 346.98126Q233.76178 346.59064 234.10553 346.3719Q234.44928 346.1375 234.87115 346.02814Q235.16803 345.9344 235.80865 345.85626Q237.07428 345.71564 237.68365 345.4969Q237.68365 345.27814 237.68365 345.23126Q237.68365 344.575 237.38678 344.3094Q236.98053 343.96564 236.18365 343.96564Q235.44928 343.96564 235.0899 344.23126Q234.73053 344.48126 234.55865 345.1375L233.5274 344.9969Q233.66803 344.34064 233.99615 343.9344Q234.32428 343.52814 234.93365 343.3094Q235.54303 343.09064 236.3399 343.09064Q237.13678 343.09064 237.63678 343.27814Q238.13678 343.46564 238.37115 343.7469Q238.60553 344.02814 238.69928 344.46564Q238.74615 344.73126 238.74615 345.4344L238.74615 346.84064Q238.74615 348.3094 238.80865 348.7Q238.88678 349.09064 239.0899 349.45L237.98053 349.45Q237.82428 349.1219 237.7774 348.6844ZM237.68365 346.325Q237.10553 346.5594 235.9649 346.73126Q235.30865 346.825 235.04303 346.95Q234.7774 347.0594 234.62115 347.27814Q234.48053 347.4969 234.48053 347.77814Q234.48053 348.2 234.79303 348.48126Q235.12115 348.7625 235.73053 348.7625Q236.3399 348.7625 236.80865 348.4969Q237.29303 348.23126 237.51178 347.7625Q237.68365 347.40314 237.68365 346.71564L237.68365 346.325ZM244.7774 347.16876L245.80865 347.3094Q245.63678 348.3719 244.93365 348.98126Q244.23053 349.59064 243.2149 349.59064Q241.93365 349.59064 241.1524 348.7625Q240.38678 347.91876 240.38678 346.35626Q240.38678 345.35626 240.7149 344.60626Q241.05865 343.84064 241.73053 343.46564Q242.41803 343.09064 243.23053 343.09064Q244.23053 343.09064 244.87115 343.60626Q245.5274 344.10626 245.7149 345.0594L244.68365 345.21564Q244.54303 344.59064 244.16803 344.27814Q243.79303 343.95 243.26178 343.95Q242.4649 343.95 241.9649 344.52814Q241.4649 345.09064 241.4649 346.325Q241.4649 347.59064 241.94928 348.15314Q242.43365 348.71564 243.19928 348.71564Q243.82428 348.71564 244.23053 348.34064Q244.6524 347.96564 244.7774 347.16876ZM246.32428 346.34064Q246.32428 344.60626 247.2774 343.77814Q248.07428 343.09064 249.23053 343.09064Q250.51178 343.09064 251.32428 343.9344Q252.1524 344.7625 252.1524 346.2469Q252.1524 347.45 251.79303 348.1375Q251.43365 348.825 250.73053 349.21564Q250.04303 349.59064 249.23053 349.59064Q247.93365 349.59064 247.12115 348.7625Q246.32428 347.91876 246.32428 346.34064ZM247.4024 346.34064Q247.4024 347.52814 247.91803 348.1219Q248.44928 348.71564 249.23053 348.71564Q250.0274 348.71564 250.54303 348.1219Q251.05865 347.52814 251.05865 346.3094Q251.05865 345.15314 250.5274 344.5594Q250.01178 343.96564 249.23053 343.96564Q248.44928 343.96564 247.91803 344.5594Q247.4024 345.1375 247.4024 346.34064ZM253.7149 349.45L253.7149 343.23126L254.6524 343.23126L254.6524 344.10626Q254.94928 343.6375 255.43365 343.3719Q255.91803 343.09064 256.54303 343.09064Q257.23053 343.09064 257.66803 343.3719Q258.12115 343.65314 258.29303 344.16876Q259.04303 343.09064 260.2149 343.09064Q261.1524 343.09064 261.63678 343.60626Q262.13678 344.10626 262.13678 345.1844L262.13678 349.45L261.0899 349.45L261.0899 345.52814Q261.0899 344.90314 260.98053 344.6219Q260.88678 344.34064 260.62115 344.16876Q260.35553 343.9969 259.98053 343.9969Q259.32428 343.9969 258.88678 344.4344Q258.4649 344.8719 258.4649 345.84064L258.4649 349.45L257.4024 349.45L257.4024 345.40314Q257.4024 344.7 257.13678 344.35626Q256.88678 343.9969 256.30865 343.9969Q255.85553 343.9969 255.48053 344.23126Q255.10553 344.46564 254.93365 344.91876Q254.76178 345.3719 254.76178 346.21564L254.76178 349.45L253.7149 349.45ZM264.32428 346.34064Q264.32428 344.60626 265.2774 343.77814Q266.07428 343.09064 267.23053 343.09064Q268.51178 343.09064 269.32428 343.9344Q270.1524 344.7625 270.1524 346.2469Q270.1524 347.45 269.79303 348.1375Q269.43365 348.825 268.73053 349.21564Q268.04303 349.59064 267.23053 349.59064Q265.93365 349.59064 265.12115 348.7625Q264.32428 347.91876 264.32428 346.34064ZM265.4024 346.34064Q265.4024 347.52814 265.91803 348.1219Q266.44928 348.71564 267.23053 348.71564Q268.0274 348.71564 268.54303 348.1219Q269.05865 347.52814 269.05865 346.3094Q269.05865 345.15314 268.5274 344.5594Q268.01178 343.96564 267.23053 343.96564Q266.44928 343.96564 265.91803 344.5594Q265.4024 345.1375 265.4024 346.34064Z" fill-rule="nonzero"/><path fill="#000000" d="M304.74384 349.45L304.74384 340.85626L305.9001 340.85626L310.4157 347.60626L310.4157 340.85626L311.50946 340.85626L311.50946 349.45L310.3376 349.45L305.82196 342.7L305.82196 349.45L304.74384 349.45ZM317.68134 348.6844Q317.0876 349.1844 316.5407 349.3875Q316.00946 349.59064 315.38446 349.59064Q314.3532 349.59064 313.80634 349.09064Q313.25946 348.59064 313.25946 347.8094Q313.25946 347.35626 313.4626 346.98126Q313.6657 346.59064 314.00946 346.3719Q314.3532 346.1375 314.7751 346.02814Q315.07196 345.9344 315.7126 345.85626Q316.9782 345.71564 317.5876 345.4969Q317.5876 345.27814 317.5876 345.23126Q317.5876 344.575 317.2907 344.3094Q316.88446 343.96564 316.0876 343.96564Q315.3532 343.96564 314.99384 344.23126Q314.63446 344.48126 314.4626 345.1375L313.43134 344.9969Q313.57196 344.34064 313.9001 343.9344Q314.2282 343.52814 314.8376 343.3094Q315.44696 343.09064 316.24384 343.09064Q317.0407 343.09064 317.5407 343.27814Q318.0407 343.46564 318.2751 343.7469Q318.50946 344.02814 318.6032 344.46564Q318.6501 344.73126 318.6501 345.4344L318.6501 346.84064Q318.6501 348.3094 318.7126 348.7Q318.7907 349.09064 318.99384 349.45L317.88446 349.45Q317.7282 349.1219 317.68134 348.6844ZM317.5876 346.325Q317.00946 346.5594 315.86884 346.73126Q315.2126 346.825 314.94696 346.95Q314.68134 347.0594 314.5251 347.27814Q314.38446 347.4969 314.38446 347.77814Q314.38446 348.2 314.69696 348.48126Q315.0251 348.7625 315.63446 348.7625Q316.24384 348.7625 316.7126 348.4969Q317.19696 348.23126 317.4157 347.7625Q317.5876 347.40314 317.5876 346.71564L317.5876 346.325ZM320.61884 349.45L320.61884 343.23126L321.55634 343.23126L321.55634 344.10626Q322.24384 343.09064 323.5407 343.09064Q324.1032 343.09064 324.57196 343.29376Q325.05634 343.4969 325.2907 343.825Q325.5251 344.15314 325.61884 344.59064Q325.6657 344.8875 325.6657 345.6219L325.6657 349.45L324.61884 349.45L324.61884 345.66876Q324.61884 345.0125 324.49384 344.7Q324.36884 344.3875 324.05634 344.2Q323.74384 343.9969 323.32196 343.9969Q322.6501 343.9969 322.1501 344.4344Q321.6657 344.85626 321.6657 346.04376L321.6657 349.45L320.61884 349.45ZM331.68134 347.16876L332.7126 347.3094Q332.5407 348.3719 331.8376 348.98126Q331.13446 349.59064 330.11884 349.59064Q328.8376 349.59064 328.05634 348.7625Q327.2907 347.91876 327.2907 346.35626Q327.2907 345.35626 327.61884 344.60626Q327.9626 343.84064 328.63446 343.46564Q329.32196 343.09064 330.13446 343.09064Q331.13446 343.09064 331.7751 343.60626Q332.43134 344.10626 332.61884 345.0594L331.5876 345.21564Q331.44696 344.59064 331.07196 344.27814Q330.69696 343.95 330.1657 343.95Q329.36884 343.95 328.86884 344.52814Q328.36884 345.09064 328.36884 346.325Q328.36884 347.59064 328.8532 348.15314Q329.3376 348.71564 330.1032 348.71564Q330.7282 348.71564 331.13446 348.34064Q331.55634 347.96564 331.68134 347.16876ZM333.57196 351.84064L333.44696 350.85626Q333.7907 350.95 334.05634 350.95Q334.4001 350.95 334.6032 350.825Q334.82196 350.71564 334.9626 350.5125Q335.05634 350.34064 335.2907 349.71564Q335.30634 349.6375 335.38446 349.46564L333.00946 343.23126L334.1501 343.23126L335.44696 346.825Q335.69696 347.5125 335.9001 348.27814Q336.0876 347.54376 336.3376 346.85626L337.6657 343.23126L338.7126 343.23126L336.3532 349.5594Q335.9626 350.575 335.75946 350.96564Q335.4782 351.4969 335.1032 351.73126Q334.74384 351.98126 334.24384 351.98126Q333.94696 351.98126 333.57196 351.84064Z" fill-rule="nonzero"/><path fill="#000000" d="M378.61652 349.45L378.61652 340.85626L380.33527 340.85626L382.36652 346.9344Q382.64777 347.79376 382.77277 348.21564Q382.9134 347.7469 383.2259 346.84064L385.2884 340.85626L386.81964 340.85626L386.81964 349.45L385.7259 349.45L385.7259 342.2625L383.2259 349.45L382.19464 349.45L379.71027 342.1375L379.71027 349.45L378.61652 349.45ZM391.58527 348.6844Q390.99152 349.1844 390.44464 349.3875Q389.9134 349.59064 389.2884 349.59064Q388.25714 349.59064 387.71027 349.09064Q387.1634 348.59064 387.1634 347.8094Q387.1634 347.35626 387.36652 346.98126Q387.56964 346.59064 387.9134 346.3719Q388.25714 346.1375 388.67902 346.02814Q388.9759 345.9344 389.61652 345.85626Q390.88214 345.71564 391.49152 345.4969Q391.49152 345.27814 391.49152 345.23126Q391.49152 344.575 391.19464 344.3094Q390.7884 343.96564 389.99152 343.96564Q389.25714 343.96564 388.89777 344.23126Q388.5384 344.48126 388.36652 345.1375L387.33527 344.9969Q387.4759 344.34064 387.80402 343.9344Q388.13214 343.52814 388.74152 343.3094Q389.3509 343.09064 390.14777 343.09064Q390.94464 343.09064 391.44464 343.27814Q391.94464 343.46564 392.17902 343.7469Q392.4134 344.02814 392.50714 344.46564Q392.55402 344.73126 392.55402 345.4344L392.55402 346.84064Q392.55402 348.3094 392.61652 348.7Q392.69464 349.09064 392.89777 349.45L391.7884 349.45Q391.63214 349.1219 391.58527 348.6844ZM391.49152 346.325Q390.9134 346.5594 389.77277 346.73126Q389.11652 346.825 388.8509 346.95Q388.58527 347.0594 388.42902 347.27814Q388.2884 347.4969 388.2884 347.77814Q388.2884 348.2 388.6009 348.48126Q388.92902 348.7625 389.5384 348.7625Q390.14777 348.7625 390.61652 348.4969Q391.1009 348.23126 391.31964 347.7625Q391.49152 347.40314 391.49152 346.71564L391.49152 346.325ZM396.81964 348.5125L396.9759 349.4344Q396.52277 349.52814 396.17902 349.52814Q395.6009 349.52814 395.2884 349.35626Q394.9759 349.16876 394.83527 348.8719Q394.71027 348.575 394.71027 347.6219L394.71027 344.04376L393.94464 344.04376L393.94464 343.23126L394.71027 343.23126L394.71027 341.6844L395.75714 341.0594L395.75714 343.23126L396.81964 343.23126L396.81964 344.04376L395.75714 344.04376L395.75714 347.6844Q395.75714 348.1375 395.80402 348.2625Q395.86652 348.3875 395.99152 348.46564Q396.11652 348.54376 396.3509 348.54376Q396.5384 348.54376 396.81964 348.5125ZM399.81964 348.5125L399.9759 349.4344Q399.52277 349.52814 399.17902 349.52814Q398.6009 349.52814 398.2884 349.35626Q397.9759 349.16876 397.83527 348.8719Q397.71027 348.575 397.71027 347.6219L397.71027 344.04376L396.94464 344.04376L396.94464 343.23126L397.71027 343.23126L397.71027 341.6844L398.75714 341.0594L398.75714 343.23126L399.81964 343.23126L399.81964 344.04376L398.75714 344.04376L398.75714 347.6844Q398.75714 348.1375 398.80402 348.2625Q398.86652 348.3875 398.99152 348.46564Q399.11652 348.54376 399.3509 348.54376Q399.5384 348.54376 399.81964 348.5125ZM404.77277 347.45L405.86652 347.575Q405.61652 348.52814 404.9134 349.0594Q404.21027 349.59064 403.13214 349.59064Q401.77277 349.59064 400.96027 348.7469Q400.1634 347.90314 400.1634 346.3875Q400.1634 344.825 400.9759 343.96564Q401.7884 343.09064 403.06964 343.09064Q404.31964 343.09064 405.1009 343.9344Q405.89777 344.77814 405.89777 346.325Q405.89777 346.41876 405.89777 346.60626L401.25714 346.60626Q401.31964 347.6375 401.83527 348.1844Q402.3509 348.71564 403.13214 348.71564Q403.71027 348.71564 404.11652 348.41876Q404.5384 348.10626 404.77277 347.45ZM401.31964 345.7469L404.7884 345.7469Q404.7259 344.95 404.39777 344.5594Q403.88214 343.95 403.08527 343.95Q402.3509 343.95 401.8509 344.4344Q401.36652 344.91876 401.31964 345.7469ZM407.13214 346.34064Q407.13214 344.60626 408.08527 343.77814Q408.88214 343.09064 410.0384 343.09064Q411.31964 343.09064 412.13214 343.9344Q412.96027 344.7625 412.96027 346.2469Q412.96027 347.45 412.6009 348.1375Q412.24152 348.825 411.5384 349.21564Q410.8509 349.59064 410.0384 349.59064Q408.74152 349.59064 407.92902 348.7625Q407.13214 347.91876 407.13214 346.34064ZM408.21027 346.34064Q408.21027 347.52814 408.7259 348.1219Q409.25714 348.71564 410.0384 348.71564Q410.83527 348.71564 411.3509 348.1219Q411.86652 347.52814 411.86652 346.3094Q411.86652 345.15314 411.33527 344.5594Q410.81964 343.96564 410.0384 343.96564Q409.25714 343.96564 408.7259 344.5594Q408.21027 345.1375 408.21027 346.34064Z" fill-rule="nonzero"/><path fill="#000000" d="M442.06735 349.45L442.06735 340.85626L445.87985 340.85626Q447.0361 340.85626 447.62985 341.09064Q448.2236 341.325 448.58298 341.91876Q448.94235 342.4969 448.94235 343.2Q448.94235 344.1219 448.3486 344.7469Q447.75485 345.3719 446.52048 345.54376Q446.9736 345.7625 447.20798 345.96564Q447.70798 346.41876 448.14548 347.10626L449.64548 349.45L448.20798 349.45L447.08298 347.66876Q446.58298 346.8875 446.25485 346.48126Q445.94235 346.075 445.67673 345.91876Q445.42673 345.7469 445.1611 345.66876Q444.9736 345.6375 444.5361 345.6375L443.20798 345.6375L443.20798 349.45L442.06735 349.45ZM443.20798 344.65314L445.6611 344.65314Q446.42673 344.65314 446.86423 344.4969Q447.31735 344.325 447.5361 343.98126Q447.77048 343.6219 447.77048 343.2Q447.77048 342.59064 447.31735 342.2Q446.87985 341.8094 445.92673 341.8094L443.20798 341.8094L443.20798 344.65314ZM450.92673 342.075L450.92673 340.85626L451.98923 340.85626L451.98923 342.075L450.92673 342.075ZM450.92673 349.45L450.92673 343.23126L451.98923 343.23126L451.98923 349.45L450.92673 349.45ZM457.98923 347.16876L459.02048 347.3094Q458.8486 348.3719 458.14548 348.98126Q457.44235 349.59064 456.42673 349.59064Q455.14548 349.59064 454.36423 348.7625Q453.5986 347.91876 453.5986 346.35626Q453.5986 345.35626 453.92673 344.60626Q454.27048 343.84064 454.94235 343.46564Q455.62985 343.09064 456.44235 343.09064Q457.44235 343.09064 458.08298 343.60626Q458.73923 344.10626 458.92673 345.0594L457.89548 345.21564Q457.75485 344.59064 457.37985 344.27814Q457.00485 343.95 456.4736 343.95Q455.67673 343.95 455.17673 344.52814Q454.67673 345.09064 454.67673 346.325Q454.67673 347.59064 455.1611 348.15314Q455.64548 348.71564 456.4111 348.71564Q457.0361 348.71564 457.44235 348.34064Q457.86423 347.96564 457.98923 347.16876ZM463.98923 347.16876L465.02048 347.3094Q464.8486 348.3719 464.14548 348.98126Q463.44235 349.59064 462.42673 349.59064Q461.14548 349.59064 460.36423 348.7625Q459.5986 347.91876 459.5986 346.35626Q459.5986 345.35626 459.92673 344.60626Q460.27048 343.84064 460.94235 343.46564Q461.62985 343.09064 462.44235 343.09064Q463.44235 343.09064 464.08298 343.60626Q464.73923 344.10626 464.92673 345.0594L463.89548 345.21564Q463.75485 344.59064 463.37985 344.27814Q463.00485 343.95 462.4736 343.95Q461.67673 343.95 461.17673 344.52814Q460.67673 345.09064 460.67673 346.325Q460.67673 347.59064 461.1611 348.15314Q461.64548 348.71564 462.4111 348.71564Q463.0361 348.71564 463.44235 348.34064Q463.86423 347.96564 463.98923 347.16876ZM469.98923 348.6844Q469.39548 349.1844 468.8486 349.3875Q468.31735 349.59064 467.69235 349.59064Q466.6611 349.59064 466.11423 349.09064Q465.56735 348.59064 465.56735 347.8094Q465.56735 347.35626 465.77048 346.98126Q465.9736 346.59064 466.31735 346.3719Q466.6611 346.1375 467.08298 346.02814Q467.37985 345.9344 468.02048 345.85626Q469.2861 345.71564 469.89548 345.4969Q469.89548 345.27814 469.89548 345.23126Q469.89548 344.575 469.5986 344.3094Q469.19235 343.96564 468.39548 343.96564Q467.6611 343.96564 467.30173 344.23126Q466.94235 344.48126 466.77048 345.1375L465.73923 344.9969Q465.87985 344.34064 466.20798 343.9344Q466.5361 343.52814 467.14548 343.3094Q467.75485 343.09064 468.55173 343.09064Q469.3486 343.09064 469.8486 343.27814Q470.3486 343.46564 470.58298 343.7469Q470.81735 344.02814 470.9111 344.46564Q470.95798 344.73126 470.95798 345.4344L470.95798 346.84064Q470.95798 348.3094 471.02048 348.7Q471.0986 349.09064 471.30173 349.45L470.19235 349.45Q470.0361 349.1219 469.98923 348.6844ZM469.89548 346.325Q469.31735 346.5594 468.17673 346.73126Q467.52048 346.825 467.25485 346.95Q466.98923 347.0594 466.83298 347.27814Q466.69235 347.4969 466.69235 347.77814Q466.69235 348.2 467.00485 348.48126Q467.33298 348.7625 467.94235 348.7625Q468.55173 348.7625 469.02048 348.4969Q469.50485 348.23126 469.7236 347.7625Q469.89548 347.40314 469.89548 346.71564L469.89548 346.325ZM472.9111 349.45L472.9111 343.23126L473.86423 343.23126L473.86423 344.16876Q474.2236 343.5125 474.52048 343.3094Q474.83298 343.09064 475.20798 343.09064Q475.73923 343.09064 476.2861 343.41876L475.92673 344.40314Q475.5361 344.16876 475.1611 344.16876Q474.80173 344.16876 474.52048 344.3875Q474.25485 344.59064 474.14548 344.96564Q473.95798 345.52814 473.95798 346.1844L473.95798 349.45L472.9111 349.45ZM480.95798 349.45L480.95798 348.66876Q480.36423 349.59064 479.2236 349.59064Q478.4736 349.59064 477.8486 349.1844Q477.2236 348.7625 476.87985 348.02814Q476.5361 347.29376 476.5361 346.34064Q476.5361 345.41876 476.8486 344.65314Q477.1611 343.8875 477.7861 343.4969Q478.4111 343.09064 479.17673 343.09064Q479.73923 343.09064 480.17673 343.325Q480.61423 343.5594 480.89548 343.9344L480.89548 340.85626L481.94235 340.85626L481.94235 349.45L480.95798 349.45ZM477.62985 346.34064Q477.62985 347.54376 478.12985 348.1375Q478.62985 348.71564 479.31735 348.71564Q480.00485 348.71564 480.48923 348.15314Q480.9736 347.59064 480.9736 346.4344Q480.9736 345.15314 480.4736 344.5594Q479.98923 343.96564 479.27048 343.96564Q478.56735 343.96564 478.0986 344.54376Q477.62985 345.10626 477.62985 346.34064ZM483.5361 346.34064Q483.5361 344.60626 484.48923 343.77814Q485.2861 343.09064 486.44235 343.09064Q487.7236 343.09064 488.5361 343.9344Q489.36423 344.7625 489.36423 346.2469Q489.36423 347.45 489.00485 348.1375Q488.64548 348.825 487.94235 349.21564Q487.25485 349.59064 486.44235 349.59064Q485.14548 349.59064 484.33298 348.7625Q483.5361 347.91876 483.5361 346.34064ZM484.61423 346.34064Q484.61423 347.52814 485.12985 348.1219Q485.6611 348.71564 486.44235 348.71564Q487.23923 348.71564 487.75485 348.1219Q488.27048 347.52814 488.27048 346.3094Q488.27048 345.15314 487.73923 344.5594Q487.2236 343.96564 486.44235 343.96564Q485.6611 343.96564 485.12985 344.5594Q484.61423 345.1375 484.61423 346.34064ZM496.23923 349.45L496.23923 341.8719L493.4111 341.8719L493.4111 340.85626L500.2236 340.85626L500.2236 341.8719L497.37985 341.8719L497.37985 349.45L496.23923 349.45Z" fill-rule="nonzero"/><path fill="#46bdc6" d="M543.45 20.55C543.45 19.997715 543.8977 19.55 544.45 19.55L554.45 19.55C555.00226 19.55 555.45 19.997715 555.45 20.55L555.45 30.55C555.45 31.102285 555.00226 31.55 554.45 31.55L544.45 31.55C543.8977 31.55 543.45 31.102285 543.45 30.55Z" fill-rule="nonzero"/><path fill="#1a1a1a" d="M566.825 29.55L563.4969 20.95625L564.73126 20.95625L566.96564 27.20625Q567.23126 27.95625 567.41876 28.6125Q567.6219 27.909374 567.8875 27.20625L570.2 20.95625L571.35626 20.95625L567.9969 29.55L566.825 29.55ZM575.4969 27.55L576.59064 27.675Q576.34064 28.628124 575.6375 29.159374Q574.9344 29.690624 573.85626 29.690624Q572.4969 29.690624 571.6844 28.846874Q570.8875 28.003124 570.8875 26.4875Q570.8875 24.925 571.7 24.065624Q572.5125 23.190624 573.79376 23.190624Q575.04376 23.190624 575.825 24.034374Q576.6219 24.878124 576.6219 26.425Q576.6219 26.51875 576.6219 26.70625L571.98126 26.70625Q572.04376 27.7375 572.5594 28.284374Q573.075 28.815624 573.85626 28.815624Q574.4344 28.815624 574.84064 28.51875Q575.2625 28.20625 575.4969 27.55ZM572.04376 25.846874L575.5125 25.846874Q575.45 25.05 575.1219 24.659374Q574.60626 24.05 573.8094 24.05Q573.075 24.05 572.575 24.534374Q572.09064 25.01875 572.04376 25.846874Z" fill-rule="nonzero"/><path fill="#ff6d01" d="M543.45 44.55C543.45 43.997715 543.8977 43.55 544.45 43.55L554.45 43.55C555.00226 43.55 555.45 43.997715 555.45 44.55L555.45 54.55C555.45 55.102283 555.00226 55.55 554.45 55.55L544.45 55.55C543.8977 55.55 543.45 55.102283 543.45 54.55Z" fill-rule="nonzero"/><path fill="#1a1a1a" d="M564.3719 53.55L564.3719 44.95625L567.6219 44.95625Q568.46564 44.95625 568.91876 45.034374Q569.5594 45.14375 569.98126 45.440624Q570.41876 45.7375 570.66876 46.26875Q570.9344 46.8 570.9344 47.440624Q570.9344 48.534374 570.23126 49.3Q569.54376 50.05 567.71564 50.05L565.5125 50.05L565.5125 53.55L564.3719 53.55ZM565.5125 49.05L567.73126 49.05Q568.84064 49.05 569.29376 48.64375Q569.7625 48.221874 569.7625 47.471874Q569.7625 46.940624 569.48126 46.565624Q569.21564 46.175 568.77814 46.05Q568.48126 45.971874 567.71564 45.971874L565.5125 45.971874L565.5125 49.05ZM574.54376 52.6125L574.7 53.534374Q574.2469 53.628124 573.90314 53.628124Q573.325 53.628124 573.0125 53.45625Q572.7 53.26875 572.5594 52.971874Q572.4344 52.675 572.4344 51.721874L572.4344 48.14375L571.66876 48.14375L571.66876 47.33125L572.4344 47.33125L572.4344 45.784374L573.48126 45.159374L573.48126 47.33125L574.54376 47.33125L574.54376 48.14375L573.48126 48.14375L573.48126 51.784374Q573.48126 52.2375 573.52814 52.3625Q573.59064 52.4875 573.71564 52.565624Q573.84064 52.64375 574.075 52.64375Q574.2625 52.64375 574.54376 52.6125Z" fill-rule="nonzero"/><path fill="#34a853" d="M543.45 68.55C543.45 67.99772 543.8977 67.55 544.45 67.55L554.45 67.55C555.00226 67.55 555.45 67.99772 555.45 68.55L555.45 78.55C555.45 79.10229 555.00226 79.55 554.45 79.55L544.45 79.55C543.8977 79.55 543.45 79.10229 543.45 78.55Z" fill-rule="nonzero"/><path fill="#1a1a1a" d="M563.4344 77.55L566.73126 68.95625L567.95 68.95625L571.46564 77.55L570.1844 77.55L569.16876 74.94063L565.59064 74.94063L564.6375 77.55L563.4344 77.55ZM565.91876 74.01875L568.825 74.01875L567.9344 71.64375Q567.5125 70.56563 567.325 69.8625Q567.15314 70.69063 566.85626 71.50313L565.91876 74.01875ZM571.2469 77.55L571.2469 71.33125L572.1844 71.33125L572.1844 72.20625Q572.8719 71.19063 574.16876 71.19063Q574.73126 71.19063 575.2 71.39375Q575.6844 71.59688 575.91876 71.925Q576.15314 72.25313 576.2469 72.69063Q576.29376 72.9875 576.29376 73.72188L576.29376 77.55L575.2469 77.55L575.2469 73.76875Q575.2469 73.1125 575.1219 72.8Q574.9969 72.4875 574.6844 72.3Q574.3719 72.09688 573.95 72.09688Q573.27814 72.09688 572.77814 72.53438Q572.29376 72.95625 572.29376 74.14375L572.29376 77.55L571.2469 77.55Z" fill-rule="nonzero"/><path fill="#fbbc04" d="M543.45 92.55C543.45 91.99772 543.8977 91.55 544.45 91.55L554.45 91.55C555.00226 91.55 555.45 91.99772 555.45 92.55L555.45 102.55C555.45 103.10229 555.00226 103.55 554.45 103.55L544.45 103.55C543.8977 103.55 543.45 103.10229 543.45 102.55Z" fill-rule="nonzero"/><path fill="#1a1a1a" d="M564.3719 101.55L564.3719 92.95625L567.6219 92.95625Q568.46564 92.95625 568.91876 93.03438Q569.5594 93.14375 569.98126 93.44063Q570.41876 93.7375 570.66876 94.26875Q570.9344 94.8 570.9344 95.44063Q570.9344 96.53438 570.23126 97.3Q569.54376 98.05 567.71564 98.05L565.5125 98.05L565.5125 101.55L564.3719 101.55ZM565.5125 97.05L567.73126 97.05Q568.84064 97.05 569.29376 96.64375Q569.7625 96.22188 569.7625 95.47188Q569.7625 94.94063 569.48126 94.56563Q569.21564 94.175 568.77814 94.05Q568.48126 93.97188 567.71564 93.97188L565.5125 93.97188L565.5125 97.05ZM572.23126 101.55L572.23126 95.33125L573.1844 95.33125L573.1844 96.26875Q573.54376 95.6125 573.84064 95.40938Q574.15314 95.19063 574.52814 95.19063Q575.0594 95.19063 575.60626 95.51875L575.2469 96.50313Q574.85626 96.26875 574.48126 96.26875Q574.1219 96.26875 573.84064 96.4875Q573.575 96.69063 573.46564 97.06563Q573.27814 97.62813 573.27814 98.28438L573.27814 101.55L572.23126 101.55Z" fill-rule="nonzero"/><path fill="#ea4335" d="M543.45 116.55C543.45 115.99772 543.8977 115.55 544.45 115.55L554.45 115.55C555.00226 115.55 555.45 115.99772 555.45 116.55L555.45 126.55C555.45 127.10229 555.00226 127.55 554.45 127.55L544.45 127.55C543.8977 127.55 543.45 127.10229 543.45 126.55Z" fill-rule="nonzero"/><path fill="#1a1a1a" d="M563.4344 125.55L566.73126 116.95625L567.95 116.95625L571.46564 125.55L570.1844 125.55L569.16876 122.94063L565.59064 122.94063L564.6375 125.55L563.4344 125.55ZM565.91876 122.01875L568.825 122.01875L567.9344 119.64375Q567.5125 118.56563 567.325 117.8625Q567.15314 118.69063 566.85626 119.50313L565.91876 122.01875ZM571.2469 125.55L571.2469 119.33125L572.1844 119.33125L572.1844 120.20625Q572.48126 119.7375 572.96564 119.47188Q573.45 119.19063 574.075 119.19063Q574.7625 119.19063 575.2 119.47188Q575.65314 119.75313 575.825 120.26875Q576.575 119.19063 577.7469 119.19063Q578.6844 119.19063 579.16876 119.70625Q579.66876 120.20625 579.66876 121.28438L579.66876 125.55L578.6219 125.55L578.6219 121.62813Q578.6219 121.00313 578.5125 120.72188Q578.41876 120.44063 578.15314 120.26875Q577.8875 120.09688 577.5125 120.09688Q576.85626 120.09688 576.41876 120.53438Q575.9969 120.97188 575.9969 121.94063L575.9969 125.55L574.9344 125.55L574.9344 121.50313Q574.9344 120.8 574.66876 120.45625Q574.41876 120.09688 573.84064 120.09688Q573.3875 120.09688 573.0125 120.33125Q572.6375 120.56563 572.46564 121.01875Q572.29376 121.47188 572.29376 122.31563L572.29376 125.55L571.2469 125.55Z" fill-rule="nonzero"/><path fill="#4285f4" d="M543.45 140.55C543.45 139.99771 543.8977 139.55 544.45 139.55L554.45 139.55C555.00226 139.55 555.45 139.99771 555.45 140.55L555.45 150.55C555.45 151.10228 555.00226 151.55 554.45 151.55L544.45 151.55C543.8977 151.55 543.45 151.10228 543.45 150.55Z" fill-rule="nonzero"/><path fill="#1a1a1a" d="M564.3875 149.55L564.3875 140.95625L568.2 140.95625Q569.35626 140.95625 569.95 141.19063Q570.54376 141.425 570.90314 142.01875Q571.2625 142.59688 571.2625 143.3Q571.2625 144.22188 570.66876 144.84688Q570.075 145.47188 568.84064 145.64375Q569.29376 145.8625 569.52814 146.06563Q570.02814 146.51875 570.46564 147.20625L571.96564 149.55L570.52814 149.55L569.40314 147.76875Q568.90314 146.9875 568.575 146.58125Q568.2625 146.175 567.9969 146.01875Q567.7469 145.84688 567.48126 145.76875Q567.29376 145.7375 566.85626 145.7375L565.52814 145.7375L565.52814 149.55L564.3875 149.55ZM565.52814 144.75313L567.98126 144.75313Q568.7469 144.75313 569.1844 144.59688Q569.6375 144.425 569.85626 144.08125Q570.09064 143.72188 570.09064 143.3Q570.09064 142.69063 569.6375 142.3Q569.2 141.90938 568.2469 141.90938L565.52814 141.90938L565.52814 144.75313ZM577.4969 147.55L578.59064 147.675Q578.34064 148.62813 577.6375 149.15938Q576.9344 149.69063 575.85626 149.69063Q574.4969 149.69063 573.6844 148.84688Q572.8875 148.00313 572.8875 146.4875Q572.8875 144.925 573.7 144.06563Q574.5125 143.19063 575.79376 143.19063Q577.04376 143.19063 577.825 144.03438Q578.6219 144.87813 578.6219 146.425Q578.6219 146.51875 578.6219 146.70625L573.98126 146.70625Q574.04376 147.7375 574.5594 148.28438Q575.075 148.81563 575.85626 148.81563Q576.4344 148.81563 576.84064 148.51875Q577.2625 148.20625 577.4969 147.55ZM574.04376 145.84688L577.5125 145.84688Q577.45 145.05 577.1219 144.65938Q576.60626 144.05 575.8094 144.05Q575.075 144.05 574.575 144.53438Q574.09064 145.01875 574.04376 145.84688Z" fill-rule="nonzero"/></svg>