<svg version="1.1" viewBox="0.0 0.0 555.0 345.0" fill="none" stroke="none" stroke-linecap="square" stroke-miterlimit="10" width="555" height="345" xmlns:xlink="http://www.w3.org/1999/xlink" xmlns="http://www.w3.org/2000/svg"><path fill="#ffffff" d="M0 0L555.0 0L555.0 345.0L0 345.0L0 0Z" fill-rule="nonzero"/><path fill="#4285f4" d="M277.5 52.18125C335.37268 52.18125 388.44144 74.71412 415.1826 110.64096L277.5 160.85625Z" fill-rule="nonzero"/><path fill="#a42f25" d="M432.75 184.14375C432.75 204.49747 424.5844 224.4421 409.1832 241.70613L409.1832 218.41864C424.5844 201.1546 432.75 181.20996 432.75 160.85625Z" fill-rule="nonzero"/><path fill="#ea4335" d="M415.1826 110.64096C440.58975 144.7756 438.30774 185.77138 409.1832 218.41864L277.5 160.85625Z" fill-rule="nonzero"/><path fill="#46bdc6" d="M147.99599 100.92026C176.74023 70.48741 225.38138 52.18125 277.5 52.18125L277.5 160.85625Z" fill-rule="nonzero"/><path fill="#b34c01" d="M145.8168 241.70613C130.4156 224.4421 122.25 204.49747 122.25 184.14375L122.25 160.85625C122.25 181.20996 130.4156 201.1546 145.8168 218.41864Z" fill-rule="nonzero"/><path fill="#ff6d01" d="M145.8168 218.41864C113.62282 182.33067 114.474464 136.41101 147.99599 100.92026L277.5 160.85625Z" fill-rule="nonzero"/><path fill="#b08403" d="M409.1832 241.70613C380.81924 273.50082 331.04977 292.81876 277.5 292.81876C223.95023 292.81876 174.18076 273.50082 145.8168 241.70613L145.8168 218.41864C174.18076 250.21332 223.95023 269.53125 277.5 269.53125C331.04977 269.53125 380.81924 250.21332 409.1832 218.41864Z" fill-rule="nonzero"/><path fill="#fbbc04" d="M409.1832 218.41864C380.81924 250.21332 331.04977 269.53125 277.5 269.53125C223.95023 269.53125 174.18076 250.21332 145.8168 218.41864L277.5 160.85625Z" fill-rule="nonzero"/><path fill="#1a1a1a" d="M20.625 65.424324L17.296875 56.830574L18.53125 56.830574L20.765625 63.080574Q21.03125 63.830574 21.21875 64.486824Q21.421875 63.7837 21.6875 63.080574L24.0 56.830574L25.15625 56.830574L21.796875 65.424324L20.625 65.424324ZM29.296875 63.424324L30.390625 63.549324Q30.140625 64.50245 29.4375 65.0337Q28.734375 65.56495 27.65625 65.56495Q26.296875 65.56495 25.484375 64.7212Q24.6875 63.87745 24.6875 62.361824Q24.6875 60.799324 25.5 59.93995Q26.3125 59.06495 27.59375 59.06495Q28.84375 59.06495 29.625 59.9087Q30.421875 60.75245 30.421875 62.299324Q30.421875 62.393074 30.421875 62.580574L25.78125 62.580574Q25.84375 63.611824 26.359375 64.1587Q26.875 64.68995 27.65625 64.68995Q28.234375 64.68995 28.640625 64.393074Q29.0625 64.080574 29.296875 63.424324ZM25.84375 61.7212L29.3125 61.7212Q29.25 60.924324 28.921875 60.5337Q28.40625 59.924324 27.609375 59.924324Q26.875 59.924324 26.375 60.4087Q25.890625 60.893074 25.84375 61.7212Z" fill-rule="nonzero"/><path fill="#9e9e9e" d="M21.71875 82.424324L20.671875 82.424324L20.671875 75.705574Q20.28125 76.06495 19.65625 76.43995Q19.046875 76.799324 18.5625 76.9712L18.5625 75.955574Q19.4375 75.5337 20.09375 74.955574Q20.765625 74.361824 21.046875 73.799324L21.71875 73.799324L21.71875 82.424324ZM24.75 80.174324L25.859375 80.080574Q25.984375 80.893074 26.421875 81.299324Q26.875 81.705574 27.515625 81.705574Q28.265625 81.705574 28.796875 81.12745Q29.328125 80.549324 29.328125 79.611824Q29.328125 78.705574 28.8125 78.18995Q28.3125 77.6587 27.484375 77.6587Q26.984375 77.6587 26.5625 77.893074Q26.15625 78.12745 25.921875 78.486824L24.9375 78.361824L25.765625 73.955574L30.046875 73.955574L30.046875 74.955574L26.609375 74.955574L26.15625 77.268074Q26.921875 76.7212 27.765625 76.7212Q28.890625 76.7212 29.65625 77.50245Q30.4375 78.2837 30.4375 79.518074Q30.4375 80.674324 29.765625 81.5337Q28.9375 82.56495 27.515625 82.56495Q26.34375 82.56495 25.59375 81.9087Q24.859375 81.25245 24.75 80.174324ZM32.3125 82.424324L32.3125 81.2212L33.515625 81.2212L33.515625 82.424324Q33.515625 83.080574 33.28125 83.486824Q33.046875 83.9087 32.546875 84.12745L32.25 83.674324Q32.578125 83.5337 32.734375 83.236824Q32.890625 82.955574 32.921875 82.424324L32.3125 82.424324ZM34.8125 74.955574L34.8125 73.93995L40.375 73.93995L40.375 74.768074Q39.5625 75.643074 38.75 77.0962Q37.953125 78.5337 37.515625 80.06495Q37.1875 81.143074 37.109375 82.424324L36.015625 82.424324Q36.03125 81.4087 36.40625 79.9712Q36.796875 78.5337 37.5 77.205574Q38.21875 75.87745 39.03125 74.955574L34.8125 74.955574ZM41.953125 75.893074Q41.953125 74.9712 42.40625 74.330574Q42.875 73.68995 43.75 73.68995Q44.5625 73.68995 45.09375 74.268074Q45.625 74.8462 45.625 75.955574Q45.625 77.049324 45.078125 77.643074Q44.546875 78.2212 43.765625 78.2212Q42.984375 78.2212 42.46875 77.643074Q41.953125 77.06495 41.953125 75.893074ZM43.78125 74.4087Q43.390625 74.4087 43.125 74.75245Q42.875 75.0962 42.875 76.00245Q42.875 76.830574 43.125 77.174324Q43.390625 77.50245 43.78125 77.50245Q44.1875 77.50245 44.4375 77.1587Q44.703125 76.81495 44.703125 75.924324Q44.703125 75.080574 44.4375 74.75245Q44.171875 74.4087 43.78125 74.4087ZM43.78125 82.736824L48.484375 73.68995L49.34375 73.68995L44.65625 82.736824L43.78125 82.736824ZM47.5 80.4087Q47.5 79.486824 47.953125 78.8462Q48.421875 78.205574 49.3125 78.205574Q50.125 78.205574 50.65625 78.7837Q51.1875 79.3462 51.1875 80.4712Q51.1875 81.56495 50.640625 82.1587Q50.109375 82.736824 49.3125 82.736824Q48.546875 82.736824 48.015625 82.1587Q47.5 81.580574 47.5 80.4087ZM49.34375 78.924324Q48.9375 78.924324 48.671875 79.268074Q48.421875 79.611824 48.421875 80.518074Q48.421875 81.330574 48.6875 81.674324Q48.953125 82.018074 49.34375 82.018074Q49.734375 82.018074 50.0 81.674324Q50.265625 81.330574 50.265625 80.424324Q50.265625 79.5962 50.0 79.268074Q49.734375 78.924324 49.34375 78.924324Z" fill-rule="nonzero"/><path stroke="#757575" stroke-width="1.0" stroke-linecap="butt" d="M17.25 69.924324L116.25 69.924324L207.65848 69.924324" fill-rule="nonzero"/><path fill="#9e9e9e" d="M209.65848 69.924324C209.65848 68.819756 208.76305 67.924324 207.65848 67.924324C206.55391 67.924324 205.65848 68.819756 205.65848 69.924324C205.65848 71.0289 206.55391 71.924324 207.65848 71.924324C208.76305 71.924324 209.65848 71.0289 209.65848 69.924324" fill-rule="nonzero"/><path fill="#1a1a1a" d="M18.171875 155.01604L18.171875 146.42229L21.421875 146.42229Q22.265625 146.42229 22.71875 146.50041Q23.359375 146.60979 23.78125 146.90666Q24.21875 147.20354 24.46875 147.73479Q24.734375 148.26604 24.734375 148.90666Q24.734375 150.00041 24.03125 150.76604Q23.34375 151.51604 21.515625 151.51604L19.3125 151.51604L19.3125 155.01604L18.171875 155.01604ZM19.3125 150.51604L21.53125 150.51604Q22.640625 150.51604 23.09375 150.10979Q23.5625 149.68791 23.5625 148.93791Q23.5625 148.40666 23.28125 148.03166Q23.015625 147.64104 22.578125 147.51604Q22.28125 147.43791 21.515625 147.43791L19.3125 147.43791L19.3125 150.51604ZM26.03125 155.01604L26.03125 148.79729L26.984375 148.79729L26.984375 149.73479Q27.34375 149.07854 27.640625 148.87541Q27.953125 148.65666 28.328125 148.65666Q28.859375 148.65666 29.40625 148.98479L29.046875 149.96916Q28.65625 149.73479 28.28125 149.73479Q27.921875 149.73479 27.640625 149.95354Q27.375 150.15666 27.265625 150.53166Q27.078125 151.09416 27.078125 151.75041L27.078125 155.01604L26.03125 155.01604Z" fill-rule="nonzero"/><path fill="#9e9e9e" d="M21.71875 172.01604L20.671875 172.01604L20.671875 165.29729Q20.28125 165.65666 19.65625 166.03166Q19.046875 166.39104 18.5625 166.56291L18.5625 165.54729Q19.4375 165.12541 20.09375 164.54729Q20.765625 163.95354 21.046875 163.39104L21.71875 163.39104L21.71875 172.01604ZM26.375 167.35979Q25.71875 167.10979 25.390625 166.67229Q25.078125 166.21916 25.078125 165.60979Q25.078125 164.67229 25.75 164.03166Q26.4375 163.39104 27.546875 163.39104Q28.671875 163.39104 29.359375 164.04729Q30.046875 164.70354 30.046875 165.64104Q30.046875 166.23479 29.734375 166.67229Q29.421875 167.10979 28.78125 167.35979Q29.578125 167.60979 29.984375 168.18791Q30.390625 168.76604 30.390625 169.56291Q30.390625 170.65666 29.609375 171.40666Q28.84375 172.15666 27.5625 172.15666Q26.296875 172.15666 25.515625 171.40666Q24.734375 170.65666 24.734375 169.53166Q24.734375 168.68791 25.15625 168.12541Q25.59375 167.56291 26.375 167.35979ZM26.15625 165.56291Q26.15625 166.17229 26.546875 166.56291Q26.953125 166.95354 27.578125 166.95354Q28.1875 166.95354 28.578125 166.57854Q28.96875 166.18791 28.96875 165.62541Q28.96875 165.04729 28.5625 164.65666Q28.15625 164.25041 27.5625 164.25041Q26.953125 164.25041 26.546875 164.64104Q26.15625 165.03166 26.15625 165.56291ZM25.828125 169.53166Q25.828125 169.98479 26.03125 170.40666Q26.25 170.82854 26.671875 171.06291Q27.09375 171.29729 27.578125 171.29729Q28.328125 171.29729 28.8125 170.81291Q29.3125 170.32854 29.3125 169.57854Q29.3125 168.81291 28.8125 168.31291Q28.3125 167.81291 27.546875 167.81291Q26.796875 167.81291 26.3125 168.31291Q25.828125 168.79729 25.828125 169.53166ZM32.3125 172.01604L32.3125 170.81291L33.515625 170.81291L33.515625 172.01604Q33.515625 172.67229 33.28125 173.07854Q33.046875 173.50041 32.546875 173.71916L32.25 173.26604Q32.578125 173.12541 32.734375 172.82854Q32.890625 172.54729 32.921875 172.01604L32.3125 172.01604ZM40.296875 171.00041L40.296875 172.01604L34.609375 172.01604Q34.609375 171.64104 34.734375 171.28166Q34.953125 170.70354 35.421875 170.14104Q35.90625 169.57854 36.8125 168.84416Q38.21875 167.68791 38.703125 167.01604Q39.203125 166.34416 39.203125 165.75041Q39.203125 165.12541 38.75 164.70354Q38.296875 164.26604 37.578125 164.26604Q36.8125 164.26604 36.359375 164.71916Q35.90625 165.17229 35.890625 165.98479L34.8125 165.87541Q34.921875 164.65666 35.640625 164.03166Q36.375 163.39104 37.609375 163.39104Q38.84375 163.39104 39.5625 164.07854Q40.28125 164.76604 40.28125 165.78166Q40.28125 166.29729 40.0625 166.79729Q39.859375 167.28166 39.359375 167.84416Q38.875 168.39104 37.75 169.34416Q36.796875 170.14104 36.515625 170.43791Q36.25 170.71916 36.078125 171.00041L40.296875 171.00041ZM41.953125 165.48479Q41.953125 164.56291 42.40625 163.92229Q42.875 163.28166 43.75 163.28166Q44.5625 163.28166 45.09375 163.85979Q45.625 164.43791 45.625 165.54729Q45.625 166.64104 45.078125 167.23479Q44.546875 167.81291 43.765625 167.81291Q42.984375 167.81291 42.46875 167.23479Q41.953125 166.65666 41.953125 165.48479ZM43.78125 164.00041Q43.390625 164.00041 43.125 164.34416Q42.875 164.68791 42.875 165.59416Q42.875 166.42229 43.125 166.76604Q43.390625 167.09416 43.78125 167.09416Q44.1875 167.09416 44.4375 166.75041Q44.703125 166.40666 44.703125 165.51604Q44.703125 164.67229 44.4375 164.34416Q44.171875 164.00041 43.78125 164.00041ZM43.78125 172.32854L48.484375 163.28166L49.34375 163.28166L44.65625 172.32854L43.78125 172.32854ZM47.5 170.00041Q47.5 169.07854 47.953125 168.43791Q48.421875 167.79729 49.3125 167.79729Q50.125 167.79729 50.65625 168.37541Q51.1875 168.93791 51.1875 170.06291Q51.1875 171.15666 50.640625 171.75041Q50.109375 172.32854 49.3125 172.32854Q48.546875 172.32854 48.015625 171.75041Q47.5 171.17229 47.5 170.00041ZM49.34375 168.51604Q48.9375 168.51604 48.671875 168.85979Q48.421875 169.20354 48.421875 170.10979Q48.421875 170.92229 48.6875 171.26604Q48.953125 171.60979 49.34375 171.60979Q49.734375 171.60979 50.0 171.26604Q50.265625 170.92229 50.265625 170.01604Q50.265625 169.18791 50.0 168.85979Q49.734375 168.51604 49.34375 168.51604Z" fill-rule="nonzero"/><path stroke="#757575" stroke-width="1.0" stroke-linecap="butt" d="M17.25 159.51604L116.25 159.51604L130.02493 159.51604" fill-rule="nonzero"/><path fill="#9e9e9e" d="M132.02493 159.51604C132.02493 158.41147 131.1295 157.51604 130.02493 157.51604C128.92036 157.51604 128.02493 158.41147 128.02493 159.51604C128.02493 160.6206 128.92036 161.51604 130.02493 161.51604C131.1295 161.51604 132.02493 160.6206 132.02493 159.51604" fill-rule="nonzero"/><path fill="#1a1a1a" d="M522.6875 68.08443L522.6875 59.490677L526.5 59.490677Q527.65625 59.490677 528.25 59.72505Q528.84375 59.959427 529.2031 60.553177Q529.5625 61.1313 529.5625 61.834427Q529.5625 62.7563 528.96875 63.3813Q528.375 64.0063 527.1406 64.17818Q527.59375 64.39693 527.8281 64.60005Q528.3281 65.05318 528.7656 65.74068L530.2656 68.08443L528.8281 68.08443L527.7031 66.30318Q527.2031 65.52193 526.875 65.11568Q526.5625 64.70943 526.2969 64.55318Q526.0469 64.3813 525.78125 64.30318Q525.59375 64.27193 525.15625 64.27193L523.8281 64.27193L523.8281 68.08443L522.6875 68.08443ZM523.8281 63.28755L526.28125 63.28755Q527.0469 63.28755 527.4844 63.1313Q527.9375 62.959427 528.15625 62.615677Q528.3906 62.2563 528.3906 61.834427Q528.3906 61.22505 527.9375 60.834427Q527.5 60.4438 526.5469 60.4438L523.8281 60.4438L523.8281 63.28755ZM535.7969 66.08443L536.8906 66.20943Q536.6406 67.16255 535.9375 67.6938Q535.2344 68.22505 534.15625 68.22505Q532.7969 68.22505 531.9844 67.3813Q531.1875 66.53755 531.1875 65.02193Q531.1875 63.459427 532.0 62.60005Q532.8125 61.72505 534.09375 61.72505Q535.34375 61.72505 536.125 62.5688Q536.9219 63.41255 536.9219 64.95943Q536.9219 65.05318 536.9219 65.24068L532.28125 65.24068Q532.34375 66.27193 532.8594 66.8188Q533.375 67.35005 534.15625 67.35005Q534.7344 67.35005 535.1406 67.05318Q535.5625 66.74068 535.7969 66.08443ZM532.34375 64.3813L535.8125 64.3813Q535.75 63.584427 535.4219 63.1938Q534.90625 62.584427 534.1094 62.584427Q533.375 62.584427 532.875 63.0688Q532.3906 63.553177 532.34375 64.3813Z" fill-rule="nonzero"/><path fill="#9e9e9e" d="M507.21875 85.08443L506.17188 85.08443L506.17188 78.36568Q505.78125 78.72505 505.15625 79.10005Q504.54688 79.45943 504.0625 79.6313L504.0625 78.61568Q504.9375 78.1938 505.59375 77.61568Q506.26562 77.02193 506.54688 76.45943L507.21875 76.45943L507.21875 85.08443ZM510.3125 77.61568L510.3125 76.60005L515.875 76.60005L515.875 77.42818Q515.0625 78.30318 514.25 79.7563Q513.4531 81.1938 513.0156 82.72505Q512.6875 83.80318 512.6094 85.08443L511.51562 85.08443Q511.53125 84.0688 511.90625 82.6313Q512.2969 81.1938 513.0 79.86568Q513.71875 78.53755 514.53125 77.61568L510.3125 77.61568ZM517.8125 85.08443L517.8125 83.8813L519.0156 83.8813L519.0156 85.08443Q519.0156 85.74068 518.78125 86.14693Q518.5469 86.5688 518.0469 86.78755L517.75 86.33443Q518.0781 86.1938 518.2344 85.89693Q518.3906 85.61568 518.4219 85.08443L517.8125 85.08443ZM523.625 85.08443L523.625 83.02193L519.90625 83.02193L519.90625 82.05318L523.8281 76.49068L524.6875 76.49068L524.6875 82.05318L525.84375 82.05318L525.84375 83.02193L524.6875 83.02193L524.6875 85.08443L523.625 85.08443ZM523.625 82.05318L523.625 78.1938L520.9375 82.05318L523.625 82.05318ZM527.4531 78.55318Q527.4531 77.6313 527.90625 76.99068Q528.375 76.35005 529.25 76.35005Q530.0625 76.35005 530.59375 76.92818Q531.125 77.5063 531.125 78.61568Q531.125 79.70943 530.5781 80.30318Q530.0469 80.8813 529.2656 80.8813Q528.4844 80.8813 527.96875 80.30318Q527.4531 79.72505 527.4531 78.55318ZM529.28125 77.0688Q528.8906 77.0688 528.625 77.41255Q528.375 77.7563 528.375 78.66255Q528.375 79.49068 528.625 79.83443Q528.8906 80.16255 529.28125 80.16255Q529.6875 80.16255 529.9375 79.8188Q530.2031 79.47505 530.2031 78.58443Q530.2031 77.74068 529.9375 77.41255Q529.6719 77.0688 529.28125 77.0688ZM529.28125 85.39693L533.9844 76.35005L534.84375 76.35005L530.15625 85.39693L529.28125 85.39693ZM533.0 83.0688Q533.0 82.14693 533.4531 81.5063Q533.9219 80.86568 534.8125 80.86568Q535.625 80.86568 536.15625 81.4438Q536.6875 82.0063 536.6875 83.1313Q536.6875 84.22505 536.1406 84.8188Q535.6094 85.39693 534.8125 85.39693Q534.0469 85.39693 533.5156 84.8188Q533.0 84.24068 533.0 83.0688ZM534.84375 81.58443Q534.4375 81.58443 534.1719 81.92818Q533.9219 82.27193 533.9219 83.17818Q533.9219 83.99068 534.1875 84.33443Q534.4531 84.67818 534.84375 84.67818Q535.2344 84.67818 535.5 84.33443Q535.7656 83.99068 535.7656 83.08443Q535.7656 82.2563 535.5 81.92818Q535.2344 81.58443 534.84375 81.58443Z" fill-rule="nonzero"/><path stroke="#757575" stroke-width="1.0" stroke-linecap="butt" d="M537.75 72.58443L438.75 72.58443L353.98984 72.58443" fill-rule="nonzero"/><path fill="#9e9e9e" d="M355.98984 72.58443C355.98984 71.47986 355.0944 70.58443 353.98984 70.58443C352.88525 70.58443 351.98984 71.47986 351.98984 72.58443C351.98984 73.688995 352.88525 74.58443 353.98984 74.58443C355.0944 74.58443 355.98984 73.688995 355.98984 72.58443" fill-rule="nonzero"/><path fill="#1a1a1a" d="M519.7344 160.376L523.03125 151.78226L524.25 151.78226L527.7656 160.376L526.4844 160.376L525.46875 157.76663L521.8906 157.76663L520.9375 160.376L519.7344 160.376ZM522.21875 156.84476L525.125 156.84476L524.2344 154.46976Q523.8125 153.39163 523.625 152.6885Q523.4531 153.51663 523.15625 154.32913L522.21875 156.84476ZM527.5469 160.376L527.5469 154.15726L528.4844 154.15726L528.4844 155.03226Q528.78125 154.5635 529.2656 154.29788Q529.75 154.01663 530.375 154.01663Q531.0625 154.01663 531.5 154.29788Q531.9531 154.57913 532.125 155.09476Q532.875 154.01663 534.0469 154.01663Q534.9844 154.01663 535.46875 154.53226Q535.96875 155.03226 535.96875 156.11038L535.96875 160.376L534.9219 160.376L534.9219 156.45413Q534.9219 155.82913 534.8125 155.54788Q534.71875 155.26663 534.4531 155.09476Q534.1875 154.92288 533.8125 154.92288Q533.15625 154.92288 532.71875 155.36038Q532.2969 155.79788 532.2969 156.76663L532.2969 160.376L531.2344 160.376L531.2344 156.32913Q531.2344 155.626 530.96875 155.28226Q530.71875 154.92288 530.1406 154.92288Q529.6875 154.92288 529.3125 155.15726Q528.9375 155.39163 528.7656 155.84476Q528.59375 156.29788 528.59375 157.14163L528.59375 160.376L527.5469 160.376Z" fill-rule="nonzero"/><path fill="#9e9e9e" d="M507.21875 177.376L506.17188 177.376L506.17188 170.65726Q505.78125 171.01663 505.15625 171.39163Q504.54688 171.751 504.0625 171.92288L504.0625 170.90726Q504.9375 170.48538 505.59375 169.90726Q506.26562 169.3135 506.54688 168.751L507.21875 168.751L507.21875 177.376ZM515.71875 170.89163L514.6719 170.96976Q514.53125 170.34476 514.28125 170.0635Q513.84375 169.61038 513.21875 169.61038Q512.71875 169.61038 512.3281 169.89163Q511.84375 170.26663 511.54688 170.96976Q511.26562 171.65726 511.25 172.9385Q511.625 172.36038 512.1719 172.07913Q512.7344 171.79788 513.34375 171.79788Q514.3906 171.79788 515.125 172.57913Q515.875 173.36038 515.875 174.57913Q515.875 175.39163 515.5156 176.09476Q515.1719 176.78226 514.5625 177.15726Q513.9531 177.51663 513.1875 177.51663Q511.85938 177.51663 511.03125 176.54788Q510.20312 175.57913 510.20312 173.36038Q510.20312 170.86038 511.125 169.73538Q511.92188 168.751 513.28125 168.751Q514.2969 168.751 514.9375 169.32913Q515.59375 169.89163 515.71875 170.89163ZM511.42188 174.59476Q511.42188 175.14163 511.64062 175.64163Q511.875 176.126 512.28125 176.39163Q512.7031 176.65726 513.1719 176.65726Q513.8281 176.65726 514.3125 176.126Q514.7969 175.57913 514.7969 174.65726Q514.7969 173.76663 514.3125 173.251Q513.84375 172.73538 513.125 172.73538Q512.40625 172.73538 511.90625 173.251Q511.42188 173.76663 511.42188 174.59476ZM517.8125 177.376L517.8125 176.17288L519.0156 176.17288L519.0156 177.376Q519.0156 178.03226 518.78125 178.4385Q518.5469 178.86038 518.0469 179.07913L517.75 178.626Q518.0781 178.48538 518.2344 178.1885Q518.3906 177.90726 518.4219 177.376L517.8125 177.376ZM520.25 175.126L521.3594 175.03226Q521.4844 175.84476 521.9219 176.251Q522.375 176.65726 523.0156 176.65726Q523.7656 176.65726 524.2969 176.07913Q524.8281 175.501 524.8281 174.5635Q524.8281 173.65726 524.3125 173.14163Q523.8125 172.61038 522.9844 172.61038Q522.4844 172.61038 522.0625 172.84476Q521.65625 173.07913 521.4219 173.4385L520.4375 173.3135L521.2656 168.90726L525.5469 168.90726L525.5469 169.90726L522.1094 169.90726L521.65625 172.21976Q522.4219 171.67288 523.2656 171.67288Q524.3906 171.67288 525.15625 172.45413Q525.9375 173.23538 525.9375 174.46976Q525.9375 175.626 525.2656 176.48538Q524.4375 177.51663 523.0156 177.51663Q521.84375 177.51663 521.09375 176.86038Q520.3594 176.20413 520.25 175.126ZM527.4531 170.84476Q527.4531 169.92288 527.90625 169.28226Q528.375 168.64163 529.25 168.64163Q530.0625 168.64163 530.59375 169.21976Q531.125 169.79788 531.125 170.90726Q531.125 172.001 530.5781 172.59476Q530.0469 173.17288 529.2656 173.17288Q528.4844 173.17288 527.96875 172.59476Q527.4531 172.01663 527.4531 170.84476ZM529.28125 169.36038Q528.8906 169.36038 528.625 169.70413Q528.375 170.04788 528.375 170.95413Q528.375 171.78226 528.625 172.126Q528.8906 172.45413 529.28125 172.45413Q529.6875 172.45413 529.9375 172.11038Q530.2031 171.76663 530.2031 170.876Q530.2031 170.03226 529.9375 169.70413Q529.6719 169.36038 529.28125 169.36038ZM529.28125 177.6885L533.9844 168.64163L534.84375 168.64163L530.15625 177.6885L529.28125 177.6885ZM533.0 175.36038Q533.0 174.4385 533.4531 173.79788Q533.9219 173.15726 534.8125 173.15726Q535.625 173.15726 536.15625 173.73538Q536.6875 174.29788 536.6875 175.42288Q536.6875 176.51663 536.1406 177.11038Q535.6094 177.6885 534.8125 177.6885Q534.0469 177.6885 533.5156 177.11038Q533.0 176.53226 533.0 175.36038ZM534.84375 173.876Q534.4375 173.876 534.1719 174.21976Q533.9219 174.5635 533.9219 175.46976Q533.9219 176.28226 534.1875 176.626Q534.4531 176.96976 534.84375 176.96976Q535.2344 176.96976 535.5 176.626Q535.7656 176.28226 535.7656 175.376Q535.7656 174.54788 535.5 174.21976Q535.2344 173.876 534.84375 173.876Z" fill-rule="nonzero"/><path stroke="#757575" stroke-width="1.0" stroke-linecap="butt" d="M537.75 164.876L438.75 164.876L424.87567 164.876" fill-rule="nonzero"/><path fill="#9e9e9e" d="M426.87567 164.876C426.87567 163.77144 425.98022 162.876 424.87567 162.876C423.7711 162.876 422.87567 163.77144 422.87567 164.876C422.87567 165.98058 423.7711 166.876 424.87567 166.876C425.98022 166.876 426.87567 165.98058 426.87567 164.876" fill-rule="nonzero"/><path fill="#1a1a1a" d="M523.7344 259.5975L527.03125 251.00375L528.25 251.00375L531.7656 259.5975L530.4844 259.5975L529.46875 256.98813L525.8906 256.98813L524.9375 259.5975L523.7344 259.5975ZM526.21875 256.06625L529.125 256.06625L528.2344 253.69125Q527.8125 252.61313 527.625 251.91Q527.4531 252.73813 527.15625 253.55063L526.21875 256.06625ZM531.5469 259.5975L531.5469 253.37875L532.4844 253.37875L532.4844 254.25375Q533.1719 253.23813 534.46875 253.23813Q535.03125 253.23813 535.5 253.44125Q535.9844 253.64438 536.21875 253.9725Q536.4531 254.30063 536.5469 254.73813Q536.59375 255.035 536.59375 255.76938L536.59375 259.5975L535.5469 259.5975L535.5469 255.81625Q535.5469 255.16 535.4219 254.8475Q535.2969 254.535 534.9844 254.3475Q534.6719 254.14438 534.25 254.14438Q533.5781 254.14438 533.0781 254.58188Q532.59375 255.00375 532.59375 256.19125L532.59375 259.5975L531.5469 259.5975Z" fill-rule="nonzero"/><path fill="#9e9e9e" d="M503.25 274.33188L504.3125 274.19125Q504.48438 275.08188 504.92188 275.48813Q505.35938 275.87875 505.98438 275.87875Q506.73438 275.87875 507.25 275.36313Q507.76562 274.8475 507.76562 274.08188Q507.76562 273.36313 507.28125 272.89438Q506.8125 272.41 506.07812 272.41Q505.78125 272.41 505.32812 272.535L505.45312 271.5975Q505.5625 271.61313 505.625 271.61313Q506.29688 271.61313 506.82812 271.26938Q507.375 270.91 507.375 270.17563Q507.375 269.5975 506.98438 269.2225Q506.59375 268.83188 505.96875 268.83188Q505.35938 268.83188 504.9375 269.2225Q504.53125 269.61313 504.42188 270.37875L503.35938 270.19125Q503.54688 269.14438 504.23438 268.56625Q504.92188 267.9725 505.9375 267.9725Q506.64062 267.9725 507.23438 268.285Q507.82812 268.58188 508.14062 269.0975Q508.45312 269.61313 508.45312 270.20688Q508.45312 270.75375 508.15625 271.2225Q507.85938 271.67563 507.28125 271.94125Q508.03125 272.11313 508.45312 272.67563Q508.875 273.2225 508.875 274.06625Q508.875 275.19125 508.04688 275.9725Q507.23438 276.75375 505.98438 276.75375Q504.85938 276.75375 504.10938 276.08188Q503.35938 275.39438 503.25 274.33188ZM515.7969 275.58188L515.7969 276.5975L510.10938 276.5975Q510.10938 276.2225 510.23438 275.86313Q510.45312 275.285 510.92188 274.7225Q511.40625 274.16 512.3125 273.42563Q513.71875 272.26938 514.2031 271.5975Q514.7031 270.92563 514.7031 270.33188Q514.7031 269.70688 514.25 269.285Q513.7969 268.8475 513.0781 268.8475Q512.3125 268.8475 511.85938 269.30063Q511.40625 269.75375 511.39062 270.56625L510.3125 270.45688Q510.42188 269.23813 511.14062 268.61313Q511.875 267.9725 513.1094 267.9725Q514.34375 267.9725 515.0625 268.66Q515.78125 269.3475 515.78125 270.36313Q515.78125 270.87875 515.5625 271.37875Q515.3594 271.86313 514.8594 272.42563Q514.375 272.9725 513.25 273.92563Q512.2969 274.7225 512.0156 275.01938Q511.75 275.30063 511.57812 275.58188L515.7969 275.58188ZM517.8125 276.5975L517.8125 275.39438L519.0156 275.39438L519.0156 276.5975Q519.0156 277.25375 518.78125 277.66Q518.5469 278.08188 518.0469 278.30063L517.75 277.8475Q518.0781 277.70688 518.2344 277.41Q518.3906 277.12875 518.4219 276.5975L517.8125 276.5975ZM525.7969 275.58188L525.7969 276.5975L520.1094 276.5975Q520.1094 276.2225 520.2344 275.86313Q520.4531 275.285 520.9219 274.7225Q521.40625 274.16 522.3125 273.42563Q523.71875 272.26938 524.2031 271.5975Q524.7031 270.92563 524.7031 270.33188Q524.7031 269.70688 524.25 269.285Q523.7969 268.8475 523.0781 268.8475Q522.3125 268.8475 521.8594 269.30063Q521.40625 269.75375 521.3906 270.56625L520.3125 270.45688Q520.4219 269.23813 521.1406 268.61313Q521.875 267.9725 523.1094 267.9725Q524.34375 267.9725 525.0625 268.66Q525.78125 269.3475 525.78125 270.36313Q525.78125 270.87875 525.5625 271.37875Q525.3594 271.86313 524.8594 272.42563Q524.375 272.9725 523.25 273.92563Q522.2969 274.7225 522.0156 275.01938Q521.75 275.30063 521.5781 275.58188L525.7969 275.58188ZM527.4531 270.06625Q527.4531 269.14438 527.90625 268.50375Q528.375 267.86313 529.25 267.86313Q530.0625 267.86313 530.59375 268.44125Q531.125 269.01938 531.125 270.12875Q531.125 271.2225 530.5781 271.81625Q530.0469 272.39438 529.2656 272.39438Q528.4844 272.39438 527.96875 271.81625Q527.4531 271.23813 527.4531 270.06625ZM529.28125 268.58188Q528.8906 268.58188 528.625 268.92563Q528.375 269.26938 528.375 270.17563Q528.375 271.00375 528.625 271.3475Q528.8906 271.67563 529.28125 271.67563Q529.6875 271.67563 529.9375 271.33188Q530.2031 270.98813 530.2031 270.0975Q530.2031 269.25375 529.9375 268.92563Q529.6719 268.58188 529.28125 268.58188ZM529.28125 276.91L533.9844 267.86313L534.84375 267.86313L530.15625 276.91L529.28125 276.91ZM533.0 274.58188Q533.0 273.66 533.4531 273.01938Q533.9219 272.37875 534.8125 272.37875Q535.625 272.37875 536.15625 272.95688Q536.6875 273.51938 536.6875 274.64438Q536.6875 275.73813 536.1406 276.33188Q535.6094 276.91 534.8125 276.91Q534.0469 276.91 533.5156 276.33188Q533.0 275.75375 533.0 274.58188ZM534.84375 273.0975Q534.4375 273.0975 534.1719 273.44125Q533.9219 273.785 533.9219 274.69125Q533.9219 275.50375 534.1875 275.8475Q534.4531 276.19125 534.84375 276.19125Q535.2344 276.19125 535.5 275.8475Q535.7656 275.50375 535.7656 274.5975Q535.7656 273.76938 535.5 273.44125Q535.2344 273.0975 534.84375 273.0975Z" fill-rule="nonzero"/><path stroke="#757575" stroke-width="1.0" stroke-linecap="butt" d="M537.75 264.0975L438.75 264.0975L277.5 264.0975" fill-rule="nonzero"/><path fill="#9e9e9e" d="M279.5 264.0975C279.5 262.99292 278.60458 262.0975 277.5 262.0975C276.39542 262.0975 275.5 262.99292 275.5 264.0975C275.5 265.20206 276.39542 266.0975 277.5 266.0975C278.60458 266.0975 279.5 265.20206 279.5 264.0975" fill-rule="nonzero"/></svg>