<svg version="1.1" viewBox="0.0 0.0 555.0 345.0" fill="none" stroke="none" stroke-linecap="square" stroke-miterlimit="10" width="555" height="345" xmlns:xlink="http://www.w3.org/1999/xlink" xmlns="http://www.w3.org/2000/svg"><path fill="#ffffff" d="M0 0L555.0 0L555.0 345.0L0 345.0L0 0Z" fill-rule="nonzero"/><path fill="#4285f4" d="M277.5 52.18125C330.7544 52.18125 380.29245 71.28822 408.74127 102.80142L277.5 160.85625Z" fill-rule="nonzero"/><path fill="#a42f25" d="M432.75 184.14375C432.75 207.36089 422.12793 229.9678 402.44012 248.65219L402.44012 225.36469C422.12793 206.6803 432.75 184.0734 432.75 160.85625Z" fill-rule="nonzero"/><path fill="#ea4335" d="M408.74127 102.80142C442.92004 140.66176 440.41833 189.3221 402.44012 225.36469L277.5 160.85625Z" fill-rule="nonzero"/><path fill="#46bdc6" d="M135.7226 116.5748C160.68857 77.40694 216.2288 52.18125 277.5 52.18125L277.5 160.85625Z" fill-rule="nonzero"/><path fill="#b34c01" d="M152.55988 248.65219C132.87206 229.9678 122.25 207.36089 122.25 184.14375L122.25 160.85625C122.25 184.0734 132.87206 206.6803 152.55988 225.36469Z" fill-rule="nonzero"/><path fill="#ff6d01" d="M152.55988 225.36469C119.37277 193.86902 112.94149 152.31491 135.7226 116.5748L277.5 160.85625Z" fill-rule="nonzero"/><path fill="#b08403" d="M402.44012 248.65219C373.1745 276.42624 326.8027 292.81876 277.5 292.81876C228.1973 292.81876 181.82549 276.42624 152.55988 248.65219L152.55988 225.36469C181.82549 253.13873 228.1973 269.53125 277.5 269.53125C326.8027 269.53125 373.1745 253.13873 402.44012 225.36469Z" fill-rule="nonzero"/><path fill="#fbbc04" d="M402.44012 225.36469C373.1745 253.13873 326.8027 269.53125 277.5 269.53125C228.1973 269.53125 181.82549 253.13873 152.55988 225.36469L277.5 160.85625Z" fill-rule="nonzero"/><path fill="#1a1a1a" d="M20.625 69.74838L17.296875 61.154633L18.53125 61.154633L20.765625 67.40463Q21.03125 68.15463 21.21875 68.81088Q21.421875 68.10776 21.6875 67.40463L24.0 61.154633L25.15625 61.154633L21.796875 69.74838L20.625 69.74838ZM29.296875 67.74838L30.390625 67.87338Q30.140625 68.82651 29.4375 69.35776Q28.734375 69.88901 27.65625 69.88901Q26.296875 69.88901 25.484375 69.04526Q24.6875 68.20151 24.6875 66.68588Q24.6875 65.12338 25.5 64.26401Q26.3125 63.389008 27.59375 63.389008Q28.84375 63.389008 29.625 64.23276Q30.421875 65.07651 30.421875 66.62338Q30.421875 66.71713 30.421875 66.90463L25.78125 66.90463Q25.84375 67.93588 26.359375 68.48276Q26.875 69.01401 27.65625 69.01401Q28.234375 69.01401 28.640625 68.71713Q29.0625 68.40463 29.296875 67.74838ZM25.84375 66.04526L29.3125 66.04526Q29.25 65.24838 28.921875 64.85776Q28.40625 64.24838 27.609375 64.24838Q26.875 64.24838 26.375 64.73276Q25.890625 65.21713 25.84375 66.04526Z" fill-rule="nonzero"/><path fill="#9e9e9e" d="M21.71875 86.74838L20.671875 86.74838L20.671875 80.02963Q20.28125 80.38901 19.65625 80.76401Q19.046875 81.12338 18.5625 81.29526L18.5625 80.27963Q19.4375 79.85776 20.09375 79.27963Q20.765625 78.68588 21.046875 78.12338L21.71875 78.12338L21.71875 86.74838ZM26.375 82.09213Q25.71875 81.84213 25.390625 81.40463Q25.078125 80.95151 25.078125 80.34213Q25.078125 79.40463 25.75 78.76401Q26.4375 78.12338 27.546875 78.12338Q28.671875 78.12338 29.359375 78.77963Q30.046875 79.43588 30.046875 80.37338Q30.046875 80.96713 29.734375 81.40463Q29.421875 81.84213 28.78125 82.09213Q29.578125 82.34213 29.984375 82.92026Q30.390625 83.49838 30.390625 84.29526Q30.390625 85.38901 29.609375 86.13901Q28.84375 86.88901 27.5625 86.88901Q26.296875 86.88901 25.515625 86.13901Q24.734375 85.38901 24.734375 84.26401Q24.734375 83.42026 25.15625 82.85776Q25.59375 82.29526 26.375 82.09213ZM26.15625 80.29526Q26.15625 80.90463 26.546875 81.29526Q26.953125 81.68588 27.578125 81.68588Q28.1875 81.68588 28.578125 81.31088Q28.96875 80.92026 28.96875 80.35776Q28.96875 79.77963 28.5625 79.38901Q28.15625 78.98276 27.5625 78.98276Q26.953125 78.98276 26.546875 79.37338Q26.15625 79.76401 26.15625 80.29526ZM25.828125 84.26401Q25.828125 84.71713 26.03125 85.13901Q26.25 85.56088 26.671875 85.79526Q27.09375 86.02963 27.578125 86.02963Q28.328125 86.02963 28.8125 85.54526Q29.3125 85.06088 29.3125 84.31088Q29.3125 83.54526 28.8125 83.04526Q28.3125 82.54526 27.546875 82.54526Q26.796875 82.54526 26.3125 83.04526Q25.828125 83.52963 25.828125 84.26401ZM32.3125 86.74838L32.3125 85.54526L33.515625 85.54526L33.515625 86.74838Q33.515625 87.40463 33.28125 87.81088Q33.046875 88.23276 32.546875 88.45151L32.25 87.99838Q32.578125 87.85776 32.734375 87.56088Q32.890625 87.27963 32.921875 86.74838L32.3125 86.74838ZM34.75 84.48276L35.8125 84.34213Q35.984375 85.23276 36.421875 85.63901Q36.859375 86.02963 37.484375 86.02963Q38.234375 86.02963 38.75 85.51401Q39.265625 84.99838 39.265625 84.23276Q39.265625 83.51401 38.78125 83.04526Q38.3125 82.56088 37.578125 82.56088Q37.28125 82.56088 36.828125 82.68588L36.953125 81.74838Q37.0625 81.76401 37.125 81.76401Q37.796875 81.76401 38.328125 81.42026Q38.875 81.06088 38.875 80.32651Q38.875 79.74838 38.484375 79.37338Q38.09375 78.98276 37.46875 78.98276Q36.859375 78.98276 36.4375 79.37338Q36.03125 79.76401 35.921875 80.52963L34.859375 80.34213Q35.046875 79.29526 35.734375 78.71713Q36.421875 78.12338 37.4375 78.12338Q38.140625 78.12338 38.734375 78.43588Q39.328125 78.73276 39.640625 79.24838Q39.953125 79.76401 39.953125 80.35776Q39.953125 80.90463 39.65625 81.37338Q39.359375 81.82651 38.78125 82.09213Q39.53125 82.26401 39.953125 82.82651Q40.375 83.37338 40.375 84.21713Q40.375 85.34213 39.546875 86.12338Q38.734375 86.90463 37.484375 86.90463Q36.359375 86.90463 35.609375 86.23276Q34.859375 85.54526 34.75 84.48276ZM41.953125 80.21713Q41.953125 79.29526 42.40625 78.65463Q42.875 78.01401 43.75 78.01401Q44.5625 78.01401 45.09375 78.59213Q45.625 79.17026 45.625 80.27963Q45.625 81.37338 45.078125 81.96713Q44.546875 82.54526 43.765625 82.54526Q42.984375 82.54526 42.46875 81.96713Q41.953125 81.38901 41.953125 80.21713ZM43.78125 78.73276Q43.390625 78.73276 43.125 79.07651Q42.875 79.42026 42.875 80.32651Q42.875 81.15463 43.125 81.49838Q43.390625 81.82651 43.78125 81.82651Q44.1875 81.82651 44.4375 81.48276Q44.703125 81.13901 44.703125 80.24838Q44.703125 79.40463 44.4375 79.07651Q44.171875 78.73276 43.78125 78.73276ZM43.78125 87.06088L48.484375 78.01401L49.34375 78.01401L44.65625 87.06088L43.78125 87.06088ZM47.5 84.73276Q47.5 83.81088 47.953125 83.17026Q48.421875 82.52963 49.3125 82.52963Q50.125 82.52963 50.65625 83.10776Q51.1875 83.67026 51.1875 84.79526Q51.1875 85.88901 50.640625 86.48276Q50.109375 87.06088 49.3125 87.06088Q48.546875 87.06088 48.015625 86.48276Q47.5 85.90463 47.5 84.73276ZM49.34375 83.24838Q48.9375 83.24838 48.671875 83.59213Q48.421875 83.93588 48.421875 84.84213Q48.421875 85.65463 48.6875 85.99838Q48.953125 86.34213 49.34375 86.34213Q49.734375 86.34213 50.0 85.99838Q50.265625 85.65463 50.265625 84.74838Q50.265625 83.92026 50.0 83.59213Q49.734375 83.24838 49.34375 83.24838Z" fill-rule="nonzero"/><path stroke="#757575" stroke-width="1.0" stroke-linecap="butt" d="M17.25 74.24838L116.25 74.24838L197.222 74.24838" fill-rule="nonzero"/><path fill="#9e9e9e" d="M199.222 74.24838C199.222 73.143814 198.32657 72.24838 197.222 72.24838C196.11743 72.24838 195.222 73.143814 195.222 74.24838C195.222 75.35295 196.11743 76.24838 197.222 76.24838C198.32657 76.24838 199.222 75.35295 199.222 74.24838" fill-rule="nonzero"/><path fill="#1a1a1a" d="M18.171875 167.47615L18.171875 158.8824L21.421875 158.8824Q22.265625 158.8824 22.71875 158.96053Q23.359375 159.0699 23.78125 159.36678Q24.21875 159.66365 24.46875 160.1949Q24.734375 160.72615 24.734375 161.36678Q24.734375 162.46053 24.03125 163.22615Q23.34375 163.97615 21.515625 163.97615L19.3125 163.97615L19.3125 167.47615L18.171875 167.47615ZM19.3125 162.97615L21.53125 162.97615Q22.640625 162.97615 23.09375 162.5699Q23.5625 162.14803 23.5625 161.39803Q23.5625 160.86678 23.28125 160.49178Q23.015625 160.10115 22.578125 159.97615Q22.28125 159.89803 21.515625 159.89803L19.3125 159.89803L19.3125 162.97615ZM26.03125 167.47615L26.03125 161.2574L26.984375 161.2574L26.984375 162.1949Q27.34375 161.53865 27.640625 161.33553Q27.953125 161.11678 28.328125 161.11678Q28.859375 161.11678 29.40625 161.4449L29.046875 162.42928Q28.65625 162.1949 28.28125 162.1949Q27.921875 162.1949 27.640625 162.41365Q27.375 162.61678 27.265625 162.99178Q27.078125 163.55428 27.078125 164.21053L27.078125 167.47615L26.03125 167.47615Z" fill-rule="nonzero"/><path fill="#9e9e9e" d="M21.71875 184.47615L20.671875 184.47615L20.671875 177.7574Q20.28125 178.11678 19.65625 178.49178Q19.046875 178.85115 18.5625 179.02303L18.5625 178.0074Q19.4375 177.58553 20.09375 177.0074Q20.765625 176.41365 21.046875 175.85115L21.71875 175.85115L21.71875 184.47615ZM30.21875 177.99178L29.171875 178.0699Q29.03125 177.4449 28.78125 177.16365Q28.34375 176.71053 27.71875 176.71053Q27.21875 176.71053 26.828125 176.99178Q26.34375 177.36678 26.046875 178.0699Q25.765625 178.7574 25.75 180.03865Q26.125 179.46053 26.671875 179.17928Q27.234375 178.89803 27.84375 178.89803Q28.890625 178.89803 29.625 179.67928Q30.375 180.46053 30.375 181.67928Q30.375 182.49178 30.015625 183.1949Q29.671875 183.8824 29.0625 184.2574Q28.453125 184.61678 27.6875 184.61678Q26.359375 184.61678 25.53125 183.64803Q24.703125 182.67928 24.703125 180.46053Q24.703125 177.96053 25.625 176.83553Q26.421875 175.85115 27.78125 175.85115Q28.796875 175.85115 29.4375 176.42928Q30.09375 176.99178 30.21875 177.99178ZM25.921875 181.6949Q25.921875 182.24178 26.140625 182.74178Q26.375 183.22615 26.78125 183.49178Q27.203125 183.7574 27.671875 183.7574Q28.328125 183.7574 28.8125 183.22615Q29.296875 182.67928 29.296875 181.7574Q29.296875 180.86678 28.8125 180.35115Q28.34375 179.83553 27.625 179.83553Q26.90625 179.83553 26.40625 180.35115Q25.921875 180.86678 25.921875 181.6949ZM32.3125 184.47615L32.3125 183.27303L33.515625 183.27303L33.515625 184.47615Q33.515625 185.1324 33.28125 185.53865Q33.046875 185.96053 32.546875 186.17928L32.25 185.72615Q32.578125 185.58553 32.734375 185.28865Q32.890625 185.0074 32.921875 184.47615L32.3125 184.47615ZM36.375 179.8199Q35.71875 179.5699 35.390625 179.1324Q35.078125 178.67928 35.078125 178.0699Q35.078125 177.1324 35.75 176.49178Q36.4375 175.85115 37.546875 175.85115Q38.671875 175.85115 39.359375 176.5074Q40.046875 177.16365 40.046875 178.10115Q40.046875 178.6949 39.734375 179.1324Q39.421875 179.5699 38.78125 179.8199Q39.578125 180.0699 39.984375 180.64803Q40.390625 181.22615 40.390625 182.02303Q40.390625 183.11678 39.609375 183.86678Q38.84375 184.61678 37.5625 184.61678Q36.296875 184.61678 35.515625 183.86678Q34.734375 183.11678 34.734375 181.99178Q34.734375 181.14803 35.15625 180.58553Q35.59375 180.02303 36.375 179.8199ZM36.15625 178.02303Q36.15625 178.6324 36.546875 179.02303Q36.953125 179.41365 37.578125 179.41365Q38.1875 179.41365 38.578125 179.03865Q38.96875 178.64803 38.96875 178.08553Q38.96875 177.5074 38.5625 177.11678Q38.15625 176.71053 37.5625 176.71053Q36.953125 176.71053 36.546875 177.10115Q36.15625 177.49178 36.15625 178.02303ZM35.828125 181.99178Q35.828125 182.4449 36.03125 182.86678Q36.25 183.28865 36.671875 183.52303Q37.09375 183.7574 37.578125 183.7574Q38.328125 183.7574 38.8125 183.27303Q39.3125 182.78865 39.3125 182.03865Q39.3125 181.27303 38.8125 180.77303Q38.3125 180.27303 37.546875 180.27303Q36.796875 180.27303 36.3125 180.77303Q35.828125 181.2574 35.828125 181.99178ZM41.953125 177.9449Q41.953125 177.02303 42.40625 176.3824Q42.875 175.74178 43.75 175.74178Q44.5625 175.74178 45.09375 176.3199Q45.625 176.89803 45.625 178.0074Q45.625 179.10115 45.078125 179.6949Q44.546875 180.27303 43.765625 180.27303Q42.984375 180.27303 42.46875 179.6949Q41.953125 179.11678 41.953125 177.9449ZM43.78125 176.46053Q43.390625 176.46053 43.125 176.80428Q42.875 177.14803 42.875 178.05428Q42.875 178.8824 43.125 179.22615Q43.390625 179.55428 43.78125 179.55428Q44.1875 179.55428 44.4375 179.21053Q44.703125 178.86678 44.703125 177.97615Q44.703125 177.1324 44.4375 176.80428Q44.171875 176.46053 43.78125 176.46053ZM43.78125 184.78865L48.484375 175.74178L49.34375 175.74178L44.65625 184.78865L43.78125 184.78865ZM47.5 182.46053Q47.5 181.53865 47.953125 180.89803Q48.421875 180.2574 49.3125 180.2574Q50.125 180.2574 50.65625 180.83553Q51.1875 181.39803 51.1875 182.52303Q51.1875 183.61678 50.640625 184.21053Q50.109375 184.78865 49.3125 184.78865Q48.546875 184.78865 48.015625 184.21053Q47.5 183.6324 47.5 182.46053ZM49.34375 180.97615Q48.9375 180.97615 48.671875 181.3199Q48.421875 181.66365 48.421875 182.5699Q48.421875 183.3824 48.6875 183.72615Q48.953125 184.0699 49.34375 184.0699Q49.734375 184.0699 50.0 183.72615Q50.265625 183.3824 50.265625 182.47615Q50.265625 181.64803 50.0 181.3199Q49.734375 180.97615 49.34375 180.97615Z" fill-rule="nonzero"/><path stroke="#757575" stroke-width="1.0" stroke-linecap="butt" d="M17.25 171.97615L116.25 171.97615L130.8705 171.97615" fill-rule="nonzero"/><path fill="#9e9e9e" d="M132.8705 171.97615C132.8705 170.87158 131.97507 169.97615 130.8705 169.97615C129.76593 169.97615 128.8705 170.87158 128.8705 171.97615C128.8705 173.08072 129.76593 173.97615 130.8705 173.97615C131.97507 173.97615 132.8705 173.08072 132.8705 171.97615" fill-rule="nonzero"/><path fill="#1a1a1a" d="M522.6875 65.93301L522.6875 57.339256L526.5 57.339256Q527.65625 57.339256 528.25 57.57363Q528.84375 57.808006 529.2031 58.401756Q529.5625 58.97988 529.5625 59.683006Q529.5625 60.60488 528.96875 61.22988Q528.375 61.85488 527.1406 62.026756Q527.59375 62.245506 527.8281 62.44863Q528.3281 62.901756 528.7656 63.589256L530.2656 65.93301L528.8281 65.93301L527.7031 64.15176Q527.2031 63.370506 526.875 62.964256Q526.5625 62.558006 526.2969 62.401756Q526.0469 62.22988 525.78125 62.151756Q525.59375 62.120506 525.15625 62.120506L523.8281 62.120506L523.8281 65.93301L522.6875 65.93301ZM523.8281 61.13613L526.28125 61.13613Q527.0469 61.13613 527.4844 60.97988Q527.9375 60.808006 528.15625 60.464256Q528.3906 60.10488 528.3906 59.683006Q528.3906 59.07363 527.9375 58.683006Q527.5 58.29238 526.5469 58.29238L523.8281 58.29238L523.8281 61.13613ZM535.7969 63.933006L536.8906 64.05801Q536.6406 65.01113 535.9375 65.54238Q535.2344 66.07363 534.15625 66.07363Q532.7969 66.07363 531.9844 65.22988Q531.1875 64.38613 531.1875 62.870506Q531.1875 61.308006 532.0 60.44863Q532.8125 59.57363 534.09375 59.57363Q535.34375 59.57363 536.125 60.41738Q536.9219 61.26113 536.9219 62.808006Q536.9219 62.901756 536.9219 63.089256L532.28125 63.089256Q532.34375 64.12051 532.8594 64.66738Q533.375 65.19863 534.15625 65.19863Q534.7344 65.19863 535.1406 64.90176Q535.5625 64.58926 535.7969 63.933006ZM532.34375 62.22988L535.8125 62.22988Q535.75 61.433006 535.4219 61.04238Q534.90625 60.433006 534.1094 60.433006Q533.375 60.433006 532.875 60.91738Q532.3906 61.401756 532.34375 62.22988Z" fill-rule="nonzero"/><path fill="#9e9e9e" d="M507.21875 82.93301L506.17188 82.93301L506.17188 76.21426Q505.78125 76.57363 505.15625 76.94863Q504.54688 77.30801 504.0625 77.47988L504.0625 76.46426Q504.9375 76.04238 505.59375 75.46426Q506.26562 74.87051 506.54688 74.30801L507.21875 74.30801L507.21875 82.93301ZM515.71875 76.44863L514.6719 76.52676Q514.53125 75.90176 514.28125 75.62051Q513.84375 75.16738 513.21875 75.16738Q512.71875 75.16738 512.3281 75.44863Q511.84375 75.82363 511.54688 76.52676Q511.26562 77.21426 511.25 78.49551Q511.625 77.91738 512.1719 77.63613Q512.7344 77.35488 513.34375 77.35488Q514.3906 77.35488 515.125 78.13613Q515.875 78.91738 515.875 80.13613Q515.875 80.94863 515.5156 81.65176Q515.1719 82.33926 514.5625 82.71426Q513.9531 83.07363 513.1875 83.07363Q511.85938 83.07363 511.03125 82.10488Q510.20312 81.13613 510.20312 78.91738Q510.20312 76.41738 511.125 75.29238Q511.92188 74.30801 513.28125 74.30801Q514.2969 74.30801 514.9375 74.88613Q515.59375 75.44863 515.71875 76.44863ZM511.42188 80.15176Q511.42188 80.69863 511.64062 81.19863Q511.875 81.68301 512.28125 81.94863Q512.7031 82.21426 513.1719 82.21426Q513.8281 82.21426 514.3125 81.68301Q514.7969 81.13613 514.7969 80.21426Q514.7969 79.32363 514.3125 78.80801Q513.84375 78.29238 513.125 78.29238Q512.40625 78.29238 511.90625 78.80801Q511.42188 79.32363 511.42188 80.15176ZM517.8125 82.93301L517.8125 81.72988L519.0156 81.72988L519.0156 82.93301Q519.0156 83.58926 518.78125 83.99551Q518.5469 84.41738 518.0469 84.63613L517.75 84.18301Q518.0781 84.04238 518.2344 83.74551Q518.3906 83.46426 518.4219 82.93301L517.8125 82.93301ZM520.25 78.69863Q520.25 77.16738 520.5625 76.24551Q520.875 75.30801 521.4844 74.80801Q522.1094 74.30801 523.0469 74.30801Q523.7344 74.30801 524.25 74.58926Q524.78125 74.87051 525.125 75.40176Q525.46875 75.91738 525.65625 76.66738Q525.84375 77.41738 525.84375 78.69863Q525.84375 80.21426 525.53125 81.13613Q525.2344 82.05801 524.6094 82.57363Q524.0 83.07363 523.0469 83.07363Q521.8125 83.07363 521.09375 82.18301Q520.25 81.12051 520.25 78.69863ZM521.3281 78.69863Q521.3281 80.80801 521.8281 81.51113Q522.3281 82.21426 523.0469 82.21426Q523.78125 82.21426 524.2656 81.51113Q524.7656 80.80801 524.7656 78.69863Q524.7656 76.57363 524.2656 75.88613Q523.78125 75.18301 523.03125 75.18301Q522.3125 75.18301 521.875 75.79238Q521.3281 76.57363 521.3281 78.69863ZM527.4531 76.40176Q527.4531 75.47988 527.90625 74.83926Q528.375 74.19863 529.25 74.19863Q530.0625 74.19863 530.59375 74.77676Q531.125 75.35488 531.125 76.46426Q531.125 77.55801 530.5781 78.15176Q530.0469 78.72988 529.2656 78.72988Q528.4844 78.72988 527.96875 78.15176Q527.4531 77.57363 527.4531 76.40176ZM529.28125 74.91738Q528.8906 74.91738 528.625 75.26113Q528.375 75.60488 528.375 76.51113Q528.375 77.33926 528.625 77.68301Q528.8906 78.01113 529.28125 78.01113Q529.6875 78.01113 529.9375 77.66738Q530.2031 77.32363 530.2031 76.43301Q530.2031 75.58926 529.9375 75.26113Q529.6719 74.91738 529.28125 74.91738ZM529.28125 83.24551L533.9844 74.19863L534.84375 74.19863L530.15625 83.24551L529.28125 83.24551ZM533.0 80.91738Q533.0 79.99551 533.4531 79.35488Q533.9219 78.71426 534.8125 78.71426Q535.625 78.71426 536.15625 79.29238Q536.6875 79.85488 536.6875 80.97988Q536.6875 82.07363 536.1406 82.66738Q535.6094 83.24551 534.8125 83.24551Q534.0469 83.24551 533.5156 82.66738Q533.0 82.08926 533.0 80.91738ZM534.84375 79.43301Q534.4375 79.43301 534.1719 79.77676Q533.9219 80.12051 533.9219 81.02676Q533.9219 81.83926 534.1875 82.18301Q534.4531 82.52676 534.84375 82.52676Q535.2344 82.52676 535.5 82.18301Q535.7656 81.83926 535.7656 80.93301Q535.7656 80.10488 535.5 79.77676Q535.2344 79.43301 534.84375 79.43301Z" fill-rule="nonzero"/><path stroke="#757575" stroke-width="1.0" stroke-linecap="butt" d="M537.75 70.43301L438.75 70.43301L348.6766 70.43301" fill-rule="nonzero"/><path fill="#9e9e9e" d="M350.6766 70.43301C350.6766 69.32844 349.78116 68.43301 348.6766 68.43301C347.57202 68.43301 346.6766 69.32844 346.6766 70.43301C346.6766 71.537575 347.57202 72.43301 348.6766 72.43301C349.78116 72.43301 350.6766 71.537575 350.6766 70.43301" fill-rule="nonzero"/><path fill="#1a1a1a" d="M519.7344 160.06929L523.03125 151.47554L524.25 151.47554L527.7656 160.06929L526.4844 160.06929L525.46875 157.45992L521.8906 157.45992L520.9375 160.06929L519.7344 160.06929ZM522.21875 156.53804L525.125 156.53804L524.2344 154.16304Q523.8125 153.08492 523.625 152.38179Q523.4531 153.20992 523.15625 154.02242L522.21875 156.53804ZM527.5469 160.06929L527.5469 153.85054L528.4844 153.85054L528.4844 154.72554Q528.78125 154.25679 529.2656 153.99117Q529.75 153.70992 530.375 153.70992Q531.0625 153.70992 531.5 153.99117Q531.9531 154.27242 532.125 154.78804Q532.875 153.70992 534.0469 153.70992Q534.9844 153.70992 535.46875 154.22554Q535.96875 154.72554 535.96875 155.80367L535.96875 160.06929L534.9219 160.06929L534.9219 156.14742Q534.9219 155.52242 534.8125 155.24117Q534.71875 154.95992 534.4531 154.78804Q534.1875 154.61617 533.8125 154.61617Q533.15625 154.61617 532.71875 155.05367Q532.2969 155.49117 532.2969 156.45992L532.2969 160.06929L531.2344 160.06929L531.2344 156.02242Q531.2344 155.31929 530.96875 154.97554Q530.71875 154.61617 530.1406 154.61617Q529.6875 154.61617 529.3125 154.85054Q528.9375 155.08492 528.7656 155.53804Q528.59375 155.99117 528.59375 156.83492L528.59375 160.06929L527.5469 160.06929Z" fill-rule="nonzero"/><path fill="#9e9e9e" d="M507.21875 177.06929L506.17188 177.06929L506.17188 170.35054Q505.78125 170.70992 505.15625 171.08492Q504.54688 171.44429 504.0625 171.61617L504.0625 170.60054Q504.9375 170.17867 505.59375 169.60054Q506.26562 169.00679 506.54688 168.44429L507.21875 168.44429L507.21875 177.06929ZM510.40625 175.08492L511.42188 174.99117Q511.54688 175.70992 511.90625 176.03804Q512.28125 176.35054 512.84375 176.35054Q513.3281 176.35054 513.6875 176.13179Q514.0625 175.89742 514.2969 175.53804Q514.53125 175.16304 514.6875 174.53804Q514.84375 173.89742 514.84375 173.24117Q514.84375 173.16304 514.84375 173.02242Q514.53125 173.52242 513.9844 173.85054Q513.4375 174.16304 512.7969 174.16304Q511.71875 174.16304 510.98438 173.39742Q510.25 172.61617 510.25 171.35054Q510.25 170.03804 511.01562 169.24117Q511.79688 168.44429 512.9531 168.44429Q513.78125 168.44429 514.46875 168.89742Q515.1719 169.35054 515.53125 170.19429Q515.8906 171.02242 515.8906 172.60054Q515.8906 174.24117 515.53125 175.22554Q515.1875 176.19429 514.46875 176.70992Q513.7656 177.20992 512.8281 177.20992Q511.8125 177.20992 511.17188 176.66304Q510.53125 176.10054 510.40625 175.08492ZM514.71875 171.28804Q514.71875 170.38179 514.2344 169.85054Q513.7656 169.31929 513.0781 169.31929Q512.375 169.31929 511.84375 169.89742Q511.32812 170.45992 511.32812 171.38179Q511.32812 172.19429 511.82812 172.70992Q512.3281 173.22554 513.0469 173.22554Q513.78125 173.22554 514.25 172.70992Q514.71875 172.19429 514.71875 171.28804ZM517.8125 177.06929L517.8125 175.86617L519.0156 175.86617L519.0156 177.06929Q519.0156 177.72554 518.78125 178.13179Q518.5469 178.55367 518.0469 178.77242L517.75 178.31929Q518.0781 178.17867 518.2344 177.88179Q518.3906 177.60054 518.4219 177.06929L517.8125 177.06929ZM524.21875 177.06929L523.1719 177.06929L523.1719 170.35054Q522.78125 170.70992 522.15625 171.08492Q521.5469 171.44429 521.0625 171.61617L521.0625 170.60054Q521.9375 170.17867 522.59375 169.60054Q523.2656 169.00679 523.5469 168.44429L524.21875 168.44429L524.21875 177.06929ZM527.4531 170.53804Q527.4531 169.61617 527.90625 168.97554Q528.375 168.33492 529.25 168.33492Q530.0625 168.33492 530.59375 168.91304Q531.125 169.49117 531.125 170.60054Q531.125 171.69429 530.5781 172.28804Q530.0469 172.86617 529.2656 172.86617Q528.4844 172.86617 527.96875 172.28804Q527.4531 171.70992 527.4531 170.53804ZM529.28125 169.05367Q528.8906 169.05367 528.625 169.39742Q528.375 169.74117 528.375 170.64742Q528.375 171.47554 528.625 171.81929Q528.8906 172.14742 529.28125 172.14742Q529.6875 172.14742 529.9375 171.80367Q530.2031 171.45992 530.2031 170.56929Q530.2031 169.72554 529.9375 169.39742Q529.6719 169.05367 529.28125 169.05367ZM529.28125 177.38179L533.9844 168.33492L534.84375 168.33492L530.15625 177.38179L529.28125 177.38179ZM533.0 175.05367Q533.0 174.13179 533.4531 173.49117Q533.9219 172.85054 534.8125 172.85054Q535.625 172.85054 536.15625 173.42867Q536.6875 173.99117 536.6875 175.11617Q536.6875 176.20992 536.1406 176.80367Q535.6094 177.38179 534.8125 177.38179Q534.0469 177.38179 533.5156 176.80367Q533.0 176.22554 533.0 175.05367ZM534.84375 173.56929Q534.4375 173.56929 534.1719 173.91304Q533.9219 174.25679 533.9219 175.16304Q533.9219 175.97554 534.1875 176.31929Q534.4531 176.66304 534.84375 176.66304Q535.2344 176.66304 535.5 176.31929Q535.7656 175.97554 535.7656 175.06929Q535.7656 174.24117 535.5 173.91304Q535.2344 173.56929 534.84375 173.56929Z" fill-rule="nonzero"/><path stroke="#757575" stroke-width="1.0" stroke-linecap="butt" d="M537.75 164.56929L438.75 164.56929L424.8921 164.56929" fill-rule="nonzero"/><path fill="#9e9e9e" d="M426.8921 164.56929C426.8921 163.46472 425.99664 162.56929 424.8921 162.56929C423.7875 162.56929 422.8921 163.46472 422.8921 164.56929C422.8921 165.67386 423.7875 166.56929 424.8921 166.56929C425.99664 166.56929 426.8921 165.67386 426.8921 164.56929" fill-rule="nonzero"/><path fill="#1a1a1a" d="M523.7344 259.5975L527.03125 251.00375L528.25 251.00375L531.7656 259.5975L530.4844 259.5975L529.46875 256.98813L525.8906 256.98813L524.9375 259.5975L523.7344 259.5975ZM526.21875 256.06625L529.125 256.06625L528.2344 253.69125Q527.8125 252.61313 527.625 251.91Q527.4531 252.73813 527.15625 253.55063L526.21875 256.06625ZM531.5469 259.5975L531.5469 253.37875L532.4844 253.37875L532.4844 254.25375Q533.1719 253.23813 534.46875 253.23813Q535.03125 253.23813 535.5 253.44125Q535.9844 253.64438 536.21875 253.9725Q536.4531 254.30063 536.5469 254.73813Q536.59375 255.035 536.59375 255.76938L536.59375 259.5975L535.5469 259.5975L535.5469 255.81625Q535.5469 255.16 535.4219 254.8475Q535.2969 254.535 534.9844 254.3475Q534.6719 254.14438 534.25 254.14438Q533.5781 254.14438 533.0781 254.58188Q532.59375 255.00375 532.59375 256.19125L532.59375 259.5975L531.5469 259.5975Z" fill-rule="nonzero"/><path fill="#9e9e9e" d="M508.79688 275.58188L508.79688 276.5975L503.10938 276.5975Q503.10938 276.2225 503.23438 275.86313Q503.45312 275.285 503.92188 274.7225Q504.40625 274.16 505.3125 273.42563Q506.71875 272.26938 507.20312 271.5975Q507.70312 270.92563 507.70312 270.33188Q507.70312 269.70688 507.25 269.285Q506.79688 268.8475 506.07812 268.8475Q505.3125 268.8475 504.85938 269.30063Q504.40625 269.75375 504.39062 270.56625L503.3125 270.45688Q503.42188 269.23813 504.14062 268.61313Q504.875 267.9725 506.10938 267.9725Q507.34375 267.9725 508.0625 268.66Q508.78125 269.3475 508.78125 270.36313Q508.78125 270.87875 508.5625 271.37875Q508.35938 271.86313 507.85938 272.42563Q507.375 272.9725 506.25 273.92563Q505.29688 274.7225 505.01562 275.01938Q504.75 275.30063 504.57812 275.58188L508.79688 275.58188ZM510.40625 274.61313L511.42188 274.51938Q511.54688 275.23813 511.90625 275.56625Q512.28125 275.87875 512.84375 275.87875Q513.3281 275.87875 513.6875 275.66Q514.0625 275.42563 514.2969 275.06625Q514.53125 274.69125 514.6875 274.06625Q514.84375 273.42563 514.84375 272.76938Q514.84375 272.69125 514.84375 272.55063Q514.53125 273.05063 513.9844 273.37875Q513.4375 273.69125 512.7969 273.69125Q511.71875 273.69125 510.98438 272.92563Q510.25 272.14438 510.25 270.87875Q510.25 269.56625 511.01562 268.76938Q511.79688 267.9725 512.9531 267.9725Q513.78125 267.9725 514.46875 268.42563Q515.1719 268.87875 515.53125 269.7225Q515.8906 270.55063 515.8906 272.12875Q515.8906 273.76938 515.53125 274.75375Q515.1875 275.7225 514.46875 276.23813Q513.7656 276.73813 512.8281 276.73813Q511.8125 276.73813 511.17188 276.19125Q510.53125 275.62875 510.40625 274.61313ZM514.71875 270.81625Q514.71875 269.91 514.2344 269.37875Q513.7656 268.8475 513.0781 268.8475Q512.375 268.8475 511.84375 269.42563Q511.32812 269.98813 511.32812 270.91Q511.32812 271.7225 511.82812 272.23813Q512.3281 272.75375 513.0469 272.75375Q513.78125 272.75375 514.25 272.23813Q514.71875 271.7225 514.71875 270.81625ZM517.8125 276.5975L517.8125 275.39438L519.0156 275.39438L519.0156 276.5975Q519.0156 277.25375 518.78125 277.66Q518.5469 278.08188 518.0469 278.30063L517.75 277.8475Q518.0781 277.70688 518.2344 277.41Q518.3906 277.12875 518.4219 276.5975L517.8125 276.5975ZM521.875 271.94125Q521.21875 271.69125 520.8906 271.25375Q520.5781 270.80063 520.5781 270.19125Q520.5781 269.25375 521.25 268.61313Q521.9375 267.9725 523.0469 267.9725Q524.1719 267.9725 524.8594 268.62875Q525.5469 269.285 525.5469 270.2225Q525.5469 270.81625 525.2344 271.25375Q524.9219 271.69125 524.28125 271.94125Q525.0781 272.19125 525.4844 272.76938Q525.8906 273.3475 525.8906 274.14438Q525.8906 275.23813 525.1094 275.98813Q524.34375 276.73813 523.0625 276.73813Q521.7969 276.73813 521.0156 275.98813Q520.2344 275.23813 520.2344 274.11313Q520.2344 273.26938 520.65625 272.70688Q521.09375 272.14438 521.875 271.94125ZM521.65625 270.14438Q521.65625 270.75375 522.0469 271.14438Q522.4531 271.535 523.0781 271.535Q523.6875 271.535 524.0781 271.16Q524.46875 270.76938 524.46875 270.20688Q524.46875 269.62875 524.0625 269.23813Q523.65625 268.83188 523.0625 268.83188Q522.4531 268.83188 522.0469 269.2225Q521.65625 269.61313 521.65625 270.14438ZM521.3281 274.11313Q521.3281 274.56625 521.53125 274.98813Q521.75 275.41 522.1719 275.64438Q522.59375 275.87875 523.0781 275.87875Q523.8281 275.87875 524.3125 275.39438Q524.8125 274.91 524.8125 274.16Q524.8125 273.39438 524.3125 272.89438Q523.8125 272.39438 523.0469 272.39438Q522.2969 272.39438 521.8125 272.89438Q521.3281 273.37875 521.3281 274.11313ZM527.4531 270.06625Q527.4531 269.14438 527.90625 268.50375Q528.375 267.86313 529.25 267.86313Q530.0625 267.86313 530.59375 268.44125Q531.125 269.01938 531.125 270.12875Q531.125 271.2225 530.5781 271.81625Q530.0469 272.39438 529.2656 272.39438Q528.4844 272.39438 527.96875 271.81625Q527.4531 271.23813 527.4531 270.06625ZM529.28125 268.58188Q528.8906 268.58188 528.625 268.92563Q528.375 269.26938 528.375 270.17563Q528.375 271.00375 528.625 271.3475Q528.8906 271.67563 529.28125 271.67563Q529.6875 271.67563 529.9375 271.33188Q530.2031 270.98813 530.2031 270.0975Q530.2031 269.25375 529.9375 268.92563Q529.6719 268.58188 529.28125 268.58188ZM529.28125 276.91L533.9844 267.86313L534.84375 267.86313L530.15625 276.91L529.28125 276.91ZM533.0 274.58188Q533.0 273.66 533.4531 273.01938Q533.9219 272.37875 534.8125 272.37875Q535.625 272.37875 536.15625 272.95688Q536.6875 273.51938 536.6875 274.64438Q536.6875 275.73813 536.1406 276.33188Q535.6094 276.91 534.8125 276.91Q534.0469 276.91 533.5156 276.33188Q533.0 275.75375 533.0 274.58188ZM534.84375 273.0975Q534.4375 273.0975 534.1719 273.44125Q533.9219 273.785 533.9219 274.69125Q533.9219 275.50375 534.1875 275.8475Q534.4531 276.19125 534.84375 276.19125Q535.2344 276.19125 535.5 275.8475Q535.7656 275.50375 535.7656 274.5975Q535.7656 273.76938 535.5 273.44125Q535.2344 273.0975 534.84375 273.0975Z" fill-rule="nonzero"/><path stroke="#757575" stroke-width="1.0" stroke-linecap="butt" d="M537.75 264.0975L438.75 264.0975L277.5 264.0975" fill-rule="nonzero"/><path fill="#9e9e9e" d="M279.5 264.0975C279.5 262.99292 278.60458 262.0975 277.5 262.0975C276.39542 262.0975 275.5 262.99292 275.5 264.0975C275.5 265.20206 276.39542 266.0975 277.5 266.0975C278.60458 266.0975 279.5 265.20206 279.5 264.0975" fill-rule="nonzero"/></svg>