<svg version="1.1" viewBox="0.0 0.0 600.0 371.0" fill="none" stroke="none" stroke-linecap="square" stroke-miterlimit="10" width="600" height="371" xmlns:xlink="http://www.w3.org/1999/xlink" xmlns="http://www.w3.org/2000/svg"><path fill="#ffffff" d="M0 0L600.0 0L600.0 371.0L0 371.0L0 0Z" fill-rule="nonzero"/><path fill="#ea4335" d="M300.0 53.1475C372.4058 53.1475 435.00165 88.506516 450.29675 138.04683L300.0 160.78416Z" fill-rule="nonzero"/><path fill="#2e5dab" d="M453.76666 183.84917C453.76666 243.29526 384.92297 291.48584 300.0 291.48584C215.07701 291.48584 146.23334 243.29526 146.23334 183.84917L146.23334 160.78416C146.23334 220.23026 215.07701 268.42084 300.0 268.42084C384.92297 268.42084 453.76666 220.23026 453.76666 160.78416Z" fill-rule="nonzero"/><path fill="#4285f4" d="M450.29675 138.04683C464.0662 182.64555 436.16827 228.47551 380.67746 252.41557C325.18665 276.35562 254.16191 273.20325 203.43512 244.54878C152.70833 215.89433 133.30316 167.96486 155.0095 124.940704C176.71585 81.91655 234.8166 53.1475 300.0 53.1475L300.0 160.78416Z" fill-rule="nonzero"/><path fill="#000000" d="M350.41577 107.8928L350.41577 109.0803L343.79077 109.0803Q343.77515 108.6428 343.9314 108.220924Q344.19702 107.54905 344.7439 106.8928Q345.3064 106.23655 346.35327 105.377174Q347.9939 104.033424 348.5564 103.252174Q349.13452 102.470924 349.13452 101.7678Q349.13452 101.033424 348.60327 100.533424Q348.08765 100.033424 347.25952 100.033424Q346.3689 100.033424 345.82202 100.564674Q345.29077 101.095924 345.29077 102.04905L344.02515 101.908424Q344.15015 100.502174 344.9939 99.7678Q345.85327 99.0178 347.27515 99.0178Q348.72827 99.0178 349.5564 99.814674Q350.40015 100.61155 350.40015 101.79905Q350.40015 102.408424 350.15015 102.98655Q349.91577 103.564674 349.33765 104.2053Q348.77515 104.845924 347.44702 105.970924Q346.33765 106.8928 346.02515 107.23655Q345.71265 107.564674 345.50952 107.8928L350.41577 107.8928ZM352.63452 109.0803L352.63452 107.67405L354.04077 107.67405L354.04077 109.0803L352.63452 109.0803ZM355.96265 106.439674L357.1814 106.2678Q357.40015 107.314674 357.90015 107.783424Q358.41577 108.23655 359.15015 108.23655Q360.02515 108.23655 360.6189 107.6428Q361.21265 107.033424 361.21265 106.1428Q361.21265 105.29905 360.65015 104.752174Q360.10327 104.2053 359.25952 104.2053Q358.90015 104.2053 358.38452 104.3303L358.52515 103.252174Q358.65015 103.2678 358.71265 103.2678Q359.50952 103.2678 360.13452 102.86155Q360.75952 102.4553 360.75952 101.595924Q360.75952 100.92405 360.3064 100.48655Q359.85327 100.033424 359.1189 100.033424Q358.40015 100.033424 357.91577 100.48655Q357.44702 100.92405 357.3064 101.8303L356.08765 101.61155Q356.3064 100.377174 357.10327 99.7053Q357.90015 99.0178 359.08765 99.0178Q359.91577 99.0178 360.60327 99.377174Q361.29077 99.720924 361.65015 100.3303Q362.02515 100.939674 362.02515 101.627174Q362.02515 102.2678 361.6814 102.79905Q361.33765 103.3303 360.65015 103.658424Q361.54077 103.86155 362.02515 104.502174Q362.52515 105.1428 362.52515 106.127174Q362.52515 107.439674 361.5564 108.345924Q360.60327 109.252174 359.15015 109.252174Q357.82202 109.252174 356.94702 108.470924Q356.08765 107.689674 355.96265 106.439674ZM364.13452 106.7678L365.32202 106.658424Q365.46265 107.48655 365.88452 107.86155Q366.32202 108.23655 366.97827 108.23655Q367.54077 108.23655 367.96265 107.98655Q368.40015 107.720924 368.66577 107.283424Q368.94702 106.845924 369.13452 106.11155Q369.32202 105.377174 369.32202 104.61155Q369.32202 104.533424 369.3064 104.36155Q368.94702 104.9553 368.3064 105.3303Q367.66577 105.689674 366.91577 105.689674Q365.66577 105.689674 364.8064 104.783424Q363.94702 103.877174 363.94702 102.408424Q363.94702 100.877174 364.83765 99.9553Q365.7439 99.0178 367.10327 99.0178Q368.07202 99.0178 368.88452 99.54905Q369.69702 100.064674 370.1189 101.04905Q370.54077 102.0178 370.54077 103.86155Q370.54077 105.783424 370.1189 106.92405Q369.71265 108.064674 368.88452 108.658424Q368.0564 109.252174 366.94702 109.252174Q365.77515 109.252174 365.02515 108.595924Q364.29077 107.939674 364.13452 106.7678ZM369.16577 102.345924Q369.16577 101.283424 368.60327 100.658424Q368.04077 100.033424 367.25952 100.033424Q366.4314 100.033424 365.82202 100.7053Q365.21265 101.377174 365.21265 102.439674Q365.21265 103.3928 365.79077 104.002174Q366.3689 104.595924 367.21265 104.595924Q368.07202 104.595924 368.6189 104.002174Q369.16577 103.3928 369.16577 102.345924ZM371.96265 106.439674L373.1814 106.2678Q373.40015 107.314674 373.90015 107.783424Q374.41577 108.23655 375.15015 108.23655Q376.02515 108.23655 376.6189 107.6428Q377.21265 107.033424 377.21265 106.1428Q377.21265 105.29905 376.65015 104.752174Q376.10327 104.2053 375.25952 104.2053Q374.90015 104.2053 374.38452 104.3303L374.52515 103.252174Q374.65015 103.2678 374.71265 103.2678Q375.50952 103.2678 376.13452 102.86155Q376.75952 102.4553 376.75952 101.595924Q376.75952 100.92405 376.3064 100.48655Q375.85327 100.033424 375.1189 100.033424Q374.40015 100.033424 373.91577 100.48655Q373.44702 100.92405 373.3064 101.8303L372.08765 101.61155Q372.3064 100.377174 373.10327 99.7053Q373.90015 99.0178 375.08765 99.0178Q375.91577 99.0178 376.60327 99.377174Q377.29077 99.720924 377.65015 100.3303Q378.02515 100.939674 378.02515 101.627174Q378.02515 102.2678 377.6814 102.79905Q377.33765 103.3303 376.65015 103.658424Q377.54077 103.86155 378.02515 104.502174Q378.52515 105.1428 378.52515 106.127174Q378.52515 107.439674 377.5564 108.345924Q376.60327 109.252174 375.15015 109.252174Q373.82202 109.252174 372.94702 108.470924Q372.08765 107.689674 371.96265 106.439674ZM384.77515 100.0178Q383.6189 100.0178 382.83765 100.5803Q382.38452 100.908424 381.9939 101.502174Q381.6189 102.127174 381.5564 102.689674L386.21265 102.689674L386.02515 103.61155L381.44702 103.61155Q381.4314 103.752174 381.4314 103.877174Q381.4314 104.408424 381.44702 104.502174L385.83765 104.502174L385.65015 105.42405L381.58765 105.42405Q381.8689 106.98655 382.96265 107.6428Q383.7439 108.11155 384.66577 108.11155Q385.94702 108.11155 386.66577 107.439674L386.66577 108.86155Q385.8064 109.252174 384.77515 109.252174Q381.6814 109.252174 380.60327 106.67405Q380.38452 106.158424 380.22827 105.42405L379.1814 105.42405L379.3689 104.502174L380.08765 104.502174Q380.07202 104.220924 380.07202 103.877174Q380.07202 103.752174 380.07202 103.61155L379.1814 103.61155L379.3689 102.689674L380.16577 102.689674Q380.58765 100.4553 382.3689 99.48655Q383.47827 98.8928 384.79077 98.8928Q386.07202 98.8928 386.9314 99.439674L386.66577 100.7053Q385.82202 100.0178 384.77515 100.0178Z" fill-rule="nonzero"/><path fill="#000000" d="M215.09984 217.05054Q214.33421 216.76929 213.95921 216.25366Q213.59984 215.73804 213.59984 215.00366Q213.59984 213.90991 214.38109 213.17554Q215.17796 212.42554 216.47484 212.42554Q217.78734 212.42554 218.58421 213.19116Q219.39671 213.95679 219.39671 215.05054Q219.39671 215.73804 219.02171 216.25366Q218.66234 216.76929 217.91234 217.05054Q218.83421 217.34741 219.31859 218.01929Q219.80296 218.69116 219.80296 219.62866Q219.80296 220.90991 218.89671 221.78491Q217.99046 222.65991 216.50609 222.65991Q215.02171 222.65991 214.09984 221.78491Q213.19359 220.89429 213.19359 219.58179Q213.19359 218.61304 213.69359 217.95679Q214.19359 217.28491 215.09984 217.05054ZM214.86546 214.97241Q214.86546 215.67554 215.31859 216.12866Q215.77171 216.58179 216.50609 216.58179Q217.22484 216.58179 217.67796 216.14429Q218.13109 215.69116 218.13109 215.03491Q218.13109 214.36304 217.66234 213.90991Q217.19359 213.44116 216.49046 213.44116Q215.78734 213.44116 215.31859 213.89429Q214.86546 214.33179 214.86546 214.97241ZM214.45921 219.59741Q214.45921 220.12866 214.70921 220.62866Q214.95921 221.11304 215.44359 221.37866Q215.94359 221.64429 216.52171 221.64429Q217.39671 221.64429 217.95921 221.08179Q218.53734 220.51929 218.53734 219.64429Q218.53734 218.75366 217.94359 218.17554Q217.36546 217.58179 216.47484 217.58179Q215.59984 217.58179 215.02171 218.15991Q214.45921 218.73804 214.45921 219.59741ZM221.89671 222.48804L221.89671 221.08179L223.30296 221.08179L223.30296 222.48804L221.89671 222.48804ZM231.59984 214.92554L230.38109 215.01929Q230.20921 214.28491 229.91234 213.95679Q229.41234 213.44116 228.67796 213.44116Q228.08421 213.44116 227.64671 213.76929Q227.06859 214.19116 226.72484 215.00366Q226.39671 215.81616 226.38109 217.31616Q226.81859 216.64429 227.45921 216.31616Q228.11546 215.98804 228.81859 215.98804Q230.05296 215.98804 230.91234 216.89429Q231.77171 217.80054 231.77171 219.23804Q231.77171 220.17554 231.36546 220.98804Q230.95921 221.80054 230.24046 222.23804Q229.53734 222.65991 228.63109 222.65991Q227.09984 222.65991 226.13109 221.53491Q225.16234 220.39429 225.16234 217.80054Q225.16234 214.89429 226.22484 213.56616Q227.16234 212.42554 228.75609 212.42554Q229.94359 212.42554 230.69359 213.09741Q231.44359 213.75366 231.59984 214.92554ZM226.56859 219.23804Q226.56859 219.87866 226.83421 220.45679Q227.11546 221.03491 227.59984 221.34741Q228.08421 221.64429 228.61546 221.64429Q229.39671 221.64429 229.95921 221.01929Q230.52171 220.39429 230.52171 219.31616Q230.52171 218.26929 229.95921 217.67554Q229.41234 217.06616 228.56859 217.06616Q227.74046 217.06616 227.14671 217.67554Q226.56859 218.26929 226.56859 219.23804ZM233.28734 213.78491L233.28734 212.59741L239.78734 212.59741L239.78734 213.55054Q238.81859 214.56616 237.88109 216.25366Q236.94359 217.94116 236.42796 219.73804Q236.06859 220.98804 235.95921 222.48804L234.69359 222.48804Q234.70921 221.30054 235.14671 219.62866Q235.59984 217.95679 236.42796 216.40991Q237.27171 214.84741 238.20921 213.78491L233.28734 213.78491ZM243.09984 217.05054Q242.33421 216.76929 241.95921 216.25366Q241.59984 215.73804 241.59984 215.00366Q241.59984 213.90991 242.38109 213.17554Q243.17796 212.42554 244.47484 212.42554Q245.78734 212.42554 246.58421 213.19116Q247.39671 213.95679 247.39671 215.05054Q247.39671 215.73804 247.02171 216.25366Q246.66234 216.76929 245.91234 217.05054Q246.83421 217.34741 247.31859 218.01929Q247.80296 218.69116 247.80296 219.62866Q247.80296 220.90991 246.89671 221.78491Q245.99046 222.65991 244.50609 222.65991Q243.02171 222.65991 242.09984 221.78491Q241.19359 220.89429 241.19359 219.58179Q241.19359 218.61304 241.69359 217.95679Q242.19359 217.28491 243.09984 217.05054ZM242.86546 214.97241Q242.86546 215.67554 243.31859 216.12866Q243.77171 216.58179 244.50609 216.58179Q245.22484 216.58179 245.67796 216.14429Q246.13109 215.69116 246.13109 215.03491Q246.13109 214.36304 245.66234 213.90991Q245.19359 213.44116 244.49046 213.44116Q243.78734 213.44116 243.31859 213.89429Q242.86546 214.33179 242.86546 214.97241ZM242.45921 219.59741Q242.45921 220.12866 242.70921 220.62866Q242.95921 221.11304 243.44359 221.37866Q243.94359 221.64429 244.52171 221.64429Q245.39671 221.64429 245.95921 221.08179Q246.53734 220.51929 246.53734 219.64429Q246.53734 218.75366 245.94359 218.17554Q245.36546 217.58179 244.47484 217.58179Q243.59984 217.58179 243.02171 218.15991Q242.45921 218.73804 242.45921 219.59741ZM254.03734 213.42554Q252.88109 213.42554 252.09984 213.98804Q251.64671 214.31616 251.25609 214.90991Q250.88109 215.53491 250.81859 216.09741L255.47484 216.09741L255.28734 217.01929L250.70921 217.01929Q250.69359 217.15991 250.69359 217.28491Q250.69359 217.81616 250.70921 217.90991L255.09984 217.90991L254.91234 218.83179L250.84984 218.83179Q251.13109 220.39429 252.22484 221.05054Q253.00609 221.51929 253.92796 221.51929Q255.20921 221.51929 255.92796 220.84741L255.92796 222.26929Q255.06859 222.65991 254.03734 222.65991Q250.94359 222.65991 249.86546 220.08179Q249.64671 219.56616 249.49046 218.83179L248.44359 218.83179L248.63109 217.90991L249.34984 217.90991Q249.33421 217.62866 249.33421 217.28491Q249.33421 217.15991 249.33421 217.01929L248.44359 217.01929L248.63109 216.09741L249.42796 216.09741Q249.84984 213.86304 251.63109 212.89429Q252.74046 212.30054 254.05296 212.30054Q255.33421 212.30054 256.1936 212.84741L255.92796 214.11304Q255.08421 213.42554 254.03734 213.42554Z" fill-rule="nonzero"/><path fill="#ea4335" d="M195.0 345.45C195.0 348.7637 192.3137 351.45 189.0 351.45C185.6863 351.45 183.0 348.7637 183.0 345.45C183.0 342.1363 185.6863 339.45 189.0 339.45C192.3137 339.45 195.0 342.1363 195.0 345.45Z" fill-rule="nonzero"/><path fill="#000000" d="M203.875 349.45L203.875 340.85626L207.10938 340.85626Q208.09375 340.85626 208.6875 341.1219Q209.28125 341.3875 209.60938 341.9344Q209.95312 342.46564 209.95312 343.0594Q209.95312 343.60626 209.65625 344.09064Q209.35938 344.575 208.75 344.8719Q209.53125 345.10626 209.9375 345.66876Q210.35938 346.21564 210.35938 346.96564Q210.35938 347.5594 210.10938 348.09064Q209.85938 348.60626 209.48438 348.8875Q209.10938 349.16876 208.53125 349.3094Q207.96875 349.45 207.15625 349.45L203.875 349.45ZM205.01562 344.46564L206.875 344.46564Q207.625 344.46564 207.95312 344.3719Q208.39062 344.2469 208.60938 343.95Q208.82812 343.6375 208.82812 343.1844Q208.82812 342.7625 208.625 342.4344Q208.42188 342.10626 208.03125 341.9969Q207.65625 341.8719 206.73438 341.8719L205.01562 341.8719L205.01562 344.46564ZM205.01562 348.4344L207.15625 348.4344Q207.70312 348.4344 207.92188 348.3875Q208.32812 348.325 208.57812 348.16876Q208.84375 347.9969 209.01562 347.6844Q209.1875 347.3719 209.1875 346.96564Q209.1875 346.48126 208.9375 346.1219Q208.70312 345.7625 208.26562 345.6219Q207.82812 345.48126 207.0 345.48126L205.01562 345.48126L205.01562 348.4344ZM215.875 349.45L215.875 348.52814Q215.14062 349.59064 213.89062 349.59064Q213.34375 349.59064 212.85938 349.3875Q212.39062 349.16876 212.15625 348.85626Q211.92188 348.52814 211.82812 348.0594Q211.76562 347.7625 211.76562 347.075L211.76562 343.23126L212.82812 343.23126L212.82812 346.6844Q212.82812 347.4969 212.89062 347.79376Q212.98438 348.2 213.29688 348.45Q213.625 348.6844 214.10938 348.6844Q214.57812 348.6844 214.98438 348.45Q215.40625 348.2 215.57812 347.77814Q215.76562 347.35626 215.76562 346.5594L215.76562 343.23126L216.8125 343.23126L216.8125 349.45L215.875 349.45ZM222.82812 349.45L222.82812 348.66876Q222.23438 349.59064 221.09375 349.59064Q220.34375 349.59064 219.71875 349.1844Q219.09375 348.7625 218.75 348.02814Q218.40625 347.29376 218.40625 346.34064Q218.40625 345.41876 218.71875 344.65314Q219.03125 343.8875 219.65625 343.4969Q220.28125 343.09064 221.04688 343.09064Q221.60938 343.09064 222.04688 343.325Q222.48438 343.5594 222.76562 343.9344L222.76562 340.85626L223.8125 340.85626L223.8125 349.45L222.82812 349.45ZM219.5 346.34064Q219.5 347.54376 220.0 348.1375Q220.5 348.71564 221.1875 348.71564Q221.875 348.71564 222.35938 348.15314Q222.84375 347.59064 222.84375 346.4344Q222.84375 345.15314 222.34375 344.5594Q221.85938 343.96564 221.14062 343.96564Q220.4375 343.96564 219.96875 344.54376Q219.5 345.10626 219.5 346.34064ZM225.59375 349.96564L226.625 350.1219Q226.6875 350.59064 226.98438 350.8094Q227.375 351.10626 228.04688 351.10626Q228.78125 351.10626 229.17188 350.8094Q229.57812 350.5125 229.71875 349.9969Q229.8125 349.66876 229.79688 348.6375Q229.10938 349.45 228.07812 349.45Q226.79688 349.45 226.09375 348.52814Q225.39062 347.59064 225.39062 346.3094Q225.39062 345.41876 225.70312 344.66876Q226.03125 343.90314 226.64062 343.4969Q227.25 343.09064 228.07812 343.09064Q229.1875 343.09064 229.90625 343.98126L229.90625 343.23126L230.875 343.23126L230.875 348.60626Q230.875 350.0594 230.57812 350.66876Q230.28125 351.27814 229.64062 351.6219Q229.0 351.98126 228.0625 351.98126Q226.95312 351.98126 226.26562 351.48126Q225.57812 350.98126 225.59375 349.96564ZM226.46875 346.23126Q226.46875 347.45 226.95312 348.0125Q227.4375 348.575 228.17188 348.575Q228.90625 348.575 229.39062 348.0125Q229.89062 347.45 229.89062 346.2625Q229.89062 345.1219 229.375 344.54376Q228.875 343.96564 228.15625 343.96564Q227.45312 343.96564 226.95312 344.54376Q226.46875 345.10626 226.46875 346.23126ZM237.04688 347.45L238.14062 347.575Q237.89062 348.52814 237.1875 349.0594Q236.48438 349.59064 235.40625 349.59064Q234.04688 349.59064 233.23438 348.7469Q232.4375 347.90314 232.4375 346.3875Q232.4375 344.825 233.25 343.96564Q234.0625 343.09064 235.34375 343.09064Q236.59375 343.09064 237.375 343.9344Q238.17188 344.77814 238.17188 346.325Q238.17188 346.41876 238.17188 346.60626L233.53125 346.60626Q233.59375 347.6375 234.10938 348.1844Q234.625 348.71564 235.40625 348.71564Q235.98438 348.71564 236.39062 348.41876Q236.8125 348.10626 237.04688 347.45ZM233.59375 345.7469L237.0625 345.7469Q237.0 344.95 236.67188 344.5594Q236.15625 343.95 235.35938 343.95Q234.625 343.95 234.125 344.4344Q233.64062 344.91876 233.59375 345.7469ZM242.09375 348.5125L242.25 349.4344Q241.79688 349.52814 241.45312 349.52814Q240.875 349.52814 240.5625 349.35626Q240.25 349.16876 240.10938 348.8719Q239.98438 348.575 239.98438 347.6219L239.98438 344.04376L239.21875 344.04376L239.21875 343.23126L239.98438 343.23126L239.98438 341.6844L241.03125 341.0594L241.03125 343.23126L242.09375 343.23126L242.09375 344.04376L241.03125 344.04376L241.03125 347.6844Q241.03125 348.1375 241.07812 348.2625Q241.14062 348.3875 241.26562 348.46564Q241.39062 348.54376 241.625 348.54376Q241.8125 348.54376 242.09375 348.5125ZM245.375 347.59064L246.40625 347.4344Q246.5 348.0594 246.89062 348.3875Q247.29688 348.71564 248.03125 348.71564Q248.75 348.71564 249.09375 348.4344Q249.45312 348.1375 249.45312 347.73126Q249.45312 347.3719 249.14062 347.16876Q248.92188 347.02814 248.0625 346.8094Q246.90625 346.5125 246.45312 346.3094Q246.01562 346.09064 245.78125 345.71564Q245.54688 345.34064 245.54688 344.8719Q245.54688 344.46564 245.73438 344.10626Q245.92188 343.7469 246.25 343.5125Q246.5 343.34064 246.92188 343.21564Q247.34375 343.09064 247.84375 343.09064Q248.5625 343.09064 249.10938 343.3094Q249.67188 343.5125 249.9375 343.8719Q250.20312 344.23126 250.29688 344.825L249.26562 344.96564Q249.20312 344.4969 248.85938 344.23126Q248.53125 343.95 247.90625 343.95Q247.1875 343.95 246.875 344.2Q246.5625 344.4344 246.5625 344.7625Q246.5625 344.96564 246.6875 345.1219Q246.82812 345.29376 247.09375 345.40314Q247.25 345.46564 248.03125 345.66876Q249.15625 345.98126 249.59375 346.16876Q250.03125 346.35626 250.28125 346.71564Q250.53125 347.075 250.53125 347.6219Q250.53125 348.15314 250.21875 348.6219Q249.92188 349.075 249.34375 349.34064Q248.76562 349.59064 248.03125 349.59064Q246.8125 349.59064 246.17188 349.09064Q245.54688 348.575 245.375 347.59064ZM252.79688 351.84064L252.79688 343.23126L253.75 343.23126L253.75 344.02814Q254.09375 343.5594 254.51562 343.325Q254.95312 343.09064 255.5625 343.09064Q256.35938 343.09064 256.96875 343.4969Q257.57812 343.90314 257.875 344.65314Q258.1875 345.40314 258.1875 346.29376Q258.1875 347.2469 257.84375 348.0125Q257.51562 348.77814 256.85938 349.1844Q256.20312 349.59064 255.48438 349.59064Q254.95312 349.59064 254.53125 349.3719Q254.10938 349.1375 253.84375 348.8094L253.84375 351.84064L252.79688 351.84064ZM253.75 346.3719Q253.75 347.575 254.23438 348.15314Q254.71875 348.71564 255.40625 348.71564Q256.10938 348.71564 256.60938 348.1219Q257.10938 347.52814 257.10938 346.27814Q257.10938 345.09064 256.625 344.5125Q256.14062 343.91876 255.45312 343.91876Q254.78125 343.91876 254.26562 344.54376Q253.75 345.16876 253.75 346.3719ZM264.04688 347.45L265.14062 347.575Q264.89062 348.52814 264.1875 349.0594Q263.48438 349.59064 262.40625 349.59064Q261.04688 349.59064 260.23438 348.7469Q259.4375 347.90314 259.4375 346.3875Q259.4375 344.825 260.25 343.96564Q261.0625 343.09064 262.34375 343.09064Q263.59375 343.09064 264.375 343.9344Q265.17188 344.77814 265.17188 346.325Q265.17188 346.41876 265.17188 346.60626L260.53125 346.60626Q260.59375 347.6375 261.10938 348.1844Q261.625 348.71564 262.40625 348.71564Q262.98438 348.71564 263.39062 348.41876Q263.8125 348.10626 264.04688 347.45ZM260.59375 345.7469L264.0625 345.7469Q264.0 344.95 263.67188 344.5594Q263.15625 343.95 262.35938 343.95Q261.625 343.95 261.125 344.4344Q260.64062 344.91876 260.59375 345.7469ZM266.375 347.59064L267.40625 347.4344Q267.5 348.0594 267.89062 348.3875Q268.29688 348.71564 269.03125 348.71564Q269.75 348.71564 270.09375 348.4344Q270.45312 348.1375 270.45312 347.73126Q270.45312 347.3719 270.14062 347.16876Q269.92188 347.02814 269.0625 346.8094Q267.90625 346.5125 267.45312 346.3094Q267.01562 346.09064 266.78125 345.71564Q266.54688 345.34064 266.54688 344.8719Q266.54688 344.46564 266.73438 344.10626Q266.92188 343.7469 267.25 343.5125Q267.5 343.34064 267.92188 343.21564Q268.34375 343.09064 268.84375 343.09064Q269.5625 343.09064 270.10938 343.3094Q270.67188 343.5125 270.9375 343.8719Q271.20312 344.23126 271.29688 344.825L270.26562 344.96564Q270.20312 344.4969 269.85938 344.23126Q269.53125 343.95 268.90625 343.95Q268.1875 343.95 267.875 344.2Q267.5625 344.4344 267.5625 344.7625Q267.5625 344.96564 267.6875 345.1219Q267.82812 345.29376 268.09375 345.40314Q268.25 345.46564 269.03125 345.66876Q270.15625 345.98126 270.59375 346.16876Q271.03125 346.35626 271.28125 346.71564Q271.53125 347.075 271.53125 347.6219Q271.53125 348.15314 271.21875 348.6219Q270.92188 349.075 270.34375 349.34064Q269.76562 349.59064 269.03125 349.59064Q267.8125 349.59064 267.17188 349.09064Q266.54688 348.575 266.375 347.59064ZM273.40625 346.34064Q273.40625 344.60626 274.35938 343.77814Q275.15625 343.09064 276.3125 343.09064Q277.59375 343.09064 278.40625 343.9344Q279.23438 344.7625 279.23438 346.2469Q279.23438 347.45 278.875 348.1375Q278.51562 348.825 277.8125 349.21564Q277.125 349.59064 276.3125 349.59064Q275.01562 349.59064 274.20312 348.7625Q273.40625 347.91876 273.40625 346.34064ZM274.48438 346.34064Q274.48438 347.52814 275.0 348.1219Q275.53125 348.71564 276.3125 348.71564Q277.10938 348.71564 277.625 348.1219Q278.14062 347.52814 278.14062 346.3094Q278.14062 345.15314 277.60938 344.5594Q277.09375 343.96564 276.3125 343.96564Q275.53125 343.96564 275.0 344.5594Q274.48438 345.1375 274.48438 346.34064ZM281.09375 349.45L281.09375 348.2469L282.29688 348.2469L282.29688 349.45L281.09375 349.45Z" fill-rule="nonzero"/><path fill="#4285f4" d="M311.0 345.45C311.0 348.7637 308.31372 351.45 305.0 351.45C301.68628 351.45 299.0 348.7637 299.0 345.45C299.0 342.1363 301.68628 339.45 305.0 339.45C308.31372 339.45 311.0 342.1363 311.0 345.45Z" fill-rule="nonzero"/><path fill="#000000" d="M319.875 349.45L319.875 340.85626L323.10938 340.85626Q324.09375 340.85626 324.6875 341.1219Q325.28125 341.3875 325.60938 341.9344Q325.95312 342.46564 325.95312 343.0594Q325.95312 343.60626 325.65625 344.09064Q325.35938 344.575 324.75 344.8719Q325.53125 345.10626 325.9375 345.66876Q326.35938 346.21564 326.35938 346.96564Q326.35938 347.5594 326.10938 348.09064Q325.85938 348.60626 325.48438 348.8875Q325.10938 349.16876 324.53125 349.3094Q323.96875 349.45 323.15625 349.45L319.875 349.45ZM321.01562 344.46564L322.875 344.46564Q323.625 344.46564 323.95312 344.3719Q324.39062 344.2469 324.60938 343.95Q324.82812 343.6375 324.82812 343.1844Q324.82812 342.7625 324.625 342.4344Q324.42188 342.10626 324.03125 341.9969Q323.65625 341.8719 322.73438 341.8719L321.01562 341.8719L321.01562 344.46564ZM321.01562 348.4344L323.15625 348.4344Q323.70312 348.4344 323.92188 348.3875Q324.32812 348.325 324.57812 348.16876Q324.84375 347.9969 325.01562 347.6844Q325.1875 347.3719 325.1875 346.96564Q325.1875 346.48126 324.9375 346.1219Q324.70312 345.7625 324.26562 345.6219Q323.82812 345.48126 323.0 345.48126L321.01562 345.48126L321.01562 348.4344ZM331.875 349.45L331.875 348.52814Q331.14062 349.59064 329.89062 349.59064Q329.34375 349.59064 328.85938 349.3875Q328.39062 349.16876 328.15625 348.85626Q327.92188 348.52814 327.82812 348.0594Q327.76562 347.7625 327.76562 347.075L327.76562 343.23126L328.82812 343.23126L328.82812 346.6844Q328.82812 347.4969 328.89062 347.79376Q328.98438 348.2 329.29688 348.45Q329.625 348.6844 330.10938 348.6844Q330.57812 348.6844 330.98438 348.45Q331.40625 348.2 331.57812 347.77814Q331.76562 347.35626 331.76562 346.5594L331.76562 343.23126L332.8125 343.23126L332.8125 349.45L331.875 349.45ZM338.82812 349.45L338.82812 348.66876Q338.23438 349.59064 337.09375 349.59064Q336.34375 349.59064 335.71875 349.1844Q335.09375 348.7625 334.75 348.02814Q334.40625 347.29376 334.40625 346.34064Q334.40625 345.41876 334.71875 344.65314Q335.03125 343.8875 335.65625 343.4969Q336.28125 343.09064 337.04688 343.09064Q337.60938 343.09064 338.04688 343.325Q338.48438 343.5594 338.76562 343.9344L338.76562 340.85626L339.8125 340.85626L339.8125 349.45L338.82812 349.45ZM335.5 346.34064Q335.5 347.54376 336.0 348.1375Q336.5 348.71564 337.1875 348.71564Q337.875 348.71564 338.35938 348.15314Q338.84375 347.59064 338.84375 346.4344Q338.84375 345.15314 338.34375 344.5594Q337.85938 343.96564 337.14062 343.96564Q336.4375 343.96564 335.96875 344.54376Q335.5 345.10626 335.5 346.34064ZM341.59375 349.96564L342.625 350.1219Q342.6875 350.59064 342.98438 350.8094Q343.375 351.10626 344.04688 351.10626Q344.78125 351.10626 345.17188 350.8094Q345.57812 350.5125 345.71875 349.9969Q345.8125 349.66876 345.79688 348.6375Q345.10938 349.45 344.07812 349.45Q342.79688 349.45 342.09375 348.52814Q341.39062 347.59064 341.39062 346.3094Q341.39062 345.41876 341.70312 344.66876Q342.03125 343.90314 342.64062 343.4969Q343.25 343.09064 344.07812 343.09064Q345.1875 343.09064 345.90625 343.98126L345.90625 343.23126L346.875 343.23126L346.875 348.60626Q346.875 350.0594 346.57812 350.66876Q346.28125 351.27814 345.64062 351.6219Q345.0 351.98126 344.0625 351.98126Q342.95312 351.98126 342.26562 351.48126Q341.57812 350.98126 341.59375 349.96564ZM342.46875 346.23126Q342.46875 347.45 342.95312 348.0125Q343.4375 348.575 344.17188 348.575Q344.90625 348.575 345.39062 348.0125Q345.89062 347.45 345.89062 346.2625Q345.89062 345.1219 345.375 344.54376Q344.875 343.96564 344.15625 343.96564Q343.45312 343.96564 342.95312 344.54376Q342.46875 345.10626 342.46875 346.23126ZM353.04688 347.45L354.14062 347.575Q353.89062 348.52814 353.1875 349.0594Q352.48438 349.59064 351.40625 349.59064Q350.04688 349.59064 349.23438 348.7469Q348.4375 347.90314 348.4375 346.3875Q348.4375 344.825 349.25 343.96564Q350.0625 343.09064 351.34375 343.09064Q352.59375 343.09064 353.375 343.9344Q354.17188 344.77814 354.17188 346.325Q354.17188 346.41876 354.17188 346.60626L349.53125 346.60626Q349.59375 347.6375 350.10938 348.1844Q350.625 348.71564 351.40625 348.71564Q351.98438 348.71564 352.39062 348.41876Q352.8125 348.10626 353.04688 347.45ZM349.59375 345.7469L353.0625 345.7469Q353.0 344.95 352.67188 344.5594Q352.15625 343.95 351.35938 343.95Q350.625 343.95 350.125 344.4344Q349.64062 344.91876 349.59375 345.7469ZM358.09375 348.5125L358.25 349.4344Q357.79688 349.52814 357.45312 349.52814Q356.875 349.52814 356.5625 349.35626Q356.25 349.16876 356.10938 348.8719Q355.98438 348.575 355.98438 347.6219L355.98438 344.04376L355.21875 344.04376L355.21875 343.23126L355.98438 343.23126L355.98438 341.6844L357.03125 341.0594L357.03125 343.23126L358.09375 343.23126L358.09375 344.04376L357.03125 344.04376L357.03125 347.6844Q357.03125 348.1375 357.07812 348.2625Q357.14062 348.3875 357.26562 348.46564Q357.39062 348.54376 357.625 348.54376Q357.8125 348.54376 358.09375 348.5125ZM361.78125 349.45L361.78125 343.23126L362.73438 343.23126L362.73438 344.16876Q363.09375 343.5125 363.39062 343.3094Q363.70312 343.09064 364.07812 343.09064Q364.60938 343.09064 365.15625 343.41876L364.79688 344.40314Q364.40625 344.16876 364.03125 344.16876Q363.67188 344.16876 363.39062 344.3875Q363.125 344.59064 363.01562 344.96564Q362.82812 345.52814 362.82812 346.1844L362.82812 349.45L361.78125 349.45ZM365.79688 342.075L365.79688 340.85626L366.85938 340.85626L366.85938 342.075L365.79688 342.075ZM365.79688 349.45L365.79688 343.23126L366.85938 343.23126L366.85938 349.45L365.79688 349.45ZM368.79688 349.45L368.79688 343.23126L369.73438 343.23126L369.73438 344.10626Q370.03125 343.6375 370.51562 343.3719Q371.0 343.09064 371.625 343.09064Q372.3125 343.09064 372.75 343.3719Q373.20312 343.65314 373.375 344.16876Q374.125 343.09064 375.29688 343.09064Q376.23438 343.09064 376.71875 343.60626Q377.21875 344.10626 377.21875 345.1844L377.21875 349.45L376.17188 349.45L376.17188 345.52814Q376.17188 344.90314 376.0625 344.6219Q375.96875 344.34064 375.70312 344.16876Q375.4375 343.9969 375.0625 343.9969Q374.40625 343.9969 373.96875 344.4344Q373.54688 344.8719 373.54688 345.84064L373.54688 349.45L372.48438 349.45L372.48438 345.40314Q372.48438 344.7 372.21875 344.35626Q371.96875 343.9969 371.39062 343.9969Q370.9375 343.9969 370.5625 344.23126Q370.1875 344.46564 370.01562 344.91876Q369.84375 345.3719 369.84375 346.21564L369.84375 349.45L368.79688 349.45ZM383.85938 348.6844Q383.26562 349.1844 382.71875 349.3875Q382.1875 349.59064 381.5625 349.59064Q380.53125 349.59064 379.98438 349.09064Q379.4375 348.59064 379.4375 347.8094Q379.4375 347.35626 379.64062 346.98126Q379.84375 346.59064 380.1875 346.3719Q380.53125 346.1375 380.95312 346.02814Q381.25 345.9344 381.89062 345.85626Q383.15625 345.71564 383.76562 345.4969Q383.76562 345.27814 383.76562 345.23126Q383.76562 344.575 383.46875 344.3094Q383.0625 343.96564 382.26562 343.96564Q381.53125 343.96564 381.17188 344.23126Q380.8125 344.48126 380.64062 345.1375L379.60938 344.9969Q379.75 344.34064 380.07812 343.9344Q380.40625 343.52814 381.01562 343.3094Q381.625 343.09064 382.42188 343.09064Q383.21875 343.09064 383.71875 343.27814Q384.21875 343.46564 384.45312 343.7469Q384.6875 344.02814 384.78125 344.46564Q384.82812 344.73126 384.82812 345.4344L384.82812 346.84064Q384.82812 348.3094 384.89062 348.7Q384.96875 349.09064 385.17188 349.45L384.0625 349.45Q383.90625 349.1219 383.85938 348.6844ZM383.76562 346.325Q383.1875 346.5594 382.04688 346.73126Q381.39062 346.825 381.125 346.95Q380.85938 347.0594 380.70312 347.27814Q380.5625 347.4969 380.5625 347.77814Q380.5625 348.2 380.875 348.48126Q381.20312 348.7625 381.8125 348.7625Q382.42188 348.7625 382.89062 348.4969Q383.375 348.23126 383.59375 347.7625Q383.76562 347.40314 383.76562 346.71564L383.76562 346.325ZM386.79688 349.45L386.79688 343.23126L387.73438 343.23126L387.73438 344.10626Q388.42188 343.09064 389.71875 343.09064Q390.28125 343.09064 390.75 343.29376Q391.23438 343.4969 391.46875 343.825Q391.70312 344.15314 391.79688 344.59064Q391.84375 344.8875 391.84375 345.6219L391.84375 349.45L390.79688 349.45L390.79688 345.66876Q390.79688 345.0125 390.67188 344.7Q390.54688 344.3875 390.23438 344.2Q389.92188 343.9969 389.5 343.9969Q388.82812 343.9969 388.32812 344.4344Q387.84375 344.85626 387.84375 346.04376L387.84375 349.45L386.79688 349.45ZM398.04688 347.45L399.14062 347.575Q398.89062 348.52814 398.1875 349.0594Q397.48438 349.59064 396.40625 349.59064Q395.04688 349.59064 394.23438 348.7469Q393.4375 347.90314 393.4375 346.3875Q393.4375 344.825 394.25 343.96564Q395.0625 343.09064 396.34375 343.09064Q397.59375 343.09064 398.375 343.9344Q399.17188 344.77814 399.17188 346.325Q399.17188 346.41876 399.17188 346.60626L394.53125 346.60626Q394.59375 347.6375 395.10938 348.1844Q395.625 348.71564 396.40625 348.71564Q396.98438 348.71564 397.39062 348.41876Q397.8125 348.10626 398.04688 347.45ZM394.59375 345.7469L398.0625 345.7469Q398.0 344.95 397.67188 344.5594Q397.15625 343.95 396.35938 343.95Q395.625 343.95 395.125 344.4344Q394.64062 344.91876 394.59375 345.7469ZM400.79688 349.45L400.79688 343.23126L401.73438 343.23126L401.73438 344.10626Q402.42188 343.09064 403.71875 343.09064Q404.28125 343.09064 404.75 343.29376Q405.23438 343.4969 405.46875 343.825Q405.70312 344.15314 405.79688 344.59064Q405.84375 344.8875 405.84375 345.6219L405.84375 349.45L404.79688 349.45L404.79688 345.66876Q404.79688 345.0125 404.67188 344.7Q404.54688 344.3875 404.23438 344.2Q403.92188 343.9969 403.5 343.9969Q402.82812 343.9969 402.32812 344.4344Q401.84375 344.85626 401.84375 346.04376L401.84375 349.45L400.79688 349.45ZM410.09375 348.5125L410.25 349.4344Q409.79688 349.52814 409.45312 349.52814Q408.875 349.52814 408.5625 349.35626Q408.25 349.16876 408.10938 348.8719Q407.98438 348.575 407.98438 347.6219L407.98438 344.04376L407.21875 344.04376L407.21875 343.23126L407.98438 343.23126L407.98438 341.6844L409.03125 341.0594L409.03125 343.23126L410.09375 343.23126L410.09375 344.04376L409.03125 344.04376L409.03125 347.6844Q409.03125 348.1375 409.07812 348.2625Q409.14062 348.3875 409.26562 348.46564Q409.39062 348.54376 409.625 348.54376Q409.8125 348.54376 410.09375 348.5125ZM415.04688 347.45L416.14062 347.575Q415.89062 348.52814 415.1875 349.0594Q414.48438 349.59064 413.40625 349.59064Q412.04688 349.59064 411.23438 348.7469Q410.4375 347.90314 410.4375 346.3875Q410.4375 344.825 411.25 343.96564Q412.0625 343.09064 413.34375 343.09064Q414.59375 343.09064 415.375 343.9344Q416.17188 344.77814 416.17188 346.325Q416.17188 346.41876 416.17188 346.60626L411.53125 346.60626Q411.59375 347.6375 412.10938 348.1844Q412.625 348.71564 413.40625 348.71564Q413.98438 348.71564 414.39062 348.41876Q414.8125 348.10626 415.04688 347.45ZM411.59375 345.7469L415.0625 345.7469Q415.0 344.95 414.67188 344.5594Q414.15625 343.95 413.35938 343.95Q412.625 343.95 412.125 344.4344Q411.64062 344.91876 411.59375 345.7469Z" fill-rule="nonzero"/></svg>