<svg version="1.1" viewBox="0.0 0.0 600.0 371.0" fill="none" stroke="none" stroke-linecap="square" stroke-miterlimit="10" width="600" height="371" xmlns:xlink="http://www.w3.org/1999/xlink" xmlns="http://www.w3.org/2000/svg"><path fill="#ffffff" d="M0 0L600.0 0L600.0 371.0L0 371.0L0 0Z" fill-rule="nonzero"/><path fill="#ea4335" d="M300.0 53.1475C374.86917 53.1475 438.856 90.894165 451.5429 142.54466L300.0 160.78416Z" fill-rule="nonzero"/><path fill="#2e5dab" d="M453.76666 183.84917C453.76666 243.29526 384.92297 291.48584 300.0 291.48584C215.07701 291.48584 146.23334 243.29526 146.23334 183.84917L146.23334 160.78416C146.23334 220.23026 215.07701 268.42084 300.0 268.42084C384.92297 268.42084 453.76666 220.23026 453.76666 160.78416Z" fill-rule="nonzero"/><path fill="#4285f4" d="M451.5429 142.54466C462.48682 187.09917 432.49136 231.69257 376.4578 254.1716C320.4242 276.65063 250.29541 272.22418 200.9102 243.09119C151.525 213.9582 133.40929 166.32806 155.56265 123.86264C177.716 81.39721 235.4167 53.1475 300.0 53.1475L300.0 160.78416Z" fill-rule="nonzero"/><path fill="#000000" d="M352.0545 108.93807L352.0545 110.12557L345.4295 110.12557Q345.41388 109.68807 345.57013 109.2662Q345.83575 108.59432 346.38263 107.93807Q346.94513 107.28182 347.992 106.42245Q349.63263 105.0787 350.19513 104.29745Q350.77325 103.5162 350.77325 102.81307Q350.77325 102.0787 350.242 101.5787Q349.72638 101.0787 348.89825 101.0787Q348.00763 101.0787 347.46075 101.60995Q346.9295 102.1412 346.9295 103.09432L345.66388 102.9537Q345.78888 101.54745 346.63263 100.81307Q347.492 100.06307 348.91388 100.06307Q350.367 100.06307 351.19513 100.85995Q352.03888 101.65682 352.03888 102.84432Q352.03888 103.4537 351.78888 104.03182Q351.5545 104.60995 350.97638 105.25057Q350.41388 105.8912 349.08575 107.0162Q347.97638 107.93807 347.66388 108.28182Q347.35138 108.60995 347.14825 108.93807L352.0545 108.93807ZM354.27325 110.12557L354.27325 108.71932L355.6795 108.71932L355.6795 110.12557L354.27325 110.12557ZM361.53888 110.12557L361.53888 107.71932L357.1795 107.71932L357.1795 106.59432L361.75763 100.10995L362.75763 100.10995L362.75763 106.59432L364.117 106.59432L364.117 107.71932L362.75763 107.71932L362.75763 110.12557L361.53888 110.12557ZM361.53888 106.59432L361.53888 102.0787L358.39825 106.59432L361.53888 106.59432ZM371.97638 102.56307L370.75763 102.65682Q370.58575 101.92245 370.28888 101.59432Q369.78888 101.0787 369.0545 101.0787Q368.46075 101.0787 368.02325 101.40682Q367.44513 101.8287 367.10138 102.6412Q366.77325 103.4537 366.75763 104.9537Q367.19513 104.28182 367.83575 103.9537Q368.492 103.62557 369.19513 103.62557Q370.4295 103.62557 371.28888 104.53182Q372.14825 105.43807 372.14825 106.87557Q372.14825 107.81307 371.742 108.62557Q371.33575 109.43807 370.617 109.87557Q369.91388 110.29745 369.00763 110.29745Q367.47638 110.29745 366.50763 109.17245Q365.53888 108.03182 365.53888 105.43807Q365.53888 102.53182 366.60138 101.2037Q367.53888 100.06307 369.13263 100.06307Q370.32013 100.06307 371.07013 100.73495Q371.82013 101.3912 371.97638 102.56307ZM366.94513 106.87557Q366.94513 107.5162 367.21075 108.09432Q367.492 108.67245 367.97638 108.98495Q368.46075 109.28182 368.992 109.28182Q369.77325 109.28182 370.33575 108.65682Q370.89825 108.03182 370.89825 106.9537Q370.89825 105.90682 370.33575 105.31307Q369.78888 104.7037 368.94513 104.7037Q368.117 104.7037 367.52325 105.31307Q366.94513 105.90682 366.94513 106.87557ZM375.47638 104.68807Q374.71075 104.40682 374.33575 103.8912Q373.97638 103.37557 373.97638 102.6412Q373.97638 101.54745 374.75763 100.81307Q375.5545 100.06307 376.85138 100.06307Q378.16388 100.06307 378.96075 100.8287Q379.77325 101.59432 379.77325 102.68807Q379.77325 103.37557 379.39825 103.8912Q379.03888 104.40682 378.28888 104.68807Q379.21075 104.98495 379.69513 105.65682Q380.1795 106.3287 380.1795 107.2662Q380.1795 108.54745 379.27325 109.42245Q378.367 110.29745 376.88263 110.29745Q375.39825 110.29745 374.47638 109.42245Q373.57013 108.53182 373.57013 107.21932Q373.57013 106.25057 374.07013 105.59432Q374.57013 104.92245 375.47638 104.68807ZM375.242 102.60995Q375.242 103.31307 375.69513 103.7662Q376.14825 104.21932 376.88263 104.21932Q377.60138 104.21932 378.0545 103.78182Q378.50763 103.3287 378.50763 102.67245Q378.50763 102.00057 378.03888 101.54745Q377.57013 101.0787 376.867 101.0787Q376.16388 101.0787 375.69513 101.53182Q375.242 101.96932 375.242 102.60995ZM374.83575 107.23495Q374.83575 107.7662 375.08575 108.2662Q375.33575 108.75057 375.82013 109.0162Q376.32013 109.28182 376.89825 109.28182Q377.77325 109.28182 378.33575 108.71932Q378.91388 108.15682 378.91388 107.28182Q378.91388 106.3912 378.32013 105.81307Q377.742 105.21932 376.85138 105.21932Q375.97638 105.21932 375.39825 105.79745Q374.83575 106.37557 374.83575 107.23495ZM386.41388 101.06307Q385.25763 101.06307 384.47638 101.62557Q384.02325 101.9537 383.63263 102.54745Q383.25763 103.17245 383.19513 103.73495L387.85138 103.73495L387.66388 104.65682L383.08575 104.65682Q383.07013 104.79745 383.07013 104.92245Q383.07013 105.4537 383.08575 105.54745L387.47638 105.54745L387.28888 106.46932L383.22638 106.46932Q383.50763 108.03182 384.60138 108.68807Q385.38263 109.15682 386.3045 109.15682Q387.58575 109.15682 388.3045 108.48495L388.3045 109.90682Q387.44513 110.29745 386.41388 110.29745Q383.32013 110.29745 382.242 107.71932Q382.02325 107.2037 381.867 106.46932L380.82013 106.46932L381.00763 105.54745L381.72638 105.54745Q381.71075 105.2662 381.71075 104.92245Q381.71075 104.79745 381.71075 104.65682L380.82013 104.65682L381.00763 103.73495L381.8045 103.73495Q382.22638 101.50057 384.00763 100.53182Q385.117 99.93807 386.4295 99.93807Q387.71075 99.93807 388.57013 100.48495L388.3045 101.75057Q387.46075 101.06307 386.41388 101.06307Z" fill-rule="nonzero"/><path fill="#000000" d="M213.46112 216.00526Q212.6955 215.72401 212.3205 215.20839Q211.96112 214.69276 211.96112 213.95839Q211.96112 212.86464 212.74237 212.13026Q213.53925 211.38026 214.83612 211.38026Q216.14862 211.38026 216.9455 212.14589Q217.758 212.91151 217.758 214.00526Q217.758 214.69276 217.383 215.20839Q217.02362 215.72401 216.27362 216.00526Q217.1955 216.30214 217.67987 216.97401Q218.16425 217.64589 218.16425 218.58339Q218.16425 219.86464 217.258 220.73964Q216.35175 221.61464 214.86737 221.61464Q213.383 221.61464 212.46112 220.73964Q211.55487 219.84901 211.55487 218.53651Q211.55487 217.56776 212.05487 216.91151Q212.55487 216.23964 213.46112 216.00526ZM213.22675 213.92714Q213.22675 214.63026 213.67987 215.08339Q214.133 215.53651 214.86737 215.53651Q215.58612 215.53651 216.03925 215.09901Q216.49237 214.64589 216.49237 213.98964Q216.49237 213.31776 216.02362 212.86464Q215.55487 212.39589 214.85175 212.39589Q214.14862 212.39589 213.67987 212.84901Q213.22675 213.28651 213.22675 213.92714ZM212.8205 218.55214Q212.8205 219.08339 213.0705 219.58339Q213.3205 220.06776 213.80487 220.33339Q214.30487 220.59901 214.883 220.59901Q215.758 220.59901 216.3205 220.03651Q216.89862 219.47401 216.89862 218.59901Q216.89862 217.70839 216.30487 217.13026Q215.72675 216.53651 214.83612 216.53651Q213.96112 216.53651 213.383 217.11464Q212.8205 217.69276 212.8205 218.55214ZM220.258 221.44276L220.258 220.03651L221.66425 220.03651L221.66425 221.44276L220.258 221.44276ZM229.96112 213.88026L228.74237 213.97401Q228.5705 213.23964 228.27362 212.91151Q227.77362 212.39589 227.03925 212.39589Q226.4455 212.39589 226.008 212.72401Q225.42987 213.14589 225.08612 213.95839Q224.758 214.77089 224.74237 216.27089Q225.17987 215.59901 225.8205 215.27089Q226.47675 214.94276 227.17987 214.94276Q228.41425 214.94276 229.27362 215.84901Q230.133 216.75526 230.133 218.19276Q230.133 219.13026 229.72675 219.94276Q229.3205 220.75526 228.60175 221.19276Q227.89862 221.61464 226.99237 221.61464Q225.46112 221.61464 224.49237 220.48964Q223.52362 219.34901 223.52362 216.75526Q223.52362 213.84901 224.58612 212.52089Q225.52362 211.38026 227.11737 211.38026Q228.30487 211.38026 229.05487 212.05214Q229.80487 212.70839 229.96112 213.88026ZM224.92987 218.19276Q224.92987 218.83339 225.1955 219.41151Q225.47675 219.98964 225.96112 220.30214Q226.4455 220.59901 226.97675 220.59901Q227.758 220.59901 228.3205 219.97401Q228.883 219.34901 228.883 218.27089Q228.883 217.22401 228.3205 216.63026Q227.77362 216.02089 226.92987 216.02089Q226.10175 216.02089 225.508 216.63026Q224.92987 217.22401 224.92987 218.19276ZM231.5705 216.50526Q231.5705 214.72401 231.92987 213.64589Q232.30487 212.55214 233.02362 211.97401Q233.74237 211.38026 234.83612 211.38026Q235.64862 211.38026 236.258 211.70839Q236.86737 212.03651 237.258 212.64589Q237.66425 213.25526 237.883 214.13026Q238.10175 215.00526 238.10175 216.50526Q238.10175 218.27089 237.74237 219.34901Q237.383 220.42714 236.66425 221.02089Q235.9455 221.61464 234.83612 221.61464Q233.39862 221.61464 232.5705 220.56776Q231.5705 219.31776 231.5705 216.50526ZM232.83612 216.50526Q232.83612 218.97401 233.41425 219.78651Q233.99237 220.59901 234.83612 220.59901Q235.6955 220.59901 236.27362 219.78651Q236.85175 218.95839 236.85175 216.50526Q236.85175 214.02089 236.27362 213.20839Q235.6955 212.39589 234.8205 212.39589Q233.97675 212.39589 233.47675 213.11464Q232.83612 214.03651 232.83612 216.50526ZM239.58612 218.80214L240.80487 218.63026Q241.02362 219.67714 241.52362 220.14589Q242.03925 220.59901 242.77362 220.59901Q243.64862 220.59901 244.24237 220.00526Q244.83612 219.39589 244.83612 218.50526Q244.83612 217.66151 244.27362 217.11464Q243.72675 216.56776 242.883 216.56776Q242.52362 216.56776 242.008 216.69276L242.14862 215.61464Q242.27362 215.63026 242.33612 215.63026Q243.133 215.63026 243.758 215.22401Q244.383 214.81776 244.383 213.95839Q244.383 213.28651 243.92987 212.84901Q243.47675 212.39589 242.74237 212.39589Q242.02362 212.39589 241.53925 212.84901Q241.0705 213.28651 240.92987 214.19276L239.71112 213.97401Q239.92987 212.73964 240.72675 212.06776Q241.52362 211.38026 242.71112 211.38026Q243.53925 211.38026 244.22675 211.73964Q244.91425 212.08339 245.27362 212.69276Q245.64862 213.30214 245.64862 213.98964Q245.64862 214.63026 245.30487 215.16151Q244.96112 215.69276 244.27362 216.02089Q245.16425 216.22401 245.64862 216.86464Q246.14862 217.50526 246.14862 218.48964Q246.14862 219.80214 245.17987 220.70839Q244.22675 221.61464 242.77362 221.61464Q241.4455 221.61464 240.5705 220.83339Q239.71112 220.05214 239.58612 218.80214ZM252.39862 212.38026Q251.24237 212.38026 250.46112 212.94276Q250.008 213.27089 249.61737 213.86464Q249.24237 214.48964 249.17987 215.05214L253.83612 215.05214L253.64862 215.97401L249.0705 215.97401Q249.05487 216.11464 249.05487 216.23964Q249.05487 216.77089 249.0705 216.86464L253.46112 216.86464L253.27362 217.78651L249.21112 217.78651Q249.49237 219.34901 250.58612 220.00526Q251.36737 220.47401 252.28925 220.47401Q253.5705 220.47401 254.28925 219.80214L254.28925 221.22401Q253.42987 221.61464 252.39862 221.61464Q249.30487 221.61464 248.22675 219.03651Q248.008 218.52089 247.85175 217.78651L246.80487 217.78651L246.99237 216.86464L247.71112 216.86464Q247.6955 216.58339 247.6955 216.23964Q247.6955 216.11464 247.6955 215.97401L246.80487 215.97401L246.99237 215.05214L247.78925 215.05214Q248.21112 212.81776 249.99237 211.84901Q251.10175 211.25526 252.41425 211.25526Q253.6955 211.25526 254.55487 211.80214L254.28925 213.06776Q253.4455 212.38026 252.39862 212.38026Z" fill-rule="nonzero"/><path fill="#ea4335" d="M195.0 345.45C195.0 348.7637 192.3137 351.45 189.0 351.45C185.6863 351.45 183.0 348.7637 183.0 345.45C183.0 342.1363 185.6863 339.45 189.0 339.45C192.3137 339.45 195.0 342.1363 195.0 345.45Z" fill-rule="nonzero"/><path fill="#000000" d="M203.875 349.45L203.875 340.85626L207.10938 340.85626Q208.09375 340.85626 208.6875 341.1219Q209.28125 341.3875 209.60938 341.9344Q209.95312 342.46564 209.95312 343.0594Q209.95312 343.60626 209.65625 344.09064Q209.35938 344.575 208.75 344.8719Q209.53125 345.10626 209.9375 345.66876Q210.35938 346.21564 210.35938 346.96564Q210.35938 347.5594 210.10938 348.09064Q209.85938 348.60626 209.48438 348.8875Q209.10938 349.16876 208.53125 349.3094Q207.96875 349.45 207.15625 349.45L203.875 349.45ZM205.01562 344.46564L206.875 344.46564Q207.625 344.46564 207.95312 344.3719Q208.39062 344.2469 208.60938 343.95Q208.82812 343.6375 208.82812 343.1844Q208.82812 342.7625 208.625 342.4344Q208.42188 342.10626 208.03125 341.9969Q207.65625 341.8719 206.73438 341.8719L205.01562 341.8719L205.01562 344.46564ZM205.01562 348.4344L207.15625 348.4344Q207.70312 348.4344 207.92188 348.3875Q208.32812 348.325 208.57812 348.16876Q208.84375 347.9969 209.01562 347.6844Q209.1875 347.3719 209.1875 346.96564Q209.1875 346.48126 208.9375 346.1219Q208.70312 345.7625 208.26562 345.6219Q207.82812 345.48126 207.0 345.48126L205.01562 345.48126L205.01562 348.4344ZM215.875 349.45L215.875 348.52814Q215.14062 349.59064 213.89062 349.59064Q213.34375 349.59064 212.85938 349.3875Q212.39062 349.16876 212.15625 348.85626Q211.92188 348.52814 211.82812 348.0594Q211.76562 347.7625 211.76562 347.075L211.76562 343.23126L212.82812 343.23126L212.82812 346.6844Q212.82812 347.4969 212.89062 347.79376Q212.98438 348.2 213.29688 348.45Q213.625 348.6844 214.10938 348.6844Q214.57812 348.6844 214.98438 348.45Q215.40625 348.2 215.57812 347.77814Q215.76562 347.35626 215.76562 346.5594L215.76562 343.23126L216.8125 343.23126L216.8125 349.45L215.875 349.45ZM222.82812 349.45L222.82812 348.66876Q222.23438 349.59064 221.09375 349.59064Q220.34375 349.59064 219.71875 349.1844Q219.09375 348.7625 218.75 348.02814Q218.40625 347.29376 218.40625 346.34064Q218.40625 345.41876 218.71875 344.65314Q219.03125 343.8875 219.65625 343.4969Q220.28125 343.09064 221.04688 343.09064Q221.60938 343.09064 222.04688 343.325Q222.48438 343.5594 222.76562 343.9344L222.76562 340.85626L223.8125 340.85626L223.8125 349.45L222.82812 349.45ZM219.5 346.34064Q219.5 347.54376 220.0 348.1375Q220.5 348.71564 221.1875 348.71564Q221.875 348.71564 222.35938 348.15314Q222.84375 347.59064 222.84375 346.4344Q222.84375 345.15314 222.34375 344.5594Q221.85938 343.96564 221.14062 343.96564Q220.4375 343.96564 219.96875 344.54376Q219.5 345.10626 219.5 346.34064ZM225.59375 349.96564L226.625 350.1219Q226.6875 350.59064 226.98438 350.8094Q227.375 351.10626 228.04688 351.10626Q228.78125 351.10626 229.17188 350.8094Q229.57812 350.5125 229.71875 349.9969Q229.8125 349.66876 229.79688 348.6375Q229.10938 349.45 228.07812 349.45Q226.79688 349.45 226.09375 348.52814Q225.39062 347.59064 225.39062 346.3094Q225.39062 345.41876 225.70312 344.66876Q226.03125 343.90314 226.64062 343.4969Q227.25 343.09064 228.07812 343.09064Q229.1875 343.09064 229.90625 343.98126L229.90625 343.23126L230.875 343.23126L230.875 348.60626Q230.875 350.0594 230.57812 350.66876Q230.28125 351.27814 229.64062 351.6219Q229.0 351.98126 228.0625 351.98126Q226.95312 351.98126 226.26562 351.48126Q225.57812 350.98126 225.59375 349.96564ZM226.46875 346.23126Q226.46875 347.45 226.95312 348.0125Q227.4375 348.575 228.17188 348.575Q228.90625 348.575 229.39062 348.0125Q229.89062 347.45 229.89062 346.2625Q229.89062 345.1219 229.375 344.54376Q228.875 343.96564 228.15625 343.96564Q227.45312 343.96564 226.95312 344.54376Q226.46875 345.10626 226.46875 346.23126ZM237.04688 347.45L238.14062 347.575Q237.89062 348.52814 237.1875 349.0594Q236.48438 349.59064 235.40625 349.59064Q234.04688 349.59064 233.23438 348.7469Q232.4375 347.90314 232.4375 346.3875Q232.4375 344.825 233.25 343.96564Q234.0625 343.09064 235.34375 343.09064Q236.59375 343.09064 237.375 343.9344Q238.17188 344.77814 238.17188 346.325Q238.17188 346.41876 238.17188 346.60626L233.53125 346.60626Q233.59375 347.6375 234.10938 348.1844Q234.625 348.71564 235.40625 348.71564Q235.98438 348.71564 236.39062 348.41876Q236.8125 348.10626 237.04688 347.45ZM233.59375 345.7469L237.0625 345.7469Q237.0 344.95 236.67188 344.5594Q236.15625 343.95 235.35938 343.95Q234.625 343.95 234.125 344.4344Q233.64062 344.91876 233.59375 345.7469ZM242.09375 348.5125L242.25 349.4344Q241.79688 349.52814 241.45312 349.52814Q240.875 349.52814 240.5625 349.35626Q240.25 349.16876 240.10938 348.8719Q239.98438 348.575 239.98438 347.6219L239.98438 344.04376L239.21875 344.04376L239.21875 343.23126L239.98438 343.23126L239.98438 341.6844L241.03125 341.0594L241.03125 343.23126L242.09375 343.23126L242.09375 344.04376L241.03125 344.04376L241.03125 347.6844Q241.03125 348.1375 241.07812 348.2625Q241.14062 348.3875 241.26562 348.46564Q241.39062 348.54376 241.625 348.54376Q241.8125 348.54376 242.09375 348.5125ZM245.375 347.59064L246.40625 347.4344Q246.5 348.0594 246.89062 348.3875Q247.29688 348.71564 248.03125 348.71564Q248.75 348.71564 249.09375 348.4344Q249.45312 348.1375 249.45312 347.73126Q249.45312 347.3719 249.14062 347.16876Q248.92188 347.02814 248.0625 346.8094Q246.90625 346.5125 246.45312 346.3094Q246.01562 346.09064 245.78125 345.71564Q245.54688 345.34064 245.54688 344.8719Q245.54688 344.46564 245.73438 344.10626Q245.92188 343.7469 246.25 343.5125Q246.5 343.34064 246.92188 343.21564Q247.34375 343.09064 247.84375 343.09064Q248.5625 343.09064 249.10938 343.3094Q249.67188 343.5125 249.9375 343.8719Q250.20312 344.23126 250.29688 344.825L249.26562 344.96564Q249.20312 344.4969 248.85938 344.23126Q248.53125 343.95 247.90625 343.95Q247.1875 343.95 246.875 344.2Q246.5625 344.4344 246.5625 344.7625Q246.5625 344.96564 246.6875 345.1219Q246.82812 345.29376 247.09375 345.40314Q247.25 345.46564 248.03125 345.66876Q249.15625 345.98126 249.59375 346.16876Q250.03125 346.35626 250.28125 346.71564Q250.53125 347.075 250.53125 347.6219Q250.53125 348.15314 250.21875 348.6219Q249.92188 349.075 249.34375 349.34064Q248.76562 349.59064 248.03125 349.59064Q246.8125 349.59064 246.17188 349.09064Q245.54688 348.575 245.375 347.59064ZM252.79688 351.84064L252.79688 343.23126L253.75 343.23126L253.75 344.02814Q254.09375 343.5594 254.51562 343.325Q254.95312 343.09064 255.5625 343.09064Q256.35938 343.09064 256.96875 343.4969Q257.57812 343.90314 257.875 344.65314Q258.1875 345.40314 258.1875 346.29376Q258.1875 347.2469 257.84375 348.0125Q257.51562 348.77814 256.85938 349.1844Q256.20312 349.59064 255.48438 349.59064Q254.95312 349.59064 254.53125 349.3719Q254.10938 349.1375 253.84375 348.8094L253.84375 351.84064L252.79688 351.84064ZM253.75 346.3719Q253.75 347.575 254.23438 348.15314Q254.71875 348.71564 255.40625 348.71564Q256.10938 348.71564 256.60938 348.1219Q257.10938 347.52814 257.10938 346.27814Q257.10938 345.09064 256.625 344.5125Q256.14062 343.91876 255.45312 343.91876Q254.78125 343.91876 254.26562 344.54376Q253.75 345.16876 253.75 346.3719ZM264.04688 347.45L265.14062 347.575Q264.89062 348.52814 264.1875 349.0594Q263.48438 349.59064 262.40625 349.59064Q261.04688 349.59064 260.23438 348.7469Q259.4375 347.90314 259.4375 346.3875Q259.4375 344.825 260.25 343.96564Q261.0625 343.09064 262.34375 343.09064Q263.59375 343.09064 264.375 343.9344Q265.17188 344.77814 265.17188 346.325Q265.17188 346.41876 265.17188 346.60626L260.53125 346.60626Q260.59375 347.6375 261.10938 348.1844Q261.625 348.71564 262.40625 348.71564Q262.98438 348.71564 263.39062 348.41876Q263.8125 348.10626 264.04688 347.45ZM260.59375 345.7469L264.0625 345.7469Q264.0 344.95 263.67188 344.5594Q263.15625 343.95 262.35938 343.95Q261.625 343.95 261.125 344.4344Q260.64062 344.91876 260.59375 345.7469ZM266.375 347.59064L267.40625 347.4344Q267.5 348.0594 267.89062 348.3875Q268.29688 348.71564 269.03125 348.71564Q269.75 348.71564 270.09375 348.4344Q270.45312 348.1375 270.45312 347.73126Q270.45312 347.3719 270.14062 347.16876Q269.92188 347.02814 269.0625 346.8094Q267.90625 346.5125 267.45312 346.3094Q267.01562 346.09064 266.78125 345.71564Q266.54688 345.34064 266.54688 344.8719Q266.54688 344.46564 266.73438 344.10626Q266.92188 343.7469 267.25 343.5125Q267.5 343.34064 267.92188 343.21564Q268.34375 343.09064 268.84375 343.09064Q269.5625 343.09064 270.10938 343.3094Q270.67188 343.5125 270.9375 343.8719Q271.20312 344.23126 271.29688 344.825L270.26562 344.96564Q270.20312 344.4969 269.85938 344.23126Q269.53125 343.95 268.90625 343.95Q268.1875 343.95 267.875 344.2Q267.5625 344.4344 267.5625 344.7625Q267.5625 344.96564 267.6875 345.1219Q267.82812 345.29376 268.09375 345.40314Q268.25 345.46564 269.03125 345.66876Q270.15625 345.98126 270.59375 346.16876Q271.03125 346.35626 271.28125 346.71564Q271.53125 347.075 271.53125 347.6219Q271.53125 348.15314 271.21875 348.6219Q270.92188 349.075 270.34375 349.34064Q269.76562 349.59064 269.03125 349.59064Q267.8125 349.59064 267.17188 349.09064Q266.54688 348.575 266.375 347.59064ZM273.40625 346.34064Q273.40625 344.60626 274.35938 343.77814Q275.15625 343.09064 276.3125 343.09064Q277.59375 343.09064 278.40625 343.9344Q279.23438 344.7625 279.23438 346.2469Q279.23438 347.45 278.875 348.1375Q278.51562 348.825 277.8125 349.21564Q277.125 349.59064 276.3125 349.59064Q275.01562 349.59064 274.20312 348.7625Q273.40625 347.91876 273.40625 346.34064ZM274.48438 346.34064Q274.48438 347.52814 275.0 348.1219Q275.53125 348.71564 276.3125 348.71564Q277.10938 348.71564 277.625 348.1219Q278.14062 347.52814 278.14062 346.3094Q278.14062 345.15314 277.60938 344.5594Q277.09375 343.96564 276.3125 343.96564Q275.53125 343.96564 275.0 344.5594Q274.48438 345.1375 274.48438 346.34064ZM281.09375 349.45L281.09375 348.2469L282.29688 348.2469L282.29688 349.45L281.09375 349.45Z" fill-rule="nonzero"/><path fill="#4285f4" d="M311.0 345.45C311.0 348.7637 308.31372 351.45 305.0 351.45C301.68628 351.45 299.0 348.7637 299.0 345.45C299.0 342.1363 301.68628 339.45 305.0 339.45C308.31372 339.45 311.0 342.1363 311.0 345.45Z" fill-rule="nonzero"/><path fill="#000000" d="M319.875 349.45L319.875 340.85626L323.10938 340.85626Q324.09375 340.85626 324.6875 341.1219Q325.28125 341.3875 325.60938 341.9344Q325.95312 342.46564 325.95312 343.0594Q325.95312 343.60626 325.65625 344.09064Q325.35938 344.575 324.75 344.8719Q325.53125 345.10626 325.9375 345.66876Q326.35938 346.21564 326.35938 346.96564Q326.35938 347.5594 326.10938 348.09064Q325.85938 348.60626 325.48438 348.8875Q325.10938 349.16876 324.53125 349.3094Q323.96875 349.45 323.15625 349.45L319.875 349.45ZM321.01562 344.46564L322.875 344.46564Q323.625 344.46564 323.95312 344.3719Q324.39062 344.2469 324.60938 343.95Q324.82812 343.6375 324.82812 343.1844Q324.82812 342.7625 324.625 342.4344Q324.42188 342.10626 324.03125 341.9969Q323.65625 341.8719 322.73438 341.8719L321.01562 341.8719L321.01562 344.46564ZM321.01562 348.4344L323.15625 348.4344Q323.70312 348.4344 323.92188 348.3875Q324.32812 348.325 324.57812 348.16876Q324.84375 347.9969 325.01562 347.6844Q325.1875 347.3719 325.1875 346.96564Q325.1875 346.48126 324.9375 346.1219Q324.70312 345.7625 324.26562 345.6219Q323.82812 345.48126 323.0 345.48126L321.01562 345.48126L321.01562 348.4344ZM331.875 349.45L331.875 348.52814Q331.14062 349.59064 329.89062 349.59064Q329.34375 349.59064 328.85938 349.3875Q328.39062 349.16876 328.15625 348.85626Q327.92188 348.52814 327.82812 348.0594Q327.76562 347.7625 327.76562 347.075L327.76562 343.23126L328.82812 343.23126L328.82812 346.6844Q328.82812 347.4969 328.89062 347.79376Q328.98438 348.2 329.29688 348.45Q329.625 348.6844 330.10938 348.6844Q330.57812 348.6844 330.98438 348.45Q331.40625 348.2 331.57812 347.77814Q331.76562 347.35626 331.76562 346.5594L331.76562 343.23126L332.8125 343.23126L332.8125 349.45L331.875 349.45ZM338.82812 349.45L338.82812 348.66876Q338.23438 349.59064 337.09375 349.59064Q336.34375 349.59064 335.71875 349.1844Q335.09375 348.7625 334.75 348.02814Q334.40625 347.29376 334.40625 346.34064Q334.40625 345.41876 334.71875 344.65314Q335.03125 343.8875 335.65625 343.4969Q336.28125 343.09064 337.04688 343.09064Q337.60938 343.09064 338.04688 343.325Q338.48438 343.5594 338.76562 343.9344L338.76562 340.85626L339.8125 340.85626L339.8125 349.45L338.82812 349.45ZM335.5 346.34064Q335.5 347.54376 336.0 348.1375Q336.5 348.71564 337.1875 348.71564Q337.875 348.71564 338.35938 348.15314Q338.84375 347.59064 338.84375 346.4344Q338.84375 345.15314 338.34375 344.5594Q337.85938 343.96564 337.14062 343.96564Q336.4375 343.96564 335.96875 344.54376Q335.5 345.10626 335.5 346.34064ZM341.59375 349.96564L342.625 350.1219Q342.6875 350.59064 342.98438 350.8094Q343.375 351.10626 344.04688 351.10626Q344.78125 351.10626 345.17188 350.8094Q345.57812 350.5125 345.71875 349.9969Q345.8125 349.66876 345.79688 348.6375Q345.10938 349.45 344.07812 349.45Q342.79688 349.45 342.09375 348.52814Q341.39062 347.59064 341.39062 346.3094Q341.39062 345.41876 341.70312 344.66876Q342.03125 343.90314 342.64062 343.4969Q343.25 343.09064 344.07812 343.09064Q345.1875 343.09064 345.90625 343.98126L345.90625 343.23126L346.875 343.23126L346.875 348.60626Q346.875 350.0594 346.57812 350.66876Q346.28125 351.27814 345.64062 351.6219Q345.0 351.98126 344.0625 351.98126Q342.95312 351.98126 342.26562 351.48126Q341.57812 350.98126 341.59375 349.96564ZM342.46875 346.23126Q342.46875 347.45 342.95312 348.0125Q343.4375 348.575 344.17188 348.575Q344.90625 348.575 345.39062 348.0125Q345.89062 347.45 345.89062 346.2625Q345.89062 345.1219 345.375 344.54376Q344.875 343.96564 344.15625 343.96564Q343.45312 343.96564 342.95312 344.54376Q342.46875 345.10626 342.46875 346.23126ZM353.04688 347.45L354.14062 347.575Q353.89062 348.52814 353.1875 349.0594Q352.48438 349.59064 351.40625 349.59064Q350.04688 349.59064 349.23438 348.7469Q348.4375 347.90314 348.4375 346.3875Q348.4375 344.825 349.25 343.96564Q350.0625 343.09064 351.34375 343.09064Q352.59375 343.09064 353.375 343.9344Q354.17188 344.77814 354.17188 346.325Q354.17188 346.41876 354.17188 346.60626L349.53125 346.60626Q349.59375 347.6375 350.10938 348.1844Q350.625 348.71564 351.40625 348.71564Q351.98438 348.71564 352.39062 348.41876Q352.8125 348.10626 353.04688 347.45ZM349.59375 345.7469L353.0625 345.7469Q353.0 344.95 352.67188 344.5594Q352.15625 343.95 351.35938 343.95Q350.625 343.95 350.125 344.4344Q349.64062 344.91876 349.59375 345.7469ZM358.09375 348.5125L358.25 349.4344Q357.79688 349.52814 357.45312 349.52814Q356.875 349.52814 356.5625 349.35626Q356.25 349.16876 356.10938 348.8719Q355.98438 348.575 355.98438 347.6219L355.98438 344.04376L355.21875 344.04376L355.21875 343.23126L355.98438 343.23126L355.98438 341.6844L357.03125 341.0594L357.03125 343.23126L358.09375 343.23126L358.09375 344.04376L357.03125 344.04376L357.03125 347.6844Q357.03125 348.1375 357.07812 348.2625Q357.14062 348.3875 357.26562 348.46564Q357.39062 348.54376 357.625 348.54376Q357.8125 348.54376 358.09375 348.5125ZM361.78125 349.45L361.78125 343.23126L362.73438 343.23126L362.73438 344.16876Q363.09375 343.5125 363.39062 343.3094Q363.70312 343.09064 364.07812 343.09064Q364.60938 343.09064 365.15625 343.41876L364.79688 344.40314Q364.40625 344.16876 364.03125 344.16876Q363.67188 344.16876 363.39062 344.3875Q363.125 344.59064 363.01562 344.96564Q362.82812 345.52814 362.82812 346.1844L362.82812 349.45L361.78125 349.45ZM365.79688 342.075L365.79688 340.85626L366.85938 340.85626L366.85938 342.075L365.79688 342.075ZM365.79688 349.45L365.79688 343.23126L366.85938 343.23126L366.85938 349.45L365.79688 349.45ZM368.79688 349.45L368.79688 343.23126L369.73438 343.23126L369.73438 344.10626Q370.03125 343.6375 370.51562 343.3719Q371.0 343.09064 371.625 343.09064Q372.3125 343.09064 372.75 343.3719Q373.20312 343.65314 373.375 344.16876Q374.125 343.09064 375.29688 343.09064Q376.23438 343.09064 376.71875 343.60626Q377.21875 344.10626 377.21875 345.1844L377.21875 349.45L376.17188 349.45L376.17188 345.52814Q376.17188 344.90314 376.0625 344.6219Q375.96875 344.34064 375.70312 344.16876Q375.4375 343.9969 375.0625 343.9969Q374.40625 343.9969 373.96875 344.4344Q373.54688 344.8719 373.54688 345.84064L373.54688 349.45L372.48438 349.45L372.48438 345.40314Q372.48438 344.7 372.21875 344.35626Q371.96875 343.9969 371.39062 343.9969Q370.9375 343.9969 370.5625 344.23126Q370.1875 344.46564 370.01562 344.91876Q369.84375 345.3719 369.84375 346.21564L369.84375 349.45L368.79688 349.45ZM383.85938 348.6844Q383.26562 349.1844 382.71875 349.3875Q382.1875 349.59064 381.5625 349.59064Q380.53125 349.59064 379.98438 349.09064Q379.4375 348.59064 379.4375 347.8094Q379.4375 347.35626 379.64062 346.98126Q379.84375 346.59064 380.1875 346.3719Q380.53125 346.1375 380.95312 346.02814Q381.25 345.9344 381.89062 345.85626Q383.15625 345.71564 383.76562 345.4969Q383.76562 345.27814 383.76562 345.23126Q383.76562 344.575 383.46875 344.3094Q383.0625 343.96564 382.26562 343.96564Q381.53125 343.96564 381.17188 344.23126Q380.8125 344.48126 380.64062 345.1375L379.60938 344.9969Q379.75 344.34064 380.07812 343.9344Q380.40625 343.52814 381.01562 343.3094Q381.625 343.09064 382.42188 343.09064Q383.21875 343.09064 383.71875 343.27814Q384.21875 343.46564 384.45312 343.7469Q384.6875 344.02814 384.78125 344.46564Q384.82812 344.73126 384.82812 345.4344L384.82812 346.84064Q384.82812 348.3094 384.89062 348.7Q384.96875 349.09064 385.17188 349.45L384.0625 349.45Q383.90625 349.1219 383.85938 348.6844ZM383.76562 346.325Q383.1875 346.5594 382.04688 346.73126Q381.39062 346.825 381.125 346.95Q380.85938 347.0594 380.70312 347.27814Q380.5625 347.4969 380.5625 347.77814Q380.5625 348.2 380.875 348.48126Q381.20312 348.7625 381.8125 348.7625Q382.42188 348.7625 382.89062 348.4969Q383.375 348.23126 383.59375 347.7625Q383.76562 347.40314 383.76562 346.71564L383.76562 346.325ZM386.79688 349.45L386.79688 343.23126L387.73438 343.23126L387.73438 344.10626Q388.42188 343.09064 389.71875 343.09064Q390.28125 343.09064 390.75 343.29376Q391.23438 343.4969 391.46875 343.825Q391.70312 344.15314 391.79688 344.59064Q391.84375 344.8875 391.84375 345.6219L391.84375 349.45L390.79688 349.45L390.79688 345.66876Q390.79688 345.0125 390.67188 344.7Q390.54688 344.3875 390.23438 344.2Q389.92188 343.9969 389.5 343.9969Q388.82812 343.9969 388.32812 344.4344Q387.84375 344.85626 387.84375 346.04376L387.84375 349.45L386.79688 349.45ZM398.04688 347.45L399.14062 347.575Q398.89062 348.52814 398.1875 349.0594Q397.48438 349.59064 396.40625 349.59064Q395.04688 349.59064 394.23438 348.7469Q393.4375 347.90314 393.4375 346.3875Q393.4375 344.825 394.25 343.96564Q395.0625 343.09064 396.34375 343.09064Q397.59375 343.09064 398.375 343.9344Q399.17188 344.77814 399.17188 346.325Q399.17188 346.41876 399.17188 346.60626L394.53125 346.60626Q394.59375 347.6375 395.10938 348.1844Q395.625 348.71564 396.40625 348.71564Q396.98438 348.71564 397.39062 348.41876Q397.8125 348.10626 398.04688 347.45ZM394.59375 345.7469L398.0625 345.7469Q398.0 344.95 397.67188 344.5594Q397.15625 343.95 396.35938 343.95Q395.625 343.95 395.125 344.4344Q394.64062 344.91876 394.59375 345.7469ZM400.79688 349.45L400.79688 343.23126L401.73438 343.23126L401.73438 344.10626Q402.42188 343.09064 403.71875 343.09064Q404.28125 343.09064 404.75 343.29376Q405.23438 343.4969 405.46875 343.825Q405.70312 344.15314 405.79688 344.59064Q405.84375 344.8875 405.84375 345.6219L405.84375 349.45L404.79688 349.45L404.79688 345.66876Q404.79688 345.0125 404.67188 344.7Q404.54688 344.3875 404.23438 344.2Q403.92188 343.9969 403.5 343.9969Q402.82812 343.9969 402.32812 344.4344Q401.84375 344.85626 401.84375 346.04376L401.84375 349.45L400.79688 349.45ZM410.09375 348.5125L410.25 349.4344Q409.79688 349.52814 409.45312 349.52814Q408.875 349.52814 408.5625 349.35626Q408.25 349.16876 408.10938 348.8719Q407.98438 348.575 407.98438 347.6219L407.98438 344.04376L407.21875 344.04376L407.21875 343.23126L407.98438 343.23126L407.98438 341.6844L409.03125 341.0594L409.03125 343.23126L410.09375 343.23126L410.09375 344.04376L409.03125 344.04376L409.03125 347.6844Q409.03125 348.1375 409.07812 348.2625Q409.14062 348.3875 409.26562 348.46564Q409.39062 348.54376 409.625 348.54376Q409.8125 348.54376 410.09375 348.5125ZM415.04688 347.45L416.14062 347.575Q415.89062 348.52814 415.1875 349.0594Q414.48438 349.59064 413.40625 349.59064Q412.04688 349.59064 411.23438 348.7469Q410.4375 347.90314 410.4375 346.3875Q410.4375 344.825 411.25 343.96564Q412.0625 343.09064 413.34375 343.09064Q414.59375 343.09064 415.375 343.9344Q416.17188 344.77814 416.17188 346.325Q416.17188 346.41876 416.17188 346.60626L411.53125 346.60626Q411.59375 347.6375 412.10938 348.1844Q412.625 348.71564 413.40625 348.71564Q413.98438 348.71564 414.39062 348.41876Q414.8125 348.10626 415.04688 347.45ZM411.59375 345.7469L415.0625 345.7469Q415.0 344.95 414.67188 344.5594Q414.15625 343.95 413.35938 343.95Q412.625 343.95 412.125 344.4344Q411.64062 344.91876 411.59375 345.7469Z" fill-rule="nonzero"/></svg>