<svg version="1.1" viewBox="0.0 0.0 600.0 371.0" fill="none" stroke="none" stroke-linecap="square" stroke-miterlimit="10" width="600" height="371" xmlns:xlink="http://www.w3.org/1999/xlink" xmlns="http://www.w3.org/2000/svg"><path fill="#ffffff" d="M0 0L600.0 0L600.0 371.0L0 371.0L0 0Z" fill-rule="nonzero"/><path fill="#ea4335" d="M300.0 53.1475C369.5551 53.1475 430.44907 85.83138 448.49893 132.85199L300.0 160.78416Z" fill-rule="nonzero"/><path fill="#2e5dab" d="M453.76666 183.84917C453.76666 243.29526 384.92297 291.48584 300.0 291.48584C215.07701 291.48584 146.23334 243.29526 146.23334 183.84917L146.23334 160.78416C146.23334 220.23026 215.07701 268.42084 300.0 268.42084C384.92297 268.42084 453.76666 220.23026 453.76666 160.78416Z" fill-rule="nonzero"/><path fill="#4285f4" d="M448.49893 132.85199C465.5963 177.3914 440.25793 224.606 385.49622 250.24895C330.73447 275.8919 258.7202 274.26404 206.43607 246.20131C154.1519 218.13861 133.21803 169.87802 154.38495 126.203575C175.55185 82.52913 234.11519 53.1475 300.0 53.1475L300.0 160.78416Z" fill-rule="nonzero"/><path fill="#000000" d="M348.47382 106.692444L348.47382 107.879944L341.84882 107.879944Q341.8332 107.442444 341.98944 107.02057Q342.25507 106.348694 342.80194 105.692444Q343.36444 105.036194 344.41132 104.17682Q346.05194 102.83307 346.61444 102.05182Q347.19257 101.27057 347.19257 100.567444Q347.19257 99.83307 346.66132 99.33307Q346.1457 98.83307 345.31757 98.83307Q344.42694 98.83307 343.88007 99.36432Q343.34882 99.89557 343.34882 100.848694L342.0832 100.70807Q342.2082 99.30182 343.05194 98.567444Q343.91132 97.817444 345.3332 97.817444Q346.78632 97.817444 347.61444 98.61432Q348.4582 99.411194 348.4582 100.598694Q348.4582 101.20807 348.2082 101.786194Q347.97382 102.36432 347.3957 103.004944Q346.8332 103.64557 345.50507 104.77057Q344.3957 105.692444 344.0832 106.036194Q343.7707 106.36432 343.56757 106.692444L348.47382 106.692444ZM350.69257 107.879944L350.69257 106.473694L352.09882 106.473694L352.09882 107.879944L350.69257 107.879944ZM354.0207 105.23932L355.23944 105.067444Q355.4582 106.11432 355.9582 106.58307Q356.47382 107.036194 357.2082 107.036194Q358.0832 107.036194 358.67694 106.442444Q359.2707 105.83307 359.2707 104.942444Q359.2707 104.098694 358.7082 103.55182Q358.16132 103.004944 357.31757 103.004944Q356.9582 103.004944 356.44257 103.129944L356.5832 102.05182Q356.7082 102.067444 356.7707 102.067444Q357.56757 102.067444 358.19257 101.661194Q358.81757 101.254944 358.81757 100.39557Q358.81757 99.723694 358.36444 99.286194Q357.91132 98.83307 357.17694 98.83307Q356.4582 98.83307 355.97382 99.286194Q355.50507 99.723694 355.36444 100.629944L354.1457 100.411194Q354.36444 99.17682 355.16132 98.504944Q355.9582 97.817444 357.1457 97.817444Q357.97382 97.817444 358.66132 98.17682Q359.34882 98.52057 359.7082 99.129944Q360.0832 99.73932 360.0832 100.42682Q360.0832 101.067444 359.73944 101.598694Q359.3957 102.129944 358.7082 102.45807Q359.59882 102.661194 360.0832 103.30182Q360.5832 103.942444 360.5832 104.92682Q360.5832 106.23932 359.61444 107.14557Q358.66132 108.05182 357.2082 108.05182Q355.88007 108.05182 355.00507 107.27057Q354.1457 106.48932 354.0207 105.23932ZM362.00507 102.942444Q362.00507 101.161194 362.36444 100.08307Q362.73944 98.98932 363.4582 98.411194Q364.17694 97.817444 365.2707 97.817444Q366.0832 97.817444 366.69257 98.14557Q367.30194 98.473694 367.69257 99.08307Q368.09882 99.692444 368.31757 100.567444Q368.53632 101.442444 368.53632 102.942444Q368.53632 104.70807 368.17694 105.786194Q367.81757 106.86432 367.09882 107.45807Q366.38007 108.05182 365.2707 108.05182Q363.8332 108.05182 363.00507 107.004944Q362.00507 105.754944 362.00507 102.942444ZM363.2707 102.942444Q363.2707 105.411194 363.84882 106.223694Q364.42694 107.036194 365.2707 107.036194Q366.13007 107.036194 366.7082 106.223694Q367.28632 105.39557 367.28632 102.942444Q367.28632 100.45807 366.7082 99.64557Q366.13007 98.83307 365.25507 98.83307Q364.41132 98.83307 363.91132 99.55182Q363.2707 100.473694 363.2707 102.942444ZM370.00507 105.254944L371.30194 105.14557Q371.44257 106.08307 371.9582 106.567444Q372.48944 107.036194 373.22382 107.036194Q374.11444 107.036194 374.72382 106.36432Q375.34882 105.692444 375.34882 104.598694Q375.34882 103.536194 374.75507 102.92682Q374.16132 102.317444 373.2082 102.317444Q372.61444 102.317444 372.13007 102.598694Q371.66132 102.86432 371.38007 103.286194L370.22382 103.14557L371.19257 97.98932L376.17694 97.98932L376.17694 99.17682L372.17694 99.17682L371.6457 101.86432Q372.55194 101.23932 373.53632 101.23932Q374.84882 101.23932 375.73944 102.14557Q376.6457 103.05182 376.6457 104.48932Q376.6457 105.848694 375.86444 106.83307Q374.8957 108.05182 373.22382 108.05182Q371.86444 108.05182 370.98944 107.286194Q370.13007 106.52057 370.00507 105.254944ZM382.8332 98.817444Q381.67694 98.817444 380.8957 99.379944Q380.44257 99.70807 380.05194 100.30182Q379.67694 100.92682 379.61444 101.48932L384.2707 101.48932L384.0832 102.411194L379.50507 102.411194Q379.48944 102.55182 379.48944 102.67682Q379.48944 103.20807 379.50507 103.30182L383.8957 103.30182L383.7082 104.223694L379.6457 104.223694Q379.92694 105.786194 381.0207 106.442444Q381.80194 106.911194 382.72382 106.911194Q384.00507 106.911194 384.72382 106.23932L384.72382 107.661194Q383.86444 108.05182 382.8332 108.05182Q379.73944 108.05182 378.66132 105.473694Q378.44257 104.95807 378.28632 104.223694L377.23944 104.223694L377.42694 103.30182L378.1457 103.30182Q378.13007 103.02057 378.13007 102.67682Q378.13007 102.55182 378.13007 102.411194L377.23944 102.411194L377.42694 101.48932L378.22382 101.48932Q378.6457 99.254944 380.42694 98.286194Q381.53632 97.692444 382.84882 97.692444Q384.13007 97.692444 384.98944 98.23932L384.72382 99.504944Q383.88007 98.817444 382.8332 98.817444Z" fill-rule="nonzero"/><path fill="#000000" d="M217.04182 218.25089Q216.2762 217.96964 215.9012 217.45401Q215.54182 216.93839 215.54182 216.20401Q215.54182 215.11026 216.32307 214.37589Q217.11995 213.62589 218.41682 213.62589Q219.72932 213.62589 220.5262 214.39151Q221.3387 215.15714 221.3387 216.25089Q221.3387 216.93839 220.9637 217.45401Q220.60432 217.96964 219.85432 218.25089Q220.7762 218.54776 221.26057 219.21964Q221.74495 219.89151 221.74495 220.82901Q221.74495 222.11026 220.8387 222.98526Q219.93245 223.86026 218.44807 223.86026Q216.9637 223.86026 216.04182 222.98526Q215.13557 222.09464 215.13557 220.78214Q215.13557 219.81339 215.63557 219.15714Q216.13557 218.48526 217.04182 218.25089ZM216.80745 216.17276Q216.80745 216.87589 217.26057 217.32901Q217.7137 217.78214 218.44807 217.78214Q219.16682 217.78214 219.61995 217.34464Q220.07307 216.89151 220.07307 216.23526Q220.07307 215.56339 219.60432 215.11026Q219.13557 214.64151 218.43245 214.64151Q217.72932 214.64151 217.26057 215.09464Q216.80745 215.53214 216.80745 216.17276ZM216.4012 220.79776Q216.4012 221.32901 216.6512 221.82901Q216.9012 222.31339 217.38557 222.57901Q217.88557 222.84464 218.4637 222.84464Q219.3387 222.84464 219.9012 222.28214Q220.47932 221.71964 220.47932 220.84464Q220.47932 219.95401 219.88557 219.37589Q219.30745 218.78214 218.41682 218.78214Q217.54182 218.78214 216.9637 219.36026Q216.4012 219.93839 216.4012 220.79776ZM223.8387 223.68839L223.8387 222.28214L225.24495 222.28214L225.24495 223.68839L223.8387 223.68839ZM227.22932 214.98526L227.22932 213.79776L233.72932 213.79776L233.72932 214.75089Q232.76057 215.76651 231.82307 217.45401Q230.88557 219.14151 230.36995 220.93839Q230.01057 222.18839 229.9012 223.68839L228.63557 223.68839Q228.6512 222.50089 229.0887 220.82901Q229.54182 219.15714 230.36995 217.61026Q231.2137 216.04776 232.1512 214.98526L227.22932 214.98526ZM241.54182 216.12589L240.32307 216.21964Q240.1512 215.48526 239.85432 215.15714Q239.35432 214.64151 238.61995 214.64151Q238.0262 214.64151 237.5887 214.96964Q237.01057 215.39151 236.66682 216.20401Q236.3387 217.01651 236.32307 218.51651Q236.76057 217.84464 237.4012 217.51651Q238.05745 217.18839 238.76057 217.18839Q239.99495 217.18839 240.85432 218.09464Q241.7137 219.00089 241.7137 220.43839Q241.7137 221.37589 241.30745 222.18839Q240.9012 223.00089 240.18245 223.43839Q239.47932 223.86026 238.57307 223.86026Q237.04182 223.86026 236.07307 222.73526Q235.10432 221.59464 235.10432 219.00089Q235.10432 216.09464 236.16682 214.76651Q237.10432 213.62589 238.69807 213.62589Q239.88557 213.62589 240.63557 214.29776Q241.38557 214.95401 241.54182 216.12589ZM236.51057 220.43839Q236.51057 221.07901 236.7762 221.65714Q237.05745 222.23526 237.54182 222.54776Q238.0262 222.84464 238.55745 222.84464Q239.3387 222.84464 239.9012 222.21964Q240.4637 221.59464 240.4637 220.51651Q240.4637 219.46964 239.9012 218.87589Q239.35432 218.26651 238.51057 218.26651Q237.68245 218.26651 237.0887 218.87589Q236.51057 219.46964 236.51057 220.43839ZM243.1512 221.06339L244.44807 220.95401Q244.5887 221.89151 245.10432 222.37589Q245.63557 222.84464 246.36995 222.84464Q247.26057 222.84464 247.86995 222.17276Q248.49495 221.50089 248.49495 220.40714Q248.49495 219.34464 247.9012 218.73526Q247.30745 218.12589 246.35432 218.12589Q245.76057 218.12589 245.2762 218.40714Q244.80745 218.67276 244.5262 219.09464L243.36995 218.95401L244.3387 213.79776L249.32307 213.79776L249.32307 214.98526L245.32307 214.98526L244.79182 217.67276Q245.69807 217.04776 246.68245 217.04776Q247.99495 217.04776 248.88557 217.95401Q249.79182 218.86026 249.79182 220.29776Q249.79182 221.65714 249.01057 222.64151Q248.04182 223.86026 246.36995 223.86026Q245.01057 223.86026 244.13557 223.09464Q243.2762 222.32901 243.1512 221.06339ZM255.97932 214.62589Q254.82307 214.62589 254.04182 215.18839Q253.5887 215.51651 253.19807 216.11026Q252.82307 216.73526 252.76057 217.29776L257.4168 217.29776L257.2293 218.21964L252.6512 218.21964Q252.63557 218.36026 252.63557 218.48526Q252.63557 219.01651 252.6512 219.11026L257.0418 219.11026L256.8543 220.03214L252.79182 220.03214Q253.07307 221.59464 254.16682 222.25089Q254.94807 222.71964 255.86995 222.71964Q257.15118 222.71964 257.86993 222.04776L257.86993 223.46964Q257.01056 223.86026 255.97932 223.86026Q252.88557 223.86026 251.80745 221.28214Q251.5887 220.76651 251.43245 220.03214L250.38557 220.03214L250.57307 219.11026L251.29182 219.11026Q251.2762 218.82901 251.2762 218.48526Q251.2762 218.36026 251.2762 218.21964L250.38557 218.21964L250.57307 217.29776L251.36995 217.29776Q251.79182 215.06339 253.57307 214.09464Q254.68245 213.50089 255.99495 213.50089Q257.27618 213.50089 258.13556 214.04776L257.86993 215.31339Q257.02618 214.62589 255.97932 214.62589Z" fill-rule="nonzero"/><path fill="#ea4335" d="M187.0 345.45C187.0 348.7637 184.3137 351.45 181.0 351.45C177.6863 351.45 175.0 348.7637 175.0 345.45C175.0 342.1363 177.6863 339.45 181.0 339.45C184.3137 339.45 187.0 342.1363 187.0 345.45Z" fill-rule="nonzero"/><path fill="#000000" d="M195.875 349.45L195.875 340.85626L199.10938 340.85626Q200.09375 340.85626 200.6875 341.1219Q201.28125 341.3875 201.60938 341.9344Q201.95312 342.46564 201.95312 343.0594Q201.95312 343.60626 201.65625 344.09064Q201.35938 344.575 200.75 344.8719Q201.53125 345.10626 201.9375 345.66876Q202.35938 346.21564 202.35938 346.96564Q202.35938 347.5594 202.10938 348.09064Q201.85938 348.60626 201.48438 348.8875Q201.10938 349.16876 200.53125 349.3094Q199.96875 349.45 199.15625 349.45L195.875 349.45ZM197.01562 344.46564L198.875 344.46564Q199.625 344.46564 199.95312 344.3719Q200.39062 344.2469 200.60938 343.95Q200.82812 343.6375 200.82812 343.1844Q200.82812 342.7625 200.625 342.4344Q200.42188 342.10626 200.03125 341.9969Q199.65625 341.8719 198.73438 341.8719L197.01562 341.8719L197.01562 344.46564ZM197.01562 348.4344L199.15625 348.4344Q199.70312 348.4344 199.92188 348.3875Q200.32812 348.325 200.57812 348.16876Q200.84375 347.9969 201.01562 347.6844Q201.1875 347.3719 201.1875 346.96564Q201.1875 346.48126 200.9375 346.1219Q200.70312 345.7625 200.26562 345.6219Q199.82812 345.48126 199.0 345.48126L197.01562 345.48126L197.01562 348.4344ZM207.875 349.45L207.875 348.52814Q207.14062 349.59064 205.89062 349.59064Q205.34375 349.59064 204.85938 349.3875Q204.39062 349.16876 204.15625 348.85626Q203.92188 348.52814 203.82812 348.0594Q203.76562 347.7625 203.76562 347.075L203.76562 343.23126L204.82812 343.23126L204.82812 346.6844Q204.82812 347.4969 204.89062 347.79376Q204.98438 348.2 205.29688 348.45Q205.625 348.6844 206.10938 348.6844Q206.57812 348.6844 206.98438 348.45Q207.40625 348.2 207.57812 347.77814Q207.76562 347.35626 207.76562 346.5594L207.76562 343.23126L208.8125 343.23126L208.8125 349.45L207.875 349.45ZM214.82812 349.45L214.82812 348.66876Q214.23438 349.59064 213.09375 349.59064Q212.34375 349.59064 211.71875 349.1844Q211.09375 348.7625 210.75 348.02814Q210.40625 347.29376 210.40625 346.34064Q210.40625 345.41876 210.71875 344.65314Q211.03125 343.8875 211.65625 343.4969Q212.28125 343.09064 213.04688 343.09064Q213.60938 343.09064 214.04688 343.325Q214.48438 343.5594 214.76562 343.9344L214.76562 340.85626L215.8125 340.85626L215.8125 349.45L214.82812 349.45ZM211.5 346.34064Q211.5 347.54376 212.0 348.1375Q212.5 348.71564 213.1875 348.71564Q213.875 348.71564 214.35938 348.15314Q214.84375 347.59064 214.84375 346.4344Q214.84375 345.15314 214.34375 344.5594Q213.85938 343.96564 213.14062 343.96564Q212.4375 343.96564 211.96875 344.54376Q211.5 345.10626 211.5 346.34064ZM217.59375 349.96564L218.625 350.1219Q218.6875 350.59064 218.98438 350.8094Q219.375 351.10626 220.04688 351.10626Q220.78125 351.10626 221.17188 350.8094Q221.57812 350.5125 221.71875 349.9969Q221.8125 349.66876 221.79688 348.6375Q221.10938 349.45 220.07812 349.45Q218.79688 349.45 218.09375 348.52814Q217.39062 347.59064 217.39062 346.3094Q217.39062 345.41876 217.70312 344.66876Q218.03125 343.90314 218.64062 343.4969Q219.25 343.09064 220.07812 343.09064Q221.1875 343.09064 221.90625 343.98126L221.90625 343.23126L222.875 343.23126L222.875 348.60626Q222.875 350.0594 222.57812 350.66876Q222.28125 351.27814 221.64062 351.6219Q221.0 351.98126 220.0625 351.98126Q218.95312 351.98126 218.26562 351.48126Q217.57812 350.98126 217.59375 349.96564ZM218.46875 346.23126Q218.46875 347.45 218.95312 348.0125Q219.4375 348.575 220.17188 348.575Q220.90625 348.575 221.39062 348.0125Q221.89062 347.45 221.89062 346.2625Q221.89062 345.1219 221.375 344.54376Q220.875 343.96564 220.15625 343.96564Q219.45312 343.96564 218.95312 344.54376Q218.46875 345.10626 218.46875 346.23126ZM229.04688 347.45L230.14062 347.575Q229.89062 348.52814 229.1875 349.0594Q228.48438 349.59064 227.40625 349.59064Q226.04688 349.59064 225.23438 348.7469Q224.4375 347.90314 224.4375 346.3875Q224.4375 344.825 225.25 343.96564Q226.0625 343.09064 227.34375 343.09064Q228.59375 343.09064 229.375 343.9344Q230.17188 344.77814 230.17188 346.325Q230.17188 346.41876 230.17188 346.60626L225.53125 346.60626Q225.59375 347.6375 226.10938 348.1844Q226.625 348.71564 227.40625 348.71564Q227.98438 348.71564 228.39062 348.41876Q228.8125 348.10626 229.04688 347.45ZM225.59375 345.7469L229.0625 345.7469Q229.0 344.95 228.67188 344.5594Q228.15625 343.95 227.35938 343.95Q226.625 343.95 226.125 344.4344Q225.64062 344.91876 225.59375 345.7469ZM234.09375 348.5125L234.25 349.4344Q233.79688 349.52814 233.45312 349.52814Q232.875 349.52814 232.5625 349.35626Q232.25 349.16876 232.10938 348.8719Q231.98438 348.575 231.98438 347.6219L231.98438 344.04376L231.21875 344.04376L231.21875 343.23126L231.98438 343.23126L231.98438 341.6844L233.03125 341.0594L233.03125 343.23126L234.09375 343.23126L234.09375 344.04376L233.03125 344.04376L233.03125 347.6844Q233.03125 348.1375 233.07812 348.2625Q233.14062 348.3875 233.26562 348.46564Q233.39062 348.54376 233.625 348.54376Q233.8125 348.54376 234.09375 348.5125ZM237.375 347.59064L238.40625 347.4344Q238.5 348.0594 238.89062 348.3875Q239.29688 348.71564 240.03125 348.71564Q240.75 348.71564 241.09375 348.4344Q241.45312 348.1375 241.45312 347.73126Q241.45312 347.3719 241.14062 347.16876Q240.92188 347.02814 240.0625 346.8094Q238.90625 346.5125 238.45312 346.3094Q238.01562 346.09064 237.78125 345.71564Q237.54688 345.34064 237.54688 344.8719Q237.54688 344.46564 237.73438 344.10626Q237.92188 343.7469 238.25 343.5125Q238.5 343.34064 238.92188 343.21564Q239.34375 343.09064 239.84375 343.09064Q240.5625 343.09064 241.10938 343.3094Q241.67188 343.5125 241.9375 343.8719Q242.20312 344.23126 242.29688 344.825L241.26562 344.96564Q241.20312 344.4969 240.85938 344.23126Q240.53125 343.95 239.90625 343.95Q239.1875 343.95 238.875 344.2Q238.5625 344.4344 238.5625 344.7625Q238.5625 344.96564 238.6875 345.1219Q238.82812 345.29376 239.09375 345.40314Q239.25 345.46564 240.03125 345.66876Q241.15625 345.98126 241.59375 346.16876Q242.03125 346.35626 242.28125 346.71564Q242.53125 347.075 242.53125 347.6219Q242.53125 348.15314 242.21875 348.6219Q241.92188 349.075 241.34375 349.34064Q240.76562 349.59064 240.03125 349.59064Q238.8125 349.59064 238.17188 349.09064Q237.54688 348.575 237.375 347.59064ZM244.79688 351.84064L244.79688 343.23126L245.75 343.23126L245.75 344.02814Q246.09375 343.5594 246.51562 343.325Q246.95312 343.09064 247.5625 343.09064Q248.35938 343.09064 248.96875 343.4969Q249.57812 343.90314 249.875 344.65314Q250.1875 345.40314 250.1875 346.29376Q250.1875 347.2469 249.84375 348.0125Q249.51562 348.77814 248.85938 349.1844Q248.20312 349.59064 247.48438 349.59064Q246.95312 349.59064 246.53125 349.3719Q246.10938 349.1375 245.84375 348.8094L245.84375 351.84064L244.79688 351.84064ZM245.75 346.3719Q245.75 347.575 246.23438 348.15314Q246.71875 348.71564 247.40625 348.71564Q248.10938 348.71564 248.60938 348.1219Q249.10938 347.52814 249.10938 346.27814Q249.10938 345.09064 248.625 344.5125Q248.14062 343.91876 247.45312 343.91876Q246.78125 343.91876 246.26562 344.54376Q245.75 345.16876 245.75 346.3719ZM256.04688 347.45L257.14062 347.575Q256.89062 348.52814 256.1875 349.0594Q255.48438 349.59064 254.40625 349.59064Q253.04688 349.59064 252.23438 348.7469Q251.4375 347.90314 251.4375 346.3875Q251.4375 344.825 252.25 343.96564Q253.0625 343.09064 254.34375 343.09064Q255.59375 343.09064 256.375 343.9344Q257.17188 344.77814 257.17188 346.325Q257.17188 346.41876 257.17188 346.60626L252.53125 346.60626Q252.59375 347.6375 253.10938 348.1844Q253.625 348.71564 254.40625 348.71564Q254.98438 348.71564 255.39062 348.41876Q255.8125 348.10626 256.04688 347.45ZM252.59375 345.7469L256.0625 345.7469Q256.0 344.95 255.67188 344.5594Q255.15625 343.95 254.35938 343.95Q253.625 343.95 253.125 344.4344Q252.64062 344.91876 252.59375 345.7469ZM258.375 347.59064L259.40625 347.4344Q259.5 348.0594 259.89062 348.3875Q260.29688 348.71564 261.03125 348.71564Q261.75 348.71564 262.09375 348.4344Q262.45312 348.1375 262.45312 347.73126Q262.45312 347.3719 262.14062 347.16876Q261.92188 347.02814 261.0625 346.8094Q259.90625 346.5125 259.45312 346.3094Q259.01562 346.09064 258.78125 345.71564Q258.54688 345.34064 258.54688 344.8719Q258.54688 344.46564 258.73438 344.10626Q258.92188 343.7469 259.25 343.5125Q259.5 343.34064 259.92188 343.21564Q260.34375 343.09064 260.84375 343.09064Q261.5625 343.09064 262.10938 343.3094Q262.67188 343.5125 262.9375 343.8719Q263.20312 344.23126 263.29688 344.825L262.26562 344.96564Q262.20312 344.4969 261.85938 344.23126Q261.53125 343.95 260.90625 343.95Q260.1875 343.95 259.875 344.2Q259.5625 344.4344 259.5625 344.7625Q259.5625 344.96564 259.6875 345.1219Q259.82812 345.29376 260.09375 345.40314Q260.25 345.46564 261.03125 345.66876Q262.15625 345.98126 262.59375 346.16876Q263.03125 346.35626 263.28125 346.71564Q263.53125 347.075 263.53125 347.6219Q263.53125 348.15314 263.21875 348.6219Q262.92188 349.075 262.34375 349.34064Q261.76562 349.59064 261.03125 349.59064Q259.8125 349.59064 259.17188 349.09064Q258.54688 348.575 258.375 347.59064ZM265.40625 346.34064Q265.40625 344.60626 266.35938 343.77814Q267.15625 343.09064 268.3125 343.09064Q269.59375 343.09064 270.40625 343.9344Q271.23438 344.7625 271.23438 346.2469Q271.23438 347.45 270.875 348.1375Q270.51562 348.825 269.8125 349.21564Q269.125 349.59064 268.3125 349.59064Q267.01562 349.59064 266.20312 348.7625Q265.40625 347.91876 265.40625 346.34064ZM266.48438 346.34064Q266.48438 347.52814 267.0 348.1219Q267.53125 348.71564 268.3125 348.71564Q269.10938 348.71564 269.625 348.1219Q270.14062 347.52814 270.14062 346.3094Q270.14062 345.15314 269.60938 344.5594Q269.09375 343.96564 268.3125 343.96564Q267.53125 343.96564 267.0 344.5594Q266.48438 345.1375 266.48438 346.34064ZM278.09375 348.5125L278.25 349.4344Q277.79688 349.52814 277.45312 349.52814Q276.875 349.52814 276.5625 349.35626Q276.25 349.16876 276.10938 348.8719Q275.98438 348.575 275.98438 347.6219L275.98438 344.04376L275.21875 344.04376L275.21875 343.23126L275.98438 343.23126L275.98438 341.6844L277.03125 341.0594L277.03125 343.23126L278.09375 343.23126L278.09375 344.04376L277.03125 344.04376L277.03125 347.6844Q277.03125 348.1375 277.07812 348.2625Q277.14062 348.3875 277.26562 348.46564Q277.39062 348.54376 277.625 348.54376Q277.8125 348.54376 278.09375 348.5125ZM278.40625 346.34064Q278.40625 344.60626 279.35938 343.77814Q280.15625 343.09064 281.3125 343.09064Q282.59375 343.09064 283.40625 343.9344Q284.23438 344.7625 284.23438 346.2469Q284.23438 347.45 283.875 348.1375Q283.51562 348.825 282.8125 349.21564Q282.125 349.59064 281.3125 349.59064Q280.01562 349.59064 279.20312 348.7625Q278.40625 347.91876 278.40625 346.34064ZM279.48438 346.34064Q279.48438 347.52814 280.0 348.1219Q280.53125 348.71564 281.3125 348.71564Q282.10938 348.71564 282.625 348.1219Q283.14062 347.52814 283.14062 346.3094Q283.14062 345.15314 282.60938 344.5594Q282.09375 343.96564 281.3125 343.96564Q280.53125 343.96564 280.0 344.5594Q279.48438 345.1375 279.48438 346.34064ZM288.09375 348.5125L288.25 349.4344Q287.79688 349.52814 287.45312 349.52814Q286.875 349.52814 286.5625 349.35626Q286.25 349.16876 286.10938 348.8719Q285.98438 348.575 285.98438 347.6219L285.98438 344.04376L285.21875 344.04376L285.21875 343.23126L285.98438 343.23126L285.98438 341.6844L287.03125 341.0594L287.03125 343.23126L288.09375 343.23126L288.09375 344.04376L287.03125 344.04376L287.03125 347.6844Q287.03125 348.1375 287.07812 348.2625Q287.14062 348.3875 287.26562 348.46564Q287.39062 348.54376 287.625 348.54376Q287.8125 348.54376 288.09375 348.5125ZM289.09375 349.45L289.09375 348.2469L290.29688 348.2469L290.29688 349.45L289.09375 349.45Z" fill-rule="nonzero"/><path fill="#4285f4" d="M319.0 345.45C319.0 348.7637 316.31372 351.45 313.0 351.45C309.68628 351.45 307.0 348.7637 307.0 345.45C307.0 342.1363 309.68628 339.45 313.0 339.45C316.31372 339.45 319.0 342.1363 319.0 345.45Z" fill-rule="nonzero"/><path fill="#000000" d="M327.875 349.45L327.875 340.85626L331.10938 340.85626Q332.09375 340.85626 332.6875 341.1219Q333.28125 341.3875 333.60938 341.9344Q333.95312 342.46564 333.95312 343.0594Q333.95312 343.60626 333.65625 344.09064Q333.35938 344.575 332.75 344.8719Q333.53125 345.10626 333.9375 345.66876Q334.35938 346.21564 334.35938 346.96564Q334.35938 347.5594 334.10938 348.09064Q333.85938 348.60626 333.48438 348.8875Q333.10938 349.16876 332.53125 349.3094Q331.96875 349.45 331.15625 349.45L327.875 349.45ZM329.01562 344.46564L330.875 344.46564Q331.625 344.46564 331.95312 344.3719Q332.39062 344.2469 332.60938 343.95Q332.82812 343.6375 332.82812 343.1844Q332.82812 342.7625 332.625 342.4344Q332.42188 342.10626 332.03125 341.9969Q331.65625 341.8719 330.73438 341.8719L329.01562 341.8719L329.01562 344.46564ZM329.01562 348.4344L331.15625 348.4344Q331.70312 348.4344 331.92188 348.3875Q332.32812 348.325 332.57812 348.16876Q332.84375 347.9969 333.01562 347.6844Q333.1875 347.3719 333.1875 346.96564Q333.1875 346.48126 332.9375 346.1219Q332.70312 345.7625 332.26562 345.6219Q331.82812 345.48126 331.0 345.48126L329.01562 345.48126L329.01562 348.4344ZM339.875 349.45L339.875 348.52814Q339.14062 349.59064 337.89062 349.59064Q337.34375 349.59064 336.85938 349.3875Q336.39062 349.16876 336.15625 348.85626Q335.92188 348.52814 335.82812 348.0594Q335.76562 347.7625 335.76562 347.075L335.76562 343.23126L336.82812 343.23126L336.82812 346.6844Q336.82812 347.4969 336.89062 347.79376Q336.98438 348.2 337.29688 348.45Q337.625 348.6844 338.10938 348.6844Q338.57812 348.6844 338.98438 348.45Q339.40625 348.2 339.57812 347.77814Q339.76562 347.35626 339.76562 346.5594L339.76562 343.23126L340.8125 343.23126L340.8125 349.45L339.875 349.45ZM346.82812 349.45L346.82812 348.66876Q346.23438 349.59064 345.09375 349.59064Q344.34375 349.59064 343.71875 349.1844Q343.09375 348.7625 342.75 348.02814Q342.40625 347.29376 342.40625 346.34064Q342.40625 345.41876 342.71875 344.65314Q343.03125 343.8875 343.65625 343.4969Q344.28125 343.09064 345.04688 343.09064Q345.60938 343.09064 346.04688 343.325Q346.48438 343.5594 346.76562 343.9344L346.76562 340.85626L347.8125 340.85626L347.8125 349.45L346.82812 349.45ZM343.5 346.34064Q343.5 347.54376 344.0 348.1375Q344.5 348.71564 345.1875 348.71564Q345.875 348.71564 346.35938 348.15314Q346.84375 347.59064 346.84375 346.4344Q346.84375 345.15314 346.34375 344.5594Q345.85938 343.96564 345.14062 343.96564Q344.4375 343.96564 343.96875 344.54376Q343.5 345.10626 343.5 346.34064ZM349.59375 349.96564L350.625 350.1219Q350.6875 350.59064 350.98438 350.8094Q351.375 351.10626 352.04688 351.10626Q352.78125 351.10626 353.17188 350.8094Q353.57812 350.5125 353.71875 349.9969Q353.8125 349.66876 353.79688 348.6375Q353.10938 349.45 352.07812 349.45Q350.79688 349.45 350.09375 348.52814Q349.39062 347.59064 349.39062 346.3094Q349.39062 345.41876 349.70312 344.66876Q350.03125 343.90314 350.64062 343.4969Q351.25 343.09064 352.07812 343.09064Q353.1875 343.09064 353.90625 343.98126L353.90625 343.23126L354.875 343.23126L354.875 348.60626Q354.875 350.0594 354.57812 350.66876Q354.28125 351.27814 353.64062 351.6219Q353.0 351.98126 352.0625 351.98126Q350.95312 351.98126 350.26562 351.48126Q349.57812 350.98126 349.59375 349.96564ZM350.46875 346.23126Q350.46875 347.45 350.95312 348.0125Q351.4375 348.575 352.17188 348.575Q352.90625 348.575 353.39062 348.0125Q353.89062 347.45 353.89062 346.2625Q353.89062 345.1219 353.375 344.54376Q352.875 343.96564 352.15625 343.96564Q351.45312 343.96564 350.95312 344.54376Q350.46875 345.10626 350.46875 346.23126ZM361.04688 347.45L362.14062 347.575Q361.89062 348.52814 361.1875 349.0594Q360.48438 349.59064 359.40625 349.59064Q358.04688 349.59064 357.23438 348.7469Q356.4375 347.90314 356.4375 346.3875Q356.4375 344.825 357.25 343.96564Q358.0625 343.09064 359.34375 343.09064Q360.59375 343.09064 361.375 343.9344Q362.17188 344.77814 362.17188 346.325Q362.17188 346.41876 362.17188 346.60626L357.53125 346.60626Q357.59375 347.6375 358.10938 348.1844Q358.625 348.71564 359.40625 348.71564Q359.98438 348.71564 360.39062 348.41876Q360.8125 348.10626 361.04688 347.45ZM357.59375 345.7469L361.0625 345.7469Q361.0 344.95 360.67188 344.5594Q360.15625 343.95 359.35938 343.95Q358.625 343.95 358.125 344.4344Q357.64062 344.91876 357.59375 345.7469ZM366.09375 348.5125L366.25 349.4344Q365.79688 349.52814 365.45312 349.52814Q364.875 349.52814 364.5625 349.35626Q364.25 349.16876 364.10938 348.8719Q363.98438 348.575 363.98438 347.6219L363.98438 344.04376L363.21875 344.04376L363.21875 343.23126L363.98438 343.23126L363.98438 341.6844L365.03125 341.0594L365.03125 343.23126L366.09375 343.23126L366.09375 344.04376L365.03125 344.04376L365.03125 347.6844Q365.03125 348.1375 365.07812 348.2625Q365.14062 348.3875 365.26562 348.46564Q365.39062 348.54376 365.625 348.54376Q365.8125 348.54376 366.09375 348.5125ZM369.78125 349.45L369.78125 343.23126L370.73438 343.23126L370.73438 344.16876Q371.09375 343.5125 371.39062 343.3094Q371.70312 343.09064 372.07812 343.09064Q372.60938 343.09064 373.15625 343.41876L372.79688 344.40314Q372.40625 344.16876 372.03125 344.16876Q371.67188 344.16876 371.39062 344.3875Q371.125 344.59064 371.01562 344.96564Q370.82812 345.52814 370.82812 346.1844L370.82812 349.45L369.78125 349.45ZM373.79688 342.075L373.79688 340.85626L374.85938 340.85626L374.85938 342.075L373.79688 342.075ZM373.79688 349.45L373.79688 343.23126L374.85938 343.23126L374.85938 349.45L373.79688 349.45ZM376.79688 349.45L376.79688 343.23126L377.73438 343.23126L377.73438 344.10626Q378.03125 343.6375 378.51562 343.3719Q379.0 343.09064 379.625 343.09064Q380.3125 343.09064 380.75 343.3719Q381.20312 343.65314 381.375 344.16876Q382.125 343.09064 383.29688 343.09064Q384.23438 343.09064 384.71875 343.60626Q385.21875 344.10626 385.21875 345.1844L385.21875 349.45L384.17188 349.45L384.17188 345.52814Q384.17188 344.90314 384.0625 344.6219Q383.96875 344.34064 383.70312 344.16876Q383.4375 343.9969 383.0625 343.9969Q382.40625 343.9969 381.96875 344.4344Q381.54688 344.8719 381.54688 345.84064L381.54688 349.45L380.48438 349.45L380.48438 345.40314Q380.48438 344.7 380.21875 344.35626Q379.96875 343.9969 379.39062 343.9969Q378.9375 343.9969 378.5625 344.23126Q378.1875 344.46564 378.01562 344.91876Q377.84375 345.3719 377.84375 346.21564L377.84375 349.45L376.79688 349.45ZM391.85938 348.6844Q391.26562 349.1844 390.71875 349.3875Q390.1875 349.59064 389.5625 349.59064Q388.53125 349.59064 387.98438 349.09064Q387.4375 348.59064 387.4375 347.8094Q387.4375 347.35626 387.64062 346.98126Q387.84375 346.59064 388.1875 346.3719Q388.53125 346.1375 388.95312 346.02814Q389.25 345.9344 389.89062 345.85626Q391.15625 345.71564 391.76562 345.4969Q391.76562 345.27814 391.76562 345.23126Q391.76562 344.575 391.46875 344.3094Q391.0625 343.96564 390.26562 343.96564Q389.53125 343.96564 389.17188 344.23126Q388.8125 344.48126 388.64062 345.1375L387.60938 344.9969Q387.75 344.34064 388.07812 343.9344Q388.40625 343.52814 389.01562 343.3094Q389.625 343.09064 390.42188 343.09064Q391.21875 343.09064 391.71875 343.27814Q392.21875 343.46564 392.45312 343.7469Q392.6875 344.02814 392.78125 344.46564Q392.82812 344.73126 392.82812 345.4344L392.82812 346.84064Q392.82812 348.3094 392.89062 348.7Q392.96875 349.09064 393.17188 349.45L392.0625 349.45Q391.90625 349.1219 391.85938 348.6844ZM391.76562 346.325Q391.1875 346.5594 390.04688 346.73126Q389.39062 346.825 389.125 346.95Q388.85938 347.0594 388.70312 347.27814Q388.5625 347.4969 388.5625 347.77814Q388.5625 348.2 388.875 348.48126Q389.20312 348.7625 389.8125 348.7625Q390.42188 348.7625 390.89062 348.4969Q391.375 348.23126 391.59375 347.7625Q391.76562 347.40314 391.76562 346.71564L391.76562 346.325ZM394.79688 349.45L394.79688 343.23126L395.73438 343.23126L395.73438 344.10626Q396.42188 343.09064 397.71875 343.09064Q398.28125 343.09064 398.75 343.29376Q399.23438 343.4969 399.46875 343.825Q399.70312 344.15314 399.79688 344.59064Q399.84375 344.8875 399.84375 345.6219L399.84375 349.45L398.79688 349.45L398.79688 345.66876Q398.79688 345.0125 398.67188 344.7Q398.54688 344.3875 398.23438 344.2Q397.92188 343.9969 397.5 343.9969Q396.82812 343.9969 396.32812 344.4344Q395.84375 344.85626 395.84375 346.04376L395.84375 349.45L394.79688 349.45ZM406.04688 347.45L407.14062 347.575Q406.89062 348.52814 406.1875 349.0594Q405.48438 349.59064 404.40625 349.59064Q403.04688 349.59064 402.23438 348.7469Q401.4375 347.90314 401.4375 346.3875Q401.4375 344.825 402.25 343.96564Q403.0625 343.09064 404.34375 343.09064Q405.59375 343.09064 406.375 343.9344Q407.17188 344.77814 407.17188 346.325Q407.17188 346.41876 407.17188 346.60626L402.53125 346.60626Q402.59375 347.6375 403.10938 348.1844Q403.625 348.71564 404.40625 348.71564Q404.98438 348.71564 405.39062 348.41876Q405.8125 348.10626 406.04688 347.45ZM402.59375 345.7469L406.0625 345.7469Q406.0 344.95 405.67188 344.5594Q405.15625 343.95 404.35938 343.95Q403.625 343.95 403.125 344.4344Q402.64062 344.91876 402.59375 345.7469ZM408.79688 349.45L408.79688 343.23126L409.73438 343.23126L409.73438 344.10626Q410.42188 343.09064 411.71875 343.09064Q412.28125 343.09064 412.75 343.29376Q413.23438 343.4969 413.46875 343.825Q413.70312 344.15314 413.79688 344.59064Q413.84375 344.8875 413.84375 345.6219L413.84375 349.45L412.79688 349.45L412.79688 345.66876Q412.79688 345.0125 412.67188 344.7Q412.54688 344.3875 412.23438 344.2Q411.92188 343.9969 411.5 343.9969Q410.82812 343.9969 410.32812 344.4344Q409.84375 344.85626 409.84375 346.04376L409.84375 349.45L408.79688 349.45ZM418.09375 348.5125L418.25 349.4344Q417.79688 349.52814 417.45312 349.52814Q416.875 349.52814 416.5625 349.35626Q416.25 349.16876 416.10938 348.8719Q415.98438 348.575 415.98438 347.6219L415.98438 344.04376L415.21875 344.04376L415.21875 343.23126L415.98438 343.23126L415.98438 341.6844L417.03125 341.0594L417.03125 343.23126L418.09375 343.23126L418.09375 344.04376L417.03125 344.04376L417.03125 347.6844Q417.03125 348.1375 417.07812 348.2625Q417.14062 348.3875 417.26562 348.46564Q417.39062 348.54376 417.625 348.54376Q417.8125 348.54376 418.09375 348.5125ZM423.04688 347.45L424.14062 347.575Q423.89062 348.52814 423.1875 349.0594Q422.48438 349.59064 421.40625 349.59064Q420.04688 349.59064 419.23438 348.7469Q418.4375 347.90314 418.4375 346.3875Q418.4375 344.825 419.25 343.96564Q420.0625 343.09064 421.34375 343.09064Q422.59375 343.09064 423.375 343.9344Q424.17188 344.77814 424.17188 346.325Q424.17188 346.41876 424.17188 346.60626L419.53125 346.60626Q419.59375 347.6375 420.10938 348.1844Q420.625 348.71564 421.40625 348.71564Q421.98438 348.71564 422.39062 348.41876Q422.8125 348.10626 423.04688 347.45ZM419.59375 345.7469L423.0625 345.7469Q423.0 344.95 422.67188 344.5594Q422.15625 343.95 421.35938 343.95Q420.625 343.95 420.125 344.4344Q419.64062 344.91876 419.59375 345.7469Z" fill-rule="nonzero"/></svg>