<svg version="1.1" viewBox="0.0 0.0 600.0 371.0" fill="none" stroke="none" stroke-linecap="square" stroke-miterlimit="10" width="600" height="371" xmlns:xlink="http://www.w3.org/1999/xlink" xmlns="http://www.w3.org/2000/svg"><path fill="#ffffff" d="M0 0L600.0 0L600.0 371.0L0 371.0L0 0Z" fill-rule="nonzero"/><path fill="#ea4335" d="M300.0 53.1475C368.80896 53.1475 429.24158 85.146996 447.96475 131.49585L300.0 160.78416Z" fill-rule="nonzero"/><path fill="#2e5dab" d="M453.76666 183.84917C453.76666 243.29526 384.92297 291.48584 300.0 291.48584C215.07701 291.48584 146.23334 243.29526 146.23334 183.84917L146.23334 160.78416C146.23334 220.23026 215.07701 268.42084 300.0 268.42084C384.92297 268.42084 453.76666 220.23026 453.76666 160.78416Z" fill-rule="nonzero"/><path fill="#4285f4" d="M447.96475 131.49585C465.9425 175.99953 441.2975 223.5676 386.74484 249.65804C332.19223 275.74847 259.92786 274.52847 207.23546 246.62747C154.54305 218.72649 133.20258 170.38206 154.22432 126.536804C175.24606 82.69153 233.93037 53.1475 300.0 53.1475L300.0 160.78416Z" fill-rule="nonzero"/><path fill="#000000" d="M313.3902 116.57987L312.15582 116.57987L312.15582 108.73612Q311.71832 109.158 310.98395 109.5955Q310.2652 110.01737 309.7027 110.2205L309.7027 109.033Q310.73395 108.54862 311.49957 107.86112Q312.28082 107.17362 312.59332 106.51737L313.3902 106.51737L313.3902 116.57987ZM321.3902 116.57987L320.15582 116.57987L320.15582 108.73612Q319.71832 109.158 318.98395 109.5955Q318.2652 110.01737 317.7027 110.2205L317.7027 109.033Q318.73395 108.54862 319.49957 107.86112Q320.28082 107.17362 320.59332 106.51737L321.3902 106.51737L321.3902 116.57987ZM324.8277 107.87675L324.8277 106.68925L331.3277 106.68925L331.3277 107.64237Q330.35895 108.658 329.42145 110.3455Q328.48395 112.033 327.96832 113.82987Q327.60895 115.07987 327.49957 116.57987L326.23395 116.57987Q326.24957 115.39237 326.68707 113.7205Q327.1402 112.04862 327.96832 110.50175Q328.81207 108.93925 329.74957 107.87675L324.8277 107.87675ZM333.42145 116.57987L333.42145 115.17362L334.81207 115.17362L334.81207 116.57987Q334.81207 117.3455 334.53082 117.81425Q334.2652 118.29862 333.67145 118.56425L333.3277 118.033Q333.71832 117.86112 333.90582 117.533Q334.09332 117.20487 334.10895 116.57987L333.42145 116.57987ZM336.74957 113.95487L338.04645 113.8455Q338.18707 114.783 338.7027 115.26737Q339.23395 115.73612 339.96832 115.73612Q340.85895 115.73612 341.46832 115.06425Q342.09332 114.39237 342.09332 113.29862Q342.09332 112.23612 341.49957 111.62675Q340.90582 111.01737 339.9527 111.01737Q339.35895 111.01737 338.87457 111.29862Q338.40582 111.56425 338.12457 111.98612L336.96832 111.8455L337.93707 106.68925L342.92145 106.68925L342.92145 107.87675L338.92145 107.87675L338.3902 110.56425Q339.29645 109.93925 340.28082 109.93925Q341.59332 109.93925 342.48395 110.8455Q343.3902 111.75175 343.3902 113.18925Q343.3902 114.54862 342.60895 115.533Q341.6402 116.75175 339.96832 116.75175Q338.60895 116.75175 337.73395 115.98612Q336.87457 115.2205 336.74957 113.95487ZM351.4527 119.533Q350.42145 118.23612 349.71832 116.51737Q349.0152 114.79862 349.0152 112.95487Q349.0152 111.32987 349.54645 109.82987Q350.15582 108.0955 351.4527 106.39237L352.3277 106.39237Q351.49957 107.81425 351.23395 108.42362Q350.81207 109.36112 350.5777 110.39237Q350.28082 111.658 350.28082 112.95487Q350.28082 116.25175 352.3277 119.533L351.4527 119.533ZM360.21832 115.39237L360.21832 116.57987L353.59332 116.57987Q353.5777 116.14237 353.73395 115.7205Q353.99957 115.04862 354.54645 114.39237Q355.10895 113.73612 356.15582 112.87675Q357.79645 111.533 358.35895 110.75175Q358.93707 109.9705 358.93707 109.26737Q358.93707 108.533 358.40582 108.033Q357.8902 107.533 357.06207 107.533Q356.17145 107.533 355.62457 108.06425Q355.09332 108.5955 355.09332 109.54862L353.8277 109.408Q353.9527 108.00175 354.79645 107.26737Q355.65582 106.51737 357.0777 106.51737Q358.53082 106.51737 359.35895 107.31425Q360.2027 108.11112 360.2027 109.29862Q360.2027 109.908 359.9527 110.48612Q359.71832 111.06425 359.1402 111.70487Q358.5777 112.3455 357.24957 113.4705Q356.1402 114.39237 355.8277 114.73612Q355.5152 115.06425 355.31207 115.39237L360.21832 115.39237ZM361.74957 111.64237Q361.74957 109.86112 362.10895 108.783Q362.48395 107.68925 363.2027 107.11112Q363.92145 106.51737 365.0152 106.51737Q365.8277 106.51737 366.43707 106.8455Q367.04645 107.17362 367.43707 107.783Q367.84332 108.39237 368.06207 109.26737Q368.28082 110.14237 368.28082 111.64237Q368.28082 113.408 367.92145 114.48612Q367.56207 115.56425 366.84332 116.158Q366.12457 116.75175 365.0152 116.75175Q363.5777 116.75175 362.74957 115.70487Q361.74957 114.45487 361.74957 111.64237ZM363.0152 111.64237Q363.0152 114.11112 363.59332 114.92362Q364.17145 115.73612 365.0152 115.73612Q365.87457 115.73612 366.4527 114.92362Q367.03082 114.0955 367.03082 111.64237Q367.03082 109.158 366.4527 108.3455Q365.87457 107.533 364.99957 107.533Q364.15582 107.533 363.65582 108.25175Q363.0152 109.17362 363.0152 111.64237ZM370.42145 116.57987L370.42145 115.17362L371.81207 115.17362L371.81207 116.57987Q371.81207 117.3455 371.53082 117.81425Q371.2652 118.29862 370.67145 118.56425L370.3277 118.033Q370.71832 117.86112 370.90582 117.533Q371.09332 117.20487 371.10895 116.57987L370.42145 116.57987ZM380.1402 109.01737L378.92145 109.11112Q378.74957 108.37675 378.4527 108.04862Q377.9527 107.533 377.21832 107.533Q376.62457 107.533 376.18707 107.86112Q375.60895 108.283 375.2652 109.0955Q374.93707 109.908 374.92145 111.408Q375.35895 110.73612 375.99957 110.408Q376.65582 110.07987 377.35895 110.07987Q378.59332 110.07987 379.4527 110.98612Q380.31207 111.89237 380.31207 113.32987Q380.31207 114.26737 379.90582 115.07987Q379.49957 115.89237 378.78082 116.32987Q378.0777 116.75175 377.17145 116.75175Q375.6402 116.75175 374.67145 115.62675Q373.7027 114.48612 373.7027 111.89237Q373.7027 108.98612 374.7652 107.658Q375.7027 106.51737 377.29645 106.51737Q378.48395 106.51737 379.23395 107.18925Q379.98395 107.8455 380.1402 109.01737ZM375.10895 113.32987Q375.10895 113.9705 375.37457 114.54862Q375.65582 115.12675 376.1402 115.43925Q376.62457 115.73612 377.15582 115.73612Q377.93707 115.73612 378.49957 115.11112Q379.06207 114.48612 379.06207 113.408Q379.06207 112.36112 378.49957 111.76737Q377.9527 111.158 377.10895 111.158Q376.28082 111.158 375.68707 111.76737Q375.10895 112.36112 375.10895 113.32987ZM381.98395 108.9705Q381.98395 107.89237 382.5152 107.14237Q383.06207 106.39237 384.09332 106.39237Q385.03082 106.39237 385.6402 107.06425Q386.2652 107.73612 386.2652 109.033Q386.2652 110.31425 385.6402 111.00175Q385.0152 111.68925 384.10895 111.68925Q383.2027 111.68925 382.59332 111.01737Q381.98395 110.32987 381.98395 108.9705ZM384.12457 107.23612Q383.67145 107.23612 383.35895 107.64237Q383.06207 108.033 383.06207 109.07987Q383.06207 110.04862 383.35895 110.43925Q383.67145 110.82987 384.12457 110.82987Q384.59332 110.82987 384.8902 110.43925Q385.2027 110.04862 385.2027 108.98612Q385.2027 108.01737 384.8902 107.62675Q384.5777 107.23612 384.12457 107.23612ZM384.12457 116.95487L389.60895 106.39237L390.60895 106.39237L385.15582 116.95487L384.12457 116.95487ZM388.46832 114.2205Q388.46832 113.14237 388.99957 112.408Q389.54645 111.658 390.5777 111.658Q391.5152 111.658 392.1402 112.32987Q392.7652 113.00175 392.7652 114.29862Q392.7652 115.57987 392.1402 116.26737Q391.5152 116.95487 390.5777 116.95487Q389.67145 116.95487 389.06207 116.283Q388.46832 115.5955 388.46832 114.2205ZM390.60895 112.50175Q390.1402 112.50175 389.84332 112.908Q389.54645 113.29862 389.54645 114.3455Q389.54645 115.31425 389.84332 115.70487Q390.15582 116.0955 390.60895 116.0955Q391.0777 116.0955 391.37457 115.70487Q391.68707 115.31425 391.68707 114.25175Q391.68707 113.283 391.37457 112.89237Q391.0777 112.50175 390.60895 112.50175ZM394.90582 119.533L394.0152 119.533Q396.06207 116.25175 396.06207 112.95487Q396.06207 111.67362 395.7652 110.408Q395.53082 109.37675 395.12457 108.43925Q394.85895 107.82987 394.0152 106.39237L394.90582 106.39237Q396.18707 108.0955 396.79645 109.82987Q397.3277 111.32987 397.3277 112.95487Q397.3277 114.79862 396.60895 116.51737Q395.90582 118.23612 394.90582 119.533Z" fill-rule="nonzero"/><path fill="#000000" d="M206.35979 214.98846L206.35979 212.58221L202.00041 212.58221L202.00041 211.45721L206.57854 204.97284L207.57854 204.97284L207.57854 211.45721L208.93791 211.45721L208.93791 212.58221L207.57854 212.58221L207.57854 214.98846L206.35979 214.98846ZM206.35979 211.45721L206.35979 206.94159L203.21916 211.45721L206.35979 211.45721ZM210.40666 212.36346L211.70354 212.25409Q211.84416 213.19159 212.35979 213.67596Q212.89104 214.14471 213.62541 214.14471Q214.51604 214.14471 215.12541 213.47284Q215.75041 212.80096 215.75041 211.70721Q215.75041 210.64471 215.15666 210.03534Q214.56291 209.42596 213.60979 209.42596Q213.01604 209.42596 212.53166 209.70721Q212.06291 209.97284 211.78166 210.39471L210.62541 210.25409L211.59416 205.09784L216.57854 205.09784L216.57854 206.28534L212.57854 206.28534L212.04729 208.97284Q212.95354 208.34784 213.93791 208.34784Q215.25041 208.34784 216.14104 209.25409Q217.04729 210.16034 217.04729 211.59784Q217.04729 212.95721 216.26604 213.94159Q215.29729 215.16034 213.62541 215.16034Q212.26604 215.16034 211.39104 214.39471Q210.53166 213.62909 210.40666 212.36346ZM224.87541 213.80096L224.87541 214.98846L218.25041 214.98846Q218.23479 214.55096 218.39104 214.12909Q218.65666 213.45721 219.20354 212.80096Q219.76604 212.14471 220.81291 211.28534Q222.45354 209.94159 223.01604 209.16034Q223.59416 208.37909 223.59416 207.67596Q223.59416 206.94159 223.06291 206.44159Q222.54729 205.94159 221.71916 205.94159Q220.82854 205.94159 220.28166 206.47284Q219.75041 207.00409 219.75041 207.95721L218.48479 207.81659Q218.60979 206.41034 219.45354 205.67596Q220.31291 204.92596 221.73479 204.92596Q223.18791 204.92596 224.01604 205.72284Q224.85979 206.51971 224.85979 207.70721Q224.85979 208.31659 224.60979 208.89471Q224.37541 209.47284 223.79729 210.11346Q223.23479 210.75409 221.90666 211.87909Q220.79729 212.80096 220.48479 213.14471Q220.17229 213.47284 219.96916 213.80096L224.87541 213.80096ZM227.07854 214.98846L227.07854 213.58221L228.46916 213.58221L228.46916 214.98846Q228.46916 215.75409 228.18791 216.22284Q227.92229 216.70721 227.32854 216.97284L226.98479 216.44159Q227.37541 216.26971 227.56291 215.94159Q227.75041 215.61346 227.76604 214.98846L227.07854 214.98846ZM230.40666 212.36346L231.70354 212.25409Q231.84416 213.19159 232.35979 213.67596Q232.89104 214.14471 233.62541 214.14471Q234.51604 214.14471 235.12541 213.47284Q235.75041 212.80096 235.75041 211.70721Q235.75041 210.64471 235.15666 210.03534Q234.56291 209.42596 233.60979 209.42596Q233.01604 209.42596 232.53166 209.70721Q232.06291 209.97284 231.78166 210.39471L230.62541 210.25409L231.59416 205.09784L236.57854 205.09784L236.57854 206.28534L232.57854 206.28534L232.04729 208.97284Q232.95354 208.34784 233.93791 208.34784Q235.25041 208.34784 236.14104 209.25409Q237.04729 210.16034 237.04729 211.59784Q237.04729 212.95721 236.26604 213.94159Q235.29729 215.16034 233.62541 215.16034Q232.26604 215.16034 231.39104 214.39471Q230.53166 213.62909 230.40666 212.36346ZM245.10979 217.94159Q244.07854 216.64471 243.37541 214.92596Q242.67229 213.20721 242.67229 211.36346Q242.67229 209.73846 243.20354 208.23846Q243.81291 206.50409 245.10979 204.80096L245.98479 204.80096Q245.15666 206.22284 244.89104 206.83221Q244.46916 207.76971 244.23479 208.80096Q243.93791 210.06659 243.93791 211.36346Q243.93791 214.66034 245.98479 217.94159L245.10979 217.94159ZM247.48479 206.28534L247.48479 205.09784L253.98479 205.09784L253.98479 206.05096Q253.01604 207.06659 252.07854 208.75409Q251.14104 210.44159 250.62541 212.23846Q250.26604 213.48846 250.15666 214.98846L248.89104 214.98846Q248.90666 213.80096 249.34416 212.12909Q249.79729 210.45721 250.62541 208.91034Q251.46916 207.34784 252.40666 206.28534L247.48479 206.28534ZM255.59416 212.67596L256.78168 212.56659Q256.9223 213.39471 257.34418 213.76971Q257.78168 214.14471 258.43793 214.14471Q259.00043 214.14471 259.4223 213.89471Q259.8598 213.62909 260.12543 213.19159Q260.40668 212.75409 260.59418 212.01971Q260.78168 211.28534 260.78168 210.51971Q260.78168 210.44159 260.76605 210.26971Q260.40668 210.86346 259.76605 211.23846Q259.12543 211.59784 258.37543 211.59784Q257.12543 211.59784 256.26605 210.69159Q255.40666 209.78534 255.40666 208.31659Q255.40666 206.78534 256.2973 205.86346Q257.20355 204.92596 258.56293 204.92596Q259.53168 204.92596 260.34418 205.45721Q261.15668 205.97284 261.57855 206.95721Q262.00043 207.92596 262.00043 209.76971Q262.00043 211.69159 261.57855 212.83221Q261.1723 213.97284 260.34418 214.56659Q259.51605 215.16034 258.40668 215.16034Q257.2348 215.16034 256.4848 214.50409Q255.75041 213.84784 255.59416 212.67596ZM260.62543 208.25409Q260.62543 207.19159 260.06293 206.56659Q259.50043 205.94159 258.71918 205.94159Q257.89105 205.94159 257.28168 206.61346Q256.6723 207.28534 256.6723 208.34784Q256.6723 209.30096 257.25043 209.91034Q257.82855 210.50409 258.6723 210.50409Q259.53168 210.50409 260.07855 209.91034Q260.62543 209.30096 260.62543 208.25409ZM264.07855 214.98846L264.07855 213.58221L265.46918 213.58221L265.46918 214.98846Q265.46918 215.75409 265.18793 216.22284Q264.9223 216.70721 264.32855 216.97284L263.9848 216.44159Q264.37543 216.26971 264.56293 215.94159Q264.75043 215.61346 264.76605 214.98846L264.07855 214.98846ZM271.3598 214.98846L271.3598 212.58221L267.00043 212.58221L267.00043 211.45721L271.57855 204.97284L272.57855 204.97284L272.57855 211.45721L273.93793 211.45721L273.93793 212.58221L272.57855 212.58221L272.57855 214.98846L271.3598 214.98846ZM271.3598 211.45721L271.3598 206.94159L268.21918 211.45721L271.3598 211.45721ZM275.64105 207.37909Q275.64105 206.30096 276.1723 205.55096Q276.71918 204.80096 277.75043 204.80096Q278.68793 204.80096 279.2973 205.47284Q279.9223 206.14471 279.9223 207.44159Q279.9223 208.72284 279.2973 209.41034Q278.6723 210.09784 277.76605 210.09784Q276.8598 210.09784 276.25043 209.42596Q275.64105 208.73846 275.64105 207.37909ZM277.78168 205.64471Q277.32855 205.64471 277.01605 206.05096Q276.71918 206.44159 276.71918 207.48846Q276.71918 208.45721 277.01605 208.84784Q277.32855 209.23846 277.78168 209.23846Q278.25043 209.23846 278.5473 208.84784Q278.8598 208.45721 278.8598 207.39471Q278.8598 206.42596 278.5473 206.03534Q278.2348 205.64471 277.78168 205.64471ZM277.78168 215.36346L283.26605 204.80096L284.26605 204.80096L278.81293 215.36346L277.78168 215.36346ZM282.12543 212.62909Q282.12543 211.55096 282.65668 210.81659Q283.20355 210.06659 284.2348 210.06659Q285.1723 210.06659 285.7973 210.73846Q286.4223 211.41034 286.4223 212.70721Q286.4223 213.98846 285.7973 214.67596Q285.1723 215.36346 284.2348 215.36346Q283.32855 215.36346 282.71918 214.69159Q282.12543 214.00409 282.12543 212.62909ZM284.26605 210.91034Q283.7973 210.91034 283.50043 211.31659Q283.20355 211.70721 283.20355 212.75409Q283.20355 213.72284 283.50043 214.11346Q283.81293 214.50409 284.26605 214.50409Q284.7348 214.50409 285.03168 214.11346Q285.34418 213.72284 285.34418 212.66034Q285.34418 211.69159 285.03168 211.30096Q284.7348 210.91034 284.26605 210.91034ZM288.56293 217.94159L287.6723 217.94159Q289.71918 214.66034 289.71918 211.36346Q289.71918 210.08221 289.4223 208.81659Q289.18793 207.78534 288.78168 206.84784Q288.51605 206.23846 287.6723 204.80096L288.56293 204.80096Q289.84418 206.50409 290.45355 208.23846Q290.9848 209.73846 290.9848 211.36346Q290.9848 213.20721 290.26605 214.92596Q289.56293 216.64471 288.56293 217.94159Z" fill-rule="nonzero"/><path fill="#ea4335" d="M196.5 345.45C196.5 348.7637 193.8137 351.45 190.5 351.45C187.1863 351.45 184.5 348.7637 184.5 345.45C184.5 342.1363 187.1863 339.45 190.5 339.45C193.8137 339.45 196.5 342.1363 196.5 345.45Z" fill-rule="nonzero"/><path fill="#000000" d="M207.60938 349.45L207.60938 341.8719L204.78125 341.8719L204.78125 340.85626L211.59375 340.85626L211.59375 341.8719L208.75 341.8719L208.75 349.45L207.60938 349.45ZM216.54688 347.45L217.64062 347.575Q217.39062 348.52814 216.6875 349.0594Q215.98438 349.59064 214.90625 349.59064Q213.54688 349.59064 212.73438 348.7469Q211.9375 347.90314 211.9375 346.3875Q211.9375 344.825 212.75 343.96564Q213.5625 343.09064 214.84375 343.09064Q216.09375 343.09064 216.875 343.9344Q217.67188 344.77814 217.67188 346.325Q217.67188 346.41876 217.67188 346.60626L213.03125 346.60626Q213.09375 347.6375 213.60938 348.1844Q214.125 348.71564 214.90625 348.71564Q215.48438 348.71564 215.89062 348.41876Q216.3125 348.10626 216.54688 347.45ZM213.09375 345.7469L216.5625 345.7469Q216.5 344.95 216.17188 344.5594Q215.65625 343.95 214.85938 343.95Q214.125 343.95 213.625 344.4344Q213.14062 344.91876 213.09375 345.7469ZM219.29688 349.45L219.29688 343.23126L220.23438 343.23126L220.23438 344.10626Q220.53125 343.6375 221.01562 343.3719Q221.5 343.09064 222.125 343.09064Q222.8125 343.09064 223.25 343.3719Q223.70312 343.65314 223.875 344.16876Q224.625 343.09064 225.79688 343.09064Q226.73438 343.09064 227.21875 343.60626Q227.71875 344.10626 227.71875 345.1844L227.71875 349.45L226.67188 349.45L226.67188 345.52814Q226.67188 344.90314 226.5625 344.6219Q226.46875 344.34064 226.20312 344.16876Q225.9375 343.9969 225.5625 343.9969Q224.90625 343.9969 224.46875 344.4344Q224.04688 344.8719 224.04688 345.84064L224.04688 349.45L222.98438 349.45L222.98438 345.40314Q222.98438 344.7 222.71875 344.35626Q222.46875 343.9969 221.89062 343.9969Q221.4375 343.9969 221.0625 344.23126Q220.6875 344.46564 220.51562 344.91876Q220.34375 345.3719 220.34375 346.21564L220.34375 349.45L219.29688 349.45ZM230.29688 351.84064L230.29688 343.23126L231.25 343.23126L231.25 344.02814Q231.59375 343.5594 232.01562 343.325Q232.45312 343.09064 233.0625 343.09064Q233.85938 343.09064 234.46875 343.4969Q235.07812 343.90314 235.375 344.65314Q235.6875 345.40314 235.6875 346.29376Q235.6875 347.2469 235.34375 348.0125Q235.01562 348.77814 234.35938 349.1844Q233.70312 349.59064 232.98438 349.59064Q232.45312 349.59064 232.03125 349.3719Q231.60938 349.1375 231.34375 348.8094L231.34375 351.84064L230.29688 351.84064ZM231.25 346.3719Q231.25 347.575 231.73438 348.15314Q232.21875 348.71564 232.90625 348.71564Q233.60938 348.71564 234.10938 348.1219Q234.60938 347.52814 234.60938 346.27814Q234.60938 345.09064 234.125 344.5125Q233.64062 343.91876 232.95312 343.91876Q232.28125 343.91876 231.76562 344.54376Q231.25 345.16876 231.25 346.3719ZM236.90625 346.34064Q236.90625 344.60626 237.85938 343.77814Q238.65625 343.09064 239.8125 343.09064Q241.09375 343.09064 241.90625 343.9344Q242.73438 344.7625 242.73438 346.2469Q242.73438 347.45 242.375 348.1375Q242.01562 348.825 241.3125 349.21564Q240.625 349.59064 239.8125 349.59064Q238.51562 349.59064 237.70312 348.7625Q236.90625 347.91876 236.90625 346.34064ZM237.98438 346.34064Q237.98438 347.52814 238.5 348.1219Q239.03125 348.71564 239.8125 348.71564Q240.60938 348.71564 241.125 348.1219Q241.64062 347.52814 241.64062 346.3094Q241.64062 345.15314 241.10938 344.5594Q240.59375 343.96564 239.8125 343.96564Q239.03125 343.96564 238.5 344.5594Q237.98438 345.1375 237.98438 346.34064ZM246.875 347.59064L247.90625 347.4344Q248.0 348.0594 248.39062 348.3875Q248.79688 348.71564 249.53125 348.71564Q250.25 348.71564 250.59375 348.4344Q250.95312 348.1375 250.95312 347.73126Q250.95312 347.3719 250.64062 347.16876Q250.42188 347.02814 249.5625 346.8094Q248.40625 346.5125 247.95312 346.3094Q247.51562 346.09064 247.28125 345.71564Q247.04688 345.34064 247.04688 344.8719Q247.04688 344.46564 247.23438 344.10626Q247.42188 343.7469 247.75 343.5125Q248.0 343.34064 248.42188 343.21564Q248.84375 343.09064 249.34375 343.09064Q250.0625 343.09064 250.60938 343.3094Q251.17188 343.5125 251.4375 343.8719Q251.70312 344.23126 251.79688 344.825L250.76562 344.96564Q250.70312 344.4969 250.35938 344.23126Q250.03125 343.95 249.40625 343.95Q248.6875 343.95 248.375 344.2Q248.0625 344.4344 248.0625 344.7625Q248.0625 344.96564 248.1875 345.1219Q248.32812 345.29376 248.59375 345.40314Q248.75 345.46564 249.53125 345.66876Q250.65625 345.98126 251.09375 346.16876Q251.53125 346.35626 251.78125 346.71564Q252.03125 347.075 252.03125 347.6219Q252.03125 348.15314 251.71875 348.6219Q251.42188 349.075 250.84375 349.34064Q250.26562 349.59064 249.53125 349.59064Q248.3125 349.59064 247.67188 349.09064Q247.04688 348.575 246.875 347.59064ZM254.29688 351.84064L254.29688 343.23126L255.25 343.23126L255.25 344.02814Q255.59375 343.5594 256.01562 343.325Q256.45312 343.09064 257.0625 343.09064Q257.85938 343.09064 258.46875 343.4969Q259.07812 343.90314 259.375 344.65314Q259.6875 345.40314 259.6875 346.29376Q259.6875 347.2469 259.34375 348.0125Q259.01562 348.77814 258.35938 349.1844Q257.70312 349.59064 256.98438 349.59064Q256.45312 349.59064 256.03125 349.3719Q255.60938 349.1375 255.34375 348.8094L255.34375 351.84064L254.29688 351.84064ZM255.25 346.3719Q255.25 347.575 255.73438 348.15314Q256.21875 348.71564 256.90625 348.71564Q257.60938 348.71564 258.10938 348.1219Q258.60938 347.52814 258.60938 346.27814Q258.60938 345.09064 258.125 344.5125Q257.64062 343.91876 256.95312 343.91876Q256.28125 343.91876 255.76562 344.54376Q255.25 345.16876 255.25 346.3719ZM265.54688 347.45L266.64062 347.575Q266.39062 348.52814 265.6875 349.0594Q264.98438 349.59064 263.90625 349.59064Q262.54688 349.59064 261.73438 348.7469Q260.9375 347.90314 260.9375 346.3875Q260.9375 344.825 261.75 343.96564Q262.5625 343.09064 263.84375 343.09064Q265.09375 343.09064 265.875 343.9344Q266.67188 344.77814 266.67188 346.325Q266.67188 346.41876 266.67188 346.60626L262.03125 346.60626Q262.09375 347.6375 262.60938 348.1844Q263.125 348.71564 263.90625 348.71564Q264.48438 348.71564 264.89062 348.41876Q265.3125 348.10626 265.54688 347.45ZM262.09375 345.7469L265.5625 345.7469Q265.5 344.95 265.17188 344.5594Q264.65625 343.95 263.85938 343.95Q263.125 343.95 262.625 344.4344Q262.14062 344.91876 262.09375 345.7469ZM267.875 347.59064L268.90625 347.4344Q269.0 348.0594 269.39062 348.3875Q269.79688 348.71564 270.53125 348.71564Q271.25 348.71564 271.59375 348.4344Q271.95312 348.1375 271.95312 347.73126Q271.95312 347.3719 271.64062 347.16876Q271.42188 347.02814 270.5625 346.8094Q269.40625 346.5125 268.95312 346.3094Q268.51562 346.09064 268.28125 345.71564Q268.04688 345.34064 268.04688 344.8719Q268.04688 344.46564 268.23438 344.10626Q268.42188 343.7469 268.75 343.5125Q269.0 343.34064 269.42188 343.21564Q269.84375 343.09064 270.34375 343.09064Q271.0625 343.09064 271.60938 343.3094Q272.17188 343.5125 272.4375 343.8719Q272.70312 344.23126 272.79688 344.825L271.76562 344.96564Q271.70312 344.4969 271.35938 344.23126Q271.03125 343.95 270.40625 343.95Q269.6875 343.95 269.375 344.2Q269.0625 344.4344 269.0625 344.7625Q269.0625 344.96564 269.1875 345.1219Q269.32812 345.29376 269.59375 345.40314Q269.75 345.46564 270.53125 345.66876Q271.65625 345.98126 272.09375 346.16876Q272.53125 346.35626 272.78125 346.71564Q273.03125 347.075 273.03125 347.6219Q273.03125 348.15314 272.71875 348.6219Q272.42188 349.075 271.84375 349.34064Q271.26562 349.59064 270.53125 349.59064Q269.3125 349.59064 268.67188 349.09064Q268.04688 348.575 267.875 347.59064ZM274.90625 346.34064Q274.90625 344.60626 275.85938 343.77814Q276.65625 343.09064 277.8125 343.09064Q279.09375 343.09064 279.90625 343.9344Q280.73438 344.7625 280.73438 346.2469Q280.73438 347.45 280.375 348.1375Q280.01562 348.825 279.3125 349.21564Q278.625 349.59064 277.8125 349.59064Q276.51562 349.59064 275.70312 348.7625Q274.90625 347.91876 274.90625 346.34064ZM275.98438 346.34064Q275.98438 347.52814 276.5 348.1219Q277.03125 348.71564 277.8125 348.71564Q278.60938 348.71564 279.125 348.1219Q279.64062 347.52814 279.64062 346.3094Q279.64062 345.15314 279.10938 344.5594Q278.59375 343.96564 277.8125 343.96564Q277.03125 343.96564 276.5 344.5594Q275.98438 345.1375 275.98438 346.34064Z" fill-rule="nonzero"/><path fill="#4285f4" d="M309.5 345.45C309.5 348.7637 306.81372 351.45 303.5 351.45C300.18628 351.45 297.5 348.7637 297.5 345.45C297.5 342.1363 300.18628 339.45 303.5 339.45C306.81372 339.45 309.5 342.1363 309.5 345.45Z" fill-rule="nonzero"/><path fill="#000000" d="M320.60938 349.45L320.60938 341.8719L317.78125 341.8719L317.78125 340.85626L324.59375 340.85626L324.59375 341.8719L321.75 341.8719L321.75 349.45L320.60938 349.45ZM329.54688 347.45L330.64062 347.575Q330.39062 348.52814 329.6875 349.0594Q328.98438 349.59064 327.90625 349.59064Q326.54688 349.59064 325.73438 348.7469Q324.9375 347.90314 324.9375 346.3875Q324.9375 344.825 325.75 343.96564Q326.5625 343.09064 327.84375 343.09064Q329.09375 343.09064 329.875 343.9344Q330.67188 344.77814 330.67188 346.325Q330.67188 346.41876 330.67188 346.60626L326.03125 346.60626Q326.09375 347.6375 326.60938 348.1844Q327.125 348.71564 327.90625 348.71564Q328.48438 348.71564 328.89062 348.41876Q329.3125 348.10626 329.54688 347.45ZM326.09375 345.7469L329.5625 345.7469Q329.5 344.95 329.17188 344.5594Q328.65625 343.95 327.85938 343.95Q327.125 343.95 326.625 344.4344Q326.14062 344.91876 326.09375 345.7469ZM332.29688 349.45L332.29688 343.23126L333.23438 343.23126L333.23438 344.10626Q333.53125 343.6375 334.01562 343.3719Q334.5 343.09064 335.125 343.09064Q335.8125 343.09064 336.25 343.3719Q336.70312 343.65314 336.875 344.16876Q337.625 343.09064 338.79688 343.09064Q339.73438 343.09064 340.21875 343.60626Q340.71875 344.10626 340.71875 345.1844L340.71875 349.45L339.67188 349.45L339.67188 345.52814Q339.67188 344.90314 339.5625 344.6219Q339.46875 344.34064 339.20312 344.16876Q338.9375 343.9969 338.5625 343.9969Q337.90625 343.9969 337.46875 344.4344Q337.04688 344.8719 337.04688 345.84064L337.04688 349.45L335.98438 349.45L335.98438 345.40314Q335.98438 344.7 335.71875 344.35626Q335.46875 343.9969 334.89062 343.9969Q334.4375 343.9969 334.0625 344.23126Q333.6875 344.46564 333.51562 344.91876Q333.34375 345.3719 333.34375 346.21564L333.34375 349.45L332.29688 349.45ZM343.29688 351.84064L343.29688 343.23126L344.25 343.23126L344.25 344.02814Q344.59375 343.5594 345.01562 343.325Q345.45312 343.09064 346.0625 343.09064Q346.85938 343.09064 347.46875 343.4969Q348.07812 343.90314 348.375 344.65314Q348.6875 345.40314 348.6875 346.29376Q348.6875 347.2469 348.34375 348.0125Q348.01562 348.77814 347.35938 349.1844Q346.70312 349.59064 345.98438 349.59064Q345.45312 349.59064 345.03125 349.3719Q344.60938 349.1375 344.34375 348.8094L344.34375 351.84064L343.29688 351.84064ZM344.25 346.3719Q344.25 347.575 344.73438 348.15314Q345.21875 348.71564 345.90625 348.71564Q346.60938 348.71564 347.10938 348.1219Q347.60938 347.52814 347.60938 346.27814Q347.60938 345.09064 347.125 344.5125Q346.64062 343.91876 345.95312 343.91876Q345.28125 343.91876 344.76562 344.54376Q344.25 345.16876 344.25 346.3719ZM349.90625 346.34064Q349.90625 344.60626 350.85938 343.77814Q351.65625 343.09064 352.8125 343.09064Q354.09375 343.09064 354.90625 343.9344Q355.73438 344.7625 355.73438 346.2469Q355.73438 347.45 355.375 348.1375Q355.01562 348.825 354.3125 349.21564Q353.625 349.59064 352.8125 349.59064Q351.51562 349.59064 350.70312 348.7625Q349.90625 347.91876 349.90625 346.34064ZM350.98438 346.34064Q350.98438 347.52814 351.5 348.1219Q352.03125 348.71564 352.8125 348.71564Q353.60938 348.71564 354.125 348.1219Q354.64062 347.52814 354.64062 346.3094Q354.64062 345.15314 354.10938 344.5594Q353.59375 343.96564 352.8125 343.96564Q352.03125 343.96564 351.5 344.5594Q350.98438 345.1375 350.98438 346.34064ZM360.28125 349.45L360.28125 343.23126L361.23438 343.23126L361.23438 344.16876Q361.59375 343.5125 361.89062 343.3094Q362.20312 343.09064 362.57812 343.09064Q363.10938 343.09064 363.65625 343.41876L363.29688 344.40314Q362.90625 344.16876 362.53125 344.16876Q362.17188 344.16876 361.89062 344.3875Q361.625 344.59064 361.51562 344.96564Q361.32812 345.52814 361.32812 346.1844L361.32812 349.45L360.28125 349.45ZM364.29688 342.075L364.29688 340.85626L365.35938 340.85626L365.35938 342.075L364.29688 342.075ZM364.29688 349.45L364.29688 343.23126L365.35938 343.23126L365.35938 349.45L364.29688 349.45ZM367.29688 349.45L367.29688 343.23126L368.23438 343.23126L368.23438 344.10626Q368.53125 343.6375 369.01562 343.3719Q369.5 343.09064 370.125 343.09064Q370.8125 343.09064 371.25 343.3719Q371.70312 343.65314 371.875 344.16876Q372.625 343.09064 373.79688 343.09064Q374.73438 343.09064 375.21875 343.60626Q375.71875 344.10626 375.71875 345.1844L375.71875 349.45L374.67188 349.45L374.67188 345.52814Q374.67188 344.90314 374.5625 344.6219Q374.46875 344.34064 374.20312 344.16876Q373.9375 343.9969 373.5625 343.9969Q372.90625 343.9969 372.46875 344.4344Q372.04688 344.8719 372.04688 345.84064L372.04688 349.45L370.98438 349.45L370.98438 345.40314Q370.98438 344.7 370.71875 344.35626Q370.46875 343.9969 369.89062 343.9969Q369.4375 343.9969 369.0625 344.23126Q368.6875 344.46564 368.51562 344.91876Q368.34375 345.3719 368.34375 346.21564L368.34375 349.45L367.29688 349.45ZM382.35938 348.6844Q381.76562 349.1844 381.21875 349.3875Q380.6875 349.59064 380.0625 349.59064Q379.03125 349.59064 378.48438 349.09064Q377.9375 348.59064 377.9375 347.8094Q377.9375 347.35626 378.14062 346.98126Q378.34375 346.59064 378.6875 346.3719Q379.03125 346.1375 379.45312 346.02814Q379.75 345.9344 380.39062 345.85626Q381.65625 345.71564 382.26562 345.4969Q382.26562 345.27814 382.26562 345.23126Q382.26562 344.575 381.96875 344.3094Q381.5625 343.96564 380.76562 343.96564Q380.03125 343.96564 379.67188 344.23126Q379.3125 344.48126 379.14062 345.1375L378.10938 344.9969Q378.25 344.34064 378.57812 343.9344Q378.90625 343.52814 379.51562 343.3094Q380.125 343.09064 380.92188 343.09064Q381.71875 343.09064 382.21875 343.27814Q382.71875 343.46564 382.95312 343.7469Q383.1875 344.02814 383.28125 344.46564Q383.32812 344.73126 383.32812 345.4344L383.32812 346.84064Q383.32812 348.3094 383.39062 348.7Q383.46875 349.09064 383.67188 349.45L382.5625 349.45Q382.40625 349.1219 382.35938 348.6844ZM382.26562 346.325Q381.6875 346.5594 380.54688 346.73126Q379.89062 346.825 379.625 346.95Q379.35938 347.0594 379.20312 347.27814Q379.0625 347.4969 379.0625 347.77814Q379.0625 348.2 379.375 348.48126Q379.70312 348.7625 380.3125 348.7625Q380.92188 348.7625 381.39062 348.4969Q381.875 348.23126 382.09375 347.7625Q382.26562 347.40314 382.26562 346.71564L382.26562 346.325ZM385.29688 349.45L385.29688 343.23126L386.23438 343.23126L386.23438 344.10626Q386.92188 343.09064 388.21875 343.09064Q388.78125 343.09064 389.25 343.29376Q389.73438 343.4969 389.96875 343.825Q390.20312 344.15314 390.29688 344.59064Q390.34375 344.8875 390.34375 345.6219L390.34375 349.45L389.29688 349.45L389.29688 345.66876Q389.29688 345.0125 389.17188 344.7Q389.04688 344.3875 388.73438 344.2Q388.42188 343.9969 388.0 343.9969Q387.32812 343.9969 386.82812 344.4344Q386.34375 344.85626 386.34375 346.04376L386.34375 349.45L385.29688 349.45ZM396.54688 347.45L397.64062 347.575Q397.39062 348.52814 396.6875 349.0594Q395.98438 349.59064 394.90625 349.59064Q393.54688 349.59064 392.73438 348.7469Q391.9375 347.90314 391.9375 346.3875Q391.9375 344.825 392.75 343.96564Q393.5625 343.09064 394.84375 343.09064Q396.09375 343.09064 396.875 343.9344Q397.67188 344.77814 397.67188 346.325Q397.67188 346.41876 397.67188 346.60626L393.03125 346.60626Q393.09375 347.6375 393.60938 348.1844Q394.125 348.71564 394.90625 348.71564Q395.48438 348.71564 395.89062 348.41876Q396.3125 348.10626 396.54688 347.45ZM393.09375 345.7469L396.5625 345.7469Q396.5 344.95 396.17188 344.5594Q395.65625 343.95 394.85938 343.95Q394.125 343.95 393.625 344.4344Q393.14062 344.91876 393.09375 345.7469ZM399.29688 349.45L399.29688 343.23126L400.23438 343.23126L400.23438 344.10626Q400.92188 343.09064 402.21875 343.09064Q402.78125 343.09064 403.25 343.29376Q403.73438 343.4969 403.96875 343.825Q404.20312 344.15314 404.29688 344.59064Q404.34375 344.8875 404.34375 345.6219L404.34375 349.45L403.29688 349.45L403.29688 345.66876Q403.29688 345.0125 403.17188 344.7Q403.04688 344.3875 402.73438 344.2Q402.42188 343.9969 402.0 343.9969Q401.32812 343.9969 400.82812 344.4344Q400.34375 344.85626 400.34375 346.04376L400.34375 349.45L399.29688 349.45ZM408.59375 348.5125L408.75 349.4344Q408.29688 349.52814 407.95312 349.52814Q407.375 349.52814 407.0625 349.35626Q406.75 349.16876 406.60938 348.8719Q406.48438 348.575 406.48438 347.6219L406.48438 344.04376L405.71875 344.04376L405.71875 343.23126L406.48438 343.23126L406.48438 341.6844L407.53125 341.0594L407.53125 343.23126L408.59375 343.23126L408.59375 344.04376L407.53125 344.04376L407.53125 347.6844Q407.53125 348.1375 407.57812 348.2625Q407.64062 348.3875 407.76562 348.46564Q407.89062 348.54376 408.125 348.54376Q408.3125 348.54376 408.59375 348.5125ZM413.54688 347.45L414.64062 347.575Q414.39062 348.52814 413.6875 349.0594Q412.98438 349.59064 411.90625 349.59064Q410.54688 349.59064 409.73438 348.7469Q408.9375 347.90314 408.9375 346.3875Q408.9375 344.825 409.75 343.96564Q410.5625 343.09064 411.84375 343.09064Q413.09375 343.09064 413.875 343.9344Q414.67188 344.77814 414.67188 346.325Q414.67188 346.41876 414.67188 346.60626L410.03125 346.60626Q410.09375 347.6375 410.60938 348.1844Q411.125 348.71564 411.90625 348.71564Q412.48438 348.71564 412.89062 348.41876Q413.3125 348.10626 413.54688 347.45ZM410.09375 345.7469L413.5625 345.7469Q413.5 344.95 413.17188 344.5594Q412.65625 343.95 411.85938 343.95Q411.125 343.95 410.625 344.4344Q410.14062 344.91876 410.09375 345.7469Z" fill-rule="nonzero"/></svg>