<svg version="1.1" viewBox="0.0 0.0 600.0 371.0" fill="none" stroke="none" stroke-linecap="square" stroke-miterlimit="10" width="600" height="371" xmlns:xlink="http://www.w3.org/1999/xlink" xmlns="http://www.w3.org/2000/svg"><path fill="#ffffff" d="M0 0L600.0 0L600.0 371.0L0 371.0L0 0Z" fill-rule="nonzero"/><path fill="#ea4335" d="M300.0 53.1475C362.57864 53.1475 418.91498 79.69437 442.4639 120.27948L300.0 160.78416Z" fill-rule="nonzero"/><path fill="#2e5dab" d="M453.76666 183.84917C453.76666 243.29526 384.92297 291.48584 300.0 291.48584C215.07701 291.48584 146.23334 243.29526 146.23334 183.84917L146.23334 160.78416C146.23334 220.23026 215.07701 268.42084 300.0 268.42084C384.92297 268.42084 453.76666 220.23026 453.76666 160.78416Z" fill-rule="nonzero"/><path fill="#4285f4" d="M442.4639 120.27948C467.91458 164.14212 449.43454 214.49582 396.93307 244.34015C344.4316 274.18448 270.23633 276.51184 214.13191 250.07426C158.02748 223.63667 133.18752 174.64185 152.93158 129.36153C172.67563 84.08122 232.3677 53.1475 300.0 53.1475L300.0 160.78416Z" fill-rule="nonzero"/><path fill="#000000" d="M309.97473 114.0453L308.74036 114.0453L308.74036 106.20155Q308.30286 106.62343 307.56848 107.06093Q306.84973 107.4828 306.28723 107.68593L306.28723 106.49843Q307.31848 106.01405 308.0841 105.32655Q308.86536 104.63905 309.17786 103.9828L309.97473 103.9828L309.97473 114.0453ZM313.3341 109.1078Q313.3341 107.32655 313.69348 106.24843Q314.06848 105.15468 314.78723 104.57655Q315.50598 103.9828 316.59973 103.9828Q317.41223 103.9828 318.0216 104.31093Q318.63098 104.63905 319.0216 105.24843Q319.42786 105.8578 319.6466 106.7328Q319.86536 107.6078 319.86536 109.1078Q319.86536 110.87343 319.50598 111.95155Q319.1466 113.02968 318.42786 113.62343Q317.7091 114.21718 316.59973 114.21718Q315.16223 114.21718 314.3341 113.1703Q313.3341 111.9203 313.3341 109.1078ZM314.59973 109.1078Q314.59973 111.57655 315.17786 112.38905Q315.75598 113.20155 316.59973 113.20155Q317.4591 113.20155 318.03723 112.38905Q318.61536 111.56093 318.61536 109.1078Q318.61536 106.62343 318.03723 105.81093Q317.4591 104.99843 316.5841 104.99843Q315.74036 104.99843 315.24036 105.71718Q314.59973 106.63905 314.59973 109.1078ZM321.41223 105.34218L321.41223 104.15468L327.91223 104.15468L327.91223 105.1078Q326.94348 106.12343 326.00598 107.81093Q325.06848 109.49843 324.55286 111.2953Q324.19348 112.5453 324.0841 114.0453L322.81848 114.0453Q322.8341 112.8578 323.2716 111.18593Q323.72473 109.51405 324.55286 107.96718Q325.3966 106.40468 326.3341 105.34218L321.41223 105.34218ZM330.00598 114.0453L330.00598 112.63905L331.3966 112.63905L331.3966 114.0453Q331.3966 114.81093 331.11536 115.27968Q330.84973 115.76405 330.25598 116.02968L329.91223 115.49843Q330.30286 115.32655 330.49036 114.99843Q330.67786 114.6703 330.69348 114.0453L330.00598 114.0453ZM333.3341 111.4203L334.63098 111.31093Q334.7716 112.24843 335.28723 112.7328Q335.81848 113.20155 336.55286 113.20155Q337.44348 113.20155 338.05286 112.52968Q338.67786 111.8578 338.67786 110.76405Q338.67786 109.70155 338.0841 109.09218Q337.49036 108.4828 336.53723 108.4828Q335.94348 108.4828 335.4591 108.76405Q334.99036 109.02968 334.7091 109.45155L333.55286 109.31093L334.5216 104.15468L339.50598 104.15468L339.50598 105.34218L335.50598 105.34218L334.97473 108.02968Q335.88098 107.40468 336.86536 107.40468Q338.17786 107.40468 339.06848 108.31093Q339.97473 109.21718 339.97473 110.65468Q339.97473 112.01405 339.19348 112.99843Q338.22473 114.21718 336.55286 114.21718Q335.19348 114.21718 334.31848 113.45155Q333.4591 112.68593 333.3341 111.4203ZM348.03723 116.99843Q347.00598 115.70155 346.30286 113.9828Q345.59973 112.26405 345.59973 110.4203Q345.59973 108.7953 346.13098 107.2953Q346.74036 105.56093 348.03723 103.8578L348.91223 103.8578Q348.0841 105.27968 347.81848 105.88905Q347.3966 106.82655 347.16223 107.8578Q346.86536 109.12343 346.86536 110.4203Q346.86536 113.71718 348.91223 116.99843L348.03723 116.99843ZM354.97473 114.0453L353.74036 114.0453L353.74036 106.20155Q353.30286 106.62343 352.56848 107.06093Q351.84973 107.4828 351.28723 107.68593L351.28723 106.49843Q352.31848 106.01405 353.0841 105.32655Q353.86536 104.63905 354.17786 103.9828L354.97473 103.9828L354.97473 114.0453ZM360.22473 108.6078Q359.4591 108.32655 359.0841 107.81093Q358.72473 107.2953 358.72473 106.56093Q358.72473 105.46718 359.50598 104.7328Q360.30286 103.9828 361.59973 103.9828Q362.91223 103.9828 363.7091 104.74843Q364.5216 105.51405 364.5216 106.6078Q364.5216 107.2953 364.1466 107.81093Q363.78723 108.32655 363.03723 108.6078Q363.9591 108.90468 364.44348 109.57655Q364.92786 110.24843 364.92786 111.18593Q364.92786 112.46718 364.0216 113.34218Q363.11536 114.21718 361.63098 114.21718Q360.1466 114.21718 359.22473 113.34218Q358.31848 112.45155 358.31848 111.13905Q358.31848 110.1703 358.81848 109.51405Q359.31848 108.84218 360.22473 108.6078ZM359.99036 106.52968Q359.99036 107.2328 360.44348 107.68593Q360.8966 108.13905 361.63098 108.13905Q362.34973 108.13905 362.80286 107.70155Q363.25598 107.24843 363.25598 106.59218Q363.25598 105.9203 362.78723 105.46718Q362.31848 104.99843 361.61536 104.99843Q360.91223 104.99843 360.44348 105.45155Q359.99036 105.88905 359.99036 106.52968ZM359.5841 111.15468Q359.5841 111.68593 359.8341 112.18593Q360.0841 112.6703 360.56848 112.93593Q361.06848 113.20155 361.6466 113.20155Q362.5216 113.20155 363.0841 112.63905Q363.66223 112.07655 363.66223 111.20155Q363.66223 110.31093 363.06848 109.7328Q362.49036 109.13905 361.59973 109.13905Q360.72473 109.13905 360.1466 109.71718Q359.5841 110.2953 359.5841 111.15468ZM367.00598 114.0453L367.00598 112.63905L368.3966 112.63905L368.3966 114.0453Q368.3966 114.81093 368.11536 115.27968Q367.84973 115.76405 367.25598 116.02968L366.91223 115.49843Q367.30286 115.32655 367.49036 114.99843Q367.67786 114.6703 367.69348 114.0453L367.00598 114.0453ZM370.5216 111.7328L371.7091 111.62343Q371.84973 112.45155 372.2716 112.82655Q372.7091 113.20155 373.36536 113.20155Q373.92786 113.20155 374.34973 112.95155Q374.78723 112.68593 375.05286 112.24843Q375.3341 111.81093 375.5216 111.07655Q375.7091 110.34218 375.7091 109.57655Q375.7091 109.49843 375.69348 109.32655Q375.3341 109.9203 374.69348 110.2953Q374.05286 110.65468 373.30286 110.65468Q372.05286 110.65468 371.19348 109.74843Q370.3341 108.84218 370.3341 107.37343Q370.3341 105.84218 371.22473 104.9203Q372.13098 103.9828 373.49036 103.9828Q374.4591 103.9828 375.2716 104.51405Q376.0841 105.02968 376.50598 106.01405Q376.92786 106.9828 376.92786 108.82655Q376.92786 110.74843 376.50598 111.88905Q376.09973 113.02968 375.2716 113.62343Q374.44348 114.21718 373.3341 114.21718Q372.16223 114.21718 371.41223 113.56093Q370.67786 112.90468 370.5216 111.7328ZM375.55286 107.31093Q375.55286 106.24843 374.99036 105.62343Q374.42786 104.99843 373.6466 104.99843Q372.81848 104.99843 372.2091 105.6703Q371.59973 106.34218 371.59973 107.40468Q371.59973 108.3578 372.17786 108.96718Q372.75598 109.56093 373.59973 109.56093Q374.4591 109.56093 375.00598 108.96718Q375.55286 108.3578 375.55286 107.31093ZM378.56848 106.43593Q378.56848 105.3578 379.09973 104.6078Q379.6466 103.8578 380.67786 103.8578Q381.61536 103.8578 382.22473 104.52968Q382.84973 105.20155 382.84973 106.49843Q382.84973 107.77968 382.22473 108.46718Q381.59973 109.15468 380.69348 109.15468Q379.78723 109.15468 379.17786 108.4828Q378.56848 107.7953 378.56848 106.43593ZM380.7091 104.70155Q380.25598 104.70155 379.94348 105.1078Q379.6466 105.49843 379.6466 106.5453Q379.6466 107.51405 379.94348 107.90468Q380.25598 108.2953 380.7091 108.2953Q381.17786 108.2953 381.47473 107.90468Q381.78723 107.51405 381.78723 106.45155Q381.78723 105.4828 381.47473 105.09218Q381.16223 104.70155 380.7091 104.70155ZM380.7091 114.4203L386.19348 103.8578L387.19348 103.8578L381.74036 114.4203L380.7091 114.4203ZM385.05286 111.68593Q385.05286 110.6078 385.5841 109.87343Q386.13098 109.12343 387.16223 109.12343Q388.09973 109.12343 388.72473 109.7953Q389.34973 110.46718 389.34973 111.76405Q389.34973 113.0453 388.72473 113.7328Q388.09973 114.4203 387.16223 114.4203Q386.25598 114.4203 385.6466 113.74843Q385.05286 113.06093 385.05286 111.68593ZM387.19348 109.96718Q386.72473 109.96718 386.42786 110.37343Q386.13098 110.76405 386.13098 111.81093Q386.13098 112.77968 386.42786 113.1703Q386.74036 113.56093 387.19348 113.56093Q387.66223 113.56093 387.9591 113.1703Q388.2716 112.77968 388.2716 111.71718Q388.2716 110.74843 387.9591 110.3578Q387.66223 109.96718 387.19348 109.96718ZM391.49036 116.99843L390.59973 116.99843Q392.6466 113.71718 392.6466 110.4203Q392.6466 109.13905 392.34973 107.87343Q392.11536 106.84218 391.7091 105.90468Q391.44348 105.2953 390.59973 103.8578L391.49036 103.8578Q392.7716 105.56093 393.38098 107.2953Q393.91223 108.7953 393.91223 110.4203Q393.91223 112.26405 393.19348 113.9828Q392.49036 115.70155 391.49036 116.99843Z" fill-rule="nonzero"/><path fill="#000000" d="M209.77525 217.52303L209.77525 215.11678L205.41588 215.11678L205.41588 213.99178L209.994 207.5074L210.994 207.5074L210.994 213.99178L212.35338 213.99178L212.35338 215.11678L210.994 215.11678L210.994 217.52303L209.77525 217.52303ZM209.77525 213.99178L209.77525 209.47615L206.63463 213.99178L209.77525 213.99178ZM220.21275 209.96053L218.994 210.05428Q218.82213 209.3199 218.52525 208.99178Q218.02525 208.47615 217.29088 208.47615Q216.69713 208.47615 216.25963 208.80428Q215.6815 209.22615 215.33775 210.03865Q215.00963 210.85115 214.994 212.35115Q215.4315 211.67928 216.07213 211.35115Q216.72838 211.02303 217.4315 211.02303Q218.66588 211.02303 219.52525 211.92928Q220.38463 212.83553 220.38463 214.27303Q220.38463 215.21053 219.97838 216.02303Q219.57213 216.83553 218.85338 217.27303Q218.15025 217.6949 217.244 217.6949Q215.71275 217.6949 214.744 216.5699Q213.77525 215.42928 213.77525 212.83553Q213.77525 209.92928 214.83775 208.60115Q215.77525 207.46053 217.369 207.46053Q218.5565 207.46053 219.3065 208.1324Q220.0565 208.78865 220.21275 209.96053ZM215.1815 214.27303Q215.1815 214.91365 215.44713 215.49178Q215.72838 216.0699 216.21275 216.3824Q216.69713 216.67928 217.22838 216.67928Q218.00963 216.67928 218.57213 216.05428Q219.13463 215.42928 219.13463 214.35115Q219.13463 213.30428 218.57213 212.71053Q218.02525 212.10115 217.1815 212.10115Q216.35338 212.10115 215.75963 212.71053Q215.1815 213.30428 215.1815 214.27303ZM228.29088 216.33553L228.29088 217.52303L221.66588 217.52303Q221.65025 217.08553 221.8065 216.66365Q222.07213 215.99178 222.619 215.33553Q223.1815 214.67928 224.22838 213.8199Q225.869 212.47615 226.4315 211.6949Q227.00963 210.91365 227.00963 210.21053Q227.00963 209.47615 226.47838 208.97615Q225.96275 208.47615 225.13463 208.47615Q224.244 208.47615 223.69713 209.0074Q223.16588 209.53865 223.16588 210.49178L221.90025 210.35115Q222.02525 208.9449 222.869 208.21053Q223.72838 207.46053 225.15025 207.46053Q226.60338 207.46053 227.4315 208.2574Q228.27525 209.05428 228.27525 210.24178Q228.27525 210.85115 228.02525 211.42928Q227.79088 212.0074 227.21275 212.64803Q226.65025 213.28865 225.32213 214.41365Q224.21275 215.33553 223.90025 215.67928Q223.58775 216.0074 223.38463 216.33553L228.29088 216.33553ZM230.494 217.52303L230.494 216.11678L231.88463 216.11678L231.88463 217.52303Q231.88463 218.28865 231.60338 218.7574Q231.33775 219.24178 230.744 219.5074L230.40025 218.97615Q230.79088 218.80428 230.97838 218.47615Q231.16588 218.14803 231.1815 217.52303L230.494 217.52303ZM233.82213 214.89803L235.119 214.78865Q235.25963 215.72615 235.77525 216.21053Q236.3065 216.67928 237.04088 216.67928Q237.9315 216.67928 238.54088 216.0074Q239.16588 215.33553 239.16588 214.24178Q239.16588 213.17928 238.57213 212.5699Q237.97838 211.96053 237.02525 211.96053Q236.4315 211.96053 235.94713 212.24178Q235.47838 212.5074 235.19713 212.92928L234.04088 212.78865L235.00963 207.6324L239.994 207.6324L239.994 208.8199L235.994 208.8199L235.46275 211.5074Q236.369 210.8824 237.35338 210.8824Q238.66588 210.8824 239.5565 211.78865Q240.46275 212.6949 240.46275 214.1324Q240.46275 215.49178 239.6815 216.47615Q238.71275 217.6949 237.04088 217.6949Q235.6815 217.6949 234.8065 216.92928Q233.94713 216.16365 233.82213 214.89803ZM248.52525 220.47615Q247.494 219.17928 246.79088 217.46053Q246.08775 215.74178 246.08775 213.89803Q246.08775 212.27303 246.619 210.77303Q247.22838 209.03865 248.52525 207.33553L249.40025 207.33553Q248.57213 208.7574 248.3065 209.36678Q247.88463 210.30428 247.65025 211.33553Q247.35338 212.60115 247.35338 213.89803Q247.35338 217.1949 249.40025 220.47615L248.52525 220.47615ZM252.71275 212.08553Q251.94713 211.80428 251.57213 211.28865Q251.21275 210.77303 251.21275 210.03865Q251.21275 208.9449 251.994 208.21053Q252.79088 207.46053 254.08775 207.46053Q255.40025 207.46053 256.19714 208.22615Q257.00964 208.99178 257.00964 210.08553Q257.00964 210.77303 256.63464 211.28865Q256.27527 211.80428 255.52525 212.08553Q256.44714 212.3824 256.93152 213.05428Q257.4159 213.72615 257.4159 214.66365Q257.4159 215.9449 256.50964 216.8199Q255.60338 217.6949 254.119 217.6949Q252.63463 217.6949 251.71275 216.8199Q250.8065 215.92928 250.8065 214.61678Q250.8065 213.64803 251.3065 212.99178Q251.8065 212.3199 252.71275 212.08553ZM252.47838 210.0074Q252.47838 210.71053 252.9315 211.16365Q253.38463 211.61678 254.119 211.61678Q254.83775 211.61678 255.29088 211.17928Q255.744 210.72615 255.744 210.0699Q255.744 209.39803 255.27525 208.9449Q254.8065 208.47615 254.10338 208.47615Q253.40025 208.47615 252.9315 208.92928Q252.47838 209.36678 252.47838 210.0074ZM252.07213 214.6324Q252.07213 215.16365 252.32213 215.66365Q252.57213 216.14803 253.0565 216.41365Q253.5565 216.67928 254.13463 216.67928Q255.00963 216.67928 255.57213 216.11678Q256.15027 215.55428 256.15027 214.67928Q256.15027 213.78865 255.5565 213.21053Q254.97838 212.61678 254.08775 212.61678Q253.21275 212.61678 252.63463 213.1949Q252.07213 213.77303 252.07213 214.6324ZM263.46277 217.52303L262.2284 217.52303L262.2284 209.67928Q261.7909 210.10115 261.05652 210.53865Q260.33777 210.96053 259.77527 211.16365L259.77527 209.97615Q260.80652 209.49178 261.57214 208.80428Q262.3534 208.11678 262.6659 207.46053L263.46277 207.46053L263.46277 217.52303ZM267.49402 217.52303L267.49402 216.11678L268.88464 216.11678L268.88464 217.52303Q268.88464 218.28865 268.6034 218.7574Q268.33777 219.24178 267.74402 219.5074L267.40027 218.97615Q267.7909 218.80428 267.9784 218.47615Q268.1659 218.14803 268.18152 217.52303L267.49402 217.52303ZM275.46277 217.52303L274.2284 217.52303L274.2284 209.67928Q273.7909 210.10115 273.05652 210.53865Q272.33777 210.96053 271.77527 211.16365L271.77527 209.97615Q272.80652 209.49178 273.57214 208.80428Q274.3534 208.11678 274.6659 207.46053L275.46277 207.46053L275.46277 217.52303ZM279.05652 209.91365Q279.05652 208.83553 279.58777 208.08553Q280.13464 207.33553 281.1659 207.33553Q282.1034 207.33553 282.71277 208.0074Q283.33777 208.67928 283.33777 209.97615Q283.33777 211.2574 282.71277 211.9449Q282.08777 212.6324 281.18152 212.6324Q280.27527 212.6324 279.6659 211.96053Q279.05652 211.27303 279.05652 209.91365ZM281.19714 208.17928Q280.74402 208.17928 280.43152 208.58553Q280.13464 208.97615 280.13464 210.02303Q280.13464 210.99178 280.43152 211.3824Q280.74402 211.77303 281.19714 211.77303Q281.6659 211.77303 281.96277 211.3824Q282.27527 210.99178 282.27527 209.92928Q282.27527 208.96053 281.96277 208.5699Q281.65027 208.17928 281.19714 208.17928ZM281.19714 217.89803L286.68152 207.33553L287.68152 207.33553L282.2284 217.89803L281.19714 217.89803ZM285.5409 215.16365Q285.5409 214.08553 286.07214 213.35115Q286.61902 212.60115 287.65027 212.60115Q288.58777 212.60115 289.21277 213.27303Q289.83777 213.9449 289.83777 215.24178Q289.83777 216.52303 289.21277 217.21053Q288.58777 217.89803 287.65027 217.89803Q286.74402 217.89803 286.13464 217.22615Q285.5409 216.53865 285.5409 215.16365ZM287.68152 213.4449Q287.21277 213.4449 286.9159 213.85115Q286.61902 214.24178 286.61902 215.28865Q286.61902 216.2574 286.9159 216.64803Q287.2284 217.03865 287.68152 217.03865Q288.15027 217.03865 288.44714 216.64803Q288.75964 216.2574 288.75964 215.1949Q288.75964 214.22615 288.44714 213.83553Q288.15027 213.4449 287.68152 213.4449ZM291.9784 220.47615L291.08777 220.47615Q293.13464 217.1949 293.13464 213.89803Q293.13464 212.61678 292.83777 211.35115Q292.6034 210.3199 292.19714 209.3824Q291.93152 208.77303 291.08777 207.33553L291.9784 207.33553Q293.25964 209.03865 293.86902 210.77303Q294.40027 212.27303 294.40027 213.89803Q294.40027 215.74178 293.68152 217.46053Q292.9784 219.17928 291.9784 220.47615Z" fill-rule="nonzero"/><path fill="#ea4335" d="M196.5 345.45C196.5 348.7637 193.8137 351.45 190.5 351.45C187.1863 351.45 184.5 348.7637 184.5 345.45C184.5 342.1363 187.1863 339.45 190.5 339.45C193.8137 339.45 196.5 342.1363 196.5 345.45Z" fill-rule="nonzero"/><path fill="#000000" d="M207.60938 349.45L207.60938 341.8719L204.78125 341.8719L204.78125 340.85626L211.59375 340.85626L211.59375 341.8719L208.75 341.8719L208.75 349.45L207.60938 349.45ZM216.54688 347.45L217.64062 347.575Q217.39062 348.52814 216.6875 349.0594Q215.98438 349.59064 214.90625 349.59064Q213.54688 349.59064 212.73438 348.7469Q211.9375 347.90314 211.9375 346.3875Q211.9375 344.825 212.75 343.96564Q213.5625 343.09064 214.84375 343.09064Q216.09375 343.09064 216.875 343.9344Q217.67188 344.77814 217.67188 346.325Q217.67188 346.41876 217.67188 346.60626L213.03125 346.60626Q213.09375 347.6375 213.60938 348.1844Q214.125 348.71564 214.90625 348.71564Q215.48438 348.71564 215.89062 348.41876Q216.3125 348.10626 216.54688 347.45ZM213.09375 345.7469L216.5625 345.7469Q216.5 344.95 216.17188 344.5594Q215.65625 343.95 214.85938 343.95Q214.125 343.95 213.625 344.4344Q213.14062 344.91876 213.09375 345.7469ZM219.29688 349.45L219.29688 343.23126L220.23438 343.23126L220.23438 344.10626Q220.53125 343.6375 221.01562 343.3719Q221.5 343.09064 222.125 343.09064Q222.8125 343.09064 223.25 343.3719Q223.70312 343.65314 223.875 344.16876Q224.625 343.09064 225.79688 343.09064Q226.73438 343.09064 227.21875 343.60626Q227.71875 344.10626 227.71875 345.1844L227.71875 349.45L226.67188 349.45L226.67188 345.52814Q226.67188 344.90314 226.5625 344.6219Q226.46875 344.34064 226.20312 344.16876Q225.9375 343.9969 225.5625 343.9969Q224.90625 343.9969 224.46875 344.4344Q224.04688 344.8719 224.04688 345.84064L224.04688 349.45L222.98438 349.45L222.98438 345.40314Q222.98438 344.7 222.71875 344.35626Q222.46875 343.9969 221.89062 343.9969Q221.4375 343.9969 221.0625 344.23126Q220.6875 344.46564 220.51562 344.91876Q220.34375 345.3719 220.34375 346.21564L220.34375 349.45L219.29688 349.45ZM230.29688 351.84064L230.29688 343.23126L231.25 343.23126L231.25 344.02814Q231.59375 343.5594 232.01562 343.325Q232.45312 343.09064 233.0625 343.09064Q233.85938 343.09064 234.46875 343.4969Q235.07812 343.90314 235.375 344.65314Q235.6875 345.40314 235.6875 346.29376Q235.6875 347.2469 235.34375 348.0125Q235.01562 348.77814 234.35938 349.1844Q233.70312 349.59064 232.98438 349.59064Q232.45312 349.59064 232.03125 349.3719Q231.60938 349.1375 231.34375 348.8094L231.34375 351.84064L230.29688 351.84064ZM231.25 346.3719Q231.25 347.575 231.73438 348.15314Q232.21875 348.71564 232.90625 348.71564Q233.60938 348.71564 234.10938 348.1219Q234.60938 347.52814 234.60938 346.27814Q234.60938 345.09064 234.125 344.5125Q233.64062 343.91876 232.95312 343.91876Q232.28125 343.91876 231.76562 344.54376Q231.25 345.16876 231.25 346.3719ZM236.90625 346.34064Q236.90625 344.60626 237.85938 343.77814Q238.65625 343.09064 239.8125 343.09064Q241.09375 343.09064 241.90625 343.9344Q242.73438 344.7625 242.73438 346.2469Q242.73438 347.45 242.375 348.1375Q242.01562 348.825 241.3125 349.21564Q240.625 349.59064 239.8125 349.59064Q238.51562 349.59064 237.70312 348.7625Q236.90625 347.91876 236.90625 346.34064ZM237.98438 346.34064Q237.98438 347.52814 238.5 348.1219Q239.03125 348.71564 239.8125 348.71564Q240.60938 348.71564 241.125 348.1219Q241.64062 347.52814 241.64062 346.3094Q241.64062 345.15314 241.10938 344.5594Q240.59375 343.96564 239.8125 343.96564Q239.03125 343.96564 238.5 344.5594Q237.98438 345.1375 237.98438 346.34064ZM246.875 347.59064L247.90625 347.4344Q248.0 348.0594 248.39062 348.3875Q248.79688 348.71564 249.53125 348.71564Q250.25 348.71564 250.59375 348.4344Q250.95312 348.1375 250.95312 347.73126Q250.95312 347.3719 250.64062 347.16876Q250.42188 347.02814 249.5625 346.8094Q248.40625 346.5125 247.95312 346.3094Q247.51562 346.09064 247.28125 345.71564Q247.04688 345.34064 247.04688 344.8719Q247.04688 344.46564 247.23438 344.10626Q247.42188 343.7469 247.75 343.5125Q248.0 343.34064 248.42188 343.21564Q248.84375 343.09064 249.34375 343.09064Q250.0625 343.09064 250.60938 343.3094Q251.17188 343.5125 251.4375 343.8719Q251.70312 344.23126 251.79688 344.825L250.76562 344.96564Q250.70312 344.4969 250.35938 344.23126Q250.03125 343.95 249.40625 343.95Q248.6875 343.95 248.375 344.2Q248.0625 344.4344 248.0625 344.7625Q248.0625 344.96564 248.1875 345.1219Q248.32812 345.29376 248.59375 345.40314Q248.75 345.46564 249.53125 345.66876Q250.65625 345.98126 251.09375 346.16876Q251.53125 346.35626 251.78125 346.71564Q252.03125 347.075 252.03125 347.6219Q252.03125 348.15314 251.71875 348.6219Q251.42188 349.075 250.84375 349.34064Q250.26562 349.59064 249.53125 349.59064Q248.3125 349.59064 247.67188 349.09064Q247.04688 348.575 246.875 347.59064ZM254.29688 351.84064L254.29688 343.23126L255.25 343.23126L255.25 344.02814Q255.59375 343.5594 256.01562 343.325Q256.45312 343.09064 257.0625 343.09064Q257.85938 343.09064 258.46875 343.4969Q259.07812 343.90314 259.375 344.65314Q259.6875 345.40314 259.6875 346.29376Q259.6875 347.2469 259.34375 348.0125Q259.01562 348.77814 258.35938 349.1844Q257.70312 349.59064 256.98438 349.59064Q256.45312 349.59064 256.03125 349.3719Q255.60938 349.1375 255.34375 348.8094L255.34375 351.84064L254.29688 351.84064ZM255.25 346.3719Q255.25 347.575 255.73438 348.15314Q256.21875 348.71564 256.90625 348.71564Q257.60938 348.71564 258.10938 348.1219Q258.60938 347.52814 258.60938 346.27814Q258.60938 345.09064 258.125 344.5125Q257.64062 343.91876 256.95312 343.91876Q256.28125 343.91876 255.76562 344.54376Q255.25 345.16876 255.25 346.3719ZM265.54688 347.45L266.64062 347.575Q266.39062 348.52814 265.6875 349.0594Q264.98438 349.59064 263.90625 349.59064Q262.54688 349.59064 261.73438 348.7469Q260.9375 347.90314 260.9375 346.3875Q260.9375 344.825 261.75 343.96564Q262.5625 343.09064 263.84375 343.09064Q265.09375 343.09064 265.875 343.9344Q266.67188 344.77814 266.67188 346.325Q266.67188 346.41876 266.67188 346.60626L262.03125 346.60626Q262.09375 347.6375 262.60938 348.1844Q263.125 348.71564 263.90625 348.71564Q264.48438 348.71564 264.89062 348.41876Q265.3125 348.10626 265.54688 347.45ZM262.09375 345.7469L265.5625 345.7469Q265.5 344.95 265.17188 344.5594Q264.65625 343.95 263.85938 343.95Q263.125 343.95 262.625 344.4344Q262.14062 344.91876 262.09375 345.7469ZM267.875 347.59064L268.90625 347.4344Q269.0 348.0594 269.39062 348.3875Q269.79688 348.71564 270.53125 348.71564Q271.25 348.71564 271.59375 348.4344Q271.95312 348.1375 271.95312 347.73126Q271.95312 347.3719 271.64062 347.16876Q271.42188 347.02814 270.5625 346.8094Q269.40625 346.5125 268.95312 346.3094Q268.51562 346.09064 268.28125 345.71564Q268.04688 345.34064 268.04688 344.8719Q268.04688 344.46564 268.23438 344.10626Q268.42188 343.7469 268.75 343.5125Q269.0 343.34064 269.42188 343.21564Q269.84375 343.09064 270.34375 343.09064Q271.0625 343.09064 271.60938 343.3094Q272.17188 343.5125 272.4375 343.8719Q272.70312 344.23126 272.79688 344.825L271.76562 344.96564Q271.70312 344.4969 271.35938 344.23126Q271.03125 343.95 270.40625 343.95Q269.6875 343.95 269.375 344.2Q269.0625 344.4344 269.0625 344.7625Q269.0625 344.96564 269.1875 345.1219Q269.32812 345.29376 269.59375 345.40314Q269.75 345.46564 270.53125 345.66876Q271.65625 345.98126 272.09375 346.16876Q272.53125 346.35626 272.78125 346.71564Q273.03125 347.075 273.03125 347.6219Q273.03125 348.15314 272.71875 348.6219Q272.42188 349.075 271.84375 349.34064Q271.26562 349.59064 270.53125 349.59064Q269.3125 349.59064 268.67188 349.09064Q268.04688 348.575 267.875 347.59064ZM274.90625 346.34064Q274.90625 344.60626 275.85938 343.77814Q276.65625 343.09064 277.8125 343.09064Q279.09375 343.09064 279.90625 343.9344Q280.73438 344.7625 280.73438 346.2469Q280.73438 347.45 280.375 348.1375Q280.01562 348.825 279.3125 349.21564Q278.625 349.59064 277.8125 349.59064Q276.51562 349.59064 275.70312 348.7625Q274.90625 347.91876 274.90625 346.34064ZM275.98438 346.34064Q275.98438 347.52814 276.5 348.1219Q277.03125 348.71564 277.8125 348.71564Q278.60938 348.71564 279.125 348.1219Q279.64062 347.52814 279.64062 346.3094Q279.64062 345.15314 279.10938 344.5594Q278.59375 343.96564 277.8125 343.96564Q277.03125 343.96564 276.5 344.5594Q275.98438 345.1375 275.98438 346.34064Z" fill-rule="nonzero"/><path fill="#4285f4" d="M309.5 345.45C309.5 348.7637 306.81372 351.45 303.5 351.45C300.18628 351.45 297.5 348.7637 297.5 345.45C297.5 342.1363 300.18628 339.45 303.5 339.45C306.81372 339.45 309.5 342.1363 309.5 345.45Z" fill-rule="nonzero"/><path fill="#000000" d="M320.60938 349.45L320.60938 341.8719L317.78125 341.8719L317.78125 340.85626L324.59375 340.85626L324.59375 341.8719L321.75 341.8719L321.75 349.45L320.60938 349.45ZM329.54688 347.45L330.64062 347.575Q330.39062 348.52814 329.6875 349.0594Q328.98438 349.59064 327.90625 349.59064Q326.54688 349.59064 325.73438 348.7469Q324.9375 347.90314 324.9375 346.3875Q324.9375 344.825 325.75 343.96564Q326.5625 343.09064 327.84375 343.09064Q329.09375 343.09064 329.875 343.9344Q330.67188 344.77814 330.67188 346.325Q330.67188 346.41876 330.67188 346.60626L326.03125 346.60626Q326.09375 347.6375 326.60938 348.1844Q327.125 348.71564 327.90625 348.71564Q328.48438 348.71564 328.89062 348.41876Q329.3125 348.10626 329.54688 347.45ZM326.09375 345.7469L329.5625 345.7469Q329.5 344.95 329.17188 344.5594Q328.65625 343.95 327.85938 343.95Q327.125 343.95 326.625 344.4344Q326.14062 344.91876 326.09375 345.7469ZM332.29688 349.45L332.29688 343.23126L333.23438 343.23126L333.23438 344.10626Q333.53125 343.6375 334.01562 343.3719Q334.5 343.09064 335.125 343.09064Q335.8125 343.09064 336.25 343.3719Q336.70312 343.65314 336.875 344.16876Q337.625 343.09064 338.79688 343.09064Q339.73438 343.09064 340.21875 343.60626Q340.71875 344.10626 340.71875 345.1844L340.71875 349.45L339.67188 349.45L339.67188 345.52814Q339.67188 344.90314 339.5625 344.6219Q339.46875 344.34064 339.20312 344.16876Q338.9375 343.9969 338.5625 343.9969Q337.90625 343.9969 337.46875 344.4344Q337.04688 344.8719 337.04688 345.84064L337.04688 349.45L335.98438 349.45L335.98438 345.40314Q335.98438 344.7 335.71875 344.35626Q335.46875 343.9969 334.89062 343.9969Q334.4375 343.9969 334.0625 344.23126Q333.6875 344.46564 333.51562 344.91876Q333.34375 345.3719 333.34375 346.21564L333.34375 349.45L332.29688 349.45ZM343.29688 351.84064L343.29688 343.23126L344.25 343.23126L344.25 344.02814Q344.59375 343.5594 345.01562 343.325Q345.45312 343.09064 346.0625 343.09064Q346.85938 343.09064 347.46875 343.4969Q348.07812 343.90314 348.375 344.65314Q348.6875 345.40314 348.6875 346.29376Q348.6875 347.2469 348.34375 348.0125Q348.01562 348.77814 347.35938 349.1844Q346.70312 349.59064 345.98438 349.59064Q345.45312 349.59064 345.03125 349.3719Q344.60938 349.1375 344.34375 348.8094L344.34375 351.84064L343.29688 351.84064ZM344.25 346.3719Q344.25 347.575 344.73438 348.15314Q345.21875 348.71564 345.90625 348.71564Q346.60938 348.71564 347.10938 348.1219Q347.60938 347.52814 347.60938 346.27814Q347.60938 345.09064 347.125 344.5125Q346.64062 343.91876 345.95312 343.91876Q345.28125 343.91876 344.76562 344.54376Q344.25 345.16876 344.25 346.3719ZM349.90625 346.34064Q349.90625 344.60626 350.85938 343.77814Q351.65625 343.09064 352.8125 343.09064Q354.09375 343.09064 354.90625 343.9344Q355.73438 344.7625 355.73438 346.2469Q355.73438 347.45 355.375 348.1375Q355.01562 348.825 354.3125 349.21564Q353.625 349.59064 352.8125 349.59064Q351.51562 349.59064 350.70312 348.7625Q349.90625 347.91876 349.90625 346.34064ZM350.98438 346.34064Q350.98438 347.52814 351.5 348.1219Q352.03125 348.71564 352.8125 348.71564Q353.60938 348.71564 354.125 348.1219Q354.64062 347.52814 354.64062 346.3094Q354.64062 345.15314 354.10938 344.5594Q353.59375 343.96564 352.8125 343.96564Q352.03125 343.96564 351.5 344.5594Q350.98438 345.1375 350.98438 346.34064ZM360.28125 349.45L360.28125 343.23126L361.23438 343.23126L361.23438 344.16876Q361.59375 343.5125 361.89062 343.3094Q362.20312 343.09064 362.57812 343.09064Q363.10938 343.09064 363.65625 343.41876L363.29688 344.40314Q362.90625 344.16876 362.53125 344.16876Q362.17188 344.16876 361.89062 344.3875Q361.625 344.59064 361.51562 344.96564Q361.32812 345.52814 361.32812 346.1844L361.32812 349.45L360.28125 349.45ZM364.29688 342.075L364.29688 340.85626L365.35938 340.85626L365.35938 342.075L364.29688 342.075ZM364.29688 349.45L364.29688 343.23126L365.35938 343.23126L365.35938 349.45L364.29688 349.45ZM367.29688 349.45L367.29688 343.23126L368.23438 343.23126L368.23438 344.10626Q368.53125 343.6375 369.01562 343.3719Q369.5 343.09064 370.125 343.09064Q370.8125 343.09064 371.25 343.3719Q371.70312 343.65314 371.875 344.16876Q372.625 343.09064 373.79688 343.09064Q374.73438 343.09064 375.21875 343.60626Q375.71875 344.10626 375.71875 345.1844L375.71875 349.45L374.67188 349.45L374.67188 345.52814Q374.67188 344.90314 374.5625 344.6219Q374.46875 344.34064 374.20312 344.16876Q373.9375 343.9969 373.5625 343.9969Q372.90625 343.9969 372.46875 344.4344Q372.04688 344.8719 372.04688 345.84064L372.04688 349.45L370.98438 349.45L370.98438 345.40314Q370.98438 344.7 370.71875 344.35626Q370.46875 343.9969 369.89062 343.9969Q369.4375 343.9969 369.0625 344.23126Q368.6875 344.46564 368.51562 344.91876Q368.34375 345.3719 368.34375 346.21564L368.34375 349.45L367.29688 349.45ZM382.35938 348.6844Q381.76562 349.1844 381.21875 349.3875Q380.6875 349.59064 380.0625 349.59064Q379.03125 349.59064 378.48438 349.09064Q377.9375 348.59064 377.9375 347.8094Q377.9375 347.35626 378.14062 346.98126Q378.34375 346.59064 378.6875 346.3719Q379.03125 346.1375 379.45312 346.02814Q379.75 345.9344 380.39062 345.85626Q381.65625 345.71564 382.26562 345.4969Q382.26562 345.27814 382.26562 345.23126Q382.26562 344.575 381.96875 344.3094Q381.5625 343.96564 380.76562 343.96564Q380.03125 343.96564 379.67188 344.23126Q379.3125 344.48126 379.14062 345.1375L378.10938 344.9969Q378.25 344.34064 378.57812 343.9344Q378.90625 343.52814 379.51562 343.3094Q380.125 343.09064 380.92188 343.09064Q381.71875 343.09064 382.21875 343.27814Q382.71875 343.46564 382.95312 343.7469Q383.1875 344.02814 383.28125 344.46564Q383.32812 344.73126 383.32812 345.4344L383.32812 346.84064Q383.32812 348.3094 383.39062 348.7Q383.46875 349.09064 383.67188 349.45L382.5625 349.45Q382.40625 349.1219 382.35938 348.6844ZM382.26562 346.325Q381.6875 346.5594 380.54688 346.73126Q379.89062 346.825 379.625 346.95Q379.35938 347.0594 379.20312 347.27814Q379.0625 347.4969 379.0625 347.77814Q379.0625 348.2 379.375 348.48126Q379.70312 348.7625 380.3125 348.7625Q380.92188 348.7625 381.39062 348.4969Q381.875 348.23126 382.09375 347.7625Q382.26562 347.40314 382.26562 346.71564L382.26562 346.325ZM385.29688 349.45L385.29688 343.23126L386.23438 343.23126L386.23438 344.10626Q386.92188 343.09064 388.21875 343.09064Q388.78125 343.09064 389.25 343.29376Q389.73438 343.4969 389.96875 343.825Q390.20312 344.15314 390.29688 344.59064Q390.34375 344.8875 390.34375 345.6219L390.34375 349.45L389.29688 349.45L389.29688 345.66876Q389.29688 345.0125 389.17188 344.7Q389.04688 344.3875 388.73438 344.2Q388.42188 343.9969 388.0 343.9969Q387.32812 343.9969 386.82812 344.4344Q386.34375 344.85626 386.34375 346.04376L386.34375 349.45L385.29688 349.45ZM396.54688 347.45L397.64062 347.575Q397.39062 348.52814 396.6875 349.0594Q395.98438 349.59064 394.90625 349.59064Q393.54688 349.59064 392.73438 348.7469Q391.9375 347.90314 391.9375 346.3875Q391.9375 344.825 392.75 343.96564Q393.5625 343.09064 394.84375 343.09064Q396.09375 343.09064 396.875 343.9344Q397.67188 344.77814 397.67188 346.325Q397.67188 346.41876 397.67188 346.60626L393.03125 346.60626Q393.09375 347.6375 393.60938 348.1844Q394.125 348.71564 394.90625 348.71564Q395.48438 348.71564 395.89062 348.41876Q396.3125 348.10626 396.54688 347.45ZM393.09375 345.7469L396.5625 345.7469Q396.5 344.95 396.17188 344.5594Q395.65625 343.95 394.85938 343.95Q394.125 343.95 393.625 344.4344Q393.14062 344.91876 393.09375 345.7469ZM399.29688 349.45L399.29688 343.23126L400.23438 343.23126L400.23438 344.10626Q400.92188 343.09064 402.21875 343.09064Q402.78125 343.09064 403.25 343.29376Q403.73438 343.4969 403.96875 343.825Q404.20312 344.15314 404.29688 344.59064Q404.34375 344.8875 404.34375 345.6219L404.34375 349.45L403.29688 349.45L403.29688 345.66876Q403.29688 345.0125 403.17188 344.7Q403.04688 344.3875 402.73438 344.2Q402.42188 343.9969 402.0 343.9969Q401.32812 343.9969 400.82812 344.4344Q400.34375 344.85626 400.34375 346.04376L400.34375 349.45L399.29688 349.45ZM408.59375 348.5125L408.75 349.4344Q408.29688 349.52814 407.95312 349.52814Q407.375 349.52814 407.0625 349.35626Q406.75 349.16876 406.60938 348.8719Q406.48438 348.575 406.48438 347.6219L406.48438 344.04376L405.71875 344.04376L405.71875 343.23126L406.48438 343.23126L406.48438 341.6844L407.53125 341.0594L407.53125 343.23126L408.59375 343.23126L408.59375 344.04376L407.53125 344.04376L407.53125 347.6844Q407.53125 348.1375 407.57812 348.2625Q407.64062 348.3875 407.76562 348.46564Q407.89062 348.54376 408.125 348.54376Q408.3125 348.54376 408.59375 348.5125ZM413.54688 347.45L414.64062 347.575Q414.39062 348.52814 413.6875 349.0594Q412.98438 349.59064 411.90625 349.59064Q410.54688 349.59064 409.73438 348.7469Q408.9375 347.90314 408.9375 346.3875Q408.9375 344.825 409.75 343.96564Q410.5625 343.09064 411.84375 343.09064Q413.09375 343.09064 413.875 343.9344Q414.67188 344.77814 414.67188 346.325Q414.67188 346.41876 414.67188 346.60626L410.03125 346.60626Q410.09375 347.6375 410.60938 348.1844Q411.125 348.71564 411.90625 348.71564Q412.48438 348.71564 412.89062 348.41876Q413.3125 348.10626 413.54688 347.45ZM410.09375 345.7469L413.5625 345.7469Q413.5 344.95 413.17188 344.5594Q412.65625 343.95 411.85938 343.95Q411.125 343.95 410.625 344.4344Q410.14062 344.91876 410.09375 345.7469Z" fill-rule="nonzero"/></svg>