<svg version="1.1" viewBox="0.0 0.0 600.0 371.0" fill="none" stroke="none" stroke-linecap="square" stroke-miterlimit="10" width="600" height="371" xmlns:xlink="http://www.w3.org/1999/xlink" xmlns="http://www.w3.org/2000/svg"><path fill="#ffffff" d="M0 0L600.0 0L600.0 371.0L0 371.0L0 0Z" fill-rule="nonzero"/><path fill="#ea4335" d="M300.0 53.1475C365.68005 53.1475 424.1089 82.34968 445.43515 125.834595L300.0 160.78416Z" fill-rule="nonzero"/><path fill="#2e5dab" d="M453.76666 183.84917C453.76666 243.29526 384.92297 291.48584 300.0 291.48584C215.07701 291.48584 146.23334 243.29526 146.23334 183.84917L146.23334 160.78416C146.23334 220.23026 215.07701 268.42084 300.0 268.42084C384.92297 268.42084 453.76666 220.23026 453.76666 160.78416Z" fill-rule="nonzero"/><path fill="#4285f4" d="M445.43515 125.834595C467.14136 170.09416 445.5089 219.1 391.91748 247.0728C338.32605 275.0456 265.0556 275.57565 210.64975 248.38412C156.24391 221.19261 133.16922 172.5102 153.56404 127.946045C173.95886 83.38191 233.14992 53.1475 300.0 53.1475L300.0 160.78416Z" fill-rule="nonzero"/><path fill="#000000" d="M311.70367 115.30778L310.4693 115.30778L310.4693 107.46403Q310.0318 107.8859 309.29742 108.3234Q308.57867 108.74528 308.01617 108.9484L308.01617 107.7609Q309.04742 107.27653 309.81305 106.58903Q310.5943 105.90153 310.9068 105.24528L311.70367 105.24528L311.70367 115.30778ZM319.70367 115.30778L318.4693 115.30778L318.4693 107.46403Q318.0318 107.8859 317.29742 108.3234Q316.57867 108.74528 316.01617 108.9484L316.01617 107.7609Q317.04742 107.27653 317.81305 106.58903Q318.5943 105.90153 318.9068 105.24528L319.70367 105.24528L319.70367 115.30778ZM329.5318 114.12028L329.5318 115.30778L322.9068 115.30778Q322.89117 114.87028 323.04742 114.4484Q323.31305 113.77653 323.85992 113.12028Q324.42242 112.46403 325.4693 111.60465Q327.10992 110.2609 327.67242 109.47965Q328.25055 108.6984 328.25055 107.99528Q328.25055 107.2609 327.7193 106.7609Q327.20367 106.2609 326.37555 106.2609Q325.48492 106.2609 324.93805 106.79215Q324.4068 107.3234 324.4068 108.27653L323.14117 108.1359Q323.26617 106.72965 324.10992 105.99528Q324.9693 105.24528 326.39117 105.24528Q327.8443 105.24528 328.67242 106.04215Q329.51617 106.83903 329.51617 108.02653Q329.51617 108.6359 329.26617 109.21403Q329.0318 109.79215 328.45367 110.43278Q327.89117 111.0734 326.56305 112.1984Q325.45367 113.12028 325.14117 113.46403Q324.82867 113.79215 324.62555 114.12028L329.5318 114.12028ZM331.73492 115.30778L331.73492 113.90153L333.12555 113.90153L333.12555 115.30778Q333.12555 116.0734 332.8443 116.54215Q332.57867 117.02653 331.98492 117.29215L331.64117 116.7609Q332.0318 116.58903 332.2193 116.2609Q332.4068 115.93278 332.42242 115.30778L331.73492 115.30778ZM335.06305 112.68278L336.35992 112.5734Q336.50055 113.5109 337.01617 113.99528Q337.54742 114.46403 338.2818 114.46403Q339.17242 114.46403 339.7818 113.79215Q340.4068 113.12028 340.4068 112.02653Q340.4068 110.96403 339.81305 110.35465Q339.2193 109.74528 338.26617 109.74528Q337.67242 109.74528 337.18805 110.02653Q336.7193 110.29215 336.43805 110.71403L335.2818 110.5734L336.25055 105.41715L341.23492 105.41715L341.23492 106.60465L337.23492 106.60465L336.70367 109.29215Q337.60992 108.66715 338.5943 108.66715Q339.9068 108.66715 340.79742 109.5734Q341.70367 110.47965 341.70367 111.91715Q341.70367 113.27653 340.92242 114.2609Q339.95367 115.47965 338.2818 115.47965Q336.92242 115.47965 336.04742 114.71403Q335.18805 113.9484 335.06305 112.68278ZM349.76617 118.2609Q348.73492 116.96403 348.0318 115.24528Q347.32867 113.52653 347.32867 111.68278Q347.32867 110.05778 347.85992 108.55778Q348.4693 106.8234 349.76617 105.12028L350.64117 105.12028Q349.81305 106.54215 349.54742 107.15153Q349.12555 108.08903 348.89117 109.12028Q348.5943 110.3859 348.5943 111.68278Q348.5943 114.97965 350.64117 118.2609L349.76617 118.2609ZM356.70367 115.30778L355.4693 115.30778L355.4693 107.46403Q355.0318 107.8859 354.29742 108.3234Q353.57867 108.74528 353.01617 108.9484L353.01617 107.7609Q354.04742 107.27653 354.81305 106.58903Q355.5943 105.90153 355.9068 105.24528L356.70367 105.24528L356.70367 115.30778ZM360.25055 112.99528L361.43805 112.8859Q361.57867 113.71403 362.00055 114.08903Q362.43805 114.46403 363.0943 114.46403Q363.6568 114.46403 364.07867 114.21403Q364.51617 113.9484 364.7818 113.5109Q365.06305 113.0734 365.25055 112.33903Q365.43805 111.60465 365.43805 110.83903Q365.43805 110.7609 365.42242 110.58903Q365.06305 111.18278 364.42242 111.55778Q363.7818 111.91715 363.0318 111.91715Q361.7818 111.91715 360.92242 111.0109Q360.06305 110.10465 360.06305 108.6359Q360.06305 107.10465 360.95367 106.18278Q361.85992 105.24528 363.2193 105.24528Q364.18805 105.24528 365.00055 105.77653Q365.81305 106.29215 366.23492 107.27653Q366.6568 108.24528 366.6568 110.08903Q366.6568 112.0109 366.23492 113.15153Q365.82867 114.29215 365.00055 114.8859Q364.17242 115.47965 363.06305 115.47965Q361.89117 115.47965 361.14117 114.8234Q360.4068 114.16715 360.25055 112.99528ZM365.2818 108.5734Q365.2818 107.5109 364.7193 106.8859Q364.1568 106.2609 363.37555 106.2609Q362.54742 106.2609 361.93805 106.93278Q361.32867 107.60465 361.32867 108.66715Q361.32867 109.62028 361.9068 110.22965Q362.48492 110.8234 363.32867 110.8234Q364.18805 110.8234 364.73492 110.22965Q365.2818 109.62028 365.2818 108.5734ZM368.73492 115.30778L368.73492 113.90153L370.12555 113.90153L370.12555 115.30778Q370.12555 116.0734 369.8443 116.54215Q369.57867 117.02653 368.98492 117.29215L368.64117 116.7609Q369.0318 116.58903 369.2193 116.2609Q369.4068 115.93278 369.42242 115.30778L368.73492 115.30778ZM372.14117 106.60465L372.14117 105.41715L378.64117 105.41715L378.64117 106.37028Q377.67242 107.3859 376.73492 109.0734Q375.79742 110.7609 375.2818 112.55778Q374.92242 113.80778 374.81305 115.30778L373.54742 115.30778Q373.56305 114.12028 374.00055 112.4484Q374.45367 110.77653 375.2818 109.22965Q376.12555 107.66715 377.06305 106.60465L372.14117 106.60465ZM380.29742 107.6984Q380.29742 106.62028 380.82867 105.87028Q381.37555 105.12028 382.4068 105.12028Q383.3443 105.12028 383.95367 105.79215Q384.57867 106.46403 384.57867 107.7609Q384.57867 109.04215 383.95367 109.72965Q383.32867 110.41715 382.42242 110.41715Q381.51617 110.41715 380.9068 109.74528Q380.29742 109.05778 380.29742 107.6984ZM382.43805 105.96403Q381.98492 105.96403 381.67242 106.37028Q381.37555 106.7609 381.37555 107.80778Q381.37555 108.77653 381.67242 109.16715Q381.98492 109.55778 382.43805 109.55778Q382.9068 109.55778 383.20367 109.16715Q383.51617 108.77653 383.51617 107.71403Q383.51617 106.74528 383.20367 106.35465Q382.89117 105.96403 382.43805 105.96403ZM382.43805 115.68278L387.92242 105.12028L388.92242 105.12028L383.4693 115.68278L382.43805 115.68278ZM386.7818 112.9484Q386.7818 111.87028 387.31305 111.1359Q387.85992 110.3859 388.89117 110.3859Q389.82867 110.3859 390.45367 111.05778Q391.07867 111.72965 391.07867 113.02653Q391.07867 114.30778 390.45367 114.99528Q389.82867 115.68278 388.89117 115.68278Q387.98492 115.68278 387.37555 115.0109Q386.7818 114.3234 386.7818 112.9484ZM388.92242 111.22965Q388.45367 111.22965 388.1568 111.6359Q387.85992 112.02653 387.85992 113.0734Q387.85992 114.04215 388.1568 114.43278Q388.4693 114.8234 388.92242 114.8234Q389.39117 114.8234 389.68805 114.43278Q390.00055 114.04215 390.00055 112.97965Q390.00055 112.0109 389.68805 111.62028Q389.39117 111.22965 388.92242 111.22965ZM393.2193 118.2609L392.32867 118.2609Q394.37555 114.97965 394.37555 111.68278Q394.37555 110.40153 394.07867 109.1359Q393.8443 108.10465 393.43805 107.16715Q393.17242 106.55778 392.32867 105.12028L393.2193 105.12028Q394.50055 106.8234 395.10992 108.55778Q395.64117 110.05778 395.64117 111.68278Q395.64117 113.52653 394.92242 115.24528Q394.2193 116.96403 393.2193 118.2609Z" fill-rule="nonzero"/><path fill="#000000" d="M208.04633 216.26056L208.04633 213.85431L203.68695 213.85431L203.68695 212.72931L208.26508 206.24493L209.26508 206.24493L209.26508 212.72931L210.62445 212.72931L210.62445 213.85431L209.26508 213.85431L209.26508 216.26056L208.04633 216.26056ZM208.04633 212.72931L208.04633 208.21368L204.9057 212.72931L208.04633 212.72931ZM212.0932 213.63556L213.39008 213.52618Q213.5307 214.46368 214.04633 214.94806Q214.57758 215.41681 215.31195 215.41681Q216.20258 215.41681 216.81195 214.74493Q217.43695 214.07306 217.43695 212.97931Q217.43695 211.91681 216.8432 211.30743Q216.24945 210.69806 215.29633 210.69806Q214.70258 210.69806 214.2182 210.97931Q213.74945 211.24493 213.4682 211.66681L212.31195 211.52618L213.2807 206.36993L218.26508 206.36993L218.26508 207.55743L214.26508 207.55743L213.73383 210.24493Q214.64008 209.61993 215.62445 209.61993Q216.93695 209.61993 217.82758 210.52618Q218.73383 211.43243 218.73383 212.86993Q218.73383 214.22931 217.95258 215.21368Q216.98383 216.43243 215.31195 216.43243Q213.95258 216.43243 213.07758 215.66681Q212.2182 214.90118 212.0932 213.63556ZM220.17133 207.55743L220.17133 206.36993L226.67133 206.36993L226.67133 207.32306Q225.70258 208.33868 224.76508 210.02618Q223.82758 211.71368 223.31195 213.51056Q222.95258 214.76056 222.8432 216.26056L221.57758 216.26056Q221.5932 215.07306 222.0307 213.40118Q222.48383 211.72931 223.31195 210.18243Q224.1557 208.61993 225.0932 207.55743L220.17133 207.55743ZM228.76508 216.26056L228.76508 214.85431L230.1557 214.85431L230.1557 216.26056Q230.1557 217.02618 229.87445 217.49493Q229.60883 217.97931 229.01508 218.24493L228.67133 217.71368Q229.06195 217.54181 229.24945 217.21368Q229.43695 216.88556 229.45258 216.26056L228.76508 216.26056ZM232.0932 213.63556L233.39008 213.52618Q233.5307 214.46368 234.04633 214.94806Q234.57758 215.41681 235.31195 215.41681Q236.20258 215.41681 236.81195 214.74493Q237.43695 214.07306 237.43695 212.97931Q237.43695 211.91681 236.8432 211.30743Q236.24945 210.69806 235.29633 210.69806Q234.70258 210.69806 234.2182 210.97931Q233.74945 211.24493 233.4682 211.66681L232.31195 211.52618L233.2807 206.36993L238.26508 206.36993L238.26508 207.55743L234.26508 207.55743L233.73383 210.24493Q234.64008 209.61993 235.62445 209.61993Q236.93695 209.61993 237.82758 210.52618Q238.73383 211.43243 238.73383 212.86993Q238.73383 214.22931 237.95258 215.21368Q236.98383 216.43243 235.31195 216.43243Q233.95258 216.43243 233.07758 215.66681Q232.2182 214.90118 232.0932 213.63556ZM246.79633 219.21368Q245.76508 217.91681 245.06195 216.19806Q244.35883 214.47931 244.35883 212.63556Q244.35883 211.01056 244.89008 209.51056Q245.49945 207.77618 246.79633 206.07306L247.67133 206.07306Q246.8432 207.49493 246.57758 208.10431Q246.1557 209.04181 245.92133 210.07306Q245.62445 211.33868 245.62445 212.63556Q245.62445 215.93243 247.67133 219.21368L246.79633 219.21368ZM250.98383 210.82306Q250.2182 210.54181 249.8432 210.02618Q249.48383 209.51056 249.48383 208.77618Q249.48383 207.68243 250.26508 206.94806Q251.06195 206.19806 252.35883 206.19806Q253.67133 206.19806 254.4682 206.96368Q255.2807 207.72931 255.2807 208.82306Q255.2807 209.51056 254.9057 210.02618Q254.54633 210.54181 253.79633 210.82306Q254.7182 211.11993 255.20258 211.79181Q255.68695 212.46368 255.68695 213.40118Q255.68695 214.68243 254.7807 215.55743Q253.87445 216.43243 252.39008 216.43243Q250.9057 216.43243 249.98383 215.55743Q249.07758 214.66681 249.07758 213.35431Q249.07758 212.38556 249.57758 211.72931Q250.07758 211.05743 250.98383 210.82306ZM250.74945 208.74493Q250.74945 209.44806 251.20258 209.90118Q251.6557 210.35431 252.39008 210.35431Q253.10883 210.35431 253.56195 209.91681Q254.01508 209.46368 254.01508 208.80743Q254.01508 208.13556 253.54633 207.68243Q253.07758 207.21368 252.37445 207.21368Q251.67133 207.21368 251.20258 207.66681Q250.74945 208.10431 250.74945 208.74493ZM250.3432 213.36993Q250.3432 213.90118 250.5932 214.40118Q250.8432 214.88556 251.32758 215.15118Q251.82758 215.41681 252.4057 215.41681Q253.2807 215.41681 253.8432 214.85431Q254.42133 214.29181 254.42133 213.41681Q254.42133 212.52618 253.82758 211.94806Q253.24945 211.35431 252.35883 211.35431Q251.48383 211.35431 250.9057 211.93243Q250.3432 212.51056 250.3432 213.36993ZM257.0932 211.32306Q257.0932 209.54181 257.45258 208.46368Q257.82758 207.36993 258.54633 206.79181Q259.26508 206.19806 260.35883 206.19806Q261.17133 206.19806 261.7807 206.52618Q262.39008 206.85431 262.7807 207.46368Q263.18695 208.07306 263.4057 208.94806Q263.62445 209.82306 263.62445 211.32306Q263.62445 213.08868 263.26508 214.16681Q262.9057 215.24493 262.18695 215.83868Q261.4682 216.43243 260.35883 216.43243Q258.92133 216.43243 258.0932 215.38556Q257.0932 214.13556 257.0932 211.32306ZM258.35883 211.32306Q258.35883 213.79181 258.93695 214.60431Q259.51508 215.41681 260.35883 215.41681Q261.2182 215.41681 261.79633 214.60431Q262.37445 213.77618 262.37445 211.32306Q262.37445 208.83868 261.79633 208.02618Q261.2182 207.21368 260.3432 207.21368Q259.49945 207.21368 258.99945 207.93243Q258.35883 208.85431 258.35883 211.32306ZM265.76508 216.26056L265.76508 214.85431L267.1557 214.85431L267.1557 216.26056Q267.1557 217.02618 266.87445 217.49493Q266.60883 217.97931 266.01508 218.24493L265.67133 217.71368Q266.06195 217.54181 266.24945 217.21368Q266.43695 216.88556 266.45258 216.26056L265.76508 216.26056ZM269.10883 213.61993L270.32758 213.44806Q270.54633 214.49493 271.04633 214.96368Q271.56195 215.41681 272.29633 215.41681Q273.17133 215.41681 273.76508 214.82306Q274.35883 214.21368 274.35883 213.32306Q274.35883 212.47931 273.79633 211.93243Q273.24945 211.38556 272.4057 211.38556Q272.04633 211.38556 271.5307 211.51056L271.67133 210.43243Q271.79633 210.44806 271.85883 210.44806Q272.6557 210.44806 273.2807 210.04181Q273.9057 209.63556 273.9057 208.77618Q273.9057 208.10431 273.45258 207.66681Q272.99945 207.21368 272.26508 207.21368Q271.54633 207.21368 271.06195 207.66681Q270.5932 208.10431 270.45258 209.01056L269.23383 208.79181Q269.45258 207.55743 270.24945 206.88556Q271.04633 206.19806 272.23383 206.19806Q273.06195 206.19806 273.74945 206.55743Q274.43695 206.90118 274.79633 207.51056Q275.17133 208.11993 275.17133 208.80743Q275.17133 209.44806 274.82758 209.97931Q274.48383 210.51056 273.79633 210.83868Q274.68695 211.04181 275.17133 211.68243Q275.67133 212.32306 275.67133 213.30743Q275.67133 214.61993 274.70258 215.52618Q273.74945 216.43243 272.29633 216.43243Q270.9682 216.43243 270.0932 215.65118Q269.23383 214.86993 269.10883 213.61993ZM277.32758 208.65118Q277.32758 207.57306 277.85883 206.82306Q278.4057 206.07306 279.43695 206.07306Q280.37445 206.07306 280.98383 206.74493Q281.60883 207.41681 281.60883 208.71368Q281.60883 209.99493 280.98383 210.68243Q280.35883 211.36993 279.45258 211.36993Q278.54633 211.36993 277.93695 210.69806Q277.32758 210.01056 277.32758 208.65118ZM279.4682 206.91681Q279.01508 206.91681 278.70258 207.32306Q278.4057 207.71368 278.4057 208.76056Q278.4057 209.72931 278.70258 210.11993Q279.01508 210.51056 279.4682 210.51056Q279.93695 210.51056 280.23383 210.11993Q280.54633 209.72931 280.54633 208.66681Q280.54633 207.69806 280.23383 207.30743Q279.92133 206.91681 279.4682 206.91681ZM279.4682 216.63556L284.95258 206.07306L285.95258 206.07306L280.49945 216.63556L279.4682 216.63556ZM283.81195 213.90118Q283.81195 212.82306 284.3432 212.08868Q284.89008 211.33868 285.92133 211.33868Q286.85883 211.33868 287.48383 212.01056Q288.10883 212.68243 288.10883 213.97931Q288.10883 215.26056 287.48383 215.94806Q286.85883 216.63556 285.92133 216.63556Q285.01508 216.63556 284.4057 215.96368Q283.81195 215.27618 283.81195 213.90118ZM285.95258 212.18243Q285.48383 212.18243 285.18695 212.58868Q284.89008 212.97931 284.89008 214.02618Q284.89008 214.99493 285.18695 215.38556Q285.49945 215.77618 285.95258 215.77618Q286.42133 215.77618 286.7182 215.38556Q287.0307 214.99493 287.0307 213.93243Q287.0307 212.96368 286.7182 212.57306Q286.42133 212.18243 285.95258 212.18243ZM290.24945 219.21368L289.35883 219.21368Q291.4057 215.93243 291.4057 212.63556Q291.4057 211.35431 291.10883 210.08868Q290.87445 209.05743 290.4682 208.11993Q290.20258 207.51056 289.35883 206.07306L290.24945 206.07306Q291.5307 207.77618 292.14008 209.51056Q292.67133 211.01056 292.67133 212.63556Q292.67133 214.47931 291.95258 216.19806Q291.24945 217.91681 290.24945 219.21368Z" fill-rule="nonzero"/><path fill="#ea4335" d="M196.5 345.45C196.5 348.7637 193.8137 351.45 190.5 351.45C187.1863 351.45 184.5 348.7637 184.5 345.45C184.5 342.1363 187.1863 339.45 190.5 339.45C193.8137 339.45 196.5 342.1363 196.5 345.45Z" fill-rule="nonzero"/><path fill="#000000" d="M207.60938 349.45L207.60938 341.8719L204.78125 341.8719L204.78125 340.85626L211.59375 340.85626L211.59375 341.8719L208.75 341.8719L208.75 349.45L207.60938 349.45ZM216.54688 347.45L217.64062 347.575Q217.39062 348.52814 216.6875 349.0594Q215.98438 349.59064 214.90625 349.59064Q213.54688 349.59064 212.73438 348.7469Q211.9375 347.90314 211.9375 346.3875Q211.9375 344.825 212.75 343.96564Q213.5625 343.09064 214.84375 343.09064Q216.09375 343.09064 216.875 343.9344Q217.67188 344.77814 217.67188 346.325Q217.67188 346.41876 217.67188 346.60626L213.03125 346.60626Q213.09375 347.6375 213.60938 348.1844Q214.125 348.71564 214.90625 348.71564Q215.48438 348.71564 215.89062 348.41876Q216.3125 348.10626 216.54688 347.45ZM213.09375 345.7469L216.5625 345.7469Q216.5 344.95 216.17188 344.5594Q215.65625 343.95 214.85938 343.95Q214.125 343.95 213.625 344.4344Q213.14062 344.91876 213.09375 345.7469ZM219.29688 349.45L219.29688 343.23126L220.23438 343.23126L220.23438 344.10626Q220.53125 343.6375 221.01562 343.3719Q221.5 343.09064 222.125 343.09064Q222.8125 343.09064 223.25 343.3719Q223.70312 343.65314 223.875 344.16876Q224.625 343.09064 225.79688 343.09064Q226.73438 343.09064 227.21875 343.60626Q227.71875 344.10626 227.71875 345.1844L227.71875 349.45L226.67188 349.45L226.67188 345.52814Q226.67188 344.90314 226.5625 344.6219Q226.46875 344.34064 226.20312 344.16876Q225.9375 343.9969 225.5625 343.9969Q224.90625 343.9969 224.46875 344.4344Q224.04688 344.8719 224.04688 345.84064L224.04688 349.45L222.98438 349.45L222.98438 345.40314Q222.98438 344.7 222.71875 344.35626Q222.46875 343.9969 221.89062 343.9969Q221.4375 343.9969 221.0625 344.23126Q220.6875 344.46564 220.51562 344.91876Q220.34375 345.3719 220.34375 346.21564L220.34375 349.45L219.29688 349.45ZM230.29688 351.84064L230.29688 343.23126L231.25 343.23126L231.25 344.02814Q231.59375 343.5594 232.01562 343.325Q232.45312 343.09064 233.0625 343.09064Q233.85938 343.09064 234.46875 343.4969Q235.07812 343.90314 235.375 344.65314Q235.6875 345.40314 235.6875 346.29376Q235.6875 347.2469 235.34375 348.0125Q235.01562 348.77814 234.35938 349.1844Q233.70312 349.59064 232.98438 349.59064Q232.45312 349.59064 232.03125 349.3719Q231.60938 349.1375 231.34375 348.8094L231.34375 351.84064L230.29688 351.84064ZM231.25 346.3719Q231.25 347.575 231.73438 348.15314Q232.21875 348.71564 232.90625 348.71564Q233.60938 348.71564 234.10938 348.1219Q234.60938 347.52814 234.60938 346.27814Q234.60938 345.09064 234.125 344.5125Q233.64062 343.91876 232.95312 343.91876Q232.28125 343.91876 231.76562 344.54376Q231.25 345.16876 231.25 346.3719ZM236.90625 346.34064Q236.90625 344.60626 237.85938 343.77814Q238.65625 343.09064 239.8125 343.09064Q241.09375 343.09064 241.90625 343.9344Q242.73438 344.7625 242.73438 346.2469Q242.73438 347.45 242.375 348.1375Q242.01562 348.825 241.3125 349.21564Q240.625 349.59064 239.8125 349.59064Q238.51562 349.59064 237.70312 348.7625Q236.90625 347.91876 236.90625 346.34064ZM237.98438 346.34064Q237.98438 347.52814 238.5 348.1219Q239.03125 348.71564 239.8125 348.71564Q240.60938 348.71564 241.125 348.1219Q241.64062 347.52814 241.64062 346.3094Q241.64062 345.15314 241.10938 344.5594Q240.59375 343.96564 239.8125 343.96564Q239.03125 343.96564 238.5 344.5594Q237.98438 345.1375 237.98438 346.34064ZM246.875 347.59064L247.90625 347.4344Q248.0 348.0594 248.39062 348.3875Q248.79688 348.71564 249.53125 348.71564Q250.25 348.71564 250.59375 348.4344Q250.95312 348.1375 250.95312 347.73126Q250.95312 347.3719 250.64062 347.16876Q250.42188 347.02814 249.5625 346.8094Q248.40625 346.5125 247.95312 346.3094Q247.51562 346.09064 247.28125 345.71564Q247.04688 345.34064 247.04688 344.8719Q247.04688 344.46564 247.23438 344.10626Q247.42188 343.7469 247.75 343.5125Q248.0 343.34064 248.42188 343.21564Q248.84375 343.09064 249.34375 343.09064Q250.0625 343.09064 250.60938 343.3094Q251.17188 343.5125 251.4375 343.8719Q251.70312 344.23126 251.79688 344.825L250.76562 344.96564Q250.70312 344.4969 250.35938 344.23126Q250.03125 343.95 249.40625 343.95Q248.6875 343.95 248.375 344.2Q248.0625 344.4344 248.0625 344.7625Q248.0625 344.96564 248.1875 345.1219Q248.32812 345.29376 248.59375 345.40314Q248.75 345.46564 249.53125 345.66876Q250.65625 345.98126 251.09375 346.16876Q251.53125 346.35626 251.78125 346.71564Q252.03125 347.075 252.03125 347.6219Q252.03125 348.15314 251.71875 348.6219Q251.42188 349.075 250.84375 349.34064Q250.26562 349.59064 249.53125 349.59064Q248.3125 349.59064 247.67188 349.09064Q247.04688 348.575 246.875 347.59064ZM254.29688 351.84064L254.29688 343.23126L255.25 343.23126L255.25 344.02814Q255.59375 343.5594 256.01562 343.325Q256.45312 343.09064 257.0625 343.09064Q257.85938 343.09064 258.46875 343.4969Q259.07812 343.90314 259.375 344.65314Q259.6875 345.40314 259.6875 346.29376Q259.6875 347.2469 259.34375 348.0125Q259.01562 348.77814 258.35938 349.1844Q257.70312 349.59064 256.98438 349.59064Q256.45312 349.59064 256.03125 349.3719Q255.60938 349.1375 255.34375 348.8094L255.34375 351.84064L254.29688 351.84064ZM255.25 346.3719Q255.25 347.575 255.73438 348.15314Q256.21875 348.71564 256.90625 348.71564Q257.60938 348.71564 258.10938 348.1219Q258.60938 347.52814 258.60938 346.27814Q258.60938 345.09064 258.125 344.5125Q257.64062 343.91876 256.95312 343.91876Q256.28125 343.91876 255.76562 344.54376Q255.25 345.16876 255.25 346.3719ZM265.54688 347.45L266.64062 347.575Q266.39062 348.52814 265.6875 349.0594Q264.98438 349.59064 263.90625 349.59064Q262.54688 349.59064 261.73438 348.7469Q260.9375 347.90314 260.9375 346.3875Q260.9375 344.825 261.75 343.96564Q262.5625 343.09064 263.84375 343.09064Q265.09375 343.09064 265.875 343.9344Q266.67188 344.77814 266.67188 346.325Q266.67188 346.41876 266.67188 346.60626L262.03125 346.60626Q262.09375 347.6375 262.60938 348.1844Q263.125 348.71564 263.90625 348.71564Q264.48438 348.71564 264.89062 348.41876Q265.3125 348.10626 265.54688 347.45ZM262.09375 345.7469L265.5625 345.7469Q265.5 344.95 265.17188 344.5594Q264.65625 343.95 263.85938 343.95Q263.125 343.95 262.625 344.4344Q262.14062 344.91876 262.09375 345.7469ZM267.875 347.59064L268.90625 347.4344Q269.0 348.0594 269.39062 348.3875Q269.79688 348.71564 270.53125 348.71564Q271.25 348.71564 271.59375 348.4344Q271.95312 348.1375 271.95312 347.73126Q271.95312 347.3719 271.64062 347.16876Q271.42188 347.02814 270.5625 346.8094Q269.40625 346.5125 268.95312 346.3094Q268.51562 346.09064 268.28125 345.71564Q268.04688 345.34064 268.04688 344.8719Q268.04688 344.46564 268.23438 344.10626Q268.42188 343.7469 268.75 343.5125Q269.0 343.34064 269.42188 343.21564Q269.84375 343.09064 270.34375 343.09064Q271.0625 343.09064 271.60938 343.3094Q272.17188 343.5125 272.4375 343.8719Q272.70312 344.23126 272.79688 344.825L271.76562 344.96564Q271.70312 344.4969 271.35938 344.23126Q271.03125 343.95 270.40625 343.95Q269.6875 343.95 269.375 344.2Q269.0625 344.4344 269.0625 344.7625Q269.0625 344.96564 269.1875 345.1219Q269.32812 345.29376 269.59375 345.40314Q269.75 345.46564 270.53125 345.66876Q271.65625 345.98126 272.09375 346.16876Q272.53125 346.35626 272.78125 346.71564Q273.03125 347.075 273.03125 347.6219Q273.03125 348.15314 272.71875 348.6219Q272.42188 349.075 271.84375 349.34064Q271.26562 349.59064 270.53125 349.59064Q269.3125 349.59064 268.67188 349.09064Q268.04688 348.575 267.875 347.59064ZM274.90625 346.34064Q274.90625 344.60626 275.85938 343.77814Q276.65625 343.09064 277.8125 343.09064Q279.09375 343.09064 279.90625 343.9344Q280.73438 344.7625 280.73438 346.2469Q280.73438 347.45 280.375 348.1375Q280.01562 348.825 279.3125 349.21564Q278.625 349.59064 277.8125 349.59064Q276.51562 349.59064 275.70312 348.7625Q274.90625 347.91876 274.90625 346.34064ZM275.98438 346.34064Q275.98438 347.52814 276.5 348.1219Q277.03125 348.71564 277.8125 348.71564Q278.60938 348.71564 279.125 348.1219Q279.64062 347.52814 279.64062 346.3094Q279.64062 345.15314 279.10938 344.5594Q278.59375 343.96564 277.8125 343.96564Q277.03125 343.96564 276.5 344.5594Q275.98438 345.1375 275.98438 346.34064Z" fill-rule="nonzero"/><path fill="#4285f4" d="M309.5 345.45C309.5 348.7637 306.81372 351.45 303.5 351.45C300.18628 351.45 297.5 348.7637 297.5 345.45C297.5 342.1363 300.18628 339.45 303.5 339.45C306.81372 339.45 309.5 342.1363 309.5 345.45Z" fill-rule="nonzero"/><path fill="#000000" d="M320.60938 349.45L320.60938 341.8719L317.78125 341.8719L317.78125 340.85626L324.59375 340.85626L324.59375 341.8719L321.75 341.8719L321.75 349.45L320.60938 349.45ZM329.54688 347.45L330.64062 347.575Q330.39062 348.52814 329.6875 349.0594Q328.98438 349.59064 327.90625 349.59064Q326.54688 349.59064 325.73438 348.7469Q324.9375 347.90314 324.9375 346.3875Q324.9375 344.825 325.75 343.96564Q326.5625 343.09064 327.84375 343.09064Q329.09375 343.09064 329.875 343.9344Q330.67188 344.77814 330.67188 346.325Q330.67188 346.41876 330.67188 346.60626L326.03125 346.60626Q326.09375 347.6375 326.60938 348.1844Q327.125 348.71564 327.90625 348.71564Q328.48438 348.71564 328.89062 348.41876Q329.3125 348.10626 329.54688 347.45ZM326.09375 345.7469L329.5625 345.7469Q329.5 344.95 329.17188 344.5594Q328.65625 343.95 327.85938 343.95Q327.125 343.95 326.625 344.4344Q326.14062 344.91876 326.09375 345.7469ZM332.29688 349.45L332.29688 343.23126L333.23438 343.23126L333.23438 344.10626Q333.53125 343.6375 334.01562 343.3719Q334.5 343.09064 335.125 343.09064Q335.8125 343.09064 336.25 343.3719Q336.70312 343.65314 336.875 344.16876Q337.625 343.09064 338.79688 343.09064Q339.73438 343.09064 340.21875 343.60626Q340.71875 344.10626 340.71875 345.1844L340.71875 349.45L339.67188 349.45L339.67188 345.52814Q339.67188 344.90314 339.5625 344.6219Q339.46875 344.34064 339.20312 344.16876Q338.9375 343.9969 338.5625 343.9969Q337.90625 343.9969 337.46875 344.4344Q337.04688 344.8719 337.04688 345.84064L337.04688 349.45L335.98438 349.45L335.98438 345.40314Q335.98438 344.7 335.71875 344.35626Q335.46875 343.9969 334.89062 343.9969Q334.4375 343.9969 334.0625 344.23126Q333.6875 344.46564 333.51562 344.91876Q333.34375 345.3719 333.34375 346.21564L333.34375 349.45L332.29688 349.45ZM343.29688 351.84064L343.29688 343.23126L344.25 343.23126L344.25 344.02814Q344.59375 343.5594 345.01562 343.325Q345.45312 343.09064 346.0625 343.09064Q346.85938 343.09064 347.46875 343.4969Q348.07812 343.90314 348.375 344.65314Q348.6875 345.40314 348.6875 346.29376Q348.6875 347.2469 348.34375 348.0125Q348.01562 348.77814 347.35938 349.1844Q346.70312 349.59064 345.98438 349.59064Q345.45312 349.59064 345.03125 349.3719Q344.60938 349.1375 344.34375 348.8094L344.34375 351.84064L343.29688 351.84064ZM344.25 346.3719Q344.25 347.575 344.73438 348.15314Q345.21875 348.71564 345.90625 348.71564Q346.60938 348.71564 347.10938 348.1219Q347.60938 347.52814 347.60938 346.27814Q347.60938 345.09064 347.125 344.5125Q346.64062 343.91876 345.95312 343.91876Q345.28125 343.91876 344.76562 344.54376Q344.25 345.16876 344.25 346.3719ZM349.90625 346.34064Q349.90625 344.60626 350.85938 343.77814Q351.65625 343.09064 352.8125 343.09064Q354.09375 343.09064 354.90625 343.9344Q355.73438 344.7625 355.73438 346.2469Q355.73438 347.45 355.375 348.1375Q355.01562 348.825 354.3125 349.21564Q353.625 349.59064 352.8125 349.59064Q351.51562 349.59064 350.70312 348.7625Q349.90625 347.91876 349.90625 346.34064ZM350.98438 346.34064Q350.98438 347.52814 351.5 348.1219Q352.03125 348.71564 352.8125 348.71564Q353.60938 348.71564 354.125 348.1219Q354.64062 347.52814 354.64062 346.3094Q354.64062 345.15314 354.10938 344.5594Q353.59375 343.96564 352.8125 343.96564Q352.03125 343.96564 351.5 344.5594Q350.98438 345.1375 350.98438 346.34064ZM360.28125 349.45L360.28125 343.23126L361.23438 343.23126L361.23438 344.16876Q361.59375 343.5125 361.89062 343.3094Q362.20312 343.09064 362.57812 343.09064Q363.10938 343.09064 363.65625 343.41876L363.29688 344.40314Q362.90625 344.16876 362.53125 344.16876Q362.17188 344.16876 361.89062 344.3875Q361.625 344.59064 361.51562 344.96564Q361.32812 345.52814 361.32812 346.1844L361.32812 349.45L360.28125 349.45ZM364.29688 342.075L364.29688 340.85626L365.35938 340.85626L365.35938 342.075L364.29688 342.075ZM364.29688 349.45L364.29688 343.23126L365.35938 343.23126L365.35938 349.45L364.29688 349.45ZM367.29688 349.45L367.29688 343.23126L368.23438 343.23126L368.23438 344.10626Q368.53125 343.6375 369.01562 343.3719Q369.5 343.09064 370.125 343.09064Q370.8125 343.09064 371.25 343.3719Q371.70312 343.65314 371.875 344.16876Q372.625 343.09064 373.79688 343.09064Q374.73438 343.09064 375.21875 343.60626Q375.71875 344.10626 375.71875 345.1844L375.71875 349.45L374.67188 349.45L374.67188 345.52814Q374.67188 344.90314 374.5625 344.6219Q374.46875 344.34064 374.20312 344.16876Q373.9375 343.9969 373.5625 343.9969Q372.90625 343.9969 372.46875 344.4344Q372.04688 344.8719 372.04688 345.84064L372.04688 349.45L370.98438 349.45L370.98438 345.40314Q370.98438 344.7 370.71875 344.35626Q370.46875 343.9969 369.89062 343.9969Q369.4375 343.9969 369.0625 344.23126Q368.6875 344.46564 368.51562 344.91876Q368.34375 345.3719 368.34375 346.21564L368.34375 349.45L367.29688 349.45ZM382.35938 348.6844Q381.76562 349.1844 381.21875 349.3875Q380.6875 349.59064 380.0625 349.59064Q379.03125 349.59064 378.48438 349.09064Q377.9375 348.59064 377.9375 347.8094Q377.9375 347.35626 378.14062 346.98126Q378.34375 346.59064 378.6875 346.3719Q379.03125 346.1375 379.45312 346.02814Q379.75 345.9344 380.39062 345.85626Q381.65625 345.71564 382.26562 345.4969Q382.26562 345.27814 382.26562 345.23126Q382.26562 344.575 381.96875 344.3094Q381.5625 343.96564 380.76562 343.96564Q380.03125 343.96564 379.67188 344.23126Q379.3125 344.48126 379.14062 345.1375L378.10938 344.9969Q378.25 344.34064 378.57812 343.9344Q378.90625 343.52814 379.51562 343.3094Q380.125 343.09064 380.92188 343.09064Q381.71875 343.09064 382.21875 343.27814Q382.71875 343.46564 382.95312 343.7469Q383.1875 344.02814 383.28125 344.46564Q383.32812 344.73126 383.32812 345.4344L383.32812 346.84064Q383.32812 348.3094 383.39062 348.7Q383.46875 349.09064 383.67188 349.45L382.5625 349.45Q382.40625 349.1219 382.35938 348.6844ZM382.26562 346.325Q381.6875 346.5594 380.54688 346.73126Q379.89062 346.825 379.625 346.95Q379.35938 347.0594 379.20312 347.27814Q379.0625 347.4969 379.0625 347.77814Q379.0625 348.2 379.375 348.48126Q379.70312 348.7625 380.3125 348.7625Q380.92188 348.7625 381.39062 348.4969Q381.875 348.23126 382.09375 347.7625Q382.26562 347.40314 382.26562 346.71564L382.26562 346.325ZM385.29688 349.45L385.29688 343.23126L386.23438 343.23126L386.23438 344.10626Q386.92188 343.09064 388.21875 343.09064Q388.78125 343.09064 389.25 343.29376Q389.73438 343.4969 389.96875 343.825Q390.20312 344.15314 390.29688 344.59064Q390.34375 344.8875 390.34375 345.6219L390.34375 349.45L389.29688 349.45L389.29688 345.66876Q389.29688 345.0125 389.17188 344.7Q389.04688 344.3875 388.73438 344.2Q388.42188 343.9969 388.0 343.9969Q387.32812 343.9969 386.82812 344.4344Q386.34375 344.85626 386.34375 346.04376L386.34375 349.45L385.29688 349.45ZM396.54688 347.45L397.64062 347.575Q397.39062 348.52814 396.6875 349.0594Q395.98438 349.59064 394.90625 349.59064Q393.54688 349.59064 392.73438 348.7469Q391.9375 347.90314 391.9375 346.3875Q391.9375 344.825 392.75 343.96564Q393.5625 343.09064 394.84375 343.09064Q396.09375 343.09064 396.875 343.9344Q397.67188 344.77814 397.67188 346.325Q397.67188 346.41876 397.67188 346.60626L393.03125 346.60626Q393.09375 347.6375 393.60938 348.1844Q394.125 348.71564 394.90625 348.71564Q395.48438 348.71564 395.89062 348.41876Q396.3125 348.10626 396.54688 347.45ZM393.09375 345.7469L396.5625 345.7469Q396.5 344.95 396.17188 344.5594Q395.65625 343.95 394.85938 343.95Q394.125 343.95 393.625 344.4344Q393.14062 344.91876 393.09375 345.7469ZM399.29688 349.45L399.29688 343.23126L400.23438 343.23126L400.23438 344.10626Q400.92188 343.09064 402.21875 343.09064Q402.78125 343.09064 403.25 343.29376Q403.73438 343.4969 403.96875 343.825Q404.20312 344.15314 404.29688 344.59064Q404.34375 344.8875 404.34375 345.6219L404.34375 349.45L403.29688 349.45L403.29688 345.66876Q403.29688 345.0125 403.17188 344.7Q403.04688 344.3875 402.73438 344.2Q402.42188 343.9969 402.0 343.9969Q401.32812 343.9969 400.82812 344.4344Q400.34375 344.85626 400.34375 346.04376L400.34375 349.45L399.29688 349.45ZM408.59375 348.5125L408.75 349.4344Q408.29688 349.52814 407.95312 349.52814Q407.375 349.52814 407.0625 349.35626Q406.75 349.16876 406.60938 348.8719Q406.48438 348.575 406.48438 347.6219L406.48438 344.04376L405.71875 344.04376L405.71875 343.23126L406.48438 343.23126L406.48438 341.6844L407.53125 341.0594L407.53125 343.23126L408.59375 343.23126L408.59375 344.04376L407.53125 344.04376L407.53125 347.6844Q407.53125 348.1375 407.57812 348.2625Q407.64062 348.3875 407.76562 348.46564Q407.89062 348.54376 408.125 348.54376Q408.3125 348.54376 408.59375 348.5125ZM413.54688 347.45L414.64062 347.575Q414.39062 348.52814 413.6875 349.0594Q412.98438 349.59064 411.90625 349.59064Q410.54688 349.59064 409.73438 348.7469Q408.9375 347.90314 408.9375 346.3875Q408.9375 344.825 409.75 343.96564Q410.5625 343.09064 411.84375 343.09064Q413.09375 343.09064 413.875 343.9344Q414.67188 344.77814 414.67188 346.325Q414.67188 346.41876 414.67188 346.60626L410.03125 346.60626Q410.09375 347.6375 410.60938 348.1844Q411.125 348.71564 411.90625 348.71564Q412.48438 348.71564 412.89062 348.41876Q413.3125 348.10626 413.54688 347.45ZM410.09375 345.7469L413.5625 345.7469Q413.5 344.95 413.17188 344.5594Q412.65625 343.95 411.85938 343.95Q411.125 343.95 410.625 344.4344Q410.14062 344.91876 410.09375 345.7469Z" fill-rule="nonzero"/></svg>